<?xml version="1.0" encoding="UTF-8" standalone="no"?>
<!-- Created with Inkscape (http://www.inkscape.org/) -->

<svg
   xmlns:dc="http://purl.org/dc/elements/1.1/"
   xmlns:cc="http://creativecommons.org/ns#"
   xmlns:rdf="http://www.w3.org/1999/02/22-rdf-syntax-ns#"
   xmlns:svg="http://www.w3.org/2000/svg"
   xmlns="http://www.w3.org/2000/svg"
   xmlns:sodipodi="http://sodipodi.sourceforge.net/DTD/sodipodi-0.dtd"
   xmlns:inkscape="http://www.inkscape.org/namespaces/inkscape"
   width="453.68185"
   height="162.26501"
   id="svg2"
   version="1.1"
   inkscape:version="0.48.4 r9939"
   sodipodi:docname="bootstrapping-partition-distance.svg">
  <defs
     id="defs4" />
  <sodipodi:namedview
     id="base"
     pagecolor="#ffffff"
     bordercolor="#666666"
     borderopacity="1.0"
     inkscape:pageopacity="0.0"
     inkscape:pageshadow="2"
     inkscape:zoom="2.0360244"
     inkscape:cx="134.66203"
     inkscape:cy="37.099508"
     inkscape:document-units="px"
     inkscape:current-layer="layer1"
     showgrid="false"
     showguides="true"
     inkscape:guide-bbox="true"
     fit-margin-top="0"
     fit-margin-left="0"
     fit-margin-right="0"
     fit-margin-bottom="0"
     inkscape:window-width="1317"
     inkscape:window-height="744"
     inkscape:window-x="49"
     inkscape:window-y="24"
     inkscape:window-maximized="1" />
  <metadata
     id="metadata7">
    <rdf:RDF>
      <cc:Work
         rdf:about="">
        <dc:format>image/svg+xml</dc:format>
        <dc:type
           rdf:resource="http://purl.org/dc/dcmitype/StillImage" />
        <dc:title />
      </cc:Work>
    </rdf:RDF>
  </metadata>
  <g
     inkscape:label="Layer 1"
     inkscape:groupmode="layer"
     id="layer1"
     transform="translate(38.682081,-962.9356)">
    <path
       style="fill:none;stroke:#000000;stroke-width:0.99999994px;stroke-linecap:butt;stroke-linejoin:miter;stroke-opacity:1"
       d="m 0.45647212,1051.8622 399.08705788,0"
       id="path2985"
       inkscape:connector-curvature="0" />
    <path
       sodipodi:type="arc"
       style="fill:#000000;stroke:none"
       id="path2987"
       sodipodi:cx="-33.340588"
       sodipodi:cy="987.07019"
       sodipodi:rx="10.418934"
       sodipodi:ry="10.418934"
       d="m -22.921654,987.07019 a 10.418934,10.418934 0 1 1 -20.837867,0 10.418934,10.418934 0 1 1 20.837867,0 z"
       transform="matrix(0.9597911,0,0,0.9597911,31.999999,104.981)" />
    <path
       transform="matrix(0.9597911,0,0,0.9597911,71.999999,104.981)"
       d="m -22.921654,987.07019 a 10.418934,10.418934 0 1 1 -20.837867,0 10.418934,10.418934 0 1 1 20.837867,0 z"
       sodipodi:ry="10.418934"
       sodipodi:rx="10.418934"
       sodipodi:cy="987.07019"
       sodipodi:cx="-33.340588"
       id="path2989"
       style="fill:#000000;stroke:none"
       sodipodi:type="arc" />
    <path
       sodipodi:type="arc"
       style="fill:#000000;stroke:none"
       id="path2991"
       sodipodi:cx="-33.340588"
       sodipodi:cy="987.07019"
       sodipodi:rx="10.418934"
       sodipodi:ry="10.418934"
       d="m -22.921654,987.07019 a 10.418934,10.418934 0 1 1 -20.837867,0 10.418934,10.418934 0 1 1 20.837867,0 z"
       transform="matrix(0.9597911,0,0,0.9597911,112,104.981)" />
    <path
       sodipodi:type="arc"
       style="fill:#000000;stroke:none"
       id="path3001"
       sodipodi:cx="-33.340588"
       sodipodi:cy="987.07019"
       sodipodi:rx="10.418934"
       sodipodi:ry="10.418934"
       d="m -22.921654,987.07019 c 0,5.75422 -4.664715,10.41893 -10.418934,10.41893 -5.754218,0 -10.418933,-4.66471 -10.418933,-10.41893 0,-5.75422 4.664715,-10.41893 10.418933,-10.41893 5.754219,0 10.418934,4.66471 10.418934,10.41893 z"
       transform="matrix(0.9597911,0,0,0.9597911,312,104.981)" />
    <g
       id="g3123">
      <path
         sodipodi:type="arc"
         style="fill:#000000;stroke:none"
         id="path2993"
         sodipodi:cx="-33.340588"
         sodipodi:cy="987.07019"
         sodipodi:rx="10.418934"
         sodipodi:ry="10.418934"
         d="m -22.921654,987.07019 a 10.418934,10.418934 0 1 1 -20.837867,0 10.418934,10.418934 0 1 1 20.837867,0 z"
         transform="matrix(0.9597911,0,0,0.9597911,152,104.981)" />
      <path
         sodipodi:type="arc"
         style="fill:#000000;stroke:none"
         id="path2995"
         sodipodi:cx="-33.340588"
         sodipodi:cy="987.07019"
         sodipodi:rx="10.418934"
         sodipodi:ry="10.418934"
         d="m -22.921654,987.07019 a 10.418934,10.418934 0 1 1 -20.837867,0 10.418934,10.418934 0 1 1 20.837867,0 z"
         transform="matrix(0.9597911,0,0,0.9597911,192,104.981)" />
    </g>
    <path
       sodipodi:type="arc"
       style="fill:#000000;stroke:none"
       id="path2997"
       sodipodi:cx="-33.340588"
       sodipodi:cy="987.07019"
       sodipodi:rx="10.418934"
       sodipodi:ry="10.418934"
       d="m -22.921654,987.07019 a 10.418934,10.418934 0 1 1 -20.837867,0 10.418934,10.418934 0 1 1 20.837867,0 z"
       transform="matrix(0.9597911,0,0,0.9597911,232,104.981)" />
    <path
       transform="matrix(0.9597911,0,0,0.9597911,272,104.981)"
       d="m -22.921654,987.07019 a 10.418934,10.418934 0 1 1 -20.837867,0 10.418934,10.418934 0 1 1 20.837867,0 z"
       sodipodi:ry="10.418934"
       sodipodi:rx="10.418934"
       sodipodi:cy="987.07019"
       sodipodi:cx="-33.340588"
       id="path2999"
       style="fill:#000000;stroke:none"
       sodipodi:type="arc" />
    <path
       sodipodi:type="arc"
       style="fill:#000000;stroke:none"
       id="path3003"
       sodipodi:cx="-33.340588"
       sodipodi:cy="987.07019"
       sodipodi:rx="10.418934"
       sodipodi:ry="10.418934"
       d="m -22.921654,987.07019 a 10.418934,10.418934 0 1 1 -20.837867,0 10.418934,10.418934 0 1 1 20.837867,0 z"
       transform="matrix(0.9597911,0,0,0.9597911,312,104.981)" />
    <path
       transform="matrix(0.9597911,0,0,0.9597911,352,104.981)"
       d="m -22.921654,987.07019 a 10.418934,10.418934 0 1 1 -20.837867,0 10.418934,10.418934 0 1 1 20.837867,0 z"
       sodipodi:ry="10.418934"
       sodipodi:rx="10.418934"
       sodipodi:cy="987.07019"
       sodipodi:cx="-33.340588"
       id="path3005"
       style="fill:#000000;stroke:none"
       sodipodi:type="arc" />
    <path
       sodipodi:type="arc"
       style="fill:#000000;stroke:none"
       id="path3007"
       sodipodi:cx="-33.340588"
       sodipodi:cy="987.07019"
       sodipodi:rx="10.418934"
       sodipodi:ry="10.418934"
       d="m -22.921654,987.07019 a 10.418934,10.418934 0 1 1 -20.837867,0 10.418934,10.418934 0 1 1 20.837867,0 z"
       transform="matrix(0.9597911,0,0,0.9597911,392,104.981)" />
    <path
       transform="matrix(0.9597911,0,0,0.9597911,432,104.981)"
       d="m -22.921654,987.07019 a 10.418934,10.418934 0 1 1 -20.837867,0 10.418934,10.418934 0 1 1 20.837867,0 z"
       sodipodi:ry="10.418934"
       sodipodi:rx="10.418934"
       sodipodi:cy="987.07019"
       sodipodi:cx="-33.340588"
       id="path3009"
       style="fill:#000000;stroke:none"
       sodipodi:type="arc" />
    <g
       id="g3018"
       style="font-size:55.49389648px;font-style:normal;font-weight:normal;line-height:125%;letter-spacing:0px;word-spacing:0px;fill:#000000;fill-opacity:1;stroke:none;font-family:Sans"
       transform="matrix(0,-1,1,0,59.027198,-5.0982051)">
      <path
         id="path3020"
         style="font-variant:normal;font-weight:500;font-stretch:normal;font-family:URW Palladio L;-inkscape-font-specification:URW Palladio L Medium"
         d="m -1076.6464,-66.75728 c 0,-4.384015 1.1099,-6.104331 4.606,-7.269701 -3.3851,0.05549 -5.0499,0.443952 -6.3263,1.442842 -1.5538,1.276358 -2.2752,3.385131 -2.2752,6.770254 l 0,60.3211097 c 0,3.9955562 -0.9434,5.49389726 -4.2176,6.6037732 3.4406,1.109877 4.2176,2.330749 4.2176,6.770256 l 0,59.3232951 c 0,3.829076 0.6659,5.993343 2.1087,7.269701 1.2209,1.054383 2.8857,1.442841 6.4928,1.498335 -3.3851,-0.943395 -4.606,-2.830193 -4.606,-7.214206 l 0,-59.6007661 c 0,-5.382902 -0.8879,-6.881244 -4.6615,-8.046615 3.6626,-1.10987594 4.6615,-2.663711 4.6615,-7.5471694 l 0,-60.3211085"
         inkscape:connector-curvature="0"
         sodipodi:nodetypes="cccsscssccsscsc" />
    </g>
    <g
       id="g3030"
       style="font-size:55.49389648px;font-style:normal;font-weight:normal;line-height:125%;letter-spacing:0px;word-spacing:0px;fill:#000000;fill-opacity:1;stroke:none;font-family:Sans"
       transform="matrix(0,-1,1,0,209.63154,-5.0982051)">
      <path
         id="path3032"
         style="font-variant:normal;font-weight:500;font-stretch:normal;font-family:URW Palladio L;-inkscape-font-specification:URW Palladio L Medium"
         d="m -1076.6464,-57.361623 c 0,-4.38401 1.1099,-6.10433 4.606,-7.2697 -3.3851,0.0555 -5.0499,0.44395 -6.3263,1.44284 -1.5538,1.27636 -2.2752,3.38513 -2.2752,6.77026 l 0,120.32141 c 0,3.99556 -0.9434,5.4939 -4.2176,6.60377 3.4406,1.10988 4.2176,2.33075 4.2176,6.77026 l 0,119.322993 c 0,3.82907 0.6659,5.99334 2.1087,7.2697 1.2209,1.05438 2.8857,1.44284 6.4928,1.49833 -3.3851,-0.94339 -4.606,-2.83019 -4.606,-7.2142 l 0,-119.600463 c 0,-5.3829 -0.8879,-6.88124 -4.6615,-8.04662 3.6626,-1.10987 4.6615,-2.66371 4.6615,-7.54716 l 0,-120.32142"
         inkscape:connector-curvature="0"
         sodipodi:nodetypes="cccsscssccsscsc" />
    </g>
    <text
       sodipodi:linespacing="125%"
       id="text3063"
       y="1125.0806"
       x="265.45999"
       style="font-size:40px;font-style:normal;font-weight:normal;line-height:125%;letter-spacing:0px;word-spacing:0px;fill:#000000;fill-opacity:1;stroke:none;font-family:Sans"
       xml:space="preserve"><tspan
         style="font-style:italic;font-variant:normal;font-weight:normal;font-stretch:normal;font-family:URW Palladio L;-inkscape-font-specification:URW Palladio L Italic"
         y="1125.0806"
         x="265.45999"
         id="tspan3065"
         sodipodi:role="line">Y</tspan></text>
    <text
       xml:space="preserve"
       style="font-size:40px;font-style:normal;font-weight:normal;line-height:125%;letter-spacing:0px;word-spacing:0px;fill:#000000;fill-opacity:1;stroke:none;font-family:Sans"
       x="59.200001"
       y="1124.8806"
       id="text3067"
       sodipodi:linespacing="125%"><tspan
         sodipodi:role="line"
         id="tspan3069"
         x="59.200001"
         y="1124.8806"
         style="font-style:italic;font-variant:normal;font-weight:normal;font-stretch:normal;text-align:center;text-anchor:middle;font-family:URW Palladio L;-inkscape-font-specification:URW Palladio L Italic">W</tspan></text>
    <g
       transform="matrix(0,1,1,0,59.026899,2101.7908)"
       style="font-size:55.49389648px;font-style:normal;font-weight:normal;line-height:125%;letter-spacing:0px;word-spacing:0px;fill:#000000;fill-opacity:1;stroke:none;font-family:Sans"
       id="g3165">
      <path
         sodipodi:nodetypes="cccscsccscc"
         inkscape:connector-curvature="0"
         d="m -1076.6464,53.242874 c 0,-4.384015 1.1099,-6.104331 4.606,-7.269701 -3.3851,0.05549 -5.0499,0.443952 -6.3263,1.442842 -1.5538,1.276358 -2.2752,3.385131 -2.2752,6.770254 l 0,26.007518 0,27.011213 c 0,3.82907 0.6659,5.99334 2.1087,7.2697 1.2209,1.05438 2.8857,1.44284 6.4928,1.49833 -3.3851,-0.94339 -4.606,-2.83019 -4.606,-7.2142 l 0,-28.398562 0,-27.117394"
         style="font-variant:normal;font-weight:500;font-stretch:normal;font-family:URW Palladio L;-inkscape-font-specification:URW Palladio L Medium"
         id="path3167" />
    </g>
    <text
       sodipodi:linespacing="125%"
       id="text3175"
       y="1030.4285"
       x="89.406212"
       style="font-size:16.8539753px;font-style:normal;font-weight:normal;line-height:125%;letter-spacing:0px;word-spacing:0px;fill:#000000;fill-opacity:1;stroke:none;font-family:Sans"
       xml:space="preserve"><tspan
         style="font-style:italic;font-variant:normal;font-weight:normal;font-stretch:normal;text-align:center;text-anchor:middle;font-family:URW Palladio L;-inkscape-font-specification:URW Palladio L Italic"
         y="1030.4285"
         x="89.406212"
         id="tspan3177"
         sodipodi:role="line">Ω<tspan
   style="font-style:normal"
   id="tspan3179">₁</tspan></tspan></text>
    <g
       id="g3181"
       style="font-size:55.49389648px;font-style:normal;font-weight:normal;line-height:125%;letter-spacing:0px;word-spacing:0px;fill:#000000;fill-opacity:1;stroke:none;font-family:Sans"
       transform="matrix(0,1,1,0,54.026899,2084.8196)">
      <path
         id="path3183"
         style="font-variant:normal;font-weight:500;font-stretch:normal;font-family:URW Palladio L;-inkscape-font-specification:URW Palladio L Medium"
         d="m -1076.6464,23.242874 c 0,-4.384015 1.1099,-6.104331 4.606,-7.269701 -3.3851,0.05549 -5.0499,0.443952 -6.3263,1.442842 -1.5538,1.276358 -2.2752,3.385131 -2.2752,6.770254 l 0,90.007521 0,33.01121 c 0,3.82907 0.6659,5.99334 2.1087,7.2697 1.2209,1.05438 2.8857,1.44284 6.4928,1.49833 -3.3851,-0.94339 -4.606,-2.83019 -4.606,-7.2142 l 0,-34.39856 0,-91.117396"
         inkscape:connector-curvature="0"
         sodipodi:nodetypes="cccscsccscc" />
    </g>
    <text
       xml:space="preserve"
       style="font-size:16.8539753px;font-style:normal;font-weight:normal;line-height:125%;letter-spacing:0px;word-spacing:0px;fill:#000000;fill-opacity:1;stroke:none;font-family:Sans"
       x="54.406216"
       y="1013.4532"
       id="text3185"
       sodipodi:linespacing="125%"><tspan
         sodipodi:role="line"
         id="tspan3187"
         x="54.406216"
         y="1013.4532"
         style="font-style:italic;font-variant:normal;font-weight:normal;font-stretch:normal;text-align:center;text-anchor:middle;font-family:URW Palladio L;-inkscape-font-specification:URW Palladio L Italic">Ω<tspan
   style="font-style:normal"
   id="tspan3191">₂</tspan></tspan></text>
    <g
       transform="matrix(0,1,1,0,49.026899,2067.7908)"
       style="font-size:55.49389648px;font-style:normal;font-weight:normal;line-height:125%;letter-spacing:0px;word-spacing:0px;fill:#000000;fill-opacity:1;stroke:none;font-family:Sans"
       id="g3193">
      <path
         sodipodi:nodetypes="cccsccsccsccc"
         inkscape:connector-curvature="0"
         d="m -1076.6464,-6.757126 c 0,-4.384015 1.1099,-6.104331 4.606,-7.269701 -3.3851,0.05549 -5.0499,0.443952 -6.3263,1.442842 -1.5538,1.276358 -2.2752,3.385131 -2.2752,6.770254 l 0,87.320504 0,13.374029 0,92.324198 c 0,3.82907 0.6659,5.99334 2.1087,7.2697 1.2209,1.05438 2.8857,1.44284 6.4928,1.49833 -3.3851,-0.94339 -4.606,-2.83019 -4.606,-7.2142 l 0,-92.601669 0,-15.593785 0,-87.320502"
         style="font-variant:normal;font-weight:500;font-stretch:normal;font-family:URW Palladio L;-inkscape-font-specification:URW Palladio L Medium"
         id="path3195" />
    </g>
    <text
       sodipodi:linespacing="125%"
       id="text3197"
       y="996.42438"
       x="19.406216"
       style="font-size:16.8539753px;font-style:normal;font-weight:normal;line-height:125%;letter-spacing:0px;word-spacing:0px;fill:#000000;fill-opacity:1;stroke:none;font-family:Sans"
       xml:space="preserve"><tspan
         style="font-style:italic;font-variant:normal;font-weight:normal;font-stretch:normal;text-align:center;text-anchor:middle;font-family:URW Palladio L;-inkscape-font-specification:URW Palladio L Italic"
         y="996.42438"
         x="19.406216"
         id="tspan3199"
         sodipodi:role="line">Ω<tspan
   id="tspan3201"
   style="font-style:normal">₃</tspan></tspan></text>
    <text
       xml:space="preserve"
       style="font-size:19.45939636px;font-style:normal;font-weight:normal;line-height:125%;letter-spacing:0px;word-spacing:0px;fill:#000000;fill-opacity:1;stroke:none;font-family:Sans"
       x="-980.27393"
       y="141.03134"
       id="text3224"
       sodipodi:linespacing="125%"
       transform="matrix(0,-1,1,0,0,0)"><tspan
         sodipodi:role="line"
         id="tspan3226"
         x="-980.27393"
         y="141.03134"
         style="font-style:normal;font-variant:normal;font-weight:500;font-stretch:normal;font-family:URW Palladio L;-inkscape-font-specification:URW Palladio L Medium">…</tspan></text>
  </g>
</svg>
