<?xml version="1.0" encoding="UTF-8" standalone="no"?>
<!-- Created with Inkscape (http://www.inkscape.org/) -->

<svg
   xmlns:dc="http://purl.org/dc/elements/1.1/"
   xmlns:cc="http://creativecommons.org/ns#"
   xmlns:rdf="http://www.w3.org/1999/02/22-rdf-syntax-ns#"
   xmlns:svg="http://www.w3.org/2000/svg"
   xmlns="http://www.w3.org/2000/svg"
   xmlns:xlink="http://www.w3.org/1999/xlink"
   xmlns:sodipodi="http://sodipodi.sourceforge.net/DTD/sodipodi-0.dtd"
   xmlns:inkscape="http://www.inkscape.org/namespaces/inkscape"
   width="518.47937"
   height="364.98846"
   id="svg10375"
   version="1.1"
   inkscape:version="0.91 r13725"
   sodipodi:docname="qbs-lightcones.svg"
   inkscape:export-xdpi="392.75"
   inkscape:export-ydpi="392.75">
  <sodipodi:namedview
     id="base"
     pagecolor="#ffffff"
     bordercolor="#666666"
     borderopacity="1.0"
     inkscape:pageopacity="0.0"
     inkscape:pageshadow="2"
     inkscape:zoom="1.8689131"
     inkscape:cx="204.36916"
     inkscape:cy="166.13631"
     inkscape:document-units="px"
     inkscape:current-layer="layer1"
     showgrid="false"
     showguides="true"
     inkscape:guide-bbox="true"
     inkscape:window-width="1440"
     inkscape:window-height="897"
     inkscape:window-x="-8"
     inkscape:window-y="-8"
     inkscape:window-maximized="1"
     fit-margin-top="0"
     fit-margin-left="0"
     fit-margin-right="0"
     fit-margin-bottom="0" />
  <defs
     id="defs10377">
    <marker
       inkscape:stockid="Arrow1Mend"
       orient="auto"
       refY="0"
       refX="0"
       id="Arrow1Mend"
       style="overflow:visible">
      <path
         id="path11222"
         d="M 0,0 5,-5 -12.5,0 5,5 0,0 z"
         style="fill-rule:evenodd;stroke:#000000;stroke-width:1pt"
         transform="matrix(-0.4,0,0,-0.4,-4,0)"
         inkscape:connector-curvature="0" />
    </marker>
    <marker
       inkscape:stockid="Arrow1Mstart"
       orient="auto"
       refY="0"
       refX="0"
       id="Arrow1Mstart"
       style="overflow:visible">
      <path
         id="path11219"
         d="M 0,0 5,-5 -12.5,0 5,5 0,0 z"
         style="fill-rule:evenodd;stroke:#000000;stroke-width:1pt"
         transform="matrix(0.4,0,0,0.4,4,0)"
         inkscape:connector-curvature="0" />
    </marker>
    <linearGradient
       id="linearGradient11998">
      <stop
         style="stop-color:#6fd36c;stop-opacity:1;"
         offset="0"
         id="stop12000" />
      <stop
         id="stop12006"
         offset="0.40000001"
         style="stop-color:#6fd36c;stop-opacity:1;" />
      <stop
         style="stop-color:#6ccbd3;stop-opacity:1;"
         offset="0.60000002"
         id="stop12008" />
      <stop
         style="stop-color:#6ccbd3;stop-opacity:1;"
         offset="1"
         id="stop12002" />
    </linearGradient>
    <marker
       inkscape:stockid="Arrow1Send"
       orient="auto"
       refY="0"
       refX="0"
       id="Arrow1Send"
       style="overflow:visible">
      <path
         id="path11228"
         d="M 0,0 5,-5 -12.5,0 5,5 0,0 z"
         style="fill-rule:evenodd;stroke:#000000;stroke-width:1pt"
         transform="matrix(-0.2,0,0,-0.2,-1.2,0)"
         inkscape:connector-curvature="0" />
    </marker>
    <marker
       inkscape:stockid="Arrow1Sstart"
       orient="auto"
       refY="0"
       refX="0"
       id="Arrow1Sstart"
       style="overflow:visible">
      <path
         id="path11225"
         d="M 0,0 5,-5 -12.5,0 5,5 0,0 z"
         style="fill-rule:evenodd;stroke:#000000;stroke-width:1pt"
         transform="matrix(0.2,0,0,0.2,1.2,0)"
         inkscape:connector-curvature="0" />
    </marker>
    <linearGradient
       id="linearGradient11998-9">
      <stop
         style="stop-color:#6fd36c;stop-opacity:1;"
         offset="0"
         id="stop12000-1" />
      <stop
         id="stop12006-8"
         offset="0.40000001"
         style="stop-color:#6fd36c;stop-opacity:1;" />
      <stop
         style="stop-color:#6ccbd3;stop-opacity:1;"
         offset="0.60000002"
         id="stop12008-6" />
      <stop
         style="stop-color:#6ccbd3;stop-opacity:1;"
         offset="1"
         id="stop12002-8" />
    </linearGradient>
    <marker
       inkscape:stockid="Arrow1Mstart"
       orient="auto"
       refY="0"
       refX="0"
       id="Arrow1Mstart-9"
       style="overflow:visible">
      <path
         inkscape:connector-curvature="0"
         id="path11219-7"
         d="M 0,0 5,-5 -12.5,0 5,5 0,0 z"
         style="fill-rule:evenodd;stroke:#000000;stroke-width:1pt"
         transform="matrix(0.4,0,0,0.4,4,0)" />
    </marker>
    <marker
       inkscape:stockid="Arrow1Mend"
       orient="auto"
       refY="0"
       refX="0"
       id="Arrow1Mend-3"
       style="overflow:visible">
      <path
         inkscape:connector-curvature="0"
         id="path11222-6"
         d="M 0,0 5,-5 -12.5,0 5,5 0,0 z"
         style="fill-rule:evenodd;stroke:#000000;stroke-width:1pt"
         transform="matrix(-0.4,0,0,-0.4,-4,0)" />
    </marker>
    <marker
       inkscape:stockid="Arrow1Mstart"
       orient="auto"
       refY="0"
       refX="0"
       id="marker15683"
       style="overflow:visible">
      <path
         inkscape:connector-curvature="0"
         id="path15685"
         d="M 0,0 5,-5 -12.5,0 5,5 0,0 z"
         style="fill-rule:evenodd;stroke:#000000;stroke-width:1pt"
         transform="matrix(0.4,0,0,0.4,4,0)" />
    </marker>
    <marker
       inkscape:stockid="Arrow1Mend"
       orient="auto"
       refY="0"
       refX="0"
       id="marker15687"
       style="overflow:visible">
      <path
         inkscape:connector-curvature="0"
         id="path15689"
         d="M 0,0 5,-5 -12.5,0 5,5 0,0 z"
         style="fill-rule:evenodd;stroke:#000000;stroke-width:1pt"
         transform="matrix(-0.4,0,0,-0.4,-4,0)" />
    </marker>
    <linearGradient
       inkscape:collect="always"
       xlink:href="#linearGradient11998-9"
       id="linearGradient17031"
       gradientUnits="userSpaceOnUse"
       gradientTransform="matrix(0.94711207,0,0,1.0350082,-83.450184,-829.22836)"
       x1="305.00003"
       y1="1051.5167"
       x2="305.00003"
       y2="803.20709" />
    <linearGradient
       inkscape:collect="always"
       xlink:href="#linearGradient11998-9"
       id="linearGradient17146"
       gradientUnits="userSpaceOnUse"
       gradientTransform="matrix(0.94711207,0,0,1.0350082,-83.450184,-829.22836)"
       x1="305.00003"
       y1="1051.5167"
       x2="305.00003"
       y2="803.20709" />
  </defs>
  <metadata
     id="metadata10380">
    <rdf:RDF>
      <cc:Work
         rdf:about="">
        <dc:format>image/svg+xml</dc:format>
        <dc:type
           rdf:resource="http://purl.org/dc/dcmitype/StillImage" />
        <dc:title></dc:title>
      </cc:Work>
    </rdf:RDF>
  </metadata>
  <g
     inkscape:label="Layer 1"
     inkscape:groupmode="layer"
     id="layer1"
     transform="translate(-56.092999,-766.91647)">
    <g
       id="g11013"
       inkscape:export-filename="/home/cgranade/tmp/path14074.png"
       inkscape:export-xdpi="199.90884"
       inkscape:export-ydpi="199.90884" />
    <g
       id="g11089"
       transform="translate(0,-59.999963)"
       inkscape:export-filename="/home/cgranade/tmp/path14074.png"
       inkscape:export-xdpi="199.90884"
       inkscape:export-ydpi="199.90884" />
    <g
       id="g17086"
       transform="translate(19.576199,-1.64941)">
      <g
         transform="translate(0,-1.0052297)"
         id="g17034">
        <rect
           ry="20"
           rx="20"
           y="936.76318"
           x="100.581"
           height="121.19795"
           width="408.83899"
           id="rect15813"
           style="fill:#dcdcdc;fill-opacity:1;stroke:#000000;stroke-width:2;stroke-linecap:square;stroke-miterlimit:4;stroke-opacity:1;stroke-dasharray:2, 3.99999999;stroke-dashoffset:0" />
        <rect
           style="fill:#dcdcdc;fill-opacity:1;stroke:#000000;stroke-width:2;stroke-linecap:square;stroke-miterlimit:4;stroke-opacity:1;stroke-dasharray:2, 4;stroke-dashoffset:0"
           id="rect15786"
           width="328.83856"
           height="121.19795"
           x="140.58073"
           y="796.76318"
           rx="20"
           ry="20" />
      </g>
      <path
         inkscape:connector-curvature="0"
         id="path11097"
         transform="translate(99.581001,795.76318)"
         d="m 127.28125,1.21875 -74.25,119.34375 c 2.435431,1.05108 5.138907,1.625 7.96875,1.625 l 288.84375,0 c 2.84471,0 5.5232,-0.59469 7.96875,-1.65625 l -74.25,-119.3125 -156.28125,0 z M 54.78125,141 l 91.4375,118.96875 118.40625,0 L 356.0625,141 54.78125,141 z"
         style="fill:url(#linearGradient17146);fill-opacity:1;stroke:none" />
      <path
         inkscape:export-ydpi="199.90884"
         inkscape:export-xdpi="199.90884"
         inkscape:export-filename="/home/cgranade/tmp/path14074.png"
         id="path14268"
         style="fill:none;stroke:#000000;stroke-width:2;stroke-miterlimit:4;stroke-opacity:1;stroke-dasharray:none;marker-mid:url(#Arrow1Mstart)"
         d="M 226.86325,796.98635 186.611,861.67432 146.35875,926.36229"
         inkscape:connector-curvature="0"
         sodipodi:nodetypes="ccc" />
      <path
         inkscape:export-ydpi="199.90884"
         inkscape:export-xdpi="199.90884"
         inkscape:export-filename="/home/cgranade/tmp/path14074.png"
         sodipodi:nodetypes="ccc"
         inkscape:connector-curvature="0"
         d="m 364.19452,1055.7382 49.72336,-64.68794 49.72337,-64.68797"
         style="fill:none;stroke:#000000;stroke-width:2;stroke-miterlimit:4;stroke-opacity:1;stroke-dasharray:none;marker-mid:url(#Arrow1Mend)"
         id="path14270" />
      <path
         inkscape:export-ydpi="199.90884"
         inkscape:export-xdpi="199.90884"
         inkscape:export-filename="/home/cgranade/tmp/path14074.png"
         id="path14462"
         style="fill:none;stroke:#000000;stroke-width:2;stroke-miterlimit:4;stroke-opacity:1;stroke-dasharray:none;marker-mid:url(#Arrow1Mstart)"
         d="m 146.35875,926.36229 49.72336,64.68797 49.72336,64.68794"
         inkscape:connector-curvature="0"
         sodipodi:nodetypes="ccc" />
      <path
         inkscape:export-ydpi="199.90884"
         inkscape:export-xdpi="199.90884"
         inkscape:export-filename="/home/cgranade/tmp/path14074.png"
         sodipodi:nodetypes="ccc"
         inkscape:connector-curvature="0"
         d="M 463.64125,926.36229 423.38899,861.67432 383.13674,796.98635"
         style="fill:none;stroke:#000000;stroke-width:2;stroke-miterlimit:4;stroke-opacity:1;stroke-dasharray:none;marker-mid:url(#Arrow1Mend)"
         id="path14654" />
      <path
         inkscape:export-ydpi="199.90884"
         inkscape:export-xdpi="199.90884"
         inkscape:export-filename="/home/cgranade/tmp/path14074.png"
         id="path15220"
         style="fill:none;stroke:#000000;stroke-width:2;stroke-miterlimit:4;stroke-opacity:1;stroke-dasharray:none"
         d="m 226.86325,796.98635 -80.5045,129.37594 0,0 99.44672,129.37591 m 118.38905,0 99.44673,-129.37591 -80.50451,-129.37594"
         inkscape:connector-curvature="0"
         sodipodi:nodetypes="ccccccc" />
      <path
         inkscape:export-ydpi="199.90884"
         inkscape:export-xdpi="199.90884"
         inkscape:export-filename="/home/cgranade/tmp/path14074.png"
         sodipodi:type="arc"
         style="fill:#000000;fill-opacity:1;stroke:none"
         id="path10907"
         sodipodi:cx="98.160843"
         sodipodi:cy="95.076805"
         sodipodi:rx="13.89888"
         sodipodi:ry="13.89888"
         d="M 112.05972,95.076805 A 13.89888,13.89888 0 0 1 98.160843,108.97569 13.89888,13.89888 0 0 1 84.261963,95.076805 13.89888,13.89888 0 0 1 98.160843,81.177925 13.89888,13.89888 0 0 1 112.05972,95.076805 Z"
         transform="matrix(0.35974122,0,0,0.35974122,169.6875,1013.1591)" />
      <path
         inkscape:export-ydpi="199.90884"
         inkscape:export-xdpi="199.90884"
         inkscape:export-filename="/home/cgranade/tmp/path14074.png"
         transform="matrix(0.35974122,0,0,0.35974122,129.6875,1013.1591)"
         d="M 112.05972,95.076805 A 13.89888,13.89888 0 0 1 98.160843,108.97569 13.89888,13.89888 0 0 1 84.261963,95.076805 13.89888,13.89888 0 0 1 98.160843,81.177925 13.89888,13.89888 0 0 1 112.05972,95.076805 Z"
         sodipodi:ry="13.89888"
         sodipodi:rx="13.89888"
         sodipodi:cy="95.076805"
         sodipodi:cx="98.160843"
         id="path10909"
         style="fill:#000000;fill-opacity:1;stroke:none"
         sodipodi:type="arc" />
      <g
         inkscape:export-ydpi="199.90884"
         inkscape:export-xdpi="199.90884"
         inkscape:export-filename="/home/cgranade/tmp/path14074.png"
         id="g11001">
        <path
           sodipodi:type="arc"
           style="fill:#000000;fill-opacity:1;stroke:none"
           id="path10911"
           sodipodi:cx="98.160843"
           sodipodi:cy="95.076805"
           sodipodi:rx="13.89888"
           sodipodi:ry="13.89888"
           d="M 112.05972,95.076805 A 13.89888,13.89888 0 0 1 98.160843,108.97569 13.89888,13.89888 0 0 1 84.261963,95.076805 13.89888,13.89888 0 0 1 98.160843,81.177925 13.89888,13.89888 0 0 1 112.05972,95.076805 Z"
           transform="matrix(0.35974122,0,0,0.35974122,209.6875,1013.1591)" />
        <path
           transform="matrix(0.35974122,0,0,0.35974122,249.6875,1013.1591)"
           d="M 112.05972,95.076805 A 13.89888,13.89888 0 0 1 98.160843,108.97569 13.89888,13.89888 0 0 1 84.261963,95.076805 13.89888,13.89888 0 0 1 98.160843,81.177925 13.89888,13.89888 0 0 1 112.05972,95.076805 Z"
           sodipodi:ry="13.89888"
           sodipodi:rx="13.89888"
           sodipodi:cy="95.076805"
           sodipodi:cx="98.160843"
           id="path10913"
           style="fill:#000000;fill-opacity:1;stroke:none"
           sodipodi:type="arc" />
        <path
           transform="matrix(0.35974122,0,0,0.35974122,329.6875,1013.1591)"
           d="M 112.05972,95.076805 A 13.89888,13.89888 0 0 1 98.160843,108.97569 13.89888,13.89888 0 0 1 84.261963,95.076805 13.89888,13.89888 0 0 1 98.160843,81.177925 13.89888,13.89888 0 0 1 112.05972,95.076805 Z"
           sodipodi:ry="13.89888"
           sodipodi:rx="13.89888"
           sodipodi:cy="95.076805"
           sodipodi:cx="98.160843"
           id="path10935"
           style="fill:#000000;fill-opacity:1;stroke:none"
           sodipodi:type="arc" />
        <path
           sodipodi:type="arc"
           style="fill:#000000;fill-opacity:1;stroke:none"
           id="path10937"
           sodipodi:cx="98.160843"
           sodipodi:cy="95.076805"
           sodipodi:rx="13.89888"
           sodipodi:ry="13.89888"
           d="M 112.05972,95.076805 A 13.89888,13.89888 0 0 1 98.160843,108.97569 13.89888,13.89888 0 0 1 84.261963,95.076805 13.89888,13.89888 0 0 1 98.160843,81.177925 13.89888,13.89888 0 0 1 112.05972,95.076805 Z"
           transform="matrix(0.35974122,0,0,0.35974122,289.6875,1013.1591)" />
      </g>
      <path
         inkscape:export-ydpi="199.90884"
         inkscape:export-xdpi="199.90884"
         inkscape:export-filename="/home/cgranade/tmp/path14074.png"
         transform="matrix(0.35974122,0,0,0.35974122,369.6875,1013.1591)"
         d="M 112.05972,95.076805 A 13.89888,13.89888 0 0 1 98.160843,108.97569 13.89888,13.89888 0 0 1 84.261963,95.076805 13.89888,13.89888 0 0 1 98.160843,81.177925 13.89888,13.89888 0 0 1 112.05972,95.076805 Z"
         sodipodi:ry="13.89888"
         sodipodi:rx="13.89888"
         sodipodi:cy="95.076805"
         sodipodi:cx="98.160843"
         id="path10939"
         style="fill:#000000;fill-opacity:1;stroke:none"
         sodipodi:type="arc" />
      <path
         inkscape:export-ydpi="199.90884"
         inkscape:export-xdpi="199.90884"
         inkscape:export-filename="/home/cgranade/tmp/path14074.png"
         sodipodi:type="arc"
         style="fill:#000000;fill-opacity:1;stroke:none"
         id="path10941"
         sodipodi:cx="98.160843"
         sodipodi:cy="95.076805"
         sodipodi:rx="13.89888"
         sodipodi:ry="13.89888"
         d="M 112.05972,95.076805 A 13.89888,13.89888 0 0 1 98.160843,108.97569 13.89888,13.89888 0 0 1 84.261963,95.076805 13.89888,13.89888 0 0 1 98.160843,81.177925 13.89888,13.89888 0 0 1 112.05972,95.076805 Z"
         transform="matrix(0.35974122,0,0,0.35974122,409.6875,1013.1591)" />
      <path
         inkscape:export-ydpi="199.90884"
         inkscape:export-xdpi="199.90884"
         inkscape:export-filename="/home/cgranade/tmp/path14074.png"
         sodipodi:type="arc"
         style="fill:#000000;fill-opacity:1;stroke:none"
         id="path10945"
         sodipodi:cx="98.160843"
         sodipodi:cy="95.076805"
         sodipodi:rx="13.89888"
         sodipodi:ry="13.89888"
         d="M 112.05972,95.076805 A 13.89888,13.89888 0 0 1 98.160843,108.97569 13.89888,13.89888 0 0 1 84.261963,95.076805 13.89888,13.89888 0 0 1 98.160843,81.177925 13.89888,13.89888 0 0 1 112.05972,95.076805 Z"
         transform="matrix(0.35974122,0,0,0.35974122,449.6875,1013.1591)" />
      <path
         inkscape:export-ydpi="199.90884"
         inkscape:export-xdpi="199.90884"
         inkscape:export-filename="/home/cgranade/tmp/path14074.png"
         transform="matrix(0.35974122,0,0,0.35974122,89.687499,1013.1591)"
         d="M 112.05972,95.076805 A 13.89888,13.89888 0 0 1 98.160843,108.97569 13.89888,13.89888 0 0 1 84.261963,95.076805 13.89888,13.89888 0 0 1 98.160843,81.177925 13.89888,13.89888 0 0 1 112.05972,95.076805 Z"
         sodipodi:ry="13.89888"
         sodipodi:rx="13.89888"
         sodipodi:cy="95.076805"
         sodipodi:cx="98.160843"
         id="path10897"
         style="fill:#000000;fill-opacity:1;stroke:none"
         sodipodi:type="arc" />
      <path
         sodipodi:type="arc"
         style="fill:#000000;fill-opacity:1;stroke:none"
         id="path11061"
         sodipodi:cx="98.160843"
         sodipodi:cy="95.076805"
         sodipodi:rx="13.89888"
         sodipodi:ry="13.89888"
         d="M 112.05972,95.076805 A 13.89888,13.89888 0 0 1 98.160843,108.97569 13.89888,13.89888 0 0 1 84.261963,95.076805 13.89888,13.89888 0 0 1 98.160843,81.177925 13.89888,13.89888 0 0 1 112.05972,95.076805 Z"
         transform="matrix(0.35974122,0,0,0.35974122,89.687499,913.15913)" />
      <path
         transform="matrix(0.35974122,0,0,0.35974122,169.6875,913.15913)"
         d="M 112.05972,95.076805 A 13.89888,13.89888 0 0 1 98.160843,108.97569 13.89888,13.89888 0 0 1 84.261963,95.076805 13.89888,13.89888 0 0 1 98.160843,81.177925 13.89888,13.89888 0 0 1 112.05972,95.076805 Z"
         sodipodi:ry="13.89888"
         sodipodi:rx="13.89888"
         sodipodi:cy="95.076805"
         sodipodi:cx="98.160843"
         id="path11063"
         style="fill:#000000;fill-opacity:1;stroke:none"
         sodipodi:type="arc" />
      <path
         sodipodi:type="arc"
         style="fill:#000000;fill-opacity:1;stroke:none"
         id="path11065"
         sodipodi:cx="98.160843"
         sodipodi:cy="95.076805"
         sodipodi:rx="13.89888"
         sodipodi:ry="13.89888"
         d="M 112.05972,95.076805 A 13.89888,13.89888 0 0 1 98.160843,108.97569 13.89888,13.89888 0 0 1 84.261963,95.076805 13.89888,13.89888 0 0 1 98.160843,81.177925 13.89888,13.89888 0 0 1 112.05972,95.076805 Z"
         transform="matrix(0.35974122,0,0,0.35974122,129.6875,913.15913)" />
      <path
         sodipodi:type="arc"
         style="fill:#000000;fill-opacity:1;stroke:none"
         id="path11069"
         sodipodi:cx="98.160843"
         sodipodi:cy="95.076805"
         sodipodi:rx="13.89888"
         sodipodi:ry="13.89888"
         d="M 112.05972,95.076805 A 13.89888,13.89888 0 0 1 98.160843,108.97569 13.89888,13.89888 0 0 1 84.261963,95.076805 13.89888,13.89888 0 0 1 98.160843,81.177925 13.89888,13.89888 0 0 1 112.05972,95.076805 Z"
         transform="matrix(0.35974122,0,0,0.35974122,209.6875,913.15914)" />
      <path
         transform="matrix(0.35974122,0,0,0.35974122,249.6875,913.15914)"
         d="M 112.05972,95.076805 A 13.89888,13.89888 0 0 1 98.160843,108.97569 13.89888,13.89888 0 0 1 84.261963,95.076805 13.89888,13.89888 0 0 1 98.160843,81.177925 13.89888,13.89888 0 0 1 112.05972,95.076805 Z"
         sodipodi:ry="13.89888"
         sodipodi:rx="13.89888"
         sodipodi:cy="95.076805"
         sodipodi:cx="98.160843"
         id="path11071"
         style="fill:#000000;fill-opacity:1;stroke:none"
         sodipodi:type="arc" />
      <path
         transform="matrix(0.35974122,0,0,0.35974122,329.6875,913.15914)"
         d="M 112.05972,95.076805 A 13.89888,13.89888 0 0 1 98.160843,108.97569 13.89888,13.89888 0 0 1 84.261963,95.076805 13.89888,13.89888 0 0 1 98.160843,81.177925 13.89888,13.89888 0 0 1 112.05972,95.076805 Z"
         sodipodi:ry="13.89888"
         sodipodi:rx="13.89888"
         sodipodi:cy="95.076805"
         sodipodi:cx="98.160843"
         id="path11073"
         style="fill:#000000;fill-opacity:1;stroke:none"
         sodipodi:type="arc" />
      <path
         sodipodi:type="arc"
         style="fill:#000000;fill-opacity:1;stroke:none"
         id="path11075"
         sodipodi:cx="98.160843"
         sodipodi:cy="95.076805"
         sodipodi:rx="13.89888"
         sodipodi:ry="13.89888"
         d="M 112.05972,95.076805 A 13.89888,13.89888 0 0 1 98.160843,108.97569 13.89888,13.89888 0 0 1 84.261963,95.076805 13.89888,13.89888 0 0 1 98.160843,81.177925 13.89888,13.89888 0 0 1 112.05972,95.076805 Z"
         transform="matrix(0.35974122,0,0,0.35974122,289.6875,913.15914)" />
      <path
         sodipodi:type="arc"
         style="fill:#000000;fill-opacity:1;stroke:none"
         id="path11077"
         sodipodi:cx="98.160843"
         sodipodi:cy="95.076805"
         sodipodi:rx="13.89888"
         sodipodi:ry="13.89888"
         d="M 112.05972,95.076805 A 13.89888,13.89888 0 0 1 98.160843,108.97569 13.89888,13.89888 0 0 1 84.261963,95.076805 13.89888,13.89888 0 0 1 98.160843,81.177925 13.89888,13.89888 0 0 1 112.05972,95.076805 Z"
         transform="matrix(0.35974122,0,0,0.35974122,369.6875,913.15913)" />
      <path
         transform="matrix(0.35974122,0,0,0.35974122,409.6875,913.15913)"
         d="M 112.05972,95.076805 A 13.89888,13.89888 0 0 1 98.160843,108.97569 13.89888,13.89888 0 0 1 84.261963,95.076805 13.89888,13.89888 0 0 1 98.160843,81.177925 13.89888,13.89888 0 0 1 112.05972,95.076805 Z"
         sodipodi:ry="13.89888"
         sodipodi:rx="13.89888"
         sodipodi:cy="95.076805"
         sodipodi:cx="98.160843"
         id="path11079"
         style="fill:#000000;fill-opacity:1;stroke:none"
         sodipodi:type="arc" />
      <path
         transform="matrix(0.35974122,0,0,0.35974122,449.6875,913.15913)"
         d="M 112.05972,95.076805 A 13.89888,13.89888 0 0 1 98.160843,108.97569 13.89888,13.89888 0 0 1 84.261963,95.076805 13.89888,13.89888 0 0 1 98.160843,81.177925 13.89888,13.89888 0 0 1 112.05972,95.076805 Z"
         sodipodi:ry="13.89888"
         sodipodi:rx="13.89888"
         sodipodi:cy="95.076805"
         sodipodi:cx="98.160843"
         id="path11083"
         style="fill:#000000;fill-opacity:1;stroke:none"
         sodipodi:type="arc" />
      <path
         sodipodi:type="arc"
         style="fill:#000000;fill-opacity:1;stroke:none"
         id="path11128"
         sodipodi:cx="98.160843"
         sodipodi:cy="95.076805"
         sodipodi:rx="13.89888"
         sodipodi:ry="13.89888"
         d="M 112.05972,95.076805 A 13.89888,13.89888 0 0 1 98.160843,108.97569 13.89888,13.89888 0 0 1 84.261963,95.076805 13.89888,13.89888 0 0 1 98.160843,81.177925 13.89888,13.89888 0 0 1 112.05972,95.076805 Z"
         transform="matrix(0.35974122,0,0,0.35974122,169.6875,873.15913)" />
      <path
         transform="matrix(0.35974122,0,0,0.35974122,129.6875,873.15913)"
         d="M 112.05972,95.076805 A 13.89888,13.89888 0 0 1 98.160843,108.97569 13.89888,13.89888 0 0 1 84.261963,95.076805 13.89888,13.89888 0 0 1 98.160843,81.177925 13.89888,13.89888 0 0 1 112.05972,95.076805 Z"
         sodipodi:ry="13.89888"
         sodipodi:rx="13.89888"
         sodipodi:cy="95.076805"
         sodipodi:cx="98.160843"
         id="path11130"
         style="fill:#000000;fill-opacity:1;stroke:none"
         sodipodi:type="arc" />
      <g
         id="g11132"
         transform="translate(0,-139.99996)">
        <path
           sodipodi:type="arc"
           style="fill:#000000;fill-opacity:1;stroke:none"
           id="path11134"
           sodipodi:cx="98.160843"
           sodipodi:cy="95.076805"
           sodipodi:rx="13.89888"
           sodipodi:ry="13.89888"
           d="M 112.05972,95.076805 A 13.89888,13.89888 0 0 1 98.160843,108.97569 13.89888,13.89888 0 0 1 84.261963,95.076805 13.89888,13.89888 0 0 1 98.160843,81.177925 13.89888,13.89888 0 0 1 112.05972,95.076805 Z"
           transform="matrix(0.35974122,0,0,0.35974122,209.6875,1013.1591)" />
        <path
           transform="matrix(0.35974122,0,0,0.35974122,249.6875,1013.1591)"
           d="M 112.05972,95.076805 A 13.89888,13.89888 0 0 1 98.160843,108.97569 13.89888,13.89888 0 0 1 84.261963,95.076805 13.89888,13.89888 0 0 1 98.160843,81.177925 13.89888,13.89888 0 0 1 112.05972,95.076805 Z"
           sodipodi:ry="13.89888"
           sodipodi:rx="13.89888"
           sodipodi:cy="95.076805"
           sodipodi:cx="98.160843"
           id="path11136"
           style="fill:#000000;fill-opacity:1;stroke:none"
           sodipodi:type="arc" />
        <path
           transform="matrix(0.35974122,0,0,0.35974122,329.6875,1013.1591)"
           d="M 112.05972,95.076805 A 13.89888,13.89888 0 0 1 98.160843,108.97569 13.89888,13.89888 0 0 1 84.261963,95.076805 13.89888,13.89888 0 0 1 98.160843,81.177925 13.89888,13.89888 0 0 1 112.05972,95.076805 Z"
           sodipodi:ry="13.89888"
           sodipodi:rx="13.89888"
           sodipodi:cy="95.076805"
           sodipodi:cx="98.160843"
           id="path11138"
           style="fill:#000000;fill-opacity:1;stroke:none"
           sodipodi:type="arc" />
        <path
           sodipodi:type="arc"
           style="fill:#000000;fill-opacity:1;stroke:none"
           id="path11140"
           sodipodi:cx="98.160843"
           sodipodi:cy="95.076805"
           sodipodi:rx="13.89888"
           sodipodi:ry="13.89888"
           d="M 112.05972,95.076805 A 13.89888,13.89888 0 0 1 98.160843,108.97569 13.89888,13.89888 0 0 1 84.261963,95.076805 13.89888,13.89888 0 0 1 98.160843,81.177925 13.89888,13.89888 0 0 1 112.05972,95.076805 Z"
           transform="matrix(0.35974122,0,0,0.35974122,289.6875,1013.1591)" />
      </g>
      <path
         transform="matrix(0.35974122,0,0,0.35974122,369.6875,873.15913)"
         d="M 112.05972,95.076805 A 13.89888,13.89888 0 0 1 98.160843,108.97569 13.89888,13.89888 0 0 1 84.261963,95.076805 13.89888,13.89888 0 0 1 98.160843,81.177925 13.89888,13.89888 0 0 1 112.05972,95.076805 Z"
         sodipodi:ry="13.89888"
         sodipodi:rx="13.89888"
         sodipodi:cy="95.076805"
         sodipodi:cx="98.160843"
         id="path11142"
         style="fill:#000000;fill-opacity:1;stroke:none"
         sodipodi:type="arc" />
      <path
         transform="matrix(0.35974122,0,0,0.35974122,169.6875,773.15913)"
         d="M 112.05972,95.076805 A 13.89888,13.89888 0 0 1 98.160843,108.97569 13.89888,13.89888 0 0 1 84.261963,95.076805 13.89888,13.89888 0 0 1 98.160843,81.177925 13.89888,13.89888 0 0 1 112.05972,95.076805 Z"
         sodipodi:ry="13.89888"
         sodipodi:rx="13.89888"
         sodipodi:cy="95.076805"
         sodipodi:cx="98.160843"
         id="path11889"
         style="fill:#000000;fill-opacity:1;stroke:none"
         sodipodi:type="arc" />
      <path
         sodipodi:type="arc"
         style="fill:#000000;fill-opacity:1;stroke:none"
         id="path11891"
         sodipodi:cx="98.160843"
         sodipodi:cy="95.076805"
         sodipodi:rx="13.89888"
         sodipodi:ry="13.89888"
         d="M 112.05972,95.076805 A 13.89888,13.89888 0 0 1 98.160843,108.97569 13.89888,13.89888 0 0 1 84.261963,95.076805 13.89888,13.89888 0 0 1 98.160843,81.177925 13.89888,13.89888 0 0 1 112.05972,95.076805 Z"
         transform="matrix(0.35974122,0,0,0.35974122,129.6875,773.15913)" />
      <g
         transform="translate(0,-239.99996)"
         id="g11893">
        <path
           transform="matrix(0.35974122,0,0,0.35974122,209.6875,1013.1591)"
           d="M 112.05972,95.076805 A 13.89888,13.89888 0 0 1 98.160843,108.97569 13.89888,13.89888 0 0 1 84.261963,95.076805 13.89888,13.89888 0 0 1 98.160843,81.177925 13.89888,13.89888 0 0 1 112.05972,95.076805 Z"
           sodipodi:ry="13.89888"
           sodipodi:rx="13.89888"
           sodipodi:cy="95.076805"
           sodipodi:cx="98.160843"
           id="path11895"
           style="fill:#000000;fill-opacity:1;stroke:none"
           sodipodi:type="arc" />
        <path
           sodipodi:type="arc"
           style="fill:#000000;fill-opacity:1;stroke:none"
           id="path11897"
           sodipodi:cx="98.160843"
           sodipodi:cy="95.076805"
           sodipodi:rx="13.89888"
           sodipodi:ry="13.89888"
           d="M 112.05972,95.076805 A 13.89888,13.89888 0 0 1 98.160843,108.97569 13.89888,13.89888 0 0 1 84.261963,95.076805 13.89888,13.89888 0 0 1 98.160843,81.177925 13.89888,13.89888 0 0 1 112.05972,95.076805 Z"
           transform="matrix(0.35974122,0,0,0.35974122,249.6875,1013.1591)" />
        <path
           sodipodi:type="arc"
           style="fill:#000000;fill-opacity:1;stroke:none"
           id="path11899"
           sodipodi:cx="98.160843"
           sodipodi:cy="95.076805"
           sodipodi:rx="13.89888"
           sodipodi:ry="13.89888"
           d="M 112.05972,95.076805 A 13.89888,13.89888 0 0 1 98.160843,108.97569 13.89888,13.89888 0 0 1 84.261963,95.076805 13.89888,13.89888 0 0 1 98.160843,81.177925 13.89888,13.89888 0 0 1 112.05972,95.076805 Z"
           transform="matrix(0.35974122,0,0,0.35974122,329.6875,1013.1591)" />
        <path
           transform="matrix(0.35974122,0,0,0.35974122,289.6875,1013.1591)"
           d="M 112.05972,95.076805 A 13.89888,13.89888 0 0 1 98.160843,108.97569 13.89888,13.89888 0 0 1 84.261963,95.076805 13.89888,13.89888 0 0 1 98.160843,81.177925 13.89888,13.89888 0 0 1 112.05972,95.076805 Z"
           sodipodi:ry="13.89888"
           sodipodi:rx="13.89888"
           sodipodi:cy="95.076805"
           sodipodi:cx="98.160843"
           id="path11901"
           style="fill:#000000;fill-opacity:1;stroke:none"
           sodipodi:type="arc" />
      </g>
      <path
         sodipodi:type="arc"
         style="fill:#000000;fill-opacity:1;stroke:none"
         id="path11903"
         sodipodi:cx="98.160843"
         sodipodi:cy="95.076805"
         sodipodi:rx="13.89888"
         sodipodi:ry="13.89888"
         d="M 112.05972,95.076805 A 13.89888,13.89888 0 0 1 98.160843,108.97569 13.89888,13.89888 0 0 1 84.261963,95.076805 13.89888,13.89888 0 0 1 98.160843,81.177925 13.89888,13.89888 0 0 1 112.05972,95.076805 Z"
         transform="matrix(0.35974122,0,0,0.35974122,369.6875,773.15913)" />
      <path
         sodipodi:type="arc"
         style="fill:#000000;fill-opacity:1;stroke:none"
         id="path11144"
         sodipodi:cx="98.160843"
         sodipodi:cy="95.076805"
         sodipodi:rx="13.89888"
         sodipodi:ry="13.89888"
         d="M 112.05972,95.076805 A 13.89888,13.89888 0 0 1 98.160843,108.97569 13.89888,13.89888 0 0 1 84.261963,95.076805 13.89888,13.89888 0 0 1 98.160843,81.177925 13.89888,13.89888 0 0 1 112.05972,95.076805 Z"
         transform="matrix(0.35974122,0,0,0.35974122,409.6875,873.15913)" />
      <path
         transform="matrix(0.35974122,0,0,0.35974122,409.6875,773.15913)"
         d="M 112.05972,95.076805 A 13.89888,13.89888 0 0 1 98.160843,108.97569 13.89888,13.89888 0 0 1 84.261963,95.076805 13.89888,13.89888 0 0 1 98.160843,81.177925 13.89888,13.89888 0 0 1 112.05972,95.076805 Z"
         sodipodi:ry="13.89888"
         sodipodi:rx="13.89888"
         sodipodi:cy="95.076805"
         sodipodi:cx="98.160843"
         id="path11905"
         style="fill:#000000;fill-opacity:1;stroke:none"
         sodipodi:type="arc" />
      <path
         inkscape:export-ydpi="199.90884"
         inkscape:export-xdpi="199.90884"
         inkscape:export-filename="/home/cgranade/tmp/path14074.png"
         d="m 385,1052.3621 0,-250.00001 m -160,250.00001 0,-250.00001"
         style="fill:none;stroke:#000000;stroke-width:2;stroke-linecap:butt;stroke-linejoin:miter;stroke-miterlimit:4;stroke-opacity:1;stroke-dasharray:7.99999998, 1.99999999;stroke-dashoffset:0"
         id="path12162-1"
         inkscape:connector-curvature="0" />
      <g
         inkscape:export-ydpi="199.90884"
         inkscape:export-xdpi="199.90884"
         inkscape:export-filename="/home/cgranade/tmp/path14074.png"
         id="text14095"
         style="font-size:32px;font-style:normal;font-weight:normal;line-height:125%;letter-spacing:0px;word-spacing:0px;fill:#000000;fill-opacity:1;stroke:none;font-family:Sans"
         transform="matrix(0,-1.8872885,1.8872885,0,-237.52079,-967.29905)">
        <path
           sodipodi:nodetypes="cccsscssccsscsc"
           inkscape:connector-curvature="0"
           id="path14100"
           style="font-variant:normal;font-weight:500;font-stretch:normal;font-family:URW Palladio L;-inkscape-font-specification:URW Palladio L Medium"
           d="m -1076.5341,248.73368 c 0,-2.528 0.64,-3.52 2.656,-4.192 -1.952,0.032 -2.912,0.256 -3.648,0.832 -0.896,0.736 -1.312,1.952 -1.312,3.904 l 0,34.45469 c 0,2.304 -0.544,3.168 -2.432,3.808 1.984,0.64 2.432,1.344 2.432,3.904 l 0,33.87883 c 0,2.208 0.384,3.456 1.216,4.192 0.704,0.608 1.664,0.832 3.744,0.864 -1.952,-0.544 -2.656,-1.632 -2.656,-4.16 l 0,-34.03883 c 0,-3.104 -0.512,-3.968 -2.688,-4.64 2.112,-0.64 2.688,-1.536 2.688,-4.352 l 0,-34.45469" />
      </g>
      <text
         inkscape:export-ydpi="199.90884"
         inkscape:export-xdpi="199.90884"
         inkscape:export-filename="/home/cgranade/tmp/path14074.png"
         sodipodi:linespacing="125%"
         id="text14102"
         y="1092.0422"
         x="257.23611"
         style="font-size:16px;font-style:normal;font-weight:normal;line-height:125%;letter-spacing:0px;word-spacing:0px;fill:#000000;fill-opacity:1;stroke:none;font-family:Sans"
         xml:space="preserve"><tspan
           style="font-style:normal;font-variant:normal;font-weight:500;font-stretch:normal;font-family:URW Palladio L;-inkscape-font-specification:URW Palladio L Medium"
           y="1092.0422"
           x="257.23611"
           id="tspan14104"
           sodipodi:role="line">Observable <tspan
   id="tspan14108"
   style="font-style:italic">A</tspan></tspan></text>
      <text
         inkscape:export-ydpi="199.90884"
         inkscape:export-xdpi="199.90884"
         inkscape:export-filename="/home/cgranade/tmp/path14074.png"
         xml:space="preserve"
         style="font-size:16px;font-style:normal;font-weight:normal;line-height:125%;letter-spacing:0px;word-spacing:0px;fill:#000000;fill-opacity:1;stroke:none;font-family:Sans"
         x="240.52026"
         y="863.01013"
         id="text14116"
         sodipodi:linespacing="125%"><tspan
           sodipodi:role="line"
           id="tspan14118"
           x="240.52026"
           y="863.01013"
           style="font-style:normal;font-variant:normal;font-weight:500;font-stretch:normal;font-family:URW Palladio L;-inkscape-font-specification:URW Palladio L Medium">Trusted Simulator</tspan></text>
      <text
         sodipodi:linespacing="125%"
         id="text15821"
         y="1003.0101"
         x="242.72675"
         style="font-size:16px;font-style:normal;font-weight:normal;line-height:125%;letter-spacing:0px;word-spacing:0px;fill:#000000;fill-opacity:1;stroke:none;font-family:Sans"
         xml:space="preserve"
         inkscape:export-filename="/home/cgranade/tmp/path14074.png"
         inkscape:export-xdpi="199.90884"
         inkscape:export-ydpi="199.90884"><tspan
           style="font-style:normal;font-variant:normal;font-weight:500;font-stretch:normal;font-family:URW Palladio L;-inkscape-font-specification:URW Palladio L Medium"
           y="1003.0101"
           x="242.72675"
           id="tspan15823"
           sodipodi:role="line">Untrusted Device</tspan></text>
    </g>
    <path
       style="fill:none;stroke:#000000;stroke-width:2.50000024;stroke-linecap:butt;stroke-linejoin:miter;stroke-miterlimit:4;stroke-opacity:1;stroke-dasharray:none;marker-start:url(#marker15683);marker-end:url(#marker15687)"
       d="m 80.206001,770.04147 0,341.23843 491.241389,0"
       id="path15831"
       inkscape:connector-curvature="0" />
    <text
       inkscape:export-ydpi="199.90884"
       inkscape:export-xdpi="199.90884"
       inkscape:export-filename="/home/cgranade/tmp/path14074.png"
       sodipodi:linespacing="125%"
       id="text17076"
       y="1127.4089"
       x="89.100998"
       style="font-size:16px;font-style:normal;font-weight:normal;line-height:125%;letter-spacing:0px;word-spacing:0px;fill:#000000;fill-opacity:1;stroke:none;font-family:Sans"
       xml:space="preserve"><tspan
         style="font-style:normal;font-variant:normal;font-weight:500;font-stretch:normal;font-family:URW Palladio L;-inkscape-font-specification:URW Palladio L Medium"
         y="1127.4089"
         x="89.100998"
         id="tspan17078"
         sodipodi:role="line">space</tspan></text>
    <text
       xml:space="preserve"
       style="font-size:16px;font-style:normal;font-weight:normal;line-height:125%;letter-spacing:0px;word-spacing:0px;fill:#000000;fill-opacity:1;stroke:none;font-family:Sans"
       x="-1102.3849"
       y="67.084999"
       id="text17082"
       sodipodi:linespacing="125%"
       inkscape:export-filename="/home/cgranade/tmp/path14074.png"
       inkscape:export-xdpi="199.90884"
       inkscape:export-ydpi="199.90884"
       transform="matrix(0,-1,1,0,0,0)"><tspan
         sodipodi:role="line"
         id="tspan17084"
         x="-1102.3849"
         y="67.084999"
         style="font-style:normal;font-variant:normal;font-weight:500;font-stretch:normal;font-family:URW Palladio L;-inkscape-font-specification:URW Palladio L Medium">time</tspan></text>
  </g>
</svg>
