<?xml version="1.0" encoding="UTF-8" standalone="no"?>
<!-- Created with Inkscape (http://www.inkscape.org/) -->

<svg
   xmlns:dc="http://purl.org/dc/elements/1.1/"
   xmlns:cc="http://creativecommons.org/ns#"
   xmlns:rdf="http://www.w3.org/1999/02/22-rdf-syntax-ns#"
   xmlns:svg="http://www.w3.org/2000/svg"
   xmlns="http://www.w3.org/2000/svg"
   xmlns:sodipodi="http://sodipodi.sourceforge.net/DTD/sodipodi-0.dtd"
   xmlns:inkscape="http://www.inkscape.org/namespaces/inkscape"
   id="svg10560"
   version="1.1"
   inkscape:version="0.92.0 r15299"
   xml:space="preserve"
   width="1433.8563"
   height="351.4642"
   viewBox="0 0 1344.2404 329.49768"
   sodipodi:docname="rb-0order-deriv.svg"
   inkscape:export-filename="C:\Users\cgran\Dropbox\academics\private-talks\rigetti-05-2017\figures\rb-0order-deriv.png"
   inkscape:export-xdpi="500"
   inkscape:export-ydpi="500"><sodipodi:namedview
     pagecolor="#000000"
     bordercolor="#666666"
     borderopacity="1"
     objecttolerance="10"
     gridtolerance="10"
     guidetolerance="10"
     inkscape:pageopacity="0"
     inkscape:pageshadow="2"
     inkscape:window-width="3000"
     inkscape:window-height="1875"
     id="namedview10562"
     showgrid="false"
     inkscape:zoom="1.1069987"
     inkscape:cx="450.76836"
     inkscape:cy="128.6101"
     inkscape:window-x="-13"
     inkscape:window-y="-13"
     inkscape:window-maximized="1"
     inkscape:current-layer="g10570" /><metadata
     id="metadata10566"><rdf:RDF><cc:Work
         rdf:about=""><dc:format>image/svg+xml</dc:format><dc:type
           rdf:resource="http://purl.org/dc/dcmitype/StillImage" /><dc:title></dc:title></cc:Work></rdf:RDF></metadata><defs
     id="defs10564" /><g
     transform="matrix(1.25,0,0,-1.25,0,329.49768)"
     inkscape:label="rb-0order-deriv"
     inkscape:groupmode="layer"
     id="g10568"><g
       id="g10570"><path
         inkscape:connector-curvature="0"
         id="path10580"
         style="fill:#ffffff;fill-opacity:1;fill-rule:nonzero;stroke:none"
         d="m 8.547,219.208 c -2.297,2.843 -3.125,4.375 -3.969,7.265 -0.672,2.297 -0.984,4.735 -0.984,7.453 0,2.657 0.312,4.922 0.922,7 0.843,2.657 1.703,4.172 4.031,6.891 l -0.594,0.828 c -3.328,-2.984 -4.641,-4.734 -5.859,-7.875 -0.828,-2.141 -1.25,-4.422 -1.25,-6.844 0,-3.422 0.797,-6.656 2.328,-9.547 1.125,-2.14 2.156,-3.39 4.781,-5.843 z m 11.437,8.828 -0.172,-2.719 c 2.079,0.094 2.079,0.094 2.5,0.094 0.157,0 0.954,-0.032 2.376,-0.094 v 0.953 l -1.25,0.063 c -0.766,0.031 -0.907,0.296 -0.907,1.859 v 5.859 c 0,4.672 -1.343,6.375 -5.047,6.375 -1.375,0 -2.656,-0.359 -3.875,-1.093 l -1.703,-1.032 v -2.078 l 0.844,-0.219 0.406,0.985 c 0.672,1.515 1,1.734 2.469,1.734 3.016,0 4.25,-1.187 4.359,-4.094 l -3.172,-0.578 c -4.359,-0.797 -6.171,-2.297 -6.171,-5.093 0,-2.485 1.5,-3.938 4.031,-3.938 0.562,0 1.109,0.109 1.344,0.266 z m 0,1.343 c -0.937,-1.312 -2.953,-2.531 -4.203,-2.531 -1.281,0 -2.39,1.188 -2.39,2.563 0,1.187 0.64,2.297 1.593,2.906 0.797,0.484 2.563,0.937 5,1.281 z m 7.25,-10.843 c 2.219,2.078 3.141,3.125 4.141,4.703 1.953,3.094 2.969,6.812 2.969,10.656 0,2.453 -0.422,4.734 -1.25,6.875 -1.219,3.109 -2.532,4.859 -5.86,7.875 l -0.593,-0.828 c 2.328,-2.766 3.187,-4.266 4,-6.891 0.625,-2.078 0.953,-4.343 0.953,-7 0,-2.718 -0.328,-5.156 -1,-7.453 -0.828,-2.89 -1.656,-4.422 -3.953,-7.265 z" /><path
         inkscape:connector-curvature="0"
         id="path10582"
         style="fill:#ffffff;fill-opacity:1;fill-rule:nonzero;stroke:none"
         d="m 7.703,117.415 c -2.297,2.843 -3.125,4.375 -3.969,7.265 -0.672,2.297 -0.984,4.735 -0.984,7.453 0,2.657 0.312,4.922 0.922,7 0.844,2.657 1.703,4.172 4.031,6.891 l -0.594,0.828 C 3.781,143.868 2.469,142.118 1.25,138.977 0.422,136.836 0,134.555 0,132.133 c 0,-3.422 0.797,-6.656 2.328,-9.547 1.125,-2.14 2.156,-3.39 4.781,-5.843 z m 5.859,29.171 -0.281,0.266 c -1.406,-0.547 -2.469,-0.797 -5,-1.187 v -0.891 h 1.797 c 0.578,0 0.797,-0.359 0.797,-1.313 v -14.953 c 0,-1.984 -0.031,-2.843 -0.25,-5.078 l 0.516,-0.203 1.265,1.156 c 1.282,-0.828 2.438,-1.156 4.141,-1.156 1.25,0 2.078,0.234 2.75,0.703 l 3.203,2.313 c 1.406,1.015 2.516,3.672 2.516,6.015 0,3.719 -2.391,6.375 -5.782,6.375 -1.515,0 -3.078,-0.578 -3.906,-1.422 l -1.766,-1.781 z m 0,-13.109 c 0,0.438 0.329,1.016 0.829,1.594 0.906,0.937 2.156,1.469 3.468,1.469 2.688,0 4.375,-2.172 4.375,-5.594 0,-3.578 -1.922,-6.078 -4.64,-6.078 -1.656,0 -4.032,1.015 -4.032,1.718 z m 14.516,-16.734 c 2.219,2.078 3.141,3.125 4.141,4.703 1.953,3.094 2.969,6.812 2.969,10.656 0,2.453 -0.422,4.734 -1.25,6.875 -1.219,3.109 -2.532,4.859 -5.86,7.875 l -0.594,-0.828 c 2.328,-2.766 3.188,-4.266 4,-6.891 0.625,-2.078 0.954,-4.343 0.954,-7 0,-2.718 -0.329,-5.156 -1,-7.453 -0.829,-2.89 -1.657,-4.422 -3.954,-7.265 z" /><path
         inkscape:connector-curvature="0"
         id="path10584"
         style="fill:#ffffff;fill-opacity:1;fill-rule:nonzero;stroke:none"
         d="M 9.453,15.622 C 7.156,18.465 6.328,19.997 5.484,22.887 4.812,25.184 4.5,27.622 4.5,30.34 c 0,2.657 0.312,4.922 0.922,7 0.844,2.657 1.703,4.172 4.031,6.891 L 8.859,45.059 C 5.531,42.075 4.219,40.325 3,37.184 2.172,35.043 1.75,32.762 1.75,30.34 c 0,-3.422 0.797,-6.656 2.328,-9.547 1.125,-2.14 2.156,-3.39 4.781,-5.843 z m 13.828,16.156 c 0,1.469 0.157,2.781 0.453,3.937 -1.281,0.766 -2.406,1.125 -3.718,1.125 -1.532,0 -3.328,-0.609 -5.25,-1.828 -2.235,-1.406 -3.422,-3.656 -3.422,-6.469 0,-4.312 3.047,-7.359 7.328,-7.359 1.672,0 4.062,0.609 4.39,1.094 l 0.672,1.015 -0.328,0.485 c -1.172,-0.641 -2.203,-0.922 -3.359,-0.922 -3.547,0 -5.891,2.75 -5.891,6.969 0,3.422 1.61,5.343 4.485,5.343 1.406,0 2.953,-0.64 3.515,-1.437 l 0.235,-1.953 z M 26.328,14.95 c 2.219,2.078 3.141,3.125 4.141,4.703 1.953,3.094 2.969,6.812 2.969,10.656 0,2.453 -0.422,4.734 -1.25,6.875 -1.219,3.109 -2.532,4.859 -5.86,7.875 l -0.594,-0.828 c 2.328,-2.766 3.188,-4.266 4,-6.891 0.625,-2.078 0.954,-4.343 0.954,-7 0,-2.718 -0.329,-5.156 -1,-7.453 -0.829,-2.89 -1.657,-4.422 -3.954,-7.265 z" /><path
         inkscape:connector-curvature="0"
         id="path10586"
         style="fill:#ffffff;fill-opacity:1;fill-rule:nonzero;stroke:none"
         d="m 124.227,233.301 0.062,-0.113 0.066,-0.109 0.067,-0.102 0.07,-0.102 0.078,-0.093 0.078,-0.098 0.164,-0.18 0.09,-0.082 0.082,-0.074 0.098,-0.078 0.094,-0.07 0.097,-0.071 0.094,-0.07 0.11,-0.059 0.101,-0.062 0.219,-0.102 0.113,-0.05 0.113,-0.047 0.122,-0.035 0.121,-0.039 0.121,-0.032 0.129,-0.031 0.129,-0.027 0.132,-0.028 0.133,-0.015 0.137,-0.016 0.137,-0.012 0.148,-0.011 0.141,-0.008 h 0.144 c 1.688,0 3.563,0.797 4.965,2.094 2.035,1.875 3.461,5.504 3.461,8.769 0,2.992 -1.586,4.801 -4.195,4.801 -1.364,0 -2.731,-0.477 -4.125,-1.434 l 1.011,-0.308 c 0.411,0.351 1.11,0.539 1.875,0.539 2.004,0 3.024,-1.406 3.024,-4.063 0,-3.09 -0.988,-6.461 -2.383,-8.144 -0.582,-0.664 -1.406,-1.047 -2.355,-1.047 -1.915,0 -2.961,1.433 -2.961,3.933 0,3.606 1.238,7.508 2.8,8.782 l -1.011,0.308 c -1.086,-0.726 -1.973,-1.683 -2.641,-2.82 -0.48,-0.707 -0.855,-1.492 -1.176,-2.258 -0.797,-1.875 -1.238,-3.808 -1.586,-5.754 -0.582,-3.336 -0.957,-8.258 -1.336,-11.566 l 0.481,-0.25 c 0.785,0.25 1.39,0.406 2.281,0.535 -0.062,0.93 -0.094,2.137 -0.094,3.398 0,2.235 0.094,4.645 0.313,6.258 z" /><path
         inkscape:connector-curvature="0"
         id="path10588"
         style="fill:#ffffff;fill-opacity:1;fill-rule:nonzero;stroke:none"
         d="m 146.918,232.895 v 0.008 l 0.008,0.004 v 0.015 l 0.004,0.036 0.008,0.046 0.011,0.063 0.016,0.07 0.019,0.082 0.016,0.098 0.02,0.109 0.019,0.114 0.027,0.128 0.02,0.133 0.031,0.145 0.024,0.148 0.035,0.16 0.023,0.164 0.031,0.172 0.032,0.18 0.035,0.184 0.035,0.187 0.031,0.192 0.039,0.195 0.071,0.402 0.078,0.414 0.07,0.414 0.074,0.418 0.071,0.407 c 0.39,2.277 0.66,3.464 1.097,4.765 l -0.265,0.363 c -0.493,-0.293 -1.137,-0.582 -1.891,-0.867 -0.676,-4.797 -1.352,-9.222 -2.18,-13.765 -1.257,0.129 -2.902,0.605 -2.902,2.539 0,0.371 0.051,0.828 0.152,1.289 l 0.989,5.051 c 0.078,0.375 0.117,0.722 0.117,1.039 0,0.453 -0.188,0.746 -0.524,0.746 -0.511,0 -1.41,-0.477 -3.222,-1.785 l -0.676,-0.493 0.168,-0.476 0.777,0.511 c 0.696,0.426 0.942,0.547 1.168,0.547 0.235,0 0.406,-0.211 0.406,-0.48 0,-0.121 -0.031,-0.317 -0.05,-0.438 l -1.032,-5.511 c -0.035,-0.184 -0.035,-0.407 -0.035,-0.594 0,-1.676 1.793,-3.199 4.203,-3.199 h 0.227 c -0.34,-1.77 -0.703,-3.528 -1.094,-5.367 l -0.183,-0.891 0.16,-0.141 c 0.504,0.16 0.992,0.285 1.773,0.407 l 1.008,6.187 c 0.941,0.191 2.129,0.676 3.336,1.785 1.062,0.965 1.789,2.106 2.492,3.629 0.606,1.285 1.016,2.93 1.016,3.938 0,1.402 -0.61,2.371 -1.492,2.371 -0.34,0 -0.594,-0.102 -0.813,-0.293 l -1.203,-1.133 0.266,-0.461 c 0.222,0.152 0.41,0.223 0.652,0.223 0.676,0 1.043,-0.563 1.043,-1.524 0,-5.152 -2.813,-7.137 -5.133,-7.445 z" /><path
         inkscape:connector-curvature="0"
         id="path10590"
         style="fill:#484848;fill-opacity:1;fill-rule:nonzero;stroke:none"
         d="M 694.152,263.583 H 920.816 V 0.001 H 694.152 Z" /><path
         inkscape:connector-curvature="0"
         id="path10592"
         style="fill:#484848;fill-opacity:1;fill-rule:nonzero;stroke:none"
         d="M 461.652,263.583 H 688.316 V 0.001 H 461.652 Z" /><path
         inkscape:connector-curvature="0"
         id="path10594"
         style="fill:#484848;fill-opacity:1;fill-rule:nonzero;stroke:none"
         d="M 229.152,263.583 H 455.816 V 0.001 H 229.152 Z" /><g
         transform="matrix(1,0,0,-1,0,263.59814)"
         id="g10596"
         style="stroke:#ffffff;stroke-opacity:1"><path
           inkscape:connector-curvature="0"
           id="path10598"
           style="fill:none;stroke:#ffffff;stroke-width:1.60000002;stroke-linecap:butt;stroke-linejoin:miter;stroke-miterlimit:4;stroke-dasharray:none;stroke-opacity:1"
           d="m 175.984,29.809 h 798" /></g><g
         transform="matrix(1,0,0,-1,0,263.59814)"
         id="g10600"
         style="fill:#000000;fill-opacity:1;stroke:#ffffff;stroke-opacity:1"><path
           inkscape:connector-curvature="0"
           id="path10602"
           style="fill:#000000;fill-opacity:1;fill-rule:nonzero;stroke:#ffffff;stroke-width:1.60000002;stroke-linecap:square;stroke-linejoin:miter;stroke-miterlimit:4;stroke-dasharray:none;stroke-opacity:1"
           d="m 235.785,0.809 h 58.402 v 58.402 h -58.402 z" /></g><path
         inkscape:connector-curvature="0"
         id="path10604"
         style="fill:#ffffff;fill-opacity:1;fill-rule:nonzero;stroke:none"
         d="m 271.625,246.715 0.09,0.887 h -0.512 l -2.887,-0.09 c -0.48,0 -1.136,0 -2.539,0.024 l -2.004,0.066 -0.089,-0.887 1.527,-0.066 c 0.758,-0.024 1.101,-0.285 1.101,-0.887 0,-0.16 0,-0.254 -0.027,-0.387 l -2.258,-14.14 c -1.523,-1.844 -2.48,-2.66 -4.093,-3.457 -1.211,-0.637 -2.391,-0.926 -3.598,-0.926 -2.695,0 -4.41,1.438 -4.41,3.656 0,0.535 0.054,1.047 0.215,1.946 l 2.8,15.148 -0.984,-0.035 c -0.859,-0.031 -1.496,-0.055 -1.844,-0.055 -0.316,0 -0.953,0.024 -1.84,0.055 l -1.023,0.035 -0.086,-0.887 1.645,-0.066 c 0.828,-0.024 1.082,-0.184 1.082,-0.731 0,-0.281 -0.094,-1.168 -0.227,-1.839 l -2.031,-11.918 c -0.121,-0.664 -0.192,-1.461 -0.192,-1.973 0,-3.207 2.133,-5.18 5.692,-5.18 1.394,0 2.703,0.321 4.226,1.086 1.871,0.918 2.891,1.715 4.543,3.617 -0.25,-1.457 -0.445,-2.285 -0.855,-4.039 l 0.16,-0.16 h 0.695 l 1.977,0.102 c 0.129,0 0.824,-0.031 1.844,-0.055 l 1.011,-0.047 0.161,0.903 -1.915,0.121 c -0.726,0.07 -1.011,0.254 -1.011,0.66 0,0.48 0.039,0.64 0.183,1.789 l 2.711,16.117 c 0.192,1.203 0.41,1.387 1.614,1.523 z" /><path
         inkscape:connector-curvature="0"
         id="path10606"
         style="fill:#ffffff;fill-opacity:1;fill-rule:nonzero;stroke:none"
         d="m 272.328,233.059 h 0.234 l 3.122,1.402 c 0.023,0.028 0.05,0.028 0.066,0.028 0.156,0 0.191,-0.211 0.191,-0.797 v -11.723 c 0,-1.258 -0.257,-1.527 -1.562,-1.597 l -1.356,-0.075 v -0.722 c 3.719,0.07 3.719,0.07 3.985,0.07 0.32,0 0.847,0 1.664,-0.02 0.301,-0.031 1.137,-0.031 2.137,-0.05 v 0.722 l -1.254,0.075 c -1.34,0.07 -1.578,0.339 -1.578,1.597 v 14.328 l -0.336,0.121 c -1.579,-0.816 -3.293,-1.546 -5.485,-2.312 z" /><g
         transform="matrix(1,0,0,-1,0,263.59814)"
         id="g10608"
         style="stroke:#ffffff;stroke-opacity:1;fill:#000000;fill-opacity:1"><path
           inkscape:connector-curvature="0"
           id="path10610"
           style="fill:#000000;fill-opacity:1;fill-rule:nonzero;stroke:#ffffff;stroke-width:1.60000002;stroke-linecap:square;stroke-linejoin:miter;stroke-miterlimit:4;stroke-dasharray:none;stroke-opacity:1"
           d="m 468.285,0.809 h 58.402 v 58.402 h -58.402 z" /></g><path
         inkscape:connector-curvature="0"
         id="path10612"
         style="fill:#ffffff;fill-opacity:1;fill-rule:nonzero;stroke:none"
         d="m 503.523,246.524 0.09,0.887 h -0.511 l -2.891,-0.09 c -0.477,0 -1.133,0 -2.535,0.023 l -2.004,0.067 -0.09,-0.887 1.523,-0.066 c 0.762,-0.024 1.106,-0.286 1.106,-0.887 0,-0.156 0,-0.254 -0.027,-0.387 l -2.258,-14.141 c -1.524,-1.843 -2.481,-2.66 -4.094,-3.457 -1.211,-0.636 -2.391,-0.925 -3.598,-0.925 -2.699,0 -4.414,1.437 -4.414,3.656 0,0.535 0.059,1.047 0.219,1.945 l 2.801,15.149 -0.985,-0.036 c -0.859,-0.031 -1.5,-0.054 -1.843,-0.054 -0.317,0 -0.957,0.023 -1.844,0.054 l -1.02,0.036 -0.089,-0.887 1.648,-0.066 c 0.828,-0.024 1.082,-0.184 1.082,-0.731 0,-0.281 -0.094,-1.168 -0.23,-1.84 l -2.028,-11.918 c -0.121,-0.664 -0.191,-1.461 -0.191,-1.972 0,-3.207 2.129,-5.18 5.691,-5.18 1.395,0 2.703,0.32 4.227,1.086 1.867,0.918 2.89,1.715 4.543,3.617 -0.25,-1.457 -0.449,-2.285 -0.856,-4.039 l 0.16,-0.16 h 0.696 l 1.976,0.101 c 0.125,0 0.821,-0.031 1.844,-0.054 l 1.012,-0.047 0.16,0.902 -1.914,0.121 c -0.727,0.071 -1.012,0.254 -1.012,0.66 0,0.481 0.035,0.641 0.184,1.789 l 2.711,16.118 c 0.191,1.203 0.406,1.386 1.613,1.523 z" /><path
         inkscape:connector-curvature="0"
         id="path10614"
         style="fill:#ffffff;fill-opacity:1;fill-rule:nonzero;stroke:none"
         d="m 502.988,220.399 v -0.633 c 4.516,0.07 4.516,0.07 5.387,0.07 0.867,0 0.867,0 5.539,-0.07 -0.051,0.512 -0.051,0.746 -0.051,1.09 0,0.309 0,0.555 0.051,1.086 -2.781,-0.121 -3.891,-0.152 -8.363,-0.242 l 4.394,4.668 c 2.348,2.488 3.067,3.812 3.067,5.625 0,2.781 -1.879,4.496 -4.953,4.496 -1.731,0 -2.914,-0.477 -4.102,-1.696 l -0.41,-3.277 h 0.695 l 0.309,1.109 c 0.387,1.403 1.269,2.008 2.883,2.008 2.086,0 3.406,-1.3 3.406,-3.367 0,-1.812 -1.016,-3.598 -3.746,-6.492 z" /><g
         transform="matrix(1,0,0,-1,0,263.59814)"
         id="g10616"
         style="stroke:#ffffff;stroke-opacity:1;fill:#000000;fill-opacity:1"><path
           inkscape:connector-curvature="0"
           id="path10618"
           style="fill:#000000;fill-opacity:1;fill-rule:nonzero;stroke:#ffffff;stroke-width:1.60000002;stroke-linecap:square;stroke-linejoin:miter;stroke-miterlimit:4;stroke-dasharray:none;stroke-opacity:1"
           d="m 700.785,0.809 h 58.402 v 58.402 h -58.402 z" /></g><path
         inkscape:connector-curvature="0"
         id="path10620"
         style="fill:#ffffff;fill-opacity:1;fill-rule:nonzero;stroke:none"
         d="m 736.094,246.731 0.09,0.887 h -0.512 l -2.891,-0.09 c -0.476,0 -1.133,0 -2.535,0.023 l -2.004,0.067 -0.09,-0.887 1.524,-0.066 c 0.762,-0.024 1.105,-0.286 1.105,-0.887 0,-0.156 0,-0.254 -0.027,-0.387 l -2.258,-14.141 c -1.523,-1.843 -2.48,-2.66 -4.094,-3.457 -1.211,-0.636 -2.39,-0.925 -3.597,-0.925 -2.7,0 -4.414,1.437 -4.414,3.656 0,0.535 0.058,1.047 0.218,1.945 l 2.797,15.149 -0.98,-0.035 c -0.86,-0.032 -1.5,-0.055 -1.844,-0.055 -0.316,0 -0.957,0.023 -1.844,0.055 l -1.019,0.035 -0.09,-0.887 1.644,-0.066 c 0.832,-0.024 1.086,-0.184 1.086,-0.731 0,-0.281 -0.093,-1.168 -0.23,-1.84 l -2.027,-11.918 c -0.122,-0.664 -0.192,-1.461 -0.192,-1.972 0,-3.207 2.129,-5.18 5.688,-5.18 1.398,0 2.707,0.32 4.23,1.086 1.867,0.918 2.891,1.715 4.543,3.617 -0.25,-1.457 -0.449,-2.285 -0.855,-4.039 l 0.16,-0.16 h 0.695 l 1.977,0.105 c 0.125,0 0.82,-0.035 1.843,-0.058 l 1.012,-0.047 0.16,0.902 -1.914,0.121 c -0.726,0.071 -1.011,0.254 -1.011,0.66 0,0.481 0.035,0.641 0.183,1.789 l 2.711,16.118 c 0.191,1.203 0.406,1.39 1.613,1.523 z" /><path
         inkscape:connector-curvature="0"
         id="path10622"
         style="fill:#ffffff;fill-opacity:1;fill-rule:nonzero;stroke:none"
         d="m 736.207,232.086 h 0.746 l 0.442,1.352 c 0.265,0.816 1.793,1.645 3.046,1.645 1.563,0 2.852,-1.29 2.852,-2.813 0,-1.809 -1.43,-3.328 -3.145,-3.328 -0.195,0 -0.453,0.023 -0.769,0.043 l -0.363,0.027 -0.289,-1.281 0.171,-0.141 c 0.914,0.407 1.372,0.528 2.024,0.528 2.008,0 3.168,-1.274 3.168,-3.481 0,-2.469 -1.481,-4.082 -3.719,-4.082 -1.113,0 -2.109,0.356 -2.832,1.031 -0.586,0.543 -0.898,1.094 -1.351,2.395 l -0.665,-0.238 c 0.512,-1.473 0.711,-2.34 0.852,-3.547 1.285,-0.438 2.352,-0.637 3.238,-0.637 1.934,0 4.164,1.09 5.492,2.711 0.817,0.996 1.239,2.047 1.239,3.188 0,1.164 -0.492,2.183 -1.36,2.781 -0.605,0.433 -1.168,0.625 -2.375,0.844 1.934,1.503 2.668,2.613 2.668,4.035 0,2.156 -1.797,3.578 -4.476,3.578 -1.645,0 -2.731,-0.457 -3.887,-1.613 z" /><g
         transform="matrix(1,0,0,-1,0,263.59814)"
         id="g10624"
         style="fill:#000000;fill-opacity:1;stroke:#ffffff;stroke-opacity:1"><path
           inkscape:connector-curvature="0"
           id="path10626"
           style="fill:#000000;fill-opacity:1;fill-rule:nonzero;stroke:#ffffff;stroke-width:1.60000002;stroke-linecap:square;stroke-linejoin:miter;stroke-miterlimit:4;stroke-dasharray:none;stroke-opacity:1"
           d="m 390.785,0.809 h 58.402 v 58.402 h -58.402 z" /></g><path
         inkscape:connector-curvature="0"
         id="path10628"
         style="fill:#ffffff;fill-opacity:1;fill-rule:nonzero;stroke:none"
         d="m 419.496,244.122 -8.394,-19.09 c -0.375,-0.93 -1.016,-1.5 -1.715,-1.555 l -1.176,-0.102 v -0.957 c 2.891,0.102 2.953,0.102 3.457,0.102 0.422,0 0.48,0 3.848,-0.102 v 0.957 l -1.176,0.102 c -1.102,0.09 -1.524,0.316 -1.524,0.828 0,0.406 0.446,1.774 1.118,3.367 l 5.461,12.864 6.07,-14.364 c 0.574,-1.332 0.637,-1.777 0.637,-2.07 0,-0.348 -0.508,-0.57 -1.305,-0.625 l -1.496,-0.102 v -0.957 c 3.847,0.102 3.918,0.102 4.422,0.102 0.597,0 0.668,0 4.035,-0.102 v 0.957 l -1.082,0.102 c -0.828,0.121 -1.176,0.668 -2.285,3.238 l -7.692,18.043 z" /><g
         transform="matrix(1,0,0,-1,0,263.59814)"
         id="g10630"
         style="stroke:#ffffff;stroke-opacity:1;fill:#000000;fill-opacity:1"><path
           inkscape:connector-curvature="0"
           id="path10632"
           style="fill:#000000;fill-opacity:1;fill-rule:nonzero;stroke:#ffffff;stroke-width:1.60000002;stroke-linecap:square;stroke-linejoin:miter;stroke-miterlimit:4;stroke-dasharray:none;stroke-opacity:1"
           d="m 623.285,0.809 h 58.402 v 58.402 h -58.402 z" /></g><path
         inkscape:connector-curvature="0"
         id="path10634"
         style="fill:#ffffff;fill-opacity:1;fill-rule:nonzero;stroke:none"
         d="m 651.996,244.122 -8.394,-19.09 c -0.375,-0.93 -1.016,-1.5 -1.715,-1.555 l -1.176,-0.102 v -0.957 c 2.891,0.102 2.953,0.102 3.457,0.102 0.422,0 0.48,0 3.848,-0.102 v 0.957 l -1.176,0.102 c -1.102,0.09 -1.524,0.316 -1.524,0.828 0,0.406 0.446,1.774 1.118,3.367 l 5.461,12.864 6.07,-14.364 c 0.574,-1.332 0.637,-1.777 0.637,-2.07 0,-0.348 -0.508,-0.57 -1.305,-0.625 l -1.496,-0.102 v -0.957 c 3.847,0.102 3.918,0.102 4.422,0.102 0.597,0 0.668,0 4.035,-0.102 v 0.957 l -1.082,0.102 c -0.828,0.121 -1.176,0.668 -2.285,3.238 l -7.692,18.043 z" /><g
         transform="matrix(1,0,0,-1,0,263.59814)"
         id="g10636"
         style="stroke:#ffffff;stroke-opacity:1;fill:#000000;fill-opacity:1"><path
           inkscape:connector-curvature="0"
           id="path10638"
           style="fill:#000000;fill-opacity:1;fill-rule:nonzero;stroke:#ffffff;stroke-width:1.60000002;stroke-linecap:square;stroke-linejoin:miter;stroke-miterlimit:4;stroke-dasharray:none;stroke-opacity:1"
           d="m 855.785,0.809 h 58.402 v 58.402 h -58.402 z" /></g><path
         inkscape:connector-curvature="0"
         id="path10640"
         style="fill:#ffffff;fill-opacity:1;fill-rule:nonzero;stroke:none"
         d="m 884.496,244.122 -8.394,-19.09 c -0.375,-0.93 -1.016,-1.5 -1.715,-1.555 l -1.176,-0.102 v -0.957 c 2.891,0.102 2.953,0.102 3.457,0.102 0.422,0 0.48,0 3.848,-0.102 v 0.957 l -1.176,0.102 c -1.102,0.09 -1.524,0.316 -1.524,0.828 0,0.406 0.446,1.774 1.118,3.367 l 5.461,12.864 6.07,-14.364 c 0.574,-1.332 0.637,-1.777 0.637,-2.07 0,-0.348 -0.508,-0.57 -1.309,-0.625 l -1.492,-0.102 v -0.957 c 3.847,0.102 3.918,0.102 4.422,0.102 0.597,0 0.668,0 4.035,-0.102 v 0.957 l -1.082,0.102 c -0.828,0.121 -1.176,0.668 -2.285,3.238 l -7.692,18.043 z" /><g
         transform="matrix(1,0,0,-1,0,263.59814)"
         id="g10642"
         style="stroke:#ffffff;stroke-opacity:1"><path
           inkscape:connector-curvature="0"
           id="path10644"
           style="fill:none;stroke:#ffffff;stroke-width:1.60000002;stroke-linecap:butt;stroke-linejoin:miter;stroke-miterlimit:4;stroke-dasharray:none;stroke-opacity:1"
           d="m 175.984,131.805 h 798" /></g><g
         transform="matrix(1,0,0,-1,0,263.59814)"
         id="g10646"
         style="fill:#000000;fill-opacity:1;stroke:#ffffff;stroke-opacity:1"><path
           inkscape:connector-curvature="0"
           id="path10648"
           style="fill:#000000;fill-opacity:1;fill-rule:nonzero;stroke:#ffffff;stroke-width:1.60000002;stroke-linecap:square;stroke-linejoin:miter;stroke-miterlimit:4;stroke-dasharray:none;stroke-opacity:1"
           d="m 235.785,102.605 h 58.402 v 58.398 h -58.402 z" /></g><path
         inkscape:connector-curvature="0"
         id="path10650"
         style="fill:#ffffff;fill-opacity:1;fill-rule:nonzero;stroke:none"
         d="m 258.754,126.872 -2.25,16.777 -0.031,0.226 c -0.059,0.606 0.406,0.954 1.363,0.981 l 1.332,0.062 v 0.887 l -1.301,-0.031 c -1.179,-0.031 -2.066,-0.059 -2.633,-0.059 -0.574,0 -1.461,0.028 -2.64,0.059 l -1.301,0.031 v -0.887 l 0.789,-0.062 c 1.398,-0.094 1.66,-0.344 1.875,-1.523 l 2.801,-19.774 h 1.558 l 12.008,19.676 c 0.797,1.277 1.047,1.492 1.973,1.621 l 0.566,0.062 v 0.887 l -0.945,-0.031 c -0.867,-0.031 -1.594,-0.059 -2.106,-0.059 -0.316,0 -1.171,0.028 -2.48,0.059 l -1.453,0.031 v -0.887 l 0.828,-0.062 c 1.207,-0.094 1.805,-0.414 1.805,-1.016 0,-0.347 -0.121,-0.695 -0.508,-1.332 z" /><path
         inkscape:connector-curvature="0"
         id="path10652"
         style="fill:#ffffff;fill-opacity:1;fill-rule:nonzero;stroke:none"
         d="m 270.203,131.266 h 0.235 l 3.121,1.402 c 0.019,0.024 0.05,0.024 0.07,0.024 0.152,0 0.191,-0.211 0.191,-0.797 v -11.723 c 0,-1.254 -0.261,-1.523 -1.562,-1.593 l -1.36,-0.079 v -0.718 c 3.719,0.07 3.719,0.07 3.985,0.07 0.32,0 0.851,0 1.668,-0.019 0.297,-0.032 1.133,-0.032 2.129,-0.051 v 0.718 l -1.25,0.079 c -1.34,0.07 -1.575,0.339 -1.575,1.593 v 14.332 l -0.339,0.121 c -1.575,-0.816 -3.289,-1.55 -5.485,-2.316 z" /><g
         transform="matrix(1,0,0,-1,0,263.59814)"
         id="g10654"
         style="stroke:#ffffff;stroke-opacity:1;fill:#000000;fill-opacity:1"><path
           inkscape:connector-curvature="0"
           id="path10656"
           style="fill:#000000;fill-opacity:1;fill-rule:nonzero;stroke:#ffffff;stroke-width:1.60000002;stroke-linecap:square;stroke-linejoin:miter;stroke-miterlimit:4;stroke-dasharray:none;stroke-opacity:1"
           d="m 468.285,102.605 h 58.402 v 58.398 h -58.402 z" /></g><path
         inkscape:connector-curvature="0"
         id="path10658"
         style="fill:#ffffff;fill-opacity:1;fill-rule:nonzero;stroke:none"
         d="m 490.652,126.68 -2.25,16.778 -0.035,0.226 c -0.055,0.606 0.41,0.957 1.367,0.981 l 1.332,0.062 v 0.887 l -1.3,-0.031 c -1.18,-0.032 -2.067,-0.059 -2.633,-0.059 -0.574,0 -1.461,0.027 -2.641,0.059 l -1.301,0.031 v -0.887 l 0.789,-0.062 c 1.399,-0.094 1.661,-0.344 1.875,-1.524 l 2.801,-19.773 h 1.555 l 12.012,19.675 c 0.797,1.278 1.047,1.493 1.968,1.622 l 0.571,0.062 v 0.887 l -0.946,-0.031 c -0.867,-0.032 -1.593,-0.059 -2.105,-0.059 -0.32,0 -1.172,0.027 -2.481,0.059 l -1.453,0.031 v -0.887 l 0.828,-0.062 c 1.207,-0.094 1.805,-0.415 1.805,-1.016 0,-0.348 -0.121,-0.695 -0.512,-1.332 z" /><path
         inkscape:connector-curvature="0"
         id="path10660"
         style="fill:#ffffff;fill-opacity:1;fill-rule:nonzero;stroke:none"
         d="m 500.863,118.606 v -0.633 c 4.516,0.07 4.516,0.07 5.391,0.07 0.867,0 0.867,0 5.527,-0.07 -0.043,0.512 -0.043,0.746 -0.043,1.09 0,0.309 0,0.555 0.043,1.086 -2.773,-0.121 -3.883,-0.152 -8.355,-0.242 l 4.394,4.668 c 2.348,2.488 3.071,3.812 3.071,5.625 0,2.781 -1.883,4.496 -4.957,4.496 -1.735,0 -2.922,-0.477 -4.102,-1.696 l -0.414,-3.281 h 0.703 l 0.305,1.114 c 0.39,1.402 1.269,2.007 2.883,2.007 2.078,0 3.406,-1.3 3.406,-3.367 0,-1.812 -1.016,-3.598 -3.746,-6.492 z" /><g
         transform="matrix(1,0,0,-1,0,263.59814)"
         id="g10662"
         style="fill:#000000;fill-opacity:1;stroke:#ffffff;stroke-opacity:1"><path
           inkscape:connector-curvature="0"
           id="path10664"
           style="fill:#000000;fill-opacity:1;fill-rule:nonzero;stroke:#ffffff;stroke-width:1.60000002;stroke-linecap:square;stroke-linejoin:miter;stroke-miterlimit:4;stroke-dasharray:none;stroke-opacity:1"
           d="m 700.785,102.605 h 58.402 v 58.398 h -58.402 z" /></g><path
         inkscape:connector-curvature="0"
         id="path10666"
         style="fill:#ffffff;fill-opacity:1;fill-rule:nonzero;stroke:none"
         d="m 723.219,126.887 -2.25,16.781 -0.031,0.223 c -0.059,0.606 0.406,0.957 1.363,0.981 l 1.332,0.062 v 0.887 l -1.301,-0.031 c -1.18,-0.032 -2.066,-0.055 -2.633,-0.055 -0.574,0 -1.461,0.023 -2.64,0.055 l -1.301,0.031 v -0.887 l 0.789,-0.062 c 1.398,-0.094 1.66,-0.344 1.875,-1.524 l 2.801,-19.773 h 1.554 l 12.012,19.675 c 0.797,1.278 1.047,1.493 1.969,1.622 l 0.57,0.062 v 0.887 l -0.945,-0.031 c -0.867,-0.032 -1.594,-0.055 -2.106,-0.055 -0.316,0 -1.172,0.023 -2.48,0.055 l -1.453,0.031 v -0.887 l 0.828,-0.062 c 1.207,-0.094 1.805,-0.414 1.805,-1.016 0,-0.348 -0.122,-0.691 -0.508,-1.332 z" /><path
         inkscape:connector-curvature="0"
         id="path10668"
         style="fill:#ffffff;fill-opacity:1;fill-rule:nonzero;stroke:none"
         d="m 734.082,130.293 h 0.746 l 0.434,1.352 c 0.273,0.816 1.797,1.645 3.054,1.645 1.563,0 2.844,-1.29 2.844,-2.813 0,-1.812 -1.422,-3.328 -3.137,-3.328 -0.199,0 -0.461,0.023 -0.781,0.043 l -0.355,0.027 -0.285,-1.285 0.164,-0.137 c 0.918,0.407 1.379,0.528 2.027,0.528 2.012,0 3.164,-1.278 3.164,-3.481 0,-2.469 -1.473,-4.082 -3.711,-4.082 -1.117,0 -2.117,0.356 -2.832,1.031 -0.586,0.543 -0.898,1.09 -1.359,2.391 l -0.657,-0.234 c 0.512,-1.473 0.707,-2.34 0.848,-3.547 1.289,-0.442 2.356,-0.637 3.242,-0.637 1.93,0 4.164,1.09 5.489,2.711 0.816,0.996 1.238,2.047 1.238,3.188 0,1.16 -0.492,2.183 -1.36,2.781 -0.605,0.433 -1.164,0.625 -2.371,0.844 1.934,1.503 2.661,2.613 2.661,4.035 0,2.156 -1.793,3.578 -4.473,3.578 -1.645,0 -2.731,-0.457 -3.891,-1.613 z" /><g
         transform="matrix(1,0,0,-1,0,263.59814)"
         id="g10670"
         style="fill:#000000;fill-opacity:1;stroke:#ffffff;stroke-opacity:1"><path
           inkscape:connector-curvature="0"
           id="path10672"
           style="fill:#000000;fill-opacity:1;fill-rule:nonzero;stroke:#ffffff;stroke-width:1.60000002;stroke-linecap:square;stroke-linejoin:miter;stroke-miterlimit:4;stroke-dasharray:none;stroke-opacity:1"
           d="m 390.785,102.605 h 58.402 v 58.398 h -58.402 z" /></g><path
         inkscape:connector-curvature="0"
         id="path10674"
         style="fill:#ffffff;fill-opacity:1;fill-rule:nonzero;stroke:none"
         d="m 410.535,126.032 -2.254,16.781 -0.031,0.223 c -0.059,0.605 0.41,0.957 1.367,0.98 l 1.332,0.067 v 0.886 l -1.301,-0.035 c -1.179,-0.031 -2.066,-0.055 -2.636,-0.055 -0.574,0 -1.461,0.024 -2.641,0.055 l -1.301,0.035 v -0.886 l 0.793,-0.067 c 1.395,-0.094 1.657,-0.344 1.875,-1.523 l 2.801,-19.77 h 1.555 l 12.008,19.676 c 0.8,1.273 1.046,1.492 1.972,1.617 l 0.567,0.067 v 0.886 l -0.942,-0.035 c -0.867,-0.031 -1.597,-0.055 -2.105,-0.055 -0.321,0 -1.176,0.024 -2.481,0.055 l -1.457,0.035 v -0.886 l 0.832,-0.067 c 1.203,-0.094 1.805,-0.414 1.805,-1.012 0,-0.351 -0.121,-0.695 -0.512,-1.336 z" /><path
         inkscape:connector-curvature="0"
         id="path10676"
         style="fill:#ffffff;fill-opacity:1;fill-rule:nonzero;stroke:none"
         d="m 426.586,145.75 -0.133,-0.121 c 0.051,-0.382 0.082,-0.554 0.082,-0.82 0,-0.269 -0.031,-0.43 -0.082,-0.797 l 0.133,-0.121 2.781,0.172 h 1.422 v -1.891 c 0,-3.601 -0.051,-5.457 -0.172,-7.086 l -0.043,-0.625 0.114,-0.121 c 0.582,0.071 0.777,0.106 0.988,0.106 0.25,0 0.441,-0.035 0.996,-0.106 l 0.121,0.121 -0.051,0.625 c -0.121,1.668 -0.168,3.395 -0.168,7.086 v 1.891 H 434 c 0.336,0 0.848,-0.027 1.234,-0.07 0.575,-0.051 0.946,-0.082 1.086,-0.082 h 0.457 l 0.121,0.101 c -0.043,0.367 -0.066,0.528 -0.066,0.797 0,0.285 0.023,0.457 0.066,0.82 l -0.121,0.121 -2.777,-0.164 h -1.426 v 1.258 c 0,0.797 0.071,1.949 0.238,3.457 l 0.032,0.285 0.051,0.532 -0.122,0.121 c -0.757,-0.071 -0.898,-0.071 -1.097,-0.071 -0.172,0 -0.336,0 -1.082,0.071 l -0.121,-0.121 0.05,-0.532 0.051,-0.461 c 0.164,-1.839 0.215,-2.511 0.215,-3.281 v -1.258 h -1.422 c -0.472,0 -0.898,0.02 -1.359,0.071 -0.488,0.07 -0.828,0.093 -0.969,0.093 z" /><path
         inkscape:connector-curvature="0"
         id="path10678"
         style="fill:#ffffff;fill-opacity:1;fill-rule:nonzero;stroke:none"
         d="m 421.98,125.833 h 0.239 l 3.117,1.41 c 0.019,0.019 0.051,0.019 0.07,0.019 0.153,0 0.192,-0.211 0.192,-0.797 v -11.722 c 0,-1.258 -0.262,-1.524 -1.563,-1.594 l -1.359,-0.078 v -0.719 c 3.719,0.07 3.719,0.07 3.988,0.07 0.32,0 0.848,0 1.664,-0.019 0.301,-0.031 1.137,-0.031 2.129,-0.051 v 0.719 l -1.25,0.078 c -1.336,0.07 -1.574,0.336 -1.574,1.594 v 14.332 l -0.336,0.121 c -1.578,-0.817 -3.293,-1.543 -5.488,-2.317 z" /><g
         transform="matrix(1,0,0,-1,0,263.59814)"
         id="g10680"
         style="stroke:#ffffff;stroke-opacity:1;fill:#000000;fill-opacity:1"><path
           inkscape:connector-curvature="0"
           id="path10682"
           style="fill:#000000;fill-opacity:1;fill-rule:nonzero;stroke:#ffffff;stroke-width:1.60000002;stroke-linecap:square;stroke-linejoin:miter;stroke-miterlimit:4;stroke-dasharray:none;stroke-opacity:1"
           d="m 623.285,102.605 h 58.402 v 58.398 h -58.402 z" /></g><path
         inkscape:connector-curvature="0"
         id="path10684"
         style="fill:#ffffff;fill-opacity:1;fill-rule:nonzero;stroke:none"
         d="m 643.035,125.84 -2.254,16.782 -0.031,0.222 c -0.059,0.606 0.41,0.957 1.367,0.981 l 1.332,0.066 v 0.887 l -1.301,-0.035 c -1.179,-0.032 -2.066,-0.055 -2.636,-0.055 -0.574,0 -1.461,0.023 -2.641,0.055 l -1.301,0.035 v -0.887 l 0.793,-0.066 c 1.395,-0.094 1.657,-0.344 1.875,-1.524 l 2.801,-19.769 h 1.555 l 12.008,19.676 c 0.8,1.273 1.046,1.492 1.972,1.617 l 0.567,0.066 v 0.887 l -0.942,-0.035 c -0.867,-0.032 -1.597,-0.055 -2.105,-0.055 -0.321,0 -1.176,0.023 -2.481,0.055 l -1.457,0.035 v -0.887 l 0.832,-0.066 c 1.203,-0.094 1.805,-0.414 1.805,-1.012 0,-0.352 -0.121,-0.695 -0.512,-1.336 z" /><path
         inkscape:connector-curvature="0"
         id="path10686"
         style="fill:#ffffff;fill-opacity:1;fill-rule:nonzero;stroke:none"
         d="m 659.086,145.559 -0.133,-0.121 c 0.051,-0.383 0.082,-0.555 0.082,-0.82 0,-0.27 -0.031,-0.43 -0.082,-0.797 l 0.133,-0.121 2.781,0.172 h 1.422 v -1.891 c 0,-3.602 -0.051,-5.457 -0.172,-7.086 l -0.043,-0.625 0.114,-0.121 c 0.582,0.07 0.777,0.105 0.988,0.105 0.25,0 0.441,-0.035 0.996,-0.105 l 0.121,0.121 -0.051,0.625 c -0.121,1.668 -0.168,3.395 -0.168,7.086 v 1.891 h 1.426 c 0.336,0 0.848,-0.028 1.234,-0.071 0.575,-0.051 0.946,-0.082 1.086,-0.082 h 0.457 l 0.121,0.102 c -0.043,0.367 -0.066,0.527 -0.066,0.797 0,0.285 0.023,0.457 0.066,0.82 l -0.121,0.121 -2.777,-0.164 h -1.426 v 1.258 c 0,0.797 0.071,1.949 0.238,3.457 l 0.032,0.285 0.051,0.531 -0.122,0.121 c -0.757,-0.07 -0.898,-0.07 -1.097,-0.07 -0.172,0 -0.336,0 -1.082,0.07 l -0.121,-0.121 0.05,-0.531 0.051,-0.457 c 0.164,-1.844 0.215,-2.516 0.215,-3.285 v -1.258 h -1.422 c -0.472,0 -0.898,0.02 -1.359,0.07 -0.488,0.071 -0.828,0.094 -0.969,0.094 z" /><path
         inkscape:connector-curvature="0"
         id="path10688"
         style="fill:#ffffff;fill-opacity:1;fill-rule:nonzero;stroke:none"
         d="m 653.246,113.168 v -0.625 c 4.516,0.071 4.516,0.071 5.387,0.071 0.867,0 0.867,0 5.531,-0.071 -0.043,0.508 -0.043,0.747 -0.043,1.082 0,0.313 0,0.563 0.043,1.09 -2.773,-0.121 -3.883,-0.152 -8.355,-0.242 l 4.394,4.664 c 2.348,2.492 3.067,3.821 3.067,5.633 0,2.781 -1.879,4.496 -4.954,4.496 -1.734,0 -2.921,-0.48 -4.101,-1.699 l -0.414,-3.277 h 0.699 l 0.309,1.109 c 0.386,1.406 1.269,2.012 2.882,2.012 2.079,0 3.407,-1.309 3.407,-3.368 0,-1.812 -1.016,-3.597 -3.746,-6.5 z" /><g
         transform="matrix(1,0,0,-1,0,263.59814)"
         id="g10690"
         style="stroke:#ffffff;stroke-opacity:1;fill:#000000;fill-opacity:1"><path
           inkscape:connector-curvature="0"
           id="path10692"
           style="fill:#000000;fill-opacity:1;fill-rule:nonzero;stroke:#ffffff;stroke-width:1.60000002;stroke-linecap:square;stroke-linejoin:miter;stroke-miterlimit:4;stroke-dasharray:none;stroke-opacity:1"
           d="m 855.785,102.605 h 58.402 v 58.398 h -58.402 z" /></g><path
         inkscape:connector-curvature="0"
         id="path10694"
         style="fill:#ffffff;fill-opacity:1;fill-rule:nonzero;stroke:none"
         d="m 875.535,126.051 -2.254,16.782 -0.031,0.222 c -0.059,0.606 0.41,0.957 1.367,0.981 l 1.332,0.066 v 0.883 l -1.301,-0.031 c -1.179,-0.032 -2.066,-0.055 -2.636,-0.055 -0.574,0 -1.461,0.023 -2.641,0.055 l -1.301,0.031 v -0.883 l 0.793,-0.066 c 1.395,-0.094 1.657,-0.344 1.875,-1.524 l 2.801,-19.773 h 1.555 l 12.008,19.676 c 0.8,1.277 1.046,1.496 1.972,1.621 l 0.567,0.066 v 0.883 l -0.942,-0.031 c -0.867,-0.032 -1.597,-0.055 -2.105,-0.055 -0.321,0 -1.176,0.023 -2.481,0.055 l -1.457,0.031 v -0.883 l 0.832,-0.066 c 1.203,-0.094 1.805,-0.414 1.805,-1.012 0,-0.352 -0.121,-0.695 -0.512,-1.336 z" /><path
         inkscape:connector-curvature="0"
         id="path10696"
         style="fill:#ffffff;fill-opacity:1;fill-rule:nonzero;stroke:none"
         d="m 891.586,145.77 -0.133,-0.121 c 0.051,-0.383 0.082,-0.555 0.082,-0.82 0,-0.27 -0.031,-0.43 -0.082,-0.797 l 0.133,-0.121 2.781,0.172 h 1.422 v -1.891 c 0,-3.602 -0.051,-5.457 -0.172,-7.086 l -0.043,-0.625 0.114,-0.121 c 0.582,0.07 0.777,0.101 0.988,0.101 0.25,0 0.441,-0.031 0.996,-0.101 l 0.121,0.121 -0.051,0.625 c -0.121,1.664 -0.168,3.394 -0.168,7.086 v 1.891 H 899 c 0.336,0 0.848,-0.028 1.234,-0.071 0.575,-0.051 0.946,-0.086 1.086,-0.086 h 0.457 l 0.121,0.106 c -0.043,0.367 -0.066,0.527 -0.066,0.797 0,0.285 0.023,0.457 0.066,0.82 l -0.121,0.121 -2.777,-0.164 h -1.426 v 1.258 c 0,0.797 0.071,1.949 0.238,3.453 l 0.032,0.289 0.051,0.527 -0.122,0.121 c -0.757,-0.066 -0.898,-0.066 -1.097,-0.066 -0.172,0 -0.336,0 -1.082,0.066 l -0.121,-0.121 0.05,-0.527 0.051,-0.461 c 0.164,-1.84 0.215,-2.512 0.215,-3.281 v -1.258 h -1.422 c -0.472,0 -0.898,0.019 -1.359,0.07 -0.488,0.071 -0.828,0.094 -0.969,0.094 z" /><path
         inkscape:connector-curvature="0"
         id="path10698"
         style="fill:#ffffff;fill-opacity:1;fill-rule:nonzero;stroke:none"
         d="m 886.395,124.86 h 0.746 l 0.433,1.355 c 0.278,0.817 1.801,1.649 3.055,1.649 1.562,0 2.848,-1.289 2.848,-2.817 0,-1.808 -1.422,-3.328 -3.141,-3.328 -0.195,0 -0.457,0.02 -0.777,0.039 l -0.356,0.032 -0.289,-1.282 0.168,-0.14 c 0.918,0.41 1.375,0.523 2.027,0.523 2.008,0 3.164,-1.277 3.164,-3.476 0,-2.469 -1.472,-4.082 -3.714,-4.082 -1.114,0 -2.118,0.359 -2.829,1.035 -0.589,0.535 -0.902,1.082 -1.359,2.39 l -0.656,-0.238 c 0.508,-1.477 0.707,-2.344 0.847,-3.551 1.29,-0.433 2.352,-0.636 3.239,-0.636 1.933,0 4.164,1.097 5.492,2.71 0.816,1 1.238,2.051 1.238,3.188 0,1.168 -0.492,2.18 -1.359,2.781 -0.606,0.442 -1.168,0.633 -2.371,0.848 1.929,1.504 2.656,2.609 2.656,4.039 0,2.148 -1.789,3.578 -4.469,3.578 -1.644,0 -2.73,-0.461 -3.89,-1.613 z" /><g
         transform="matrix(1,0,0,-1,0,263.59814)"
         id="g10700"
         style="fill:#000000;fill-opacity:1;stroke:#ffffff;stroke-opacity:1"><path
           inkscape:connector-curvature="0"
           id="path10702"
           style="fill:#000000;fill-opacity:1;fill-rule:nonzero;stroke:#ffffff;stroke-width:1.60000002;stroke-linecap:square;stroke-linejoin:miter;stroke-miterlimit:4;stroke-dasharray:none;stroke-opacity:1"
           d="m 313.285,102.605 h 58.402 v 58.398 h -58.402 z" /></g><path
         inkscape:connector-curvature="0"
         id="path10704"
         style="fill:#ffffff;fill-opacity:1;fill-rule:nonzero;stroke:none"
         d="m 341.996,142.329 -8.394,-19.09 c -0.375,-0.934 -1.016,-1.5 -1.715,-1.559 l -1.176,-0.101 v -0.957 c 2.891,0.101 2.953,0.101 3.457,0.101 0.422,0 0.48,0 3.848,-0.101 v 0.957 l -1.176,0.101 c -1.102,0.09 -1.524,0.32 -1.524,0.832 0,0.406 0.446,1.774 1.118,3.367 l 5.461,12.864 6.07,-14.364 c 0.574,-1.332 0.637,-1.777 0.637,-2.074 0,-0.344 -0.508,-0.566 -1.305,-0.625 l -1.496,-0.101 v -0.957 c 3.847,0.101 3.918,0.101 4.422,0.101 0.597,0 0.668,0 4.035,-0.101 v 0.957 l -1.082,0.101 c -0.828,0.121 -1.176,0.672 -2.285,3.242 l -7.692,18.043 z" /><g
         transform="matrix(1,0,0,-1,0,263.59814)"
         id="g10706"
         style="stroke:#ffffff;stroke-opacity:1;fill:#000000;fill-opacity:1"><path
           inkscape:connector-curvature="0"
           id="path10708"
           style="fill:#000000;fill-opacity:1;fill-rule:nonzero;stroke:#ffffff;stroke-width:1.60000002;stroke-linecap:square;stroke-linejoin:miter;stroke-miterlimit:4;stroke-dasharray:none;stroke-opacity:1"
           d="m 545.785,102.605 h 58.402 v 58.398 h -58.402 z" /></g><path
         inkscape:connector-curvature="0"
         id="path10710"
         style="fill:#ffffff;fill-opacity:1;fill-rule:nonzero;stroke:none"
         d="m 574.496,142.329 -8.394,-19.09 c -0.375,-0.934 -1.016,-1.5 -1.715,-1.559 l -1.176,-0.101 v -0.957 c 2.891,0.101 2.953,0.101 3.457,0.101 0.422,0 0.48,0 3.848,-0.101 v 0.957 l -1.176,0.101 c -1.102,0.09 -1.524,0.32 -1.524,0.832 0,0.406 0.446,1.774 1.118,3.367 l 5.461,12.864 6.07,-14.364 c 0.574,-1.332 0.637,-1.777 0.637,-2.074 0,-0.344 -0.508,-0.566 -1.305,-0.625 l -1.496,-0.101 v -0.957 c 3.847,0.101 3.918,0.101 4.422,0.101 0.597,0 0.668,0 4.035,-0.101 v 0.957 l -1.082,0.101 c -0.828,0.121 -1.176,0.672 -2.285,3.242 l -7.692,18.043 z" /><g
         transform="matrix(1,0,0,-1,0,263.59814)"
         id="g10712"
         style="stroke:#ffffff;stroke-opacity:1;fill:#000000;fill-opacity:1"><path
           inkscape:connector-curvature="0"
           id="path10714"
           style="fill:#000000;fill-opacity:1;fill-rule:nonzero;stroke:#ffffff;stroke-width:1.60000002;stroke-linecap:square;stroke-linejoin:miter;stroke-miterlimit:4;stroke-dasharray:none;stroke-opacity:1"
           d="m 778.285,102.605 h 58.402 v 58.398 h -58.402 z" /></g><path
         inkscape:connector-curvature="0"
         id="path10716"
         style="fill:#ffffff;fill-opacity:1;fill-rule:nonzero;stroke:none"
         d="m 806.996,142.329 -8.394,-19.09 c -0.375,-0.934 -1.016,-1.5 -1.715,-1.559 l -1.176,-0.101 v -0.957 c 2.891,0.101 2.953,0.101 3.457,0.101 0.422,0 0.48,0 3.848,-0.101 v 0.957 l -1.176,0.101 c -1.102,0.09 -1.524,0.32 -1.524,0.832 0,0.406 0.446,1.774 1.118,3.367 l 5.461,12.864 6.07,-14.364 c 0.574,-1.332 0.637,-1.777 0.637,-2.074 0,-0.344 -0.508,-0.566 -1.305,-0.625 l -1.496,-0.101 v -0.957 c 3.847,0.101 3.918,0.101 4.422,0.101 0.597,0 0.668,0 4.035,-0.101 v 0.957 l -1.082,0.101 c -0.828,0.121 -1.176,0.672 -2.285,3.242 l -7.692,18.043 z" /><g
         transform="matrix(1,0,0,-1,0,263.59814)"
         id="g10718"
         style="stroke:#ffffff;stroke-opacity:1"><path
           inkscape:connector-curvature="0"
           id="path10720"
           style="fill:none;stroke:#ffffff;stroke-width:1.60000002;stroke-linecap:butt;stroke-linejoin:miter;stroke-miterlimit:4;stroke-dasharray:none;stroke-opacity:1"
           d="m 175.984,233.598 h 798" /></g><g
         transform="matrix(1,0,0,-1,0,263.59814)"
         id="g10722"
         style="fill:#000000;fill-opacity:1;stroke:#ffffff;stroke-opacity:1"><path
           inkscape:connector-curvature="0"
           id="path10724"
           style="fill:#000000;fill-opacity:1;fill-rule:nonzero;stroke:#ffffff;stroke-width:1.60000002;stroke-linecap:square;stroke-linejoin:miter;stroke-miterlimit:4;stroke-dasharray:none;stroke-opacity:1"
           d="m 283.285,204.398 h 118.402 v 58.398 H 283.285 Z" /></g><path
         inkscape:connector-curvature="0"
         id="path10726"
         style="fill:#ffffff;fill-opacity:1;fill-rule:nonzero;stroke:none"
         d="m 314.523,43.7 -1.234,-0.032 c -1.203,-0.058 -1.977,-0.058 -2.613,-0.058 -0.375,0 -1.071,0.027 -2.281,0.058 l -1.247,0.032 v -0.887 l 0.582,-0.063 c 1.301,-0.187 1.555,-0.535 1.684,-2.347 l 1.012,-13.668 c 0.16,-2.098 0.226,-3.625 0.25,-5.281 h 1.594 c 0.441,1.117 1.019,2.351 1.589,3.5 l 7.11,14.109 3.574,-12.457 c 0.465,-1.652 0.816,-3.207 1.23,-5.152 h 1.625 l 0.223,0.828 c 0.32,1.277 0.57,2.133 0.984,3.367 l 5.434,16.117 c 0.184,0.535 0.664,0.914 1.363,0.984 l 0.641,0.063 V 43.7 l -1.023,-0.032 c -0.922,-0.031 -1.618,-0.058 -2.059,-0.058 -0.422,0 -1.117,0.027 -2.074,0.058 l -1.047,0.032 -0.156,-0.887 1.234,-0.063 c 0.926,-0.027 1.301,-0.289 1.301,-0.734 0,-0.41 -0.086,-0.976 -0.285,-1.555 l -4.664,-14.683 -5.024,18.176 h -0.566 c -0.391,-0.852 -1.086,-2.411 -1.653,-3.551 L 312.91,25.911 311.926,41.29 c 0,0.957 0.41,1.39 1.422,1.46 l 1.175,0.063 z" /><path
         inkscape:connector-curvature="0"
         id="path10728"
         style="fill:#ffffff;fill-opacity:1;fill-rule:nonzero;stroke:none"
         d="m 341.023,13.43 h 4.547 v 1.328 h -3.222 v 30.485 h 3.222 v 1.328 h -4.547 z" /><path
         inkscape:connector-curvature="0"
         id="path10730"
         style="fill:#ffffff;fill-opacity:1;fill-rule:nonzero;stroke:none"
         d="m 358.828,43.317 -8.39,-19.09 c -0.379,-0.93 -1.016,-1.496 -1.719,-1.555 l -1.172,-0.101 v -0.957 c 2.891,0.101 2.945,0.101 3.457,0.101 0.414,0 0.476,0 3.848,-0.101 v 0.957 l -1.176,0.101 c -1.11,0.09 -1.524,0.317 -1.524,0.828 0,0.411 0.446,1.774 1.118,3.368 l 5.457,12.863 6.066,-14.363 c 0.582,-1.332 0.637,-1.778 0.637,-2.071 0,-0.343 -0.504,-0.566 -1.301,-0.625 l -1.5,-0.101 v -0.957 c 3.855,0.101 3.918,0.101 4.43,0.101 0.597,0 0.668,0 4.035,-0.101 v 0.957 l -1.082,0.101 c -0.832,0.121 -1.18,0.668 -2.285,3.239 l -7.7,18.043 z" /><path
         inkscape:connector-curvature="0"
         id="path10732"
         style="fill:#ffffff;fill-opacity:1;fill-rule:nonzero;stroke:none"
         d="m 377.824,13.43 v 33.141 h -4.543 v -1.328 h 3.215 V 14.758 h -3.215 V 13.43 Z" /><g
         transform="matrix(1,0,0,-1,0,263.59814)"
         id="g10734"
         style="stroke:#ffffff;stroke-opacity:1;fill:#000000;fill-opacity:1"><path
           inkscape:connector-curvature="0"
           id="path10736"
           style="fill:#000000;fill-opacity:1;fill-rule:nonzero;stroke:#ffffff;stroke-width:1.60000002;stroke-linecap:square;stroke-linejoin:miter;stroke-miterlimit:4;stroke-dasharray:none;stroke-opacity:1"
           d="m 515.785,204.398 h 118.402 v 58.398 H 515.785 Z" /></g><path
         inkscape:connector-curvature="0"
         id="path10738"
         style="fill:#ffffff;fill-opacity:1;fill-rule:nonzero;stroke:none"
         d="m 547.023,43.7 -1.234,-0.032 c -1.203,-0.058 -1.977,-0.058 -2.613,-0.058 -0.375,0 -1.071,0.027 -2.281,0.058 l -1.247,0.032 v -0.887 l 0.582,-0.063 c 1.301,-0.187 1.555,-0.535 1.684,-2.347 l 1.012,-13.668 c 0.16,-2.098 0.226,-3.625 0.25,-5.281 h 1.594 c 0.441,1.117 1.019,2.351 1.589,3.5 l 7.11,14.109 3.574,-12.457 c 0.465,-1.652 0.816,-3.207 1.23,-5.152 h 1.625 l 0.223,0.828 c 0.32,1.277 0.57,2.133 0.984,3.367 l 5.434,16.117 c 0.184,0.535 0.664,0.914 1.363,0.984 l 0.641,0.063 V 43.7 l -1.023,-0.032 c -0.922,-0.031 -1.618,-0.058 -2.059,-0.058 -0.422,0 -1.117,0.027 -2.074,0.058 l -1.047,0.032 -0.156,-0.887 1.234,-0.063 c 0.926,-0.027 1.301,-0.289 1.301,-0.734 0,-0.41 -0.086,-0.976 -0.285,-1.555 l -4.664,-14.683 -5.024,18.176 h -0.566 c -0.391,-0.852 -1.086,-2.411 -1.653,-3.551 L 545.41,25.911 544.426,41.29 c 0,0.957 0.41,1.39 1.422,1.46 l 1.175,0.063 z" /><path
         inkscape:connector-curvature="0"
         id="path10740"
         style="fill:#ffffff;fill-opacity:1;fill-rule:nonzero;stroke:none"
         d="m 573.523,13.43 h 4.547 v 1.328 h -3.222 v 30.485 h 3.222 v 1.328 h -4.547 z" /><path
         inkscape:connector-curvature="0"
         id="path10742"
         style="fill:#ffffff;fill-opacity:1;fill-rule:nonzero;stroke:none"
         d="m 591.328,43.317 -8.39,-19.09 c -0.379,-0.93 -1.016,-1.496 -1.719,-1.555 l -1.172,-0.101 v -0.957 c 2.891,0.101 2.945,0.101 3.457,0.101 0.414,0 0.476,0 3.848,-0.101 v 0.957 l -1.176,0.101 c -1.11,0.09 -1.524,0.317 -1.524,0.828 0,0.411 0.446,1.774 1.118,3.368 l 5.457,12.863 6.066,-14.363 c 0.582,-1.332 0.637,-1.778 0.637,-2.071 0,-0.343 -0.504,-0.566 -1.301,-0.625 l -1.5,-0.101 v -0.957 c 3.855,0.101 3.918,0.101 4.43,0.101 0.597,0 0.668,0 4.035,-0.101 v 0.957 l -1.082,0.101 c -0.832,0.121 -1.18,0.668 -2.285,3.239 l -7.7,18.043 z" /><path
         inkscape:connector-curvature="0"
         id="path10744"
         style="fill:#ffffff;fill-opacity:1;fill-rule:nonzero;stroke:none"
         d="m 610.324,13.43 v 33.141 h -4.543 v -1.328 h 3.215 V 14.758 h -3.215 V 13.43 Z" /><g
         transform="matrix(1,0,0,-1,0,263.59814)"
         id="g10746"
         style="stroke:#ffffff;stroke-opacity:1;fill:#000000;fill-opacity:1"><path
           inkscape:connector-curvature="0"
           id="path10748"
           style="fill:#000000;fill-opacity:1;fill-rule:nonzero;stroke:#ffffff;stroke-width:1.60000002;stroke-linecap:square;stroke-linejoin:miter;stroke-miterlimit:4;stroke-dasharray:none;stroke-opacity:1"
           d="m 748.285,204.398 h 118.402 v 58.398 H 748.285 Z" /></g><path
         inkscape:connector-curvature="0"
         id="path10750"
         style="fill:#ffffff;fill-opacity:1;fill-rule:nonzero;stroke:none"
         d="m 779.523,43.7 -1.234,-0.032 c -1.203,-0.058 -1.977,-0.058 -2.613,-0.058 -0.375,0 -1.071,0.027 -2.281,0.058 l -1.247,0.032 v -0.887 l 0.582,-0.063 c 1.301,-0.187 1.555,-0.535 1.684,-2.347 l 1.012,-13.668 c 0.16,-2.098 0.226,-3.625 0.25,-5.281 h 1.594 c 0.441,1.117 1.019,2.351 1.589,3.5 l 7.11,14.109 3.574,-12.457 c 0.465,-1.652 0.816,-3.207 1.23,-5.152 h 1.625 l 0.223,0.828 c 0.32,1.277 0.57,2.133 0.984,3.367 l 5.434,16.117 c 0.184,0.535 0.664,0.914 1.363,0.984 l 0.641,0.063 V 43.7 l -1.023,-0.032 c -0.922,-0.031 -1.618,-0.058 -2.059,-0.058 -0.422,0 -1.117,0.027 -2.074,0.058 l -1.047,0.032 -0.156,-0.887 1.234,-0.063 c 0.926,-0.027 1.301,-0.289 1.301,-0.734 0,-0.41 -0.086,-0.976 -0.285,-1.555 l -4.664,-14.683 -5.024,18.176 h -0.566 c -0.391,-0.852 -1.086,-2.411 -1.653,-3.551 L 777.91,25.911 776.926,41.29 c 0,0.957 0.41,1.39 1.422,1.46 l 1.175,0.063 z" /><path
         inkscape:connector-curvature="0"
         id="path10752"
         style="fill:#ffffff;fill-opacity:1;fill-rule:nonzero;stroke:none"
         d="m 810.57,13.43 v 1.328 h -3.222 v 30.485 h 3.222 v 1.328 h -4.547 V 13.43 Z" /><path
         inkscape:connector-curvature="0"
         id="path10754"
         style="fill:#ffffff;fill-opacity:1;fill-rule:nonzero;stroke:none"
         d="m 823.828,43.317 -8.39,-19.09 c -0.379,-0.93 -1.016,-1.496 -1.719,-1.555 l -1.172,-0.101 v -0.957 c 2.891,0.101 2.945,0.101 3.457,0.101 0.414,0 0.476,0 3.848,-0.101 v 0.957 l -1.176,0.101 c -1.11,0.09 -1.524,0.317 -1.524,0.828 0,0.411 0.446,1.774 1.118,3.368 l 5.457,12.863 6.066,-14.363 c 0.582,-1.332 0.637,-1.778 0.637,-2.071 0,-0.343 -0.504,-0.566 -1.301,-0.625 l -1.5,-0.101 v -0.957 c 3.855,0.101 3.918,0.101 4.43,0.101 0.597,0 0.668,0 4.035,-0.101 v 0.957 l -1.082,0.101 c -0.832,0.121 -1.18,0.668 -2.285,3.239 l -7.7,18.043 z" /><path
         inkscape:connector-curvature="0"
         id="path10756"
         style="fill:#ffffff;fill-opacity:1;fill-rule:nonzero;stroke:none"
         d="m 842.824,46.571 h -4.543 v -1.328 h 3.215 V 14.758 h -3.215 V 13.43 h 4.543 z" /><path
         inkscape:connector-curvature="0"
         id="path10758"
         style="fill:#ffffff;fill-opacity:1;fill-rule:nonzero;stroke:none"
         d="m 124.227,131.309 0.062,-0.113 0.066,-0.11 0.067,-0.101 0.07,-0.102 0.078,-0.097 0.078,-0.094 0.164,-0.18 0.09,-0.082 0.082,-0.078 0.098,-0.074 0.094,-0.07 0.097,-0.071 0.094,-0.07 0.11,-0.059 0.101,-0.062 0.219,-0.102 0.113,-0.054 0.113,-0.043 0.243,-0.079 0.121,-0.031 0.129,-0.031 0.129,-0.023 0.132,-0.028 0.133,-0.019 0.274,-0.024 0.148,-0.015 0.141,-0.004 h 0.144 c 1.688,0 3.563,0.797 4.965,2.09 2.035,1.875 3.461,5.503 3.461,8.769 0,2.992 -1.586,4.805 -4.195,4.805 -1.364,0 -2.731,-0.481 -4.125,-1.438 l 1.011,-0.304 c 0.411,0.351 1.11,0.535 1.875,0.535 2.004,0 3.024,-1.403 3.024,-4.063 0,-3.086 -0.988,-6.461 -2.383,-8.144 -0.582,-0.664 -1.406,-1.047 -2.355,-1.047 -1.915,0 -2.961,1.437 -2.961,3.937 0,3.602 1.238,7.504 2.8,8.782 l -1.011,0.304 c -1.086,-0.726 -1.973,-1.683 -2.641,-2.816 -0.48,-0.711 -0.855,-1.492 -1.176,-2.258 -0.797,-1.875 -1.238,-3.809 -1.586,-5.754 -0.582,-3.336 -0.957,-8.258 -1.336,-11.57 l 0.481,-0.25 c 0.785,0.25 1.39,0.41 2.281,0.539 -0.062,0.93 -0.094,2.137 -0.094,3.398 0,2.231 0.094,4.645 0.313,6.258 z" /><path
         inkscape:connector-curvature="0"
         id="path10760"
         style="fill:#ffffff;fill-opacity:1;fill-rule:nonzero;stroke:none"
         d="m 146.918,130.903 v 0.004 l 0.008,0.008 v 0.011 l 0.004,0.039 0.008,0.043 0.011,0.067 0.016,0.07 0.019,0.082 0.016,0.094 0.02,0.109 0.019,0.113 0.027,0.129 0.02,0.133 0.031,0.149 0.024,0.148 0.035,0.156 0.023,0.168 0.031,0.172 0.032,0.18 0.07,0.367 0.031,0.191 0.039,0.2 0.071,0.402 0.078,0.414 0.07,0.414 0.074,0.414 0.071,0.41 c 0.39,2.278 0.66,3.461 1.097,4.762 l -0.265,0.363 c -0.493,-0.293 -1.137,-0.578 -1.891,-0.867 -0.676,-4.797 -1.352,-9.223 -2.18,-13.762 -1.257,0.125 -2.902,0.606 -2.902,2.539 0,0.368 0.051,0.829 0.152,1.286 l 0.989,5.054 c 0.078,0.375 0.117,0.719 0.117,1.039 0,0.454 -0.188,0.746 -0.524,0.746 -0.511,0 -1.41,-0.48 -3.222,-1.785 l -0.676,-0.492 0.168,-0.48 0.777,0.511 c 0.696,0.426 0.942,0.547 1.168,0.547 0.235,0 0.406,-0.207 0.406,-0.476 0,-0.121 -0.031,-0.321 -0.05,-0.442 l -1.032,-5.508 c -0.035,-0.187 -0.035,-0.41 -0.035,-0.593 0,-1.68 1.793,-3.203 4.203,-3.203 h 0.227 c -0.34,-1.766 -0.703,-3.528 -1.094,-5.364 l -0.183,-0.894 0.16,-0.137 c 0.504,0.156 0.992,0.285 1.773,0.406 l 1.008,6.188 c 0.941,0.191 2.129,0.676 3.336,1.785 1.062,0.961 1.789,2.105 2.492,3.629 0.606,1.281 1.016,2.926 1.016,3.933 0,1.407 -0.61,2.375 -1.492,2.375 -0.34,0 -0.594,-0.101 -0.813,-0.292 l -1.203,-1.137 0.266,-0.461 c 0.222,0.156 0.41,0.226 0.652,0.226 0.676,0 1.043,-0.562 1.043,-1.527 0,-5.152 -2.813,-7.137 -5.133,-7.441 z" /><path
         inkscape:connector-curvature="0"
         id="path10762"
         style="fill:#ffffff;fill-opacity:1;fill-rule:nonzero;stroke:none"
         d="m 124.227,29.516 0.062,-0.117 0.066,-0.106 0.067,-0.101 0.07,-0.106 0.078,-0.093 0.078,-0.098 0.082,-0.086 0.082,-0.09 0.09,-0.086 0.082,-0.074 0.098,-0.078 0.094,-0.07 0.097,-0.071 0.094,-0.07 0.11,-0.055 0.101,-0.066 0.219,-0.102 0.113,-0.05 0.113,-0.043 0.243,-0.079 0.121,-0.031 0.129,-0.031 0.129,-0.027 0.132,-0.024 0.133,-0.019 0.137,-0.012 0.137,-0.016 0.148,-0.011 0.141,-0.008 h 0.144 c 1.688,0 3.563,0.801 4.965,2.094 2.035,1.875 3.461,5.503 3.461,8.769 0,2.992 -1.586,4.801 -4.195,4.801 -1.364,0 -2.731,-0.477 -4.125,-1.434 l 1.011,-0.304 c 0.411,0.351 1.11,0.535 1.875,0.535 2.004,0 3.024,-1.403 3.024,-4.063 0,-3.086 -0.988,-6.461 -2.383,-8.144 -0.582,-0.664 -1.406,-1.047 -2.355,-1.047 -1.915,0 -2.961,1.433 -2.961,3.933 0,3.606 1.238,7.508 2.8,8.786 l -1.011,0.304 c -1.086,-0.726 -1.973,-1.683 -2.641,-2.82 -0.48,-0.707 -0.855,-1.492 -1.176,-2.258 -0.797,-1.875 -1.238,-3.805 -1.586,-5.75 -0.582,-3.336 -0.957,-8.262 -1.336,-11.57 l 0.481,-0.25 c 0.785,0.25 1.39,0.41 2.281,0.535 -0.062,0.934 -0.094,2.137 -0.094,3.402 0,2.231 0.094,4.641 0.313,6.254 z" /><path
         inkscape:connector-curvature="0"
         id="path10764"
         style="fill:#ffffff;fill-opacity:1;fill-rule:nonzero;stroke:none"
         d="m 146.918,29.106 v 0.008 l 0.008,0.008 v 0.011 l 0.004,0.039 0.008,0.043 0.011,0.063 0.016,0.07 0.019,0.086 0.016,0.094 0.02,0.109 0.019,0.113 0.027,0.129 0.02,0.133 0.031,0.149 0.024,0.144 0.035,0.16 0.023,0.168 0.031,0.172 0.032,0.176 0.035,0.187 0.035,0.184 0.031,0.191 0.039,0.2 0.071,0.398 0.078,0.418 0.07,0.414 0.074,0.414 0.071,0.406 c 0.39,2.278 0.66,3.465 1.097,4.766 l -0.265,0.363 c -0.493,-0.293 -1.137,-0.578 -1.891,-0.867 -0.676,-4.797 -1.352,-9.222 -2.18,-13.762 -1.257,0.125 -2.902,0.606 -2.902,2.536 0,0.371 0.051,0.832 0.152,1.289 l 0.989,5.05 c 0.078,0.379 0.117,0.723 0.117,1.04 0,0.453 -0.188,0.75 -0.524,0.75 -0.511,0 -1.41,-0.481 -3.222,-1.79 l -0.676,-0.488 0.168,-0.48 0.777,0.511 c 0.696,0.426 0.942,0.547 1.168,0.547 0.235,0 0.406,-0.211 0.406,-0.476 0,-0.121 -0.031,-0.321 -0.05,-0.442 l -1.032,-5.511 c -0.035,-0.184 -0.035,-0.407 -0.035,-0.59 0,-1.68 1.793,-3.203 4.203,-3.203 h 0.227 c -0.34,-1.766 -0.703,-3.528 -1.094,-5.364 l -0.183,-0.894 0.16,-0.141 c 0.504,0.16 0.992,0.289 1.773,0.41 l 1.008,6.188 c 0.941,0.191 2.129,0.676 3.336,1.785 1.062,0.961 1.789,2.105 2.492,3.629 0.606,1.281 1.016,2.926 1.016,3.934 0,1.402 -0.61,2.375 -1.492,2.375 -0.34,0 -0.594,-0.106 -0.813,-0.297 l -1.203,-1.133 0.266,-0.461 c 0.222,0.152 0.41,0.223 0.652,0.223 0.676,0 1.043,-0.559 1.043,-1.524 0,-5.152 -2.813,-7.137 -5.133,-7.441 z" /><path
         inkscape:connector-curvature="0"
         id="path10766"
         style="fill:#ffffff;fill-opacity:1;fill-rule:nonzero;stroke:none"
         d="m 79.801,223.161 h 0.246 l 0.246,-0.008 h 0.238 l 0.231,-0.008 h 0.23 l 0.211,-0.008 h 0.418 l 0.195,-0.008 h 0.196 l 0.176,-0.007 h 0.359 l 0.16,-0.012 h 0.469 l 0.152,-0.008 h 0.274 l 0.253,-0.008 h 0.461 l 0.204,-0.008 h 0.367 l 0.16,-0.007 h 0.75 l 0.09,-0.012 h 0.691 c 1.309,0 1.352,0 7.117,0.137 0,2.457 0.254,4.746 0.68,6.949 h -1.488 c -0.086,-0.68 -0.16,-1.278 -0.211,-1.438 -0.258,-1.828 -0.801,-3.129 -1.395,-3.343 -0.894,-0.305 -3.988,-0.516 -7.801,-0.516 -2.191,0 -2.964,0.094 -4.191,0.34 v 11.871 c 1.184,0.074 2.457,0.117 4.363,0.117 3.137,0 4.278,-0.117 5.051,-0.508 l 0.332,-1.062 0.211,-2.492 h 1.277 c -0.136,3.093 -0.136,3.945 -0.136,4.703 0,0.672 0,1.945 0.136,4.914 h -1.277 l -0.211,-2.211 c -0.043,-0.383 -0.18,-0.758 -0.332,-1.098 -0.773,-0.332 -1.957,-0.469 -4.746,-0.469 -1.785,0 -3.23,0.043 -4.668,0.137 v 11.301 c 1.32,0.301 2.031,0.351 4.957,0.351 2.426,0 4.789,-0.214 6.141,-0.597 1.019,-0.254 1.14,-0.465 1.14,-1.438 v -2.761 h 1.489 c 0,2.55 0.211,4.582 0.679,6.445 -2.074,0.078 -3.383,0.117 -5.246,0.117 -1.062,0 -2.457,0 -4.203,-0.039 -1.019,-0.043 -1.914,-0.043 -2.711,-0.043 -2.457,-0.035 -5.34,-0.035 -6.828,-0.035 l -1.004,-1.277 c 1.352,-0.082 1.563,-0.465 1.563,-3.817 V 228.29 c 0,-3.34 -0.211,-3.692 -1.563,-3.809 -1.363,0.117 -1.617,0.469 -1.617,3.809 v 19.015 c 0,3.352 0.254,3.699 1.617,3.817 l 1.004,1.277 c -2.195,0 -6.098,0.035 -8.598,0.117 v -1.266 l 1.864,-0.128 c 1.742,-0.118 2.168,-0.465 2.168,-3.817 V 228.29 c 0,-3.34 -0.426,-3.735 -2.168,-3.809 l -1.864,-0.137 v -1.277 c 2.5,0.094 6.403,0.137 8.598,0.137 0.211,0 3.484,0 5.094,-0.043 z" /><path
         inkscape:connector-curvature="0"
         id="path10768"
         style="fill:#ffffff;fill-opacity:1;fill-rule:nonzero;stroke:none"
         d="m 107.887,257.493 h 6.429 v 1.699 h -8.128 v -50.809 h 8.128 v 1.7 h -6.429 z" /><path
         inkscape:connector-curvature="0"
         id="path10770"
         style="fill:#ffffff;fill-opacity:1;fill-rule:nonzero;stroke:none"
         d="m 1073.645,257.493 v -47.41 h -6.446 v -1.7 h 8.141 v 50.809 h -8.141 v -1.699 z" /><path
         inkscape:connector-curvature="0"
         id="path10772"
         style="fill:#ffffff;fill-opacity:1;fill-rule:nonzero;stroke:none"
         d="m 79.801,121.168 h 0.246 l 0.246,-0.007 h 0.238 l 0.231,-0.008 h 0.23 l 0.211,-0.012 h 0.418 l 0.195,-0.008 h 0.196 l 0.176,-0.008 h 0.359 l 0.16,-0.007 h 0.469 l 0.152,-0.008 h 0.274 l 0.253,-0.008 h 0.461 l 0.204,-0.012 h 0.367 l 0.16,-0.007 h 0.75 l 0.09,-0.008 h 0.691 c 1.309,0 1.352,0 7.117,0.136 0,2.457 0.254,4.747 0.68,6.946 h -1.488 c -0.086,-0.68 -0.16,-1.274 -0.211,-1.434 -0.258,-1.832 -0.801,-3.133 -1.395,-3.344 -0.894,-0.304 -3.988,-0.519 -7.801,-0.519 -2.191,0 -2.964,0.094 -4.191,0.34 v 11.871 c 1.184,0.078 2.457,0.121 4.363,0.121 3.137,0 4.278,-0.121 5.051,-0.512 l 0.332,-1.062 0.211,-2.493 h 1.277 c -0.136,3.098 -0.136,3.946 -0.136,4.704 0,0.671 0,1.949 0.136,4.914 h -1.277 l -0.211,-2.211 c -0.043,-0.383 -0.18,-0.754 -0.332,-1.094 -0.773,-0.332 -1.957,-0.469 -4.746,-0.469 -1.785,0 -3.23,0.043 -4.668,0.137 v 11.301 c 1.32,0.297 2.031,0.347 4.957,0.347 2.426,0 4.789,-0.211 6.141,-0.593 1.019,-0.258 1.14,-0.469 1.14,-1.438 v -2.765 h 1.489 c 0,2.55 0.211,4.585 0.679,6.449 -2.074,0.074 -3.383,0.117 -5.246,0.117 -1.062,0 -2.457,0 -4.203,-0.043 -1.019,-0.043 -1.914,-0.043 -2.711,-0.043 -2.457,-0.031 -5.34,-0.031 -6.828,-0.031 l -1.004,-1.278 c 1.352,-0.086 1.563,-0.468 1.563,-3.82 v -19.012 c 0,-3.343 -0.211,-3.691 -1.563,-3.812 -1.363,0.121 -1.617,0.469 -1.617,3.812 v 19.012 c 0,3.352 0.254,3.699 1.617,3.82 l 1.004,1.278 c -2.195,0 -6.098,0.031 -8.598,0.117 v -1.266 l 1.864,-0.129 c 1.742,-0.121 2.168,-0.468 2.168,-3.82 v -19.012 c 0,-3.343 -0.426,-3.734 -2.168,-3.812 l -1.864,-0.133 v -1.277 c 2.5,0.093 6.403,0.136 8.598,0.136 0.211,0 3.484,0 5.094,-0.043 z" /><path
         inkscape:connector-curvature="0"
         id="path10774"
         style="fill:#ffffff;fill-opacity:1;fill-rule:nonzero;stroke:none"
         d="m 114.316,155.5 v 1.7 h -8.128 v -50.813 h 8.128 v 1.703 h -6.429 v 47.41 z" /><path
         inkscape:connector-curvature="0"
         id="path10776"
         style="fill:#ffffff;fill-opacity:1;fill-rule:nonzero;stroke:none"
         d="m 1073.645,108.09 h -6.446 v -1.703 h 8.141 V 157.2 h -8.141 v -1.7 h 6.446 z" /><path
         inkscape:connector-curvature="0"
         id="path10778"
         style="fill:#ffffff;fill-opacity:1;fill-rule:nonzero;stroke:none"
         d="m 1002.168,35.325 h 3.715 c 0.859,0 1.844,-0.032 3.367,-0.102 l 0.828,-0.023 0.598,1.433 -0.125,0.215 c -2.578,-0.125 -4.477,-0.191 -6.961,-0.191 h -1.172 l 1.332,7.566 c 0.102,0.512 0.16,0.758 0.289,1.02 l 1.496,0.058 c 1.016,0.032 2.031,0.071 2.731,0.071 1.972,0 3.265,-0.289 3.296,-0.766 l 0.262,-2.832 h 0.766 c 0.09,2.035 0.308,3.629 0.656,4.836 -0.656,0.055 -1.613,0.086 -2.191,0.086 -0.09,0 -0.434,0 -1.207,-0.031 l -3.809,-0.032 c -0.285,-0.023 -2.16,-0.023 -2.48,-0.023 -1.172,0 -2.028,0 -3.653,0.055 l -1.429,0.031 -0.094,-0.887 1.715,-0.062 c 0.765,-0.024 1.113,-0.286 1.113,-0.856 0,-0.445 -0.133,-1.465 -0.293,-2.422 l -2.762,-16.015 c -0.125,-0.567 -0.504,-0.786 -1.898,-1.016 l -0.16,-0.828 1.293,0.047 c 0.992,0.023 2.961,0.054 3.597,0.054 l 6.824,-0.101 h 0.321 c 0.453,0 1.238,0.047 2.297,0.07 l 1.047,0.031 0.125,1.149 c 0.066,0.637 0.222,1.582 0.511,3.14 l 0.16,0.821 h -0.855 l -0.512,-1.899 c -0.316,-1.148 -0.605,-1.527 -1.304,-1.683 -0.641,-0.129 -2.961,-0.289 -4.676,-0.289 -1.301,0 -2.004,0.039 -4.192,0.23 v 0.113 c 0,0.454 0.028,0.707 0.063,0.989 z" /><path
         inkscape:connector-curvature="0"
         id="path10780"
         style="fill:#ffffff;fill-opacity:1;fill-rule:nonzero;stroke:none"
         d="m 1023.613,25.77 v 0.016 0.011 l 0.01,0.039 0.01,0.043 0.012,0.063 0.011,0.07 0.02,0.086 0.012,0.094 0.019,0.109 0.027,0.114 0.02,0.128 0.023,0.133 0.032,0.149 0.027,0.144 0.023,0.16 0.036,0.168 0.031,0.172 0.031,0.176 0.031,0.188 0.039,0.183 0.032,0.192 0.039,0.199 0.07,0.402 0.074,0.414 0.07,0.414 0.079,0.414 0.07,0.407 c 0.387,2.277 0.656,3.464 1.098,4.765 l -0.27,0.363 c -0.492,-0.293 -1.141,-0.578 -1.887,-0.867 -0.675,-4.797 -1.351,-9.222 -2.183,-13.761 -1.254,0.125 -2.899,0.605 -2.899,2.535 0,0.371 0.051,0.832 0.153,1.289 l 0.98,5.051 c 0.082,0.378 0.121,0.722 0.121,1.042 0,0.45 -0.183,0.747 -0.527,0.747 -0.504,0 -1.406,-0.481 -3.215,-1.789 l -0.684,-0.489 0.172,-0.48 0.778,0.511 c 0.695,0.426 0.945,0.547 1.168,0.547 0.238,0 0.41,-0.211 0.41,-0.476 0,-0.121 -0.035,-0.321 -0.051,-0.442 l -1.043,-5.511 c -0.023,-0.184 -0.023,-0.407 -0.023,-0.59 0,-1.68 1.793,-3.203 4.203,-3.203 h 0.222 c -0.343,-1.766 -0.703,-3.528 -1.089,-5.364 l -0.188,-0.894 0.16,-0.141 c 0.504,0.16 0.996,0.289 1.774,0.41 l 1.004,6.188 c 0.949,0.191 2.132,0.676 3.339,1.785 1.067,0.961 1.793,2.106 2.493,3.629 0.609,1.281 1.015,2.926 1.015,3.934 0,1.402 -0.605,2.375 -1.492,2.375 -0.344,0 -0.594,-0.106 -0.809,-0.297 l -1.207,-1.133 0.27,-0.461 c 0.215,0.152 0.406,0.223 0.648,0.223 0.676,0 1.047,-0.559 1.047,-1.524 0,-5.152 -2.812,-7.137 -5.133,-7.441 z" /><path
         inkscape:connector-curvature="0"
         id="path10782"
         style="fill:#ffffff;fill-opacity:1;fill-rule:nonzero;stroke:none"
         d="m 1002.168,137.118 h 3.715 c 0.859,0 1.84,-0.032 3.367,-0.102 l 0.828,-0.023 0.598,1.433 -0.125,0.219 c -2.578,-0.129 -4.477,-0.191 -6.961,-0.191 h -1.172 l 1.332,7.562 c 0.102,0.512 0.16,0.758 0.289,1.02 l 1.496,0.058 c 1.016,0.031 2.031,0.071 2.731,0.071 1.972,0 3.265,-0.286 3.296,-0.766 l 0.262,-2.832 h 0.766 c 0.09,2.035 0.308,3.629 0.656,4.836 -0.656,0.058 -1.613,0.09 -2.191,0.09 -0.09,0 -0.434,0 -1.207,-0.032 l -3.809,-0.035 c -0.285,-0.023 -2.16,-0.023 -2.48,-0.023 -1.172,0 -2.028,0 -3.653,0.058 l -1.429,0.032 -0.098,-0.887 1.719,-0.066 c 0.765,-0.024 1.113,-0.286 1.113,-0.852 0,-0.449 -0.133,-1.469 -0.293,-2.426 l -2.762,-16.015 c -0.125,-0.567 -0.504,-0.786 -1.898,-1.012 l -0.16,-0.832 1.293,0.047 c 0.988,0.023 2.961,0.058 3.597,0.058 l 6.824,-0.105 h 0.321 c 0.453,0 1.238,0.047 2.297,0.07 l 1.047,0.035 0.125,1.145 c 0.066,0.64 0.222,1.582 0.511,3.14 l 0.16,0.821 h -0.855 l -0.512,-1.899 c -0.316,-1.148 -0.605,-1.523 -1.304,-1.683 -0.641,-0.129 -2.961,-0.289 -4.676,-0.289 -1.301,0 -2.004,0.039 -4.192,0.23 v 0.117 c 0,0.45 0.028,0.707 0.063,0.989 z" /><path
         inkscape:connector-curvature="0"
         id="path10784"
         style="fill:#ffffff;fill-opacity:1;fill-rule:nonzero;stroke:none"
         d="m 1023.613,127.567 v 0.012 0.011 l 0.01,0.039 0.01,0.043 0.012,0.067 0.011,0.07 0.02,0.082 0.012,0.094 0.019,0.109 0.027,0.117 0.02,0.125 0.023,0.133 0.032,0.149 0.027,0.148 0.023,0.156 0.036,0.168 0.031,0.172 0.031,0.18 0.031,0.183 0.039,0.184 0.032,0.191 0.039,0.2 0.07,0.402 0.074,0.414 0.07,0.414 0.079,0.414 0.07,0.41 c 0.387,2.278 0.656,3.461 1.098,4.762 l -0.27,0.363 c -0.492,-0.293 -1.141,-0.578 -1.887,-0.867 -0.675,-4.793 -1.351,-9.222 -2.183,-13.762 -1.254,0.129 -2.903,0.606 -2.903,2.54 0,0.367 0.055,0.828 0.157,1.289 l 0.98,5.05 c 0.082,0.375 0.121,0.719 0.121,1.039 0,0.454 -0.183,0.747 -0.527,0.747 -0.504,0 -1.406,-0.481 -3.215,-1.786 l -0.684,-0.492 0.172,-0.476 0.778,0.507 c 0.695,0.43 0.945,0.551 1.168,0.551 0.238,0 0.41,-0.211 0.41,-0.48 0,-0.121 -0.035,-0.321 -0.051,-0.442 l -1.043,-5.507 c -0.023,-0.188 -0.023,-0.411 -0.023,-0.594 0,-1.68 1.793,-3.203 4.203,-3.203 h 0.222 c -0.343,-1.766 -0.703,-3.528 -1.089,-5.364 l -0.188,-0.894 0.16,-0.137 c 0.504,0.156 0.996,0.285 1.774,0.406 l 1.004,6.188 c 0.949,0.191 2.132,0.676 3.339,1.785 1.067,0.965 1.793,2.106 2.493,3.629 0.609,1.281 1.015,2.926 1.015,3.934 0,1.406 -0.605,2.375 -1.492,2.375 -0.344,0 -0.594,-0.102 -0.809,-0.293 l -1.207,-1.137 0.27,-0.457 c 0.215,0.152 0.406,0.222 0.648,0.222 0.676,0 1.047,-0.562 1.047,-1.527 0,-5.152 -2.812,-7.137 -5.133,-7.441 z" /><g
         id="g11467"
         transform="matrix(1.3559832,0,0,-1.3559832,814.85859,1336.3165)"
         style="fill:#ffffff;fill-opacity:1"><g
           word-spacing="normal"
           letter-spacing="normal"
           font-size-adjust="none"
           font-stretch="normal"
           font-weight="normal"
           font-variant="normal"
           font-style="normal"
           stroke-miterlimit="10.433"
           xml:space="preserve"
           transform="matrix(0.47071097,0,0,-0.47071097,-82.37442,1008.1803)"
           id="content"
           style="font-style:normal;font-variant:normal;font-weight:normal;font-stretch:normal;letter-spacing:normal;word-spacing:normal;text-anchor:start;fill:#ffffff;fill-opacity:1;fill-rule:evenodd;stroke:#000000;stroke-width:0.7374723;stroke-linecap:butt;stroke-linejoin:miter;stroke-miterlimit:10.43299961;stroke-dasharray:none;stroke-dashoffset:0;stroke-opacity:1"><path
             id="path11470"
             d="m 471.08,410.98 -3.53,26.31 c -0.05,1.39 0.34,1.74 2.09,1.89 l 2.09,0.1 v 1.39 l -2.04,-0.05 c -1.89,-0.05 -3.28,-0.09 -4.13,-0.09 -0.86,0 -2.25,0.04 -4.14,0.09 l -2.04,0.05 v -1.39 l 1.25,-0.1 c 2.18,-0.15 2.59,-0.54 2.93,-2.39 l 4.39,-31 h 2.44 l 18.83,30.85 c 1.25,2 1.64,2.34 3.09,2.54 l 0.89,0.1 v 1.39 l -1.48,-0.05 c -1.41,-0.05 -2.55,-0.09 -3.3,-0.09 -0.45,0 -1.79,0.04 -3.89,0.09 l -2.28,0.05 v -1.39 l 1.3,-0.1 c 1.93,-0.15 2.83,-0.65 2.83,-1.59 0,-0.55 -0.19,-1.09 -0.8,-2.09 z"
             inkscape:connector-curvature="0"
             style="fill:#ffffff;stroke-width:0;fill-opacity:1" /><path
             id="path11472"
             d="m 496.25,441.9 -0.21,-0.19 c 0.08,-0.57 0.13,-0.84 0.13,-1.29 0,-0.46 -0.05,-0.72 -0.13,-1.25 l 0.21,-0.19 4.36,0.27 h 2.23 v -2.96 c 0,-5.65 -0.08,-8.56 -0.27,-11.11 l -0.07,-0.98 0.18,-0.19 c 0.83,0.11 1.18,0.16 1.55,0.16 0.39,0 0.73,-0.05 1.56,-0.16 l 0.19,0.19 -0.08,0.98 c -0.19,2.61 -0.26,5.32 -0.26,11.11 v 2.96 h 2.23 c 0.5,0 0.99,-0.04 1.94,-0.11 0.75,-0.05 1.4,-0.13 1.7,-0.13 l 0.72,-0.03 0.19,0.19 c -0.07,0.53 -0.11,0.79 -0.11,1.25 0,0.45 0.04,0.72 0.11,1.29 l -0.19,0.19 -4.36,-0.26 h -2.23 v 1.97 c 0,1.25 0.11,3.1 0.37,5.42 l 0.05,0.45 0.08,0.83 -0.19,0.19 c -1.11,-0.07 -1.41,-0.11 -1.72,-0.11 -0.3,0 -0.59,0.04 -1.7,0.11 l -0.19,-0.19 0.08,-0.83 0.08,-0.72 c 0.26,-2.84 0.34,-3.94 0.34,-5.15 v -1.97 h -2.23 c -0.61,0 -1.04,0.03 -2.13,0.11 -0.66,0.07 -1.22,0.11 -1.52,0.11 z"
             inkscape:connector-curvature="0"
             style="fill:#ffffff;stroke-width:0;fill-opacity:1" /><path
             id="path11474"
             d="m 488.11,409.11 h 1.17 l 0.68,2.13 c 0.43,1.33 2.77,2.58 4.79,2.58 2.45,0 4.46,-1.97 4.46,-4.44 0,-2.81 -2.23,-5.19 -4.92,-5.19 -0.26,0 -0.72,0.03 -1.22,0.06 l -0.56,0.05 -0.45,-2.01 0.26,-0.22 c 1.44,0.64 2.11,0.82 3.18,0.82 3.15,0 4.96,-2 4.96,-5.45 0,-3.9 -2.31,-6.4 -5.82,-6.4 -1.78,0 -3.35,0.56 -4.44,1.62 -0.95,0.88 -1.41,1.7 -2.13,3.75 l -1.03,-0.37 c 0.8,-2.32 1.11,-3.68 1.33,-5.57 2.02,-0.68 3.64,-1 5.08,-1 3.03,0 6.53,1.72 8.61,4.25 1.28,1.57 1.94,3.22 1.94,5 0,1.86 -0.77,3.42 -2.13,4.36 -0.95,0.69 -1.83,0.99 -3.72,1.33 3.03,2.36 4.17,4.06 4.17,6.33 0,3.37 -2.81,5.61 -7.01,5.61 -2.58,0 -4.28,-0.72 -6.1,-2.53 z"
             inkscape:connector-curvature="0"
             style="fill:#ffffff;stroke-width:0;fill-opacity:1" /><path
             id="path11476"
             d="m 529.05,422.84 h 5.83 c 1.35,0 2.89,-0.05 5.28,-0.16 l 1.3,-0.04 0.94,2.25 -0.2,0.34 c -4.04,-0.2 -7.02,-0.3 -10.91,-0.3 h -1.84 l 2.09,11.86 c 0.16,0.8 0.25,1.19 0.45,1.6 l 2.35,0.09 c 1.68,0.05 2.98,0.11 4.28,0.11 3.09,0 5.12,-0.45 5.17,-1.2 l 0.41,-4.44 h 1.2 c 0.14,3.19 0.48,5.69 1.03,7.58 -0.98,0.09 -2.33,0.14 -3.44,0.14 h -1.89 l -5.97,-0.1 c -1.4,-0.04 -2.7,-0.04 -3.89,-0.04 -1.5,0 -3.48,0.04 -5.73,0.09 l -2.24,0.05 -0.15,-1.39 2.68,-0.1 c 1.21,-0.04 1.75,-0.45 1.75,-1.34 0,-0.7 -0.2,-2.2 -0.45,-3.8 l -4.33,-25.11 c -0.2,-0.89 -0.79,-1.23 -2.98,-1.59 l -0.25,-1.3 2.03,0.07 c 1.55,0.04 4.64,0.09 5.64,0.09 l 10.7,-0.16 h 0.5 c 0.71,0 1.94,0.07 3.6,0.11 l 1.64,0.05 0.2,1.8 c 0.1,1 0.35,2.48 0.8,4.92 l 0.25,1.29 h -1.35 l -0.79,-2.98 c -0.5,-1.8 -0.96,-2.39 -2.05,-2.64 -1.05,-0.25 -4.53,-0.45 -7.37,-0.45 -2.05,0 -3.39,0.06 -6.54,0.36 v 0.18 c 0,0.71 0.05,1.11 0.11,1.55 z"
             inkscape:connector-curvature="0"
             style="fill:#ffffff;stroke-width:0;fill-opacity:1" /><path
             id="path11478"
             d="m 562.68,407.86 v 0 0.01 0.01 l 0.01,0.02 0.01,0.06 0.01,0.07 0.02,0.1 0.02,0.11 0.03,0.13 0.02,0.15 0.03,0.17 0.04,0.18 0.03,0.2 0.04,0.21 0.04,0.23 0.05,0.23 0.04,0.25 0.05,0.26 0.05,0.27 0.05,0.28 0.05,0.29 0.06,0.29 0.05,0.3 0.06,0.31 0.11,0.63 0.11,0.65 0.12,0.65 0.12,0.65 0.11,0.64 c 0.61,3.57 1.03,5.43 1.72,7.47 l -0.43,0.57 c -0.76,-0.46 -1.78,-0.91 -2.95,-1.36 -1.06,-7.52 -2.12,-14.46 -3.42,-21.58 -1.97,0.2 -4.55,0.95 -4.55,3.98 0,0.58 0.08,1.3 0.24,2.02 l 1.54,7.92 c 0.13,0.59 0.19,1.13 0.19,1.63 0,0.71 -0.3,1.17 -0.83,1.17 -0.79,0 -2.2,-0.75 -5.04,-2.8 l -1.07,-0.77 0.27,-0.75 1.22,0.8 c 1.09,0.67 1.48,0.86 1.83,0.86 0.37,0 0.64,-0.33 0.64,-0.75 0,-0.19 -0.05,-0.5 -0.08,-0.69 l -1.63,-8.64 c -0.04,-0.29 -0.04,-0.64 -0.04,-0.93 0,-2.63 2.81,-5.02 6.59,-5.02 h 0.34 c -0.53,-2.77 -1.09,-5.53 -1.7,-8.41 l -0.3,-1.4 0.25,-0.22 c 0.8,0.25 1.57,0.45 2.79,0.64 l 1.57,9.7 c 1.49,0.3 3.35,1.06 5.24,2.8 1.67,1.51 2.81,3.3 3.9,5.69 0.96,2.01 1.6,4.59 1.6,6.17 0,2.2 -0.95,3.72 -2.35,3.72 -0.53,0 -0.92,-0.16 -1.26,-0.46 l -1.89,-1.78 0.42,-0.72 c 0.34,0.24 0.64,0.35 1.02,0.35 1.06,0 1.64,-0.88 1.64,-2.39 0,-8.08 -4.41,-11.19 -8.05,-11.67 z"
             inkscape:connector-curvature="0"
             style="fill:#ffffff;stroke-width:0;fill-opacity:1" /></g></g></g></g></svg>