<?xml version="1.0" encoding="UTF-8" standalone="no"?>
<!-- Created with Inkscape (http://www.inkscape.org/) -->

<svg
   xmlns:dc="http://purl.org/dc/elements/1.1/"
   xmlns:cc="http://creativecommons.org/ns#"
   xmlns:rdf="http://www.w3.org/1999/02/22-rdf-syntax-ns#"
   xmlns:svg="http://www.w3.org/2000/svg"
   xmlns="http://www.w3.org/2000/svg"
   xmlns:sodipodi="http://sodipodi.sourceforge.net/DTD/sodipodi-0.dtd"
   xmlns:inkscape="http://www.inkscape.org/namespaces/inkscape"
   width="236.71777mm"
   height="88.431061mm"
   viewBox="0 0 838.76376 313.3384"
   id="svg2"
   version="1.1"
   inkscape:version="0.91 r13725"
   sodipodi:docname="bayesian-pe-flowchart.svg"
   inkscape:export-xdpi="500.06638"
   inkscape:export-ydpi="500.06638">
  <sodipodi:namedview
     id="base"
     pagecolor="#ffffff"
     bordercolor="#666666"
     borderopacity="1.0"
     inkscape:pageopacity="0.0"
     inkscape:pageshadow="2"
     inkscape:zoom="0.98359039"
     inkscape:cx="417.34856"
     inkscape:cy="156.6692"
     inkscape:document-units="px"
     inkscape:current-layer="layer1"
     showgrid="false"
     inkscape:window-width="1275"
     inkscape:window-height="668"
     inkscape:window-x="1239"
     inkscape:window-y="605"
     inkscape:window-maximized="0"
     showguides="false"
     inkscape:guide-bbox="true"
     inkscape:snap-bbox="true"
     inkscape:snap-intersection-paths="true"
     inkscape:bbox-nodes="true"
     inkscape:snap-to-guides="true"
     inkscape:object-paths="true"
     fit-margin-top="0"
     fit-margin-left="0"
     fit-margin-right="0"
     fit-margin-bottom="0">
    <sodipodi:guide
       position="734.48954,61.035845"
       orientation="122.70558,0"
       id="guide5342" />
    <sodipodi:guide
       position="104.27421,61.035845"
       orientation="122.70558,0"
       id="guide5344" />
    <sodipodi:guide
       position="533.11762,148.95225"
       orientation="0,59.11628"
       id="guide5682" />
    <sodipodi:guide
       position="734.48954,61.035845"
       orientation="0,1"
       id="guide5690" />
    <sodipodi:guide
       position="536.40438,13.279987"
       orientation="0,59.11628"
       id="guide5902" />
    <sodipodi:guide
       position="277.3838,207.24094"
       orientation="116.57748,0"
       id="guide6161" />
    <sodipodi:guide
       position="277.3838,90.663453"
       orientation="0,239.86609"
       id="guide6163" />
    <sodipodi:guide
       position="517.24988,90.663453"
       orientation="-116.57748,0"
       id="guide6165" />
    <sodipodi:guide
       position="517.24988,207.24094"
       orientation="0,-239.86609"
       id="guide6167" />
  </sodipodi:namedview>
  <defs
     id="defs4">
    <marker
       inkscape:stockid="Arrow1Mstart"
       orient="auto"
       refY="0"
       refX="0"
       id="Arrow1Mstart"
       style="overflow:visible"
       inkscape:isstock="true">
      <path
         id="path4654"
         d="M 0,0 5,-5 -12.5,0 5,5 0,0 Z"
         style="fill:#000000;fill-opacity:1;fill-rule:evenodd;stroke:#000000;stroke-width:1pt;stroke-opacity:1"
         transform="matrix(0.4,0,0,0.4,4,0)"
         inkscape:connector-curvature="0" />
    </marker>
    <marker
       inkscape:isstock="true"
       style="overflow:visible"
       id="marker5962"
       refX="0"
       refY="0"
       orient="auto"
       inkscape:stockid="Arrow1Mend">
      <path
         transform="matrix(-0.4,0,0,-0.4,-4,0)"
         style="fill:#000000;fill-opacity:1;fill-rule:evenodd;stroke:#000000;stroke-width:1pt;stroke-opacity:1"
         d="M 0,0 5,-5 -12.5,0 5,5 0,0 Z"
         id="path5964"
         inkscape:connector-curvature="0" />
    </marker>
    <marker
       inkscape:stockid="Arrow1Mend"
       orient="auto"
       refY="0"
       refX="0"
       id="marker5700"
       style="overflow:visible"
       inkscape:isstock="true"
       inkscape:collect="always">
      <path
         id="path5702"
         d="M 0,0 5,-5 -12.5,0 5,5 0,0 Z"
         style="fill:#000000;fill-opacity:1;fill-rule:evenodd;stroke:#000000;stroke-width:1pt;stroke-opacity:1"
         transform="matrix(-0.4,0,0,-0.4,-4,0)"
         inkscape:connector-curvature="0" />
    </marker>
    <marker
       inkscape:stockid="Arrow1Mend"
       orient="auto"
       refY="0"
       refX="0"
       id="marker5630"
       style="overflow:visible"
       inkscape:isstock="true">
      <path
         id="path5632"
         d="M 0,0 5,-5 -12.5,0 5,5 0,0 Z"
         style="fill:#000000;fill-opacity:1;fill-rule:evenodd;stroke:#000000;stroke-width:1pt;stroke-opacity:1"
         transform="matrix(-0.4,0,0,-0.4,-4,0)"
         inkscape:connector-curvature="0" />
    </marker>
    <marker
       inkscape:isstock="true"
       style="overflow:visible"
       id="marker5354"
       refX="0"
       refY="0"
       orient="auto"
       inkscape:stockid="Arrow1Mend">
      <path
         transform="matrix(-0.4,0,0,-0.4,-4,0)"
         style="fill:#000000;fill-opacity:1;fill-rule:evenodd;stroke:#000000;stroke-width:1pt;stroke-opacity:1"
         d="M 0,0 5,-5 -12.5,0 5,5 0,0 Z"
         id="path5356"
         inkscape:connector-curvature="0" />
    </marker>
    <marker
       inkscape:isstock="true"
       style="overflow:visible"
       id="marker5134"
       refX="0"
       refY="0"
       orient="auto"
       inkscape:stockid="Arrow1Mend"
       inkscape:collect="always">
      <path
         transform="matrix(-0.4,0,0,-0.4,-4,0)"
         style="fill:#000000;fill-opacity:1;fill-rule:evenodd;stroke:#000000;stroke-width:1pt;stroke-opacity:1"
         d="M 0,0 5,-5 -12.5,0 5,5 0,0 Z"
         id="path5136"
         inkscape:connector-curvature="0" />
    </marker>
    <marker
       inkscape:stockid="Arrow1Mend"
       orient="auto"
       refY="0"
       refX="0"
       id="Arrow1Mend"
       style="overflow:visible"
       inkscape:isstock="true"
       inkscape:collect="always">
      <path
         id="path4657"
         d="M 0,0 5,-5 -12.5,0 5,5 0,0 Z"
         style="fill:#000000;fill-opacity:1;fill-rule:evenodd;stroke:#000000;stroke-width:1pt;stroke-opacity:1"
         transform="matrix(-0.4,0,0,-0.4,-4,0)"
         inkscape:connector-curvature="0" />
    </marker>
    <marker
       inkscape:stockid="Arrow2Lend"
       orient="auto"
       refY="0"
       refX="0"
       id="Arrow2Lend"
       style="overflow:visible"
       inkscape:isstock="true">
      <path
         id="path4669"
         style="fill:#000000;fill-opacity:1;fill-rule:evenodd;stroke:#000000;stroke-width:0.625;stroke-linejoin:round;stroke-opacity:1"
         d="M 8.7185878,4.0337352 -2.2072895,0.01601326 8.7185884,-4.0017078 c -1.7454984,2.3720609 -1.7354408,5.6174519 -6e-7,8.035443 z"
         transform="matrix(-1.1,0,0,-1.1,-1.1,0)"
         inkscape:connector-curvature="0" />
    </marker>
    <marker
       inkscape:stockid="Arrow1Lend"
       orient="auto"
       refY="0"
       refX="0"
       id="Arrow1Lend"
       style="overflow:visible"
       inkscape:isstock="true">
      <path
         id="path4651"
         d="M 0,0 5,-5 -12.5,0 5,5 0,0 Z"
         style="fill:#000000;fill-opacity:1;fill-rule:evenodd;stroke:#000000;stroke-width:1pt;stroke-opacity:1"
         transform="matrix(-0.8,0,0,-0.8,-10,0)"
         inkscape:connector-curvature="0" />
    </marker>
  </defs>
  <metadata
     id="metadata7">
    <rdf:RDF>
      <cc:Work
         rdf:about="">
        <dc:format>image/svg+xml</dc:format>
        <dc:type
           rdf:resource="http://purl.org/dc/dcmitype/StillImage" />
        <dc:title></dc:title>
      </cc:Work>
    </rdf:RDF>
  </metadata>
  <g
     id="layer1"
     inkscape:groupmode="layer"
     inkscape:label="Layer 1"
     transform="translate(10.226343,-150.37743)">
    <text
       sodipodi:linespacing="125%"
       id="text3336-8"
       y="176.61743"
       x="348.19299"
       style="font-style:normal;font-variant:normal;font-weight:normal;font-stretch:normal;font-size:40px;line-height:125%;font-family:'Source Sans Pro';-inkscape-font-specification:'Source Sans Pro';letter-spacing:0px;word-spacing:0px;fill:#000000;fill-opacity:1;stroke:none;stroke-width:1px;stroke-linecap:butt;stroke-linejoin:miter;stroke-opacity:1"
       xml:space="preserve"><tspan
         y="176.61743"
         x="348.19299"
         id="tspan3338-0"
         sodipodi:role="line">Data</tspan></text>
    <g
       id="g3687">
      <text
         xml:space="preserve"
         style="font-style:normal;font-variant:normal;font-weight:normal;font-stretch:normal;font-size:40px;line-height:125%;font-family:'Source Sans Pro';-inkscape-font-specification:'Source Sans Pro';letter-spacing:0px;word-spacing:0px;fill:#000000;fill-opacity:1;stroke:none;stroke-width:1px;stroke-linecap:butt;stroke-linejoin:miter;stroke-opacity:1"
         x="51.185375"
         y="295.21936"
         id="text3336"
         sodipodi:linespacing="125%"><tspan
           sodipodi:role="line"
           id="tspan3338"
           x="51.185375"
           y="295.21936">Prior</tspan></text>
      <g
         transform="translate(-265.44542,-9.304724)"
         id="g3502">
        <g
           style="font-style:normal;font-variant:normal;font-weight:normal;font-stretch:normal;letter-spacing:normal;word-spacing:normal;text-anchor:start;fill:none;fill-opacity:1;fill-rule:evenodd;stroke:#000000;stroke-linecap:butt;stroke-linejoin:miter;stroke-miterlimit:10.43299961;stroke-dasharray:none;stroke-dashoffset:0;stroke-opacity:1"
           id="content"
           transform="matrix(1.0629921,0,0,-1.0629921,-186.02362,789.27165)"
           xml:space="preserve"
           stroke-miterlimit="10.433"
           font-style="normal"
           font-variant="normal"
           font-weight="normal"
           font-stretch="normal"
           font-size-adjust="none"
           letter-spacing="normal"
           word-spacing="normal"><path
             style="fill:#000000;stroke-width:0"
             inkscape:connector-curvature="0"
             d="m 466.29,438.18 0.33,0.09 0.32,0.07 0.31,0.07 0.31,0.06 0.3,0.05 0.3,0.05 0.29,0.04 0.3,0.04 0.29,0.03 0.29,0.03 0.29,0.02 0.3,0.02 0.3,0.01 0.31,0.01 0.31,0.01 0.32,0 c 5.44,0 8.28,-2.49 8.28,-7.22 0,-4.49 -3.05,-7.63 -7.37,-7.63 -1.05,0 -1.8,0.16 -3.1,0.5 l 0.5,-1.79 c 1.19,-0.25 1.89,-0.3 2.89,-0.3 6.83,0 12.05,4.64 12.05,10.61 0,4.78 -3.87,7.72 -10.2,7.72 l -1.41,0 c -3.19,-0.1 -5.67,-0.14 -7.06,-0.14 -1.25,0 -3.74,0.04 -9.08,0.14 l 0,-1.49 2.25,-0.15 c 2.23,-0.14 2.64,-0.8 2.64,-4.49 l 0,-22.36 c 0,-3.93 -0.25,-4.34 -2.55,-4.48 l -2.39,-0.16 0,-1.5 c 2.94,0.11 4.69,0.16 7.28,0.16 2.65,0 4.38,-0.05 7.32,-0.16 l 0,1.5 -2.39,0.16 c -2.28,0.14 -2.53,0.55 -2.53,4.48 z"
             id="path3505" /><path
             style="fill:#000000;stroke-width:0"
             inkscape:connector-curvature="0"
             d="m 486.68,407.54 0,-1.5 c 3.35,0.11 4.74,0.16 6.13,0.16 1.2,0 3.05,-0.05 7.12,-0.16 l 0,1.5 -2.59,0.16 c -2.23,0.14 -2.34,0.3 -2.34,3.58 l 0,8.58 c 0,2.98 2,5.46 4.43,5.46 1.5,0 2.55,-0.68 3.35,-2.28 l 1.04,0 0.46,5.97 c -0.61,0.36 -1.41,0.55 -2.35,0.55 -1.5,0 -3.04,-0.74 -4.14,-2.03 l -2.79,-3.3 0,5.14 -0.44,0.19 c -2.5,-1.05 -5.19,-1.74 -7.78,-2.03 l 0,-1.41 1.84,0 c 2,0 2.2,-0.34 2.2,-3.62 l 0,-11.22 c 0,-3.14 -0.15,-3.49 -1.84,-3.58 z"
             id="path3507" /><path
             style="fill:#000000;stroke-width:0"
             inkscape:connector-curvature="0"
             d="m 523.12,393.73 0,0.03 0,0.03 0,0.01 0,0.02 -0.01,0.01 0,0.02 -0.01,0.02 -0.01,0.02 -0.01,0.02 -0.01,0.02 -0.01,0.02 -0.01,0.03 -0.02,0.02 -0.02,0.03 -0.02,0.03 -0.03,0.03 -0.03,0.04 -0.03,0.04 -0.01,0.02 -0.02,0.02 -0.02,0.02 -0.02,0.02 -0.02,0.02 -0.02,0.03 -0.02,0.02 -0.02,0.03 -0.03,0.02 -0.02,0.03 -0.03,0.03 -0.03,0.02 -0.03,0.03 -0.02,0.03 -0.03,0.04 -0.04,0.03 -0.03,0.03 -0.03,0.03 -0.04,0.04 -0.03,0.04 -0.04,0.03 -0.04,0.04 -0.04,0.04 -0.04,0.04 c -6.48,6.55 -8.16,16.38 -8.16,24.31 0,9.05 1.97,18.1 8.38,24.58 0.67,0.63 0.67,0.74 0.67,0.89 0,0.36 -0.22,0.52 -0.53,0.52 -0.52,0 -5.19,-3.53 -8.25,-10.13 -2.66,-5.72 -3.28,-11.48 -3.28,-15.86 0,-4.04 0.58,-10.32 3.44,-16.2 3.1,-6.39 7.57,-9.77 8.09,-9.77 0.31,0 0.53,0.16 0.53,0.52 z"
             id="path3509" /><path
             style="fill:#000000;stroke-width:0"
             inkscape:connector-curvature="0"
             d="m 551.35,437.24 -0.07,-0.06 -0.08,-0.08 -0.08,-0.07 -0.09,-0.08 -0.09,-0.08 -0.09,-0.09 -0.1,-0.09 -0.1,-0.09 -0.1,-0.09 -0.1,-0.1 -0.2,-0.2 -0.2,-0.2 -0.2,-0.21 -0.1,-0.11 -0.09,-0.11 -0.1,-0.1 -0.08,-0.11 -0.09,-0.11 -0.07,-0.1 -0.08,-0.11 -0.07,-0.11 -0.06,-0.1 -0.05,-0.1 -0.05,-0.1 -0.04,-0.1 -0.03,-0.1 -0.03,-0.09 -0.01,-0.1 0,-0.09 c 0,-0.51 0.53,-1.03 1.04,-1.03 0.47,0 0.74,0.36 0.99,0.67 0.62,0.79 1.82,2.24 4.1,3.38 0.37,0.22 0.88,0.47 0.88,1.09 0,0.52 -0.36,0.78 -0.72,1.05 -1.14,0.78 -1.72,1.7 -2.12,2.95 -0.11,0.47 -0.32,1.14 -1.05,1.14 -0.74,0 -1.03,-0.67 -1.03,-1.07 0,-0.27 0.41,-1.93 1.23,-3.02 l -17.5,0 c -0.89,0 -1.82,0 -1.82,-1.05 0,-1.03 0.93,-1.03 1.82,-1.03 z"
             id="path3511" /><path
             style="fill:#000000;stroke-width:0"
             inkscape:connector-curvature="0"
             d="m 529.17,410.59 0,-0.18 -0.01,-0.18 0,-0.17 -0.01,-0.18 -0.01,-0.17 -0.02,-0.17 -0.02,-0.17 -0.02,-0.18 -0.02,-0.19 -0.02,-0.1 -0.01,-0.09 -0.02,-0.11 -0.02,-0.1 -0.01,-0.11 -0.02,-0.11 -0.02,-0.12 -0.02,-0.11 -0.03,-0.13 -0.02,-0.12 -0.03,-0.14 -0.02,-0.13 -0.03,-0.14 -0.03,-0.15 c -0.09,-0.59 -0.14,-0.73 -0.19,-1.09 0.8,-0.39 1.55,-0.6 2.15,-0.6 1.63,0 3.57,1.44 5.12,3.78 l 3.8,5.83 0.54,-3.44 c 0.69,-4.23 1.79,-6.17 3.58,-6.17 1.09,0 2.64,0.85 4.28,2.3 l 2.46,2.19 -0.46,0.93 c -1.84,-1.53 -3.04,-2.23 -3.84,-2.23 -0.73,0 -1.35,0.45 -1.85,1.39 -0.43,0.95 -1.03,2.84 -1.28,4.34 l -0.9,5.04 1.75,2.43 c 2.34,3.28 3.64,4.39 5.23,4.39 0.85,0 1.39,-0.36 1.64,-1.15 l 0.69,0.2 0.75,4.23 c -0.59,0.35 -1,0.5 -1.48,0.5 -2,0 -3.99,-1.79 -7.08,-6.37 l -1.85,-2.75 -0.29,2.39 c -0.61,4.94 -1.89,6.73 -4.89,6.73 -1.3,0 -2.39,-0.4 -2.85,-1.04 l -2.87,-4.14 0.84,-0.5 c 1.55,1.7 2.49,2.39 3.44,2.39 1.69,0 2.73,-2.03 3.58,-6.92 l 0.54,-3.08 -1.98,-3.1 c -2.19,-3.39 -3.84,-4.93 -5.24,-4.93 -0.75,0 -1.29,0.15 -1.38,0.45 l -0.55,1.39 z"
             id="path3513" /><path
             style="fill:#000000;stroke-width:0"
             inkscape:connector-curvature="0"
             d="m 569.77,419.18 0,0.39 0,0.4 -0.01,0.41 -0.02,0.43 -0.04,0.88 -0.06,0.92 -0.09,0.95 -0.11,0.99 -0.14,1.02 -0.17,1.04 -0.21,1.07 -0.24,1.08 -0.27,1.1 -0.32,1.1 -0.37,1.11 -0.4,1.11 -0.23,0.56 -0.23,0.56 -0.25,0.55 -0.26,0.55 c -3.12,6.39 -7.59,9.77 -8.11,9.77 -0.31,0 -0.51,-0.21 -0.51,-0.52 0,-0.15 0,-0.26 0.98,-1.2 5.09,-5.14 8.05,-13.41 8.05,-24.27 0,-8.87 -1.92,-18.03 -8.36,-24.57 -0.67,-0.61 -0.67,-0.72 -0.67,-0.88 0,-0.31 0.2,-0.52 0.51,-0.52 0.52,0 5.19,3.54 8.27,10.13 2.64,5.72 3.26,11.48 3.26,15.84 z"
             id="path3515" /></g>      </g>
    </g>
    <g
       id="g3699"
       transform="translate(116.00003,0)">
      <text
         xml:space="preserve"
         style="font-style:normal;font-variant:normal;font-weight:normal;font-stretch:normal;font-size:40px;line-height:125%;font-family:'Source Sans Pro';-inkscape-font-specification:'Source Sans Pro';letter-spacing:0px;word-spacing:0px;fill:#000000;fill-opacity:1;stroke:none;stroke-width:1px;stroke-linecap:butt;stroke-linejoin:miter;stroke-opacity:1"
         x="530.59601"
         y="295.21936"
         id="text3336-6-6"
         sodipodi:linespacing="125%"><tspan
           sodipodi:role="line"
           id="tspan3338-1-1"
           x="530.59601"
           y="295.21936">Posterior</tspan></text>
      <g
         id="g3541"
         transform="translate(204.63979,-9.304724)">
        <g
           word-spacing="normal"
           letter-spacing="normal"
           font-size-adjust="none"
           font-stretch="normal"
           font-weight="normal"
           font-variant="normal"
           font-style="normal"
           stroke-miterlimit="10.433"
           xml:space="preserve"
           transform="matrix(1.0629921,0,0,-1.0629921,-186.02362,789.27165)"
           id="g3543"
           style="font-style:normal;font-variant:normal;font-weight:normal;font-stretch:normal;letter-spacing:normal;word-spacing:normal;text-anchor:start;fill:none;fill-opacity:1;fill-rule:evenodd;stroke:#000000;stroke-linecap:butt;stroke-linejoin:miter;stroke-miterlimit:10.43299961;stroke-dasharray:none;stroke-dashoffset:0;stroke-opacity:1"><path
             id="path3545"
             d="m 466.29,438.18 0.33,0.09 0.32,0.07 0.31,0.07 0.31,0.06 0.3,0.05 0.3,0.05 0.29,0.04 0.3,0.04 0.29,0.03 0.29,0.03 0.29,0.02 0.3,0.02 0.3,0.01 0.31,0.01 0.31,0.01 0.32,0 c 5.44,0 8.28,-2.49 8.28,-7.22 0,-4.49 -3.05,-7.63 -7.37,-7.63 -1.05,0 -1.8,0.16 -3.1,0.5 l 0.5,-1.79 c 1.19,-0.25 1.89,-0.3 2.89,-0.3 6.83,0 12.05,4.64 12.05,10.61 0,4.78 -3.87,7.72 -10.2,7.72 l -1.41,0 c -3.19,-0.1 -5.67,-0.14 -7.06,-0.14 -1.25,0 -3.74,0.04 -9.08,0.14 l 0,-1.49 2.25,-0.15 c 2.23,-0.14 2.64,-0.8 2.64,-4.49 l 0,-22.36 c 0,-3.93 -0.25,-4.34 -2.55,-4.48 l -2.39,-0.16 0,-1.5 c 2.94,0.11 4.69,0.16 7.28,0.16 2.65,0 4.38,-0.05 7.32,-0.16 l 0,1.5 -2.39,0.16 c -2.28,0.14 -2.53,0.55 -2.53,4.48 z"
             inkscape:connector-curvature="0"
             style="fill:#000000;stroke-width:0" /><path
             id="path3547"
             d="m 486.68,407.54 0,-1.5 c 3.35,0.11 4.74,0.16 6.13,0.16 1.2,0 3.05,-0.05 7.12,-0.16 l 0,1.5 -2.59,0.16 c -2.23,0.14 -2.34,0.3 -2.34,3.58 l 0,8.58 c 0,2.98 2,5.46 4.43,5.46 1.5,0 2.55,-0.68 3.35,-2.28 l 1.04,0 0.46,5.97 c -0.61,0.36 -1.41,0.55 -2.35,0.55 -1.5,0 -3.04,-0.74 -4.14,-2.03 l -2.79,-3.3 0,5.14 -0.44,0.19 c -2.5,-1.05 -5.19,-1.74 -7.78,-2.03 l 0,-1.41 1.84,0 c 2,0 2.2,-0.34 2.2,-3.62 l 0,-11.22 c 0,-3.14 -0.15,-3.49 -1.84,-3.58 z"
             inkscape:connector-curvature="0"
             style="fill:#000000;stroke-width:0" /><path
             id="path3549"
             d="m 523.12,393.73 0,0.03 0,0.03 0,0.01 0,0.02 -0.01,0.01 0,0.02 -0.01,0.02 -0.01,0.02 -0.01,0.02 -0.01,0.02 -0.01,0.02 -0.01,0.03 -0.02,0.02 -0.02,0.03 -0.02,0.03 -0.03,0.03 -0.03,0.04 -0.03,0.04 -0.01,0.02 -0.02,0.02 -0.02,0.02 -0.02,0.02 -0.02,0.02 -0.02,0.03 -0.02,0.02 -0.02,0.03 -0.03,0.02 -0.02,0.03 -0.03,0.03 -0.03,0.02 -0.03,0.03 -0.02,0.03 -0.03,0.04 -0.04,0.03 -0.03,0.03 -0.03,0.03 -0.04,0.04 -0.03,0.04 -0.04,0.03 -0.04,0.04 -0.04,0.04 -0.04,0.04 c -6.48,6.55 -8.16,16.38 -8.16,24.31 0,9.05 1.97,18.1 8.38,24.58 0.67,0.63 0.67,0.74 0.67,0.89 0,0.36 -0.22,0.52 -0.53,0.52 -0.52,0 -5.19,-3.53 -8.25,-10.13 -2.66,-5.72 -3.28,-11.48 -3.28,-15.86 0,-4.04 0.58,-10.32 3.44,-16.2 3.1,-6.39 7.57,-9.77 8.09,-9.77 0.31,0 0.53,0.16 0.53,0.52 z"
             inkscape:connector-curvature="0"
             style="fill:#000000;stroke-width:0" /><path
             id="path3551"
             d="m 551.35,437.24 -0.07,-0.06 -0.08,-0.08 -0.08,-0.07 -0.09,-0.08 -0.09,-0.08 -0.09,-0.09 -0.1,-0.09 -0.1,-0.09 -0.1,-0.09 -0.1,-0.1 -0.2,-0.2 -0.2,-0.2 -0.2,-0.21 -0.1,-0.11 -0.09,-0.11 -0.1,-0.1 -0.08,-0.11 -0.09,-0.11 -0.07,-0.1 -0.08,-0.11 -0.07,-0.11 -0.06,-0.1 -0.05,-0.1 -0.05,-0.1 -0.04,-0.1 -0.03,-0.1 -0.03,-0.09 -0.01,-0.1 0,-0.09 c 0,-0.51 0.53,-1.03 1.04,-1.03 0.47,0 0.74,0.36 0.99,0.67 0.62,0.79 1.82,2.24 4.1,3.38 0.37,0.22 0.88,0.47 0.88,1.09 0,0.52 -0.36,0.78 -0.72,1.05 -1.14,0.78 -1.72,1.7 -2.12,2.95 -0.11,0.47 -0.32,1.14 -1.05,1.14 -0.74,0 -1.03,-0.67 -1.03,-1.07 0,-0.27 0.41,-1.93 1.23,-3.02 l -17.5,0 c -0.89,0 -1.82,0 -1.82,-1.05 0,-1.03 0.93,-1.03 1.82,-1.03 z"
             inkscape:connector-curvature="0"
             style="fill:#000000;stroke-width:0" /><path
             id="path3553"
             d="m 529.17,410.59 0,-0.18 -0.01,-0.18 0,-0.17 -0.01,-0.18 -0.01,-0.17 -0.02,-0.17 -0.02,-0.17 -0.02,-0.18 -0.02,-0.19 -0.02,-0.1 -0.01,-0.09 -0.02,-0.11 -0.02,-0.1 -0.01,-0.11 -0.02,-0.11 -0.02,-0.12 -0.02,-0.11 -0.03,-0.13 -0.02,-0.12 -0.03,-0.14 -0.02,-0.13 -0.03,-0.14 -0.03,-0.15 c -0.09,-0.59 -0.14,-0.73 -0.19,-1.09 0.8,-0.39 1.55,-0.6 2.15,-0.6 1.63,0 3.57,1.44 5.12,3.78 l 3.8,5.83 0.54,-3.44 c 0.69,-4.23 1.79,-6.17 3.58,-6.17 1.09,0 2.64,0.85 4.28,2.3 l 2.46,2.19 -0.46,0.93 c -1.84,-1.53 -3.04,-2.23 -3.84,-2.23 -0.73,0 -1.35,0.45 -1.85,1.39 -0.43,0.95 -1.03,2.84 -1.28,4.34 l -0.9,5.04 1.75,2.43 c 2.34,3.28 3.64,4.39 5.23,4.39 0.85,0 1.39,-0.36 1.64,-1.15 l 0.69,0.2 0.75,4.23 c -0.59,0.35 -1,0.5 -1.48,0.5 -2,0 -3.99,-1.79 -7.08,-6.37 l -1.85,-2.75 -0.29,2.39 c -0.61,4.94 -1.89,6.73 -4.89,6.73 -1.3,0 -2.39,-0.4 -2.85,-1.04 l -2.87,-4.14 0.84,-0.5 c 1.55,1.7 2.49,2.39 3.44,2.39 1.69,0 2.73,-2.03 3.58,-6.92 l 0.54,-3.08 -1.98,-3.1 c -2.19,-3.39 -3.84,-4.93 -5.24,-4.93 -0.75,0 -1.29,0.15 -1.38,0.45 l -0.55,1.39 z"
             inkscape:connector-curvature="0"
             style="fill:#000000;stroke-width:0" /><path
             id="path3555"
             d="m 563.02,443.29 0,0.18 0,0.17 0,0.17 -0.01,0.09 0,0.08 -0.01,0.08 -0.01,0.08 -0.01,0.08 -0.01,0.08 -0.02,0.07 -0.01,0.07 -0.02,0.07 -0.03,0.07 -0.02,0.07 -0.03,0.06 -0.04,0.06 -0.03,0.05 -0.04,0.05 -0.05,0.05 -0.05,0.05 -0.05,0.04 -0.06,0.03 -0.03,0.02 -0.03,0.02 -0.03,0.01 -0.04,0.01 -0.03,0.01 -0.04,0.02 -0.04,0.01 -0.04,0 -0.04,0.01 -0.04,0.01 -0.04,0 -0.05,0.01 -0.04,0 -0.05,0 c -1.03,0 -1.03,-0.94 -1.03,-1.88 l 0,-48.22 c 0,-0.93 0,-1.86 1.03,-1.86 1.04,0 1.04,0.93 1.04,1.86 z"
             inkscape:connector-curvature="0"
             style="fill:#000000;stroke-width:0" /><path
             id="path3557"
             d="m 594.42,442.17 -0.6,0.54 c -2.54,-1.29 -4.39,-1.73 -7.97,-2.09 l -0.2,-1.05 2.39,0 c 1.25,0 1.69,-0.34 1.69,-1.18 0,-0.46 -0.05,-0.8 -0.09,-1.21 l -1.39,-7.67 c -1.5,0.5 -2.8,0.7 -4.1,0.7 -3.43,0 -8.12,-3.53 -10.4,-7.92 -1.55,-2.89 -2.55,-7.58 -2.55,-11.81 0,-3.23 0.75,-4.83 2.2,-4.83 1.35,0 3.19,0.85 4.88,2.19 l -2.25,1.3 c -0.85,0 -1.24,0.65 -1.24,1.93 0,6.33 2.28,14.07 4.74,15.96 0.64,0.5 1.59,0.75 2.94,0.75 2.23,0 3.57,-0.3 5.28,-1.16 l -0.6,-2.94 c -0.9,-4.37 -3.34,-8.81 -6.43,-11.7 -1.74,-1.64 -3.74,-2.84 -4.69,-2.84 l 2.25,-1.3 c 2.69,2.2 4.32,4.19 7.67,9.17 l -1.14,-4.53 c -0.55,-2.25 -0.8,-3.73 -0.8,-5.08 0,-1.11 0.44,-1.65 1.3,-1.65 0.89,0 1.98,0.54 3.73,1.84 l 4.03,3 -0.5,0.94 -2.18,-1.55 c -0.71,-0.5 -1.5,-0.84 -1.96,-0.84 -0.43,0 -0.68,0.45 -0.68,1.14 0,0.45 0.04,0.75 0.39,2.29 z"
             inkscape:connector-curvature="0"
             style="fill:#000000;stroke-width:0" /><path
             id="path3559"
             d="m 606.07,412.43 -0.25,-0.08 -0.24,-0.08 -0.23,-0.08 -0.24,-0.08 -0.23,-0.07 -0.25,-0.08 -0.25,-0.08 -0.13,-0.04 -0.13,-0.05 -0.14,-0.04 -0.14,-0.04 -0.15,-0.05 -0.15,-0.04 -0.15,-0.05 -0.16,-0.05 -0.17,-0.05 -0.18,-0.05 -0.18,-0.05 -0.19,-0.06 -0.2,-0.06 -0.2,-0.05 -0.22,-0.07 -0.22,-0.06 -0.23,-0.07 -0.24,-0.07 c -0.35,-3.78 -1.6,-7.03 -4.49,-11.81 l 0.7,-0.55 2.04,0.96 c 4.04,5.23 5.93,8.36 7.32,12.2 z"
             inkscape:connector-curvature="0"
             style="fill:#000000;stroke-width:0" /><path
             id="path3561"
             d="m 603.38,428.92 -0.14,-0.01 -0.13,-0.01 -0.14,-0.02 -0.13,-0.02 -0.14,-0.04 -0.13,-0.04 -0.13,-0.05 -0.13,-0.05 -0.12,-0.06 -0.12,-0.07 -0.12,-0.07 -0.11,-0.08 -0.12,-0.08 -0.1,-0.09 -0.11,-0.1 -0.1,-0.09 -0.09,-0.11 -0.09,-0.1 -0.09,-0.11 -0.08,-0.12 -0.08,-0.12 -0.07,-0.12 -0.06,-0.12 -0.06,-0.13 -0.05,-0.13 -0.05,-0.13 -0.04,-0.13 -0.03,-0.14 -0.03,-0.14 -0.02,-0.13 -0.01,-0.14 -0.01,-0.14 c 0,-1.5 1.35,-2.89 2.79,-2.89 1.59,0 2.98,1.34 2.98,2.89 0,1.5 -1.39,2.89 -2.94,2.89 z"
             inkscape:connector-curvature="0"
             style="fill:#000000;stroke-width:0" /><path
             id="path3563"
             d="m 633.61,411.73 -1.2,-0.84 C 629.72,409 627.38,408 625.58,408 c -2.39,0 -3.78,1.79 -3.78,4.87 0,1.34 0.11,2.45 0.41,3.99 l 0.25,1.15 0.44,1.85 c 0.79,3.32 1.79,5.46 3.13,6.76 0.96,0.91 2.5,1.5 3.8,1.5 1.44,0 2.39,-1 2.39,-2.59 0,-2.19 -1.75,-4.53 -4.34,-5.78 -1.39,-0.64 -3.19,-1.24 -5.42,-1.74 l -0.25,-1.15 4.07,1 c 0.8,0.2 2.19,0.7 3.44,1.25 4.24,1.89 6.19,4.12 6.19,7.21 0,2.35 -1.66,3.89 -4.19,3.89 -3.25,0 -8.67,-3.34 -10.67,-6.53 -1.48,-2.43 -3.03,-8.42 -3.03,-11.86 0,-3.87 2.14,-6.17 5.78,-6.17 2.83,0 5.63,1.39 10.2,5.13 z"
             inkscape:connector-curvature="0"
             style="fill:#000000;stroke-width:0" /><path
             id="path3565"
             d="m 652.8,419.18 0,0.39 -0.01,0.4 -0.01,0.41 -0.01,0.43 -0.04,0.88 -0.06,0.92 -0.09,0.95 -0.11,0.99 -0.14,1.02 -0.17,1.04 -0.21,1.07 -0.24,1.08 -0.28,1.1 -0.32,1.1 -0.36,1.11 -0.41,1.11 -0.22,0.56 -0.23,0.56 -0.25,0.55 -0.26,0.55 c -3.13,6.39 -7.6,9.77 -8.11,9.77 -0.31,0 -0.52,-0.21 -0.52,-0.52 0,-0.15 0,-0.26 0.99,-1.2 5.09,-5.14 8.04,-13.41 8.04,-24.27 0,-8.87 -1.92,-18.03 -8.35,-24.57 -0.68,-0.61 -0.68,-0.72 -0.68,-0.88 0,-0.31 0.21,-0.52 0.52,-0.52 0.51,0 5.19,3.54 8.26,10.13 2.65,5.72 3.27,11.48 3.27,15.84 z"
             inkscape:connector-curvature="0"
             style="fill:#000000;stroke-width:0" /></g>      </g>
    </g>
    <text
       xml:space="preserve"
       style="font-style:normal;font-variant:normal;font-weight:normal;font-stretch:normal;font-size:40px;line-height:125%;font-family:'Source Sans Pro';-inkscape-font-specification:'Source Sans Pro';letter-spacing:0px;word-spacing:0px;fill:#000000;fill-opacity:1;stroke:none;stroke-width:1px;stroke-linecap:butt;stroke-linejoin:miter;stroke-opacity:1"
       x="327.33676"
       y="463.23584"
       id="text3679"
       sodipodi:linespacing="125%"><tspan
         style="font-weight:bold"
         id="tspan3683"
         sodipodi:role="line"
         x="327.33676"
         y="463.23584">Iterate</tspan></text>
    <g
       id="g3826"
       transform="translate(23.934659,7.4020111e-6)">
      <text
         xml:space="preserve"
         style="font-style:normal;font-variant:normal;font-weight:normal;font-stretch:normal;font-size:40px;line-height:125%;font-family:'Source Sans Pro';-inkscape-font-specification:'Source Sans Pro';letter-spacing:0px;word-spacing:0px;fill:#000000;fill-opacity:1;stroke:none;stroke-width:1px;stroke-linecap:butt;stroke-linejoin:miter;stroke-opacity:1"
         x="275.13803"
         y="296.01935"
         id="text3336-6"
         sodipodi:linespacing="125%"><tspan
           sodipodi:role="line"
           id="tspan3338-1"
           x="275.13803"
           y="296.01935">Likelihood</tspan></text>
      <g
         transform="translate(-40.536664,-9.304724)"
         id="g3754">
        <g
           style="font-style:normal;font-variant:normal;font-weight:normal;font-stretch:normal;letter-spacing:normal;word-spacing:normal;text-anchor:start;fill:none;fill-opacity:1;fill-rule:evenodd;stroke:#000000;stroke-linecap:butt;stroke-linejoin:miter;stroke-miterlimit:10.43299961;stroke-dasharray:none;stroke-dashoffset:0;stroke-opacity:1"
           id="g3756"
           transform="matrix(1.0629921,0,0,-1.0629921,-186.02362,789.27165)"
           xml:space="preserve"
           stroke-miterlimit="10.433"
           font-style="normal"
           font-variant="normal"
           font-weight="normal"
           font-stretch="normal"
           font-size-adjust="none"
           letter-spacing="normal"
           word-spacing="normal"><path
             style="fill:#000000;stroke-width:0"
             inkscape:connector-curvature="0"
             d="m 466.29,438.18 0.33,0.09 0.32,0.07 0.31,0.07 0.31,0.06 0.3,0.05 0.3,0.05 0.29,0.04 0.3,0.04 0.29,0.03 0.29,0.03 0.29,0.02 0.3,0.02 0.3,0.01 0.31,0.01 0.31,0.01 0.32,0 c 5.44,0 8.28,-2.49 8.28,-7.22 0,-4.49 -3.05,-7.63 -7.37,-7.63 -1.05,0 -1.8,0.16 -3.1,0.5 l 0.5,-1.79 c 1.19,-0.25 1.89,-0.3 2.89,-0.3 6.83,0 12.05,4.64 12.05,10.61 0,4.78 -3.87,7.72 -10.2,7.72 l -1.41,0 c -3.19,-0.1 -5.67,-0.14 -7.06,-0.14 -1.25,0 -3.74,0.04 -9.08,0.14 l 0,-1.49 2.25,-0.15 c 2.23,-0.14 2.64,-0.8 2.64,-4.49 l 0,-22.36 c 0,-3.93 -0.25,-4.34 -2.55,-4.48 l -2.39,-0.16 0,-1.5 c 2.94,0.11 4.69,0.16 7.28,0.16 2.65,0 4.38,-0.05 7.32,-0.16 l 0,1.5 -2.39,0.16 c -2.28,0.14 -2.53,0.55 -2.53,4.48 z"
             id="path3758" /><path
             style="fill:#000000;stroke-width:0"
             inkscape:connector-curvature="0"
             d="m 486.68,407.54 0,-1.5 c 3.35,0.11 4.74,0.16 6.13,0.16 1.2,0 3.05,-0.05 7.12,-0.16 l 0,1.5 -2.59,0.16 c -2.23,0.14 -2.34,0.3 -2.34,3.58 l 0,8.58 c 0,2.98 2,5.46 4.43,5.46 1.5,0 2.55,-0.68 3.35,-2.28 l 1.04,0 0.46,5.97 c -0.61,0.36 -1.41,0.55 -2.35,0.55 -1.5,0 -3.04,-0.74 -4.14,-2.03 l -2.79,-3.3 0,5.14 -0.44,0.19 c -2.5,-1.05 -5.19,-1.74 -7.78,-2.03 l 0,-1.41 1.84,0 c 2,0 2.2,-0.34 2.2,-3.62 l 0,-11.22 c 0,-3.14 -0.15,-3.49 -1.84,-3.58 z"
             id="path3760" /><path
             style="fill:#000000;stroke-width:0"
             inkscape:connector-curvature="0"
             d="m 523.12,393.73 0,0.03 0,0.03 0,0.01 0,0.02 -0.01,0.01 0,0.02 -0.01,0.02 -0.01,0.02 -0.01,0.02 -0.01,0.02 -0.01,0.02 -0.01,0.03 -0.02,0.02 -0.02,0.03 -0.02,0.03 -0.03,0.03 -0.03,0.04 -0.03,0.04 -0.01,0.02 -0.02,0.02 -0.02,0.02 -0.02,0.02 -0.02,0.02 -0.02,0.03 -0.02,0.02 -0.02,0.03 -0.03,0.02 -0.02,0.03 -0.03,0.03 -0.03,0.02 -0.03,0.03 -0.02,0.03 -0.03,0.04 -0.04,0.03 -0.03,0.03 -0.03,0.03 -0.04,0.04 -0.03,0.04 -0.04,0.03 -0.04,0.04 -0.04,0.04 -0.04,0.04 c -6.48,6.55 -8.16,16.38 -8.16,24.31 0,9.05 1.97,18.1 8.38,24.58 0.67,0.63 0.67,0.74 0.67,0.89 0,0.36 -0.22,0.52 -0.53,0.52 -0.52,0 -5.19,-3.53 -8.25,-10.13 -2.66,-5.72 -3.28,-11.48 -3.28,-15.86 0,-4.04 0.58,-10.32 3.44,-16.2 3.1,-6.39 7.57,-9.77 8.09,-9.77 0.31,0 0.53,0.16 0.53,0.52 z"
             id="path3762" /><path
             style="fill:#000000;stroke-width:0"
             inkscape:connector-curvature="0"
             d="m 551.34,442.17 -0.6,0.54 c -2.54,-1.29 -4.39,-1.73 -7.97,-2.09 l -0.2,-1.05 2.39,0 c 1.25,0 1.69,-0.34 1.69,-1.18 0,-0.46 -0.05,-0.8 -0.1,-1.21 l -1.39,-7.67 c -1.5,0.5 -2.79,0.7 -4.09,0.7 -3.44,0 -8.12,-3.53 -10.41,-7.92 -1.54,-2.89 -2.54,-7.58 -2.54,-11.81 0,-3.23 0.75,-4.83 2.2,-4.83 1.34,0 3.19,0.85 4.88,2.19 l -2.25,1.3 c -0.85,0 -1.24,0.65 -1.24,1.93 0,6.33 2.28,14.07 4.74,15.96 0.64,0.5 1.59,0.75 2.93,0.75 2.24,0 3.58,-0.3 5.28,-1.16 l -0.59,-2.94 c -0.91,-4.37 -3.34,-8.81 -6.44,-11.7 -1.73,-1.64 -3.73,-2.84 -4.68,-2.84 l 2.25,-1.3 c 2.68,2.2 4.32,4.19 7.67,9.17 l -1.14,-4.53 c -0.55,-2.25 -0.8,-3.73 -0.8,-5.08 0,-1.11 0.44,-1.65 1.3,-1.65 0.89,0 1.98,0.54 3.73,1.84 l 4.03,3 -0.5,0.94 -2.19,-1.55 c -0.7,-0.5 -1.5,-0.84 -1.95,-0.84 -0.44,0 -0.69,0.45 -0.69,1.14 0,0.45 0.05,0.75 0.39,2.29 z"
             id="path3764" /><path
             style="fill:#000000;stroke-width:0"
             inkscape:connector-curvature="0"
             d="m 561.7,443.29 -0.01,0.18 0,0.17 0,0.17 -0.01,0.09 0,0.08 -0.01,0.08 -0.01,0.08 -0.01,0.08 -0.01,0.08 -0.02,0.07 -0.01,0.07 -0.02,0.07 -0.03,0.07 -0.02,0.07 -0.03,0.06 -0.03,0.06 -0.04,0.05 -0.04,0.05 -0.05,0.05 -0.04,0.05 -0.06,0.04 -0.05,0.03 -0.03,0.02 -0.04,0.02 -0.03,0.01 -0.03,0.01 -0.04,0.01 -0.04,0.02 -0.03,0.01 -0.04,0 -0.05,0.01 -0.04,0.01 -0.04,0 -0.05,0.01 -0.04,0 -0.05,0 c -1.03,0 -1.03,-0.94 -1.03,-1.88 l 0,-48.22 c 0,-0.93 0,-1.86 1.03,-1.86 1.05,0 1.05,0.93 1.05,1.86 z"
             id="path3766" /><path
             style="fill:#000000;stroke-width:0"
             inkscape:connector-curvature="0"
             d="m 593.1,437.24 -0.07,-0.06 -0.07,-0.08 -0.09,-0.07 -0.08,-0.08 -0.09,-0.08 -0.09,-0.09 -0.1,-0.09 -0.1,-0.09 -0.1,-0.09 -0.1,-0.1 -0.2,-0.2 -0.21,-0.2 -0.2,-0.21 -0.09,-0.11 -0.1,-0.11 -0.09,-0.1 -0.09,-0.11 -0.08,-0.11 -0.08,-0.1 -0.07,-0.11 -0.07,-0.11 -0.06,-0.1 -0.05,-0.1 -0.05,-0.1 -0.04,-0.1 -0.03,-0.1 -0.03,-0.09 -0.01,-0.1 -0.01,-0.09 c 0,-0.51 0.53,-1.03 1.05,-1.03 0.47,0 0.73,0.36 0.98,0.67 0.63,0.79 1.83,2.24 4.11,3.38 0.36,0.22 0.88,0.47 0.88,1.09 0,0.52 -0.36,0.78 -0.72,1.05 -1.14,0.78 -1.72,1.7 -2.13,2.95 -0.1,0.47 -0.31,1.14 -1.04,1.14 -0.74,0 -1.03,-0.67 -1.03,-1.07 0,-0.27 0.4,-1.93 1.23,-3.02 l -17.5,0 c -0.89,0 -1.83,0 -1.83,-1.05 0,-1.03 0.94,-1.03 1.83,-1.03 z"
             id="path3768" /><path
             style="fill:#000000;stroke-width:0"
             inkscape:connector-curvature="0"
             d="m 570.93,410.59 -0.01,-0.18 0,-0.18 0,-0.17 -0.01,-0.18 -0.02,-0.17 -0.01,-0.17 -0.02,-0.17 -0.02,-0.18 -0.03,-0.19 -0.01,-0.1 -0.01,-0.09 -0.02,-0.11 -0.02,-0.1 -0.02,-0.11 -0.01,-0.11 -0.03,-0.12 -0.02,-0.11 -0.02,-0.13 -0.02,-0.12 -0.03,-0.14 -0.02,-0.13 -0.03,-0.14 -0.03,-0.15 c -0.09,-0.59 -0.14,-0.73 -0.19,-1.09 0.8,-0.39 1.55,-0.6 2.14,-0.6 1.64,0 3.58,1.44 5.13,3.78 l 3.8,5.83 0.54,-3.44 c 0.69,-4.23 1.78,-6.17 3.58,-6.17 1.09,0 2.64,0.85 4.28,2.3 l 2.45,2.19 -0.45,0.93 c -1.84,-1.53 -3.05,-2.23 -3.84,-2.23 -0.74,0 -1.35,0.45 -1.85,1.39 -0.43,0.95 -1.03,2.84 -1.28,4.34 l -0.9,5.04 1.75,2.43 c 2.34,3.28 3.64,4.39 5.23,4.39 0.84,0 1.39,-0.36 1.64,-1.15 l 0.69,0.2 0.75,4.23 c -0.59,0.35 -1,0.5 -1.49,0.5 -2,0 -3.98,-1.79 -7.07,-6.37 l -1.85,-2.75 -0.3,2.39 c -0.6,4.94 -1.88,6.73 -4.88,6.73 -1.3,0 -2.4,-0.4 -2.85,-1.04 l -2.87,-4.14 0.84,-0.5 c 1.55,1.7 2.48,2.39 3.44,2.39 1.69,0 2.73,-2.03 3.57,-6.92 l 0.55,-3.08 -1.98,-3.1 c -2.19,-3.39 -3.85,-4.93 -5.24,-4.93 -0.75,0 -1.29,0.15 -1.39,0.45 l -0.54,1.39 z"
             id="path3770" /><path
             style="fill:#000000;stroke-width:0"
             inkscape:connector-curvature="0"
             d="m 606.19,412.32 -0.25,-0.08 -0.24,-0.08 -0.23,-0.08 -0.24,-0.08 -0.23,-0.07 -0.25,-0.08 -0.25,-0.08 -0.13,-0.04 -0.13,-0.04 -0.14,-0.04 -0.14,-0.05 -0.14,-0.04 -0.16,-0.05 -0.15,-0.04 -0.16,-0.05 -0.17,-0.05 -0.18,-0.05 -0.18,-0.05 -0.19,-0.06 -0.2,-0.06 -0.2,-0.05 -0.22,-0.06 -0.22,-0.07 -0.23,-0.06 -0.24,-0.07 c -0.35,-3.8 -1.6,-7.03 -4.49,-11.81 l 0.7,-0.55 2.04,0.94 c 4.04,5.23 5.93,8.37 7.33,12.22 z"
             id="path3772" /><path
             style="fill:#000000;stroke-width:0"
             inkscape:connector-curvature="0"
             d="m 633.74,411.73 -1.21,-0.84 C 629.85,409 627.5,408 625.71,408 c -2.39,0 -3.78,1.79 -3.78,4.87 0,1.34 0.1,2.45 0.4,3.99 l 0.25,1.15 0.44,1.85 c 0.8,3.32 1.8,5.46 3.14,6.76 0.95,0.91 2.5,1.5 3.8,1.5 1.44,0 2.39,-1 2.39,-2.59 0,-2.19 -1.75,-4.53 -4.35,-5.78 -1.39,-0.64 -3.18,-1.24 -5.42,-1.74 l -0.25,-1.15 4.08,1 c 0.8,0.2 2.19,0.7 3.44,1.25 4.23,1.89 6.18,4.12 6.18,7.21 0,2.35 -1.65,3.89 -4.18,3.89 -3.25,0 -8.67,-3.34 -10.67,-6.53 -1.49,-2.43 -3.03,-8.42 -3.03,-11.86 0,-3.87 2.13,-6.17 5.78,-6.17 2.82,0 5.62,1.39 10.2,5.13 z"
             id="path3774" /><path
             style="fill:#000000;stroke-width:0"
             inkscape:connector-curvature="0"
             d="m 652.93,419.18 -0.01,0.39 0,0.4 -0.01,0.41 -0.01,0.43 -0.05,0.88 -0.06,0.92 -0.08,0.95 -0.12,0.99 -0.14,1.02 -0.17,1.04 -0.2,1.07 -0.24,1.08 -0.28,1.1 -0.32,1.1 -0.36,1.11 -0.41,1.11 -0.22,0.56 -0.24,0.56 -0.25,0.55 -0.26,0.55 c -3.12,6.39 -7.59,9.77 -8.1,9.77 -0.32,0 -0.52,-0.21 -0.52,-0.52 0,-0.15 0,-0.26 0.98,-1.2 5.1,-5.14 8.05,-13.41 8.05,-24.27 0,-8.87 -1.92,-18.03 -8.36,-24.57 -0.67,-0.61 -0.67,-0.72 -0.67,-0.88 0,-0.31 0.2,-0.52 0.52,-0.52 0.51,0 5.18,3.54 8.26,10.13 2.64,5.72 3.27,11.48 3.27,15.84 z"
             id="path3776" /></g>      </g>
    </g>
    <path
       style="fill:none;fill-rule:evenodd;stroke:#000000;stroke-width:3;stroke-linecap:butt;stroke-linejoin:miter;stroke-miterlimit:4;stroke-dasharray:none;stroke-opacity:1;marker-end:url(#Arrow1Mend)"
       d="m 185.64946,314.76358 59.11628,0"
       id="path3842"
       inkscape:connector-curvature="0" />
    <path
       inkscape:connector-curvature="0"
       id="path5132"
       d="m 522.8913,314.76358 59.11628,0"
       style="fill:none;fill-rule:evenodd;stroke:#000000;stroke-width:3;stroke-linecap:butt;stroke-linejoin:miter;stroke-miterlimit:4;stroke-dasharray:none;stroke-opacity:1;marker-end:url(#marker5134)" />
    <path
       inkscape:connector-curvature="0"
       id="path5352"
       d="m 387.09049,189.49827 0,59.11628"
       style="fill:none;fill-rule:evenodd;stroke:#000000;stroke-width:3;stroke-linecap:butt;stroke-linejoin:miter;stroke-miterlimit:4;stroke-dasharray:none;stroke-opacity:1;marker-end:url(#marker5354)" />
    <path
       style="fill:none;fill-rule:evenodd;stroke:#000000;stroke-width:3;stroke-linecap:butt;stroke-linejoin:miter;stroke-miterlimit:4;stroke-dasharray:none;stroke-opacity:1;marker-end:url(#marker5700)"
       d="m 724.26323,402.67998 0,47.75586 -217.06323,0"
       id="path5904"
       inkscape:connector-curvature="0"
       sodipodi:nodetypes="ccc" />
    <path
       inkscape:connector-curvature="0"
       id="path5906"
       d="m 94.547876,402.68 0,47.75586 172.612124,0"
       style="fill:none;fill-rule:evenodd;stroke:#000000;stroke-width:3;stroke-linecap:butt;stroke-linejoin:miter;stroke-miterlimit:4;stroke-dasharray:none;stroke-opacity:1;marker-start:url(#Arrow1Mstart)"
       sodipodi:nodetypes="ccc" />
  </g>
</svg>
