<?xml version="1.0" encoding="UTF-8" standalone="no"?>
<!-- Created with Inkscape (http://www.inkscape.org/) -->

<svg
   xmlns:dc="http://purl.org/dc/elements/1.1/"
   xmlns:cc="http://creativecommons.org/ns#"
   xmlns:rdf="http://www.w3.org/1999/02/22-rdf-syntax-ns#"
   xmlns:svg="http://www.w3.org/2000/svg"
   xmlns="http://www.w3.org/2000/svg"
   xmlns:sodipodi="http://sodipodi.sourceforge.net/DTD/sodipodi-0.dtd"
   xmlns:inkscape="http://www.inkscape.org/namespaces/inkscape"
   id="svg2"
   version="1.1"
   inkscape:version="0.91 r13725"
   xml:space="preserve"
   width="547.66931"
   height="189.52777"
   viewBox="0 0 547.66931 189.52777"
   sodipodi:docname="structured-filtering.pdf"><metadata
     id="metadata8"><rdf:RDF><cc:Work
         rdf:about=""><dc:format>image/svg+xml</dc:format><dc:type
           rdf:resource="http://purl.org/dc/dcmitype/StillImage" /><dc:title></dc:title></cc:Work></rdf:RDF></metadata><defs
     id="defs6" /><sodipodi:namedview
     pagecolor="#000000"
     bordercolor="#666666"
     borderopacity="1"
     objecttolerance="10"
     gridtolerance="10"
     guidetolerance="10"
     inkscape:pageopacity="0"
     inkscape:pageshadow="2"
     inkscape:window-width="1888"
     inkscape:window-height="2108"
     id="namedview4"
     showgrid="false"
     fit-margin-top="0"
     fit-margin-left="0"
     fit-margin-right="0"
     fit-margin-bottom="0"
     inkscape:zoom="1.9070707"
     inkscape:cx="240.50154"
     inkscape:cy="-199.68052"
     inkscape:window-x="1952"
     inkscape:window-y="24"
     inkscape:window-maximized="0"
     inkscape:current-layer="g10" /><g
     id="g10"
     inkscape:groupmode="layer"
     inkscape:label="structured-filtering"
     transform="matrix(1.25,0,0,-1.25,-111.22574,912.45581)"><path
       inkscape:connector-curvature="0"
       id="path26"
       style="fill:#cc79a7;fill-opacity:1;fill-rule:nonzero;stroke:#ffffff;stroke-width:0.3985;stroke-linecap:butt;stroke-linejoin:miter;stroke-miterlimit:10;stroke-dasharray:none;stroke-opacity:1"
       d="m 114.69216,660.31562 c 0,7.04512 -5.71104,12.75616 -12.75616,12.75616 -7.04512,0 -12.75616,-5.71104 -12.75616,-12.75616 0,-7.04514 5.71104,-12.75618 12.75616,-12.75618 7.04512,0 12.75616,5.71104 12.75616,12.75618 z" /><path
       inkscape:connector-curvature="0"
       id="path38"
       style="fill:#d55e00;fill-opacity:1;fill-rule:nonzero;stroke:#ffffff;stroke-width:0.3985;stroke-linecap:butt;stroke-linejoin:miter;stroke-miterlimit:10;stroke-dasharray:none;stroke-opacity:1"
       d="m 114.69216,616.37816 -25.51232,0 0,-25.51232 25.51232,0 0,25.51232 z" /><path
       d="m 101.936,647.26055 0,-27.99323"
       style="fill:none;stroke:#ffffff;stroke-width:0.79701;stroke-linecap:butt;stroke-linejoin:miter;stroke-miterlimit:10;stroke-dasharray:none;stroke-opacity:1"
       id="path46"
       inkscape:connector-curvature="0" /><path
       d="m 101.936,616.67706 2.0722,4.14441 -2.0722,-1.55415 -2.0722,1.55415"
       style="fill:#ffffff;fill-opacity:1;fill-rule:nonzero;stroke:none"
       id="path52"
       inkscape:connector-curvature="0" /><text
       transform="scale(1,-1)"
       style="font-variant:normal;font-size:7.97009993px;font-family:'URW Palladio L';-inkscape-font-specification:URWPalladioL-Roma;writing-mode:lr-tb;fill:#ffffff;fill-opacity:1;fill-rule:nonzero;stroke:none"
       id="text56"
       x="97.289001"
       y="-580.05603"><tspan
         x="97.289001 99.943047 103.92809"
         y="-580.05603"
         sodipodi:role="line"
         id="tspan58">(a)</tspan></text>
<path
       inkscape:connector-curvature="0"
       id="path70"
       style="fill:#cc79a7;fill-opacity:1;fill-rule:nonzero;stroke:#ffffff;stroke-width:0.3985;stroke-linecap:butt;stroke-linejoin:miter;stroke-miterlimit:10;stroke-dasharray:none;stroke-opacity:1"
       d="m 200.33116,660.31562 c 0,7.04512 -5.71104,12.75616 -12.75616,12.75616 -7.04512,0 -12.75616,-5.71104 -12.75616,-12.75616 0,-7.04514 5.71104,-12.75618 12.75616,-12.75618 7.04512,0 12.75616,5.71104 12.75616,12.75618 z" /><path
       inkscape:connector-curvature="0"
       id="path82"
       style="fill:#d55e00;fill-opacity:1;fill-rule:nonzero;stroke:#ffffff;stroke-width:0.3985;stroke-linecap:butt;stroke-linejoin:miter;stroke-miterlimit:10;stroke-dasharray:none;stroke-opacity:1"
       d="m 171.98438,616.37816 -25.51236,0 0,-25.51232 25.51236,0 0,25.51232 z" /><path
       inkscape:connector-curvature="0"
       id="path94"
       style="fill:#d55e00;fill-opacity:1;fill-rule:nonzero;stroke:#ffffff;stroke-width:0.3985;stroke-linecap:butt;stroke-linejoin:miter;stroke-miterlimit:10;stroke-dasharray:none;stroke-opacity:1"
       d="m 228.67798,616.37816 -25.51236,0 0,-25.51232 25.51236,0 0,25.51232 z" /><path
       d="M 181.73595,648.63885 166.913,618.99384"
       style="fill:none;stroke:#ffffff;stroke-width:0.79701;stroke-linecap:butt;stroke-linejoin:miter;stroke-miterlimit:10;stroke-dasharray:none;stroke-opacity:1"
       id="path104"
       inkscape:connector-curvature="0" /><path
       d="m 165.75452,616.67708 3.707,2.78005 -2.54851,-0.46327 -1.15832,2.31685"
       style="fill:#ffffff;fill-opacity:1;fill-rule:nonzero;stroke:none"
       id="path110"
       inkscape:connector-curvature="0" /><path
       d="M 193.41405,648.63885 208.237,618.99384"
       style="fill:none;stroke:#ffffff;stroke-width:0.79701;stroke-linecap:butt;stroke-linejoin:miter;stroke-miterlimit:10;stroke-dasharray:none;stroke-opacity:1"
       id="path114"
       inkscape:connector-curvature="0" /><path
       d="m 209.39548,616.67708 -1.7e-4,4.63363 -1.15832,-2.31685 -2.54851,0.46327"
       style="fill:#ffffff;fill-opacity:1;fill-rule:nonzero;stroke:none"
       id="path120"
       inkscape:connector-curvature="0" /><text
       transform="scale(1,-1)"
       style="font-variant:normal;font-size:7.97009993px;font-family:'URW Palladio L';-inkscape-font-specification:URWPalladioL-Roma;writing-mode:lr-tb;fill:#ffffff;fill-opacity:1;fill-rule:nonzero;stroke:none"
       id="text124"
       x="182.717"
       y="-580.05603"><tspan
         x="182.717 185.37105 189.7785"
         y="-580.05603"
         sodipodi:role="line"
         id="tspan126">(b)</tspan></text>
<path
       inkscape:connector-curvature="0"
       id="path138"
       style="fill:#cc79a7;fill-opacity:1;fill-rule:nonzero;stroke:#ffffff;stroke-width:0.3985;stroke-linecap:butt;stroke-linejoin:miter;stroke-miterlimit:10;stroke-dasharray:none;stroke-opacity:1"
       d="m 399.35616,717.00924 c 0,7.04512 -5.71104,12.75616 -12.75616,12.75616 -7.04512,0 -12.75616,-5.71104 -12.75616,-12.75616 0,-7.04514 5.71104,-12.75618 12.75616,-12.75618 7.04512,0 12.75616,5.71104 12.75616,12.75618 z" /><path
       inkscape:connector-curvature="0"
       id="path150"
       style="fill:#56b4e9;fill-opacity:1;fill-rule:nonzero;stroke:#ffffff;stroke-width:0.3985;stroke-linecap:butt;stroke-linejoin:miter;stroke-miterlimit:10;stroke-dasharray:none;stroke-opacity:1"
       d="m 301.55958,677.32375 -14.72951,-25.51221 29.459,0 -14.72949,25.51221 z" /><path
       inkscape:connector-curvature="0"
       id="path162"
       style="fill:#d55e00;fill-opacity:1;fill-rule:nonzero;stroke:#ffffff;stroke-width:0.3985;stroke-linecap:butt;stroke-linejoin:miter;stroke-miterlimit:10;stroke-dasharray:none;stroke-opacity:1"
       d="m 285.96894,616.37816 -25.51234,0 0,-25.51232 25.51234,0 0,25.51232 z" /><path
       inkscape:connector-curvature="0"
       id="path174"
       style="fill:#d55e00;fill-opacity:1;fill-rule:nonzero;stroke:#ffffff;stroke-width:0.3985;stroke-linecap:butt;stroke-linejoin:miter;stroke-miterlimit:10;stroke-dasharray:none;stroke-opacity:1"
       d="m 342.66256,616.37816 -25.51234,0 0,-25.51232 25.51234,0 0,25.51232 z" /><path
       inkscape:connector-curvature="0"
       id="path186"
       style="fill:#56b4e9;fill-opacity:1;fill-rule:nonzero;stroke:#ffffff;stroke-width:0.3985;stroke-linecap:butt;stroke-linejoin:miter;stroke-miterlimit:10;stroke-dasharray:none;stroke-opacity:1"
       d="m 471.64042,677.32375 -14.72949,-25.51221 29.459,0 -14.72951,25.51221 z" /><path
       inkscape:connector-curvature="0"
       id="path198"
       style="fill:#d55e00;fill-opacity:1;fill-rule:nonzero;stroke:#ffffff;stroke-width:0.3985;stroke-linecap:butt;stroke-linejoin:miter;stroke-miterlimit:10;stroke-dasharray:none;stroke-opacity:1"
       d="m 526.9168,616.37816 -25.51234,0 0,-25.51232 25.51234,0 0,25.51232 z" /><path
       inkscape:connector-curvature="0"
       id="path210"
       style="fill:#d55e00;fill-opacity:1;fill-rule:nonzero;stroke:#ffffff;stroke-width:0.3985;stroke-linecap:butt;stroke-linejoin:miter;stroke-miterlimit:10;stroke-dasharray:none;stroke-opacity:1"
       d="m 484.3966,616.37816 -25.51236,0 0,-25.51232 25.51236,0 0,25.51232 z" /><path
       inkscape:connector-curvature="0"
       id="path222"
       style="fill:#d55e00;fill-opacity:1;fill-rule:nonzero;stroke:#ffffff;stroke-width:0.3985;stroke-linecap:butt;stroke-linejoin:miter;stroke-miterlimit:10;stroke-dasharray:none;stroke-opacity:1"
       d="m 441.87638,616.37816 -25.51236,0 0,-25.51232 25.51236,0 0,25.51232 z" /><path
       d="M 375.70414,709.74547 311.06173,666.65038"
       style="fill:none;stroke:#ffffff;stroke-width:0.79701;stroke-linecap:butt;stroke-linejoin:miter;stroke-miterlimit:10;stroke-dasharray:none;stroke-opacity:1"
       id="path232"
       inkscape:connector-curvature="0" /><path
       d="m 308.89987,665.2091 4.612,0.5766 -2.45014,0.8647 0.14407,2.59425"
       style="fill:#ffffff;fill-opacity:1;fill-rule:nonzero;stroke:none"
       id="path238"
       inkscape:connector-curvature="0" /><path
       d="m 297.15774,651.51234 -16.26018,-32.5185"
       style="fill:none;stroke:#ffffff;stroke-width:0.79701;stroke-linecap:butt;stroke-linejoin:miter;stroke-miterlimit:10;stroke-dasharray:none;stroke-opacity:1"
       id="path242"
       inkscape:connector-curvature="0" /><path
       d="m 279.73909,616.67708 3.707,2.78005 -2.54851,-0.46327 -1.15832,2.31685"
       style="fill:#ffffff;fill-opacity:1;fill-rule:nonzero;stroke:none"
       id="path248"
       inkscape:connector-curvature="0" /><path
       d="m 305.96142,651.51234 16.26018,-32.5185"
       style="fill:none;stroke:#ffffff;stroke-width:0.79701;stroke-linecap:butt;stroke-linejoin:miter;stroke-miterlimit:10;stroke-dasharray:none;stroke-opacity:1"
       id="path252"
       inkscape:connector-curvature="0" /><path
       d="m 323.38007,616.67708 -1.7e-4,4.63363 -1.15832,-2.31685 -2.54851,0.46327"
       style="fill:#ffffff;fill-opacity:1;fill-rule:nonzero;stroke:none"
       id="path258"
       inkscape:connector-curvature="0" /><path
       d="m 397.49586,709.74547 64.64259,-43.0952"
       style="fill:none;stroke:#ffffff;stroke-width:0.79701;stroke-linecap:butt;stroke-linejoin:miter;stroke-miterlimit:10;stroke-dasharray:none;stroke-opacity:1"
       id="path262"
       inkscape:connector-curvature="0" /><path
       d="m 464.30031,665.20899 -2.30593,4.03555 0.14407,-2.59425 -2.45014,-0.8647"
       style="fill:#ffffff;fill-opacity:1;fill-rule:nonzero;stroke:none"
       id="path268"
       inkscape:connector-curvature="0" /><path
       d="m 478.24317,651.5122 24.57369,-32.76293"
       style="fill:none;stroke:#ffffff;stroke-width:0.79701;stroke-linecap:butt;stroke-linejoin:miter;stroke-miterlimit:10;stroke-dasharray:none;stroke-opacity:1"
       id="path272"
       inkscape:connector-curvature="0" /><path
       d="m 504.37113,616.67708 -0.8291,4.55895 -0.72519,-2.48674 -2.59033,-10e-5"
       style="fill:#ffffff;fill-opacity:1;fill-rule:nonzero;stroke:none"
       id="path278"
       inkscape:connector-curvature="0" /><path
       d="m 471.64042,651.51096 0,-32.24364"
       style="fill:none;stroke:#ffffff;stroke-width:0.79701;stroke-linecap:butt;stroke-linejoin:miter;stroke-miterlimit:10;stroke-dasharray:none;stroke-opacity:1"
       id="path282"
       inkscape:connector-curvature="0" /><path
       d="m 471.64042,616.67706 2.0722,4.14441 -2.0722,-1.55415 -2.0722,1.55415"
       style="fill:#ffffff;fill-opacity:1;fill-rule:nonzero;stroke:none"
       id="path288"
       inkscape:connector-curvature="0" /><path
       d="M 465.03767,651.5122 440.46398,618.74927"
       style="fill:none;stroke:#ffffff;stroke-width:0.79701;stroke-linecap:butt;stroke-linejoin:miter;stroke-miterlimit:10;stroke-dasharray:none;stroke-opacity:1"
       id="path292"
       inkscape:connector-curvature="0" /><path
       d="m 438.90971,616.67708 4.14462,2.07211 -2.59033,10e-5 -0.72519,2.48674"
       style="fill:#ffffff;fill-opacity:1;fill-rule:nonzero;stroke:none"
       id="path298"
       inkscape:connector-curvature="0" /><text
       transform="scale(1,-1)"
       style="font-variant:normal;font-size:7.97009993px;font-family:'URW Palladio L';-inkscape-font-specification:URWPalladioL-Roma;writing-mode:lr-tb;fill:#ffffff;fill-opacity:1;fill-rule:nonzero;stroke:none"
       id="text302"
       x="389.263"
       y="-580.05603"><tspan
         x="389.263 391.91705 395.45578"
         y="-580.05603"
         sodipodi:role="line"
         id="tspan304">(c)</tspan></text>
</g></svg>