<?xml version="1.0" encoding="UTF-8" standalone="no"?>
<!-- Created with Inkscape (http://www.inkscape.org/) -->

<svg
   xmlns:dc="http://purl.org/dc/elements/1.1/"
   xmlns:cc="http://creativecommons.org/ns#"
   xmlns:rdf="http://www.w3.org/1999/02/22-rdf-syntax-ns#"
   xmlns:svg="http://www.w3.org/2000/svg"
   xmlns="http://www.w3.org/2000/svg"
   xmlns:sodipodi="http://sodipodi.sourceforge.net/DTD/sodipodi-0.dtd"
   xmlns:inkscape="http://www.inkscape.org/namespaces/inkscape"
   id="svg2"
   version="1.1"
   inkscape:version="0.91 r13725"
   xml:space="preserve"
   width="600.07166"
   height="119.33798"
   viewBox="0 0 600.07166 119.33798"
   sodipodi:docname="pruning-rules.svg"
   inkscape:export-filename="/home/cgranade/Dropbox/cgranade.github.io/research/talks/uts/03-2017/figures/pruning-rules.png"
   inkscape:export-xdpi="800"
   inkscape:export-ydpi="800"><metadata
     id="metadata8"><rdf:RDF><cc:Work
         rdf:about=""><dc:format>image/svg+xml</dc:format><dc:type
           rdf:resource="http://purl.org/dc/dcmitype/StillImage" /><dc:title></dc:title></cc:Work></rdf:RDF></metadata><defs
     id="defs6" /><sodipodi:namedview
     pagecolor="#000000"
     bordercolor="#666666"
     borderopacity="1"
     objecttolerance="10"
     gridtolerance="10"
     guidetolerance="10"
     inkscape:pageopacity="0"
     inkscape:pageshadow="2"
     inkscape:window-width="1888"
     inkscape:window-height="1040"
     id="namedview4"
     showgrid="false"
     fit-margin-top="0"
     fit-margin-left="0"
     fit-margin-right="0"
     fit-margin-bottom="0"
     inkscape:zoom="2.3047248"
     inkscape:cx="299.81887"
     inkscape:cy="60.102883"
     inkscape:window-x="1952"
     inkscape:window-y="1092"
     inkscape:window-maximized="0"
     inkscape:current-layer="g10" /><g
     id="g10"
     inkscape:groupmode="layer"
     inkscape:label="structured-filtering"
     transform="matrix(1.25,0,0,-1.25,-85.022138,601.11356)"><path
       inkscape:connector-curvature="0"
       id="path336"
       style="fill:#cc79a7;fill-opacity:1;fill-rule:nonzero;stroke:#ffffff;stroke-width:0.3985;stroke-linecap:butt;stroke-linejoin:miter;stroke-miterlimit:10;stroke-dasharray:none;stroke-opacity:1"
       d="m 122.07614,467.93542 c 0,7.04514 -5.71106,12.75618 -12.75618,12.75618 -7.04513,0 -12.75618,-5.71104 -12.75618,-12.75618 0,-7.04512 5.71105,-12.75618 12.75618,-12.75618 7.04512,0 12.75618,5.71106 12.75618,12.75618 z" /><path
       inkscape:connector-curvature="0"
       id="path348"
       style="fill:#d55e00;fill-opacity:1;fill-rule:nonzero;stroke:#ffffff;stroke-width:0.3985;stroke-linecap:butt;stroke-linejoin:miter;stroke-miterlimit:10;stroke-dasharray:none;stroke-opacity:1"
       d="m 150.42294,423.99798 -25.51234,0 0,-25.51236 25.51234,0 0,25.51236 z" /><path
       inkscape:connector-curvature="0"
       id="path360"
       style="fill:#d55e00;fill-opacity:1;fill-rule:nonzero;stroke:#ffffff;stroke-width:0.3985;stroke-linecap:butt;stroke-linejoin:miter;stroke-miterlimit:10;stroke-dasharray:none;stroke-opacity:1"
       d="m 122.07614,423.99798 -25.51236,0 0,-25.51236 25.51236,0 0,25.51236 z" /><path
       inkscape:connector-curvature="0"
       id="path372"
       style="fill:#d55e00;fill-opacity:1;fill-rule:nonzero;stroke:#ffffff;stroke-width:0.3985;stroke-linecap:butt;stroke-linejoin:miter;stroke-miterlimit:10;stroke-dasharray:none;stroke-opacity:1"
       d="m 93.72932,423.99798 -25.51236,0 0,-25.51236 25.51236,0 0,25.51236 z" /><path
       d="m 115.15903,456.25866 14.82293,-29.64502"
       style="fill:#ffffff;fill-opacity:1;stroke:#ffffff;stroke-width:0.79701;stroke-linecap:butt;stroke-linejoin:miter;stroke-miterlimit:10;stroke-dasharray:none;stroke-opacity:1"
       id="path382"
       inkscape:connector-curvature="0" /><path
       d="m 131.14044,424.29688 -1.7e-4,4.63363 -1.15832,-2.31685 -2.54851,0.46327"
       style="fill:#ffffff;fill-opacity:1;fill-rule:nonzero;stroke:#ffffff;stroke-opacity:1"
       id="path388"
       inkscape:connector-curvature="0" /><path
       d="m 109.31996,454.88035 0,-27.99322"
       style="fill:#333333;stroke:#333333;stroke-width:0.79701;stroke-linecap:butt;stroke-linejoin:miter;stroke-miterlimit:10;stroke-dasharray:none;stroke-opacity:1"
       id="path392"
       inkscape:connector-curvature="0" /><path
       d="m 109.31996,424.29687 2.0722,4.14441 -2.0722,-1.55415 -2.0722,1.55415"
       style="fill:#333333;fill-opacity:1;fill-rule:nonzero;stroke:#333333"
       id="path398"
       inkscape:connector-curvature="0" /><path
       d="M 103.4809,456.25866 88.65794,426.61364"
       style="fill:#333333;stroke:#333333;stroke-width:0.79701;stroke-linecap:butt;stroke-linejoin:miter;stroke-miterlimit:10;stroke-dasharray:none;stroke-opacity:1"
       id="path402"
       inkscape:connector-curvature="0" /><path
       d="m 87.499466,424.29688 3.707005,2.78005 -2.548511,-0.46327 -1.158324,2.31685"
       style="fill:#333333;fill-opacity:1;fill-rule:nonzero;stroke:#333333"
       id="path408"
       inkscape:connector-curvature="0" /><path
       d="m 166.01358,439.58862 55.98625,0"
       style="fill:#ffffff;fill-opacity:1;stroke:#ffffff;stroke-width:0.79701;stroke-linecap:butt;stroke-linejoin:miter;stroke-miterlimit:10;stroke-dasharray:none;stroke-opacity:1"
       id="path412"
       inkscape:connector-curvature="0" /><path
       d="m 220.44568,441.66082 c 0.12951,-0.77708 1.55415,-1.9427 1.94267,-2.0722 -0.38852,-0.1295 -1.81316,-1.29512 -1.94267,-2.0722"
       style="fill:#ffffff;fill-opacity:1;stroke:#ffffff;stroke-width:0.6376;stroke-linecap:round;stroke-linejoin:round;stroke-miterlimit:10;stroke-dasharray:none;stroke-opacity:1"
       id="path418"
       inkscape:connector-curvature="0" /><path
       inkscape:connector-curvature="0"
       id="path424"
       style="fill:#cc79a7;fill-opacity:1;fill-rule:nonzero;stroke:#ffffff;stroke-width:0.3985;stroke-linecap:butt;stroke-linejoin:miter;stroke-miterlimit:10;stroke-dasharray:none;stroke-opacity:1"
       d="m 263.81016,467.93542 c 0,7.04514 -5.71104,12.75618 -12.75616,12.75618 -7.04512,0 -12.75616,-5.71104 -12.75616,-12.75618 0,-7.04512 5.71104,-12.75618 12.75616,-12.75618 7.04512,0 12.75616,5.71106 12.75616,12.75618 z" /><path
       inkscape:connector-curvature="0"
       id="path436"
       style="fill:#d55e00;fill-opacity:1;fill-rule:nonzero;stroke:#ffffff;stroke-width:0.3985;stroke-linecap:butt;stroke-linejoin:miter;stroke-miterlimit:10;stroke-dasharray:none;stroke-opacity:1"
       d="m 263.81016,423.99798 -25.51232,0 0,-25.51236 25.51232,0 0,25.51236 z" /><path
       d="m 251.054,454.88035 0,-27.99322"
       style="fill:#ffffff;fill-opacity:1;stroke:#ffffff;stroke-width:0.79701;stroke-linecap:butt;stroke-linejoin:miter;stroke-miterlimit:10;stroke-dasharray:none;stroke-opacity:1"
       id="path446"
       inkscape:connector-curvature="0" /><path
       d="m 251.054,424.29687 2.0722,4.14441 -2.0722,-1.55415 -2.0722,1.55415"
       style="fill:#ffffff;fill-opacity:1;fill-rule:nonzero;stroke:#ffffff;stroke-opacity:1"
       id="path452"
       inkscape:connector-curvature="0" /><text
       y="-387.67599"
       x="117.31"
       transform="scale(1,-1)"
       style="font-variant:normal;font-size:7.97009993px;font-family:'URW Palladio L';-inkscape-font-specification:URWPalladioL-Roma;writing-mode:lr-tb;fill:#ffffff;fill-opacity:1;fill-rule:nonzero;stroke:none"
       id="text456"><tspan
         x="117.31 119.96404 123.9491 128.59566 134.24646 138.88506 142.8701 149.90771 154.69774 157.01704 161.36871 167.99983 172.78987 175.8743 180.68027 185.31886 187.63817 192.27676 198.70067 201.7851 206.59106 208.91035 212.72804"
         y="-387.67599"
         sodipodi:role="line"
         id="tspan458">(a)Championpruningrule.</tspan></text>
<path
       inkscape:connector-curvature="0"
       id="path470"
       style="fill:#cc79a7;fill-opacity:1;fill-rule:nonzero;stroke:#ffffff;stroke-width:0.3985;stroke-linecap:butt;stroke-linejoin:miter;stroke-miterlimit:10;stroke-dasharray:none;stroke-opacity:1"
       d="m 349.44814,467.93542 c 0,7.04514 -5.71106,12.75618 -12.75618,12.75618 -7.04513,0 -12.75618,-5.71104 -12.75618,-12.75618 0,-7.04512 5.71105,-12.75618 12.75618,-12.75618 7.04512,0 12.75618,5.71106 12.75618,12.75618 z" /><path
       inkscape:connector-curvature="0"
       id="path482"
       style="fill:#d55e00;fill-opacity:1;fill-rule:nonzero;stroke:#ffffff;stroke-width:0.3985;stroke-linecap:butt;stroke-linejoin:miter;stroke-miterlimit:10;stroke-dasharray:none;stroke-opacity:1"
       d="m 377.79494,423.99798 -25.51234,0 0,-25.51236 25.51234,0 0,25.51236 z" /><path
       inkscape:connector-curvature="0"
       id="path494"
       style="fill:#d55e00;fill-opacity:1;fill-rule:nonzero;stroke:#ffffff;stroke-width:0.3985;stroke-linecap:butt;stroke-linejoin:miter;stroke-miterlimit:10;stroke-dasharray:none;stroke-opacity:1"
       d="m 349.44814,423.99798 -25.51236,0 0,-25.51236 25.51236,0 0,25.51236 z" /><path
       inkscape:connector-curvature="0"
       id="path506"
       style="fill:#d55e00;fill-opacity:1;fill-rule:nonzero;stroke:#ffffff;stroke-width:0.3985;stroke-linecap:butt;stroke-linejoin:miter;stroke-miterlimit:10;stroke-dasharray:none;stroke-opacity:1"
       d="m 321.10132,423.99798 -25.51236,0 0,-25.51236 25.51236,0 0,25.51236 z" /><path
       d="m 342.53103,456.25866 14.82293,-29.64502"
       style="fill:#ffffff;fill-opacity:1;stroke:#ffffff;stroke-width:0.79701;stroke-linecap:butt;stroke-linejoin:miter;stroke-miterlimit:10;stroke-dasharray:none;stroke-opacity:1"
       id="path516"
       inkscape:connector-curvature="0" /><path
       d="m 358.51244,424.29688 -1.7e-4,4.63363 -1.15832,-2.31685 -2.54851,0.46327"
       style="fill:#ffffff;fill-opacity:1;fill-rule:nonzero;stroke:#ffffff;stroke-opacity:1"
       id="path522"
       inkscape:connector-curvature="0" /><path
       d="m 336.69196,454.88035 0,-27.99322"
       style="fill:#333333;stroke:#333333;stroke-width:0.79701;stroke-linecap:butt;stroke-linejoin:miter;stroke-miterlimit:10;stroke-dasharray:none;stroke-opacity:1"
       id="path526"
       inkscape:connector-curvature="0" /><path
       d="m 336.69196,424.29687 2.0722,4.14441 -2.0722,-1.55415 -2.0722,1.55415"
       style="fill:#333333;fill-opacity:1;fill-rule:nonzero;stroke:#333333"
       id="path532"
       inkscape:connector-curvature="0" /><path
       d="M 330.8529,456.25866 316.02994,426.61364"
       style="fill:#ffffff;fill-opacity:1;stroke:#ffffff;stroke-width:0.79701;stroke-linecap:butt;stroke-linejoin:miter;stroke-miterlimit:10;stroke-dasharray:none;stroke-opacity:1"
       id="path536"
       inkscape:connector-curvature="0" /><path
       d="m 314.87147,424.29688 3.707,2.78005 -2.54851,-0.46327 -1.15832,2.31685"
       style="fill:#ffffff;fill-opacity:1;fill-rule:nonzero;stroke:#ffffff;stroke-opacity:1"
       id="path542"
       inkscape:connector-curvature="0" /><path
       d="m 393.38558,439.58862 55.98625,0"
       style="fill:#ffffff;fill-opacity:1;stroke:#ffffff;stroke-width:0.79701;stroke-linecap:butt;stroke-linejoin:miter;stroke-miterlimit:10;stroke-dasharray:none;stroke-opacity:1"
       id="path546"
       inkscape:connector-curvature="0" /><path
       d="m 447.81768,441.66082 c 0.12951,-0.77708 1.55415,-1.9427 1.94267,-2.0722 -0.38852,-0.1295 -1.81316,-1.29512 -1.94267,-2.0722"
       style="fill:#ffffff;fill-opacity:1;stroke:#ffffff;stroke-width:0.6376;stroke-linecap:round;stroke-linejoin:round;stroke-miterlimit:10;stroke-dasharray:none;stroke-opacity:1"
       id="path552"
       inkscape:connector-curvature="0" /><path
       inkscape:connector-curvature="0"
       id="path558"
       style="fill:#cc79a7;fill-opacity:1;fill-rule:nonzero;stroke:#ffffff;stroke-width:0.3985;stroke-linecap:butt;stroke-linejoin:miter;stroke-miterlimit:10;stroke-dasharray:none;stroke-opacity:1"
       d="m 519.52898,467.93542 c 0,7.04514 -5.71104,12.75618 -12.75618,12.75618 -7.04513,0 -12.75618,-5.71104 -12.75618,-12.75618 0,-7.04512 5.71105,-12.75618 12.75618,-12.75618 7.04514,0 12.75618,5.71106 12.75618,12.75618 z" /><path
       inkscape:connector-curvature="0"
       id="path570"
       style="fill:#d55e00;fill-opacity:1;fill-rule:nonzero;stroke:#ffffff;stroke-width:0.3985;stroke-linecap:butt;stroke-linejoin:miter;stroke-miterlimit:10;stroke-dasharray:none;stroke-opacity:1"
       d="m 491.18216,423.99798 -25.51232,0 0,-25.51236 25.51232,0 0,25.51236 z" /><path
       inkscape:connector-curvature="0"
       id="path582"
       style="fill:#d55e00;fill-opacity:1;fill-rule:nonzero;stroke:#ffffff;stroke-width:0.3985;stroke-linecap:butt;stroke-linejoin:miter;stroke-miterlimit:10;stroke-dasharray:none;stroke-opacity:1"
       d="m 547.87578,423.99798 -25.51234,0 0,-25.51236 25.51234,0 0,25.51236 z" /><path
       d="M 500.93374,456.25866 486.11078,426.61364"
       style="fill:#ffffff;fill-opacity:1;stroke:#ffffff;stroke-width:0.79701;stroke-linecap:butt;stroke-linejoin:miter;stroke-miterlimit:10;stroke-dasharray:none;stroke-opacity:1"
       id="path592"
       inkscape:connector-curvature="0" /><path
       d="m 484.95231,424.29688 3.707,2.78005 -2.54851,-0.46327 -1.15832,2.31685"
       style="fill:#ffffff;fill-opacity:1;fill-rule:nonzero;stroke:#ffffff;stroke-opacity:1"
       id="path598"
       inkscape:connector-curvature="0" /><path
       d="m 512.61187,456.25866 14.82295,-29.64502"
       style="fill:#ffffff;fill-opacity:1;stroke:#ffffff;stroke-width:0.79701;stroke-linecap:butt;stroke-linejoin:miter;stroke-miterlimit:10;stroke-dasharray:none;stroke-opacity:1"
       id="path602"
       inkscape:connector-curvature="0" /><path
       d="m 528.59329,424.29688 -1.7e-4,4.63363 -1.15832,-2.31685 -2.54851,0.46327"
       style="fill:#ffffff;fill-opacity:1;fill-rule:nonzero;stroke:#ffffff;stroke-opacity:1"
       id="path608"
       inkscape:connector-curvature="0" /><text
       y="-387.67599"
       x="382.22202"
       transform="scale(1,-1)"
       style="font-variant:normal;font-size:7.97009993px;font-family:'URW Palladio L';-inkscape-font-specification:URWPalladioL-Roma;writing-mode:lr-tb;fill:#ffffff;fill-opacity:1;fill-rule:nonzero;stroke:none"
       id="text612"><tspan
         x="382.22202 384.87604 389.28351 393.93008 398.36145 400.68076 405.03244 409.38409 414.52481 419.31485 422.39929 427.20526 431.84384 434.16315 438.80176 445.22565 448.31006 453.11606 455.43533 459.25302"
         y="-387.67599"
         sodipodi:role="line"
         id="tspan614">(b)Floorpruningrule.</tspan></text>
</g></svg>