<?xml version="1.0" encoding="UTF-8" standalone="no"?>
<!-- Created with Inkscape (http://www.inkscape.org/) -->

<svg
   xmlns:dc="http://purl.org/dc/elements/1.1/"
   xmlns:cc="http://creativecommons.org/ns#"
   xmlns:rdf="http://www.w3.org/1999/02/22-rdf-syntax-ns#"
   xmlns:svg="http://www.w3.org/2000/svg"
   xmlns="http://www.w3.org/2000/svg"
   xmlns:sodipodi="http://sodipodi.sourceforge.net/DTD/sodipodi-0.dtd"
   xmlns:inkscape="http://www.inkscape.org/namespaces/inkscape"
   id="svg2"
   version="1.1"
   inkscape:version="0.91 r13725"
   xml:space="preserve"
   width="599.32477"
   height="244.98962"
   viewBox="0 0 599.32477 244.98962"
   sodipodi:docname="splitting-move.svg"><metadata
     id="metadata8"><rdf:RDF><cc:Work
         rdf:about=""><dc:format>image/svg+xml</dc:format><dc:type
           rdf:resource="http://purl.org/dc/dcmitype/StillImage" /><dc:title></dc:title></cc:Work></rdf:RDF></metadata><defs
     id="defs6" /><sodipodi:namedview
     pagecolor="#000000"
     bordercolor="#666666"
     borderopacity="1"
     objecttolerance="10"
     gridtolerance="10"
     guidetolerance="10"
     inkscape:pageopacity="0"
     inkscape:pageshadow="2"
     inkscape:window-width="1888"
     inkscape:window-height="2108"
     id="namedview4"
     showgrid="false"
     fit-margin-top="0"
     fit-margin-left="0"
     fit-margin-right="0"
     fit-margin-bottom="0"
     inkscape:zoom="1.5857878"
     inkscape:cx="240.92283"
     inkscape:cy="108.67105"
     inkscape:window-x="1952"
     inkscape:window-y="24"
     inkscape:window-maximized="0"
     inkscape:current-layer="g10" /><g
     id="g10"
     inkscape:groupmode="layer"
     inkscape:label="structured-filtering"
     transform="matrix(1.25,0,0,-1.25,-85.399188,924.90911)"><path
       inkscape:connector-curvature="0"
       id="path26"
       style="fill:#cc79a7;fill-opacity:1;fill-rule:nonzero;stroke:#ffffff;stroke-width:0.3985;stroke-linecap:butt;stroke-linejoin:miter;stroke-miterlimit:10;stroke-dasharray:none;stroke-opacity:1"
       d="m 94.03094,641.93142 c 0,7.04514 -5.71104,12.75618 -12.75618,12.75618 -7.04512,0 -12.75616,-5.71104 -12.75616,-12.75618 0,-7.04512 5.71104,-12.75618 12.75616,-12.75618 7.04514,0 12.75618,5.71106 12.75618,12.75618 z" /><path
       inkscape:connector-curvature="0"
       id="path38"
       style="fill:#d55e00;fill-opacity:1;fill-rule:nonzero;stroke:#ffffff;stroke-width:0.3985;stroke-linecap:butt;stroke-linejoin:miter;stroke-miterlimit:10;stroke-dasharray:none;stroke-opacity:1"
       d="m 94.03094,597.99398 -25.51234,0 0,-25.51236 25.51234,0 0,25.51236 z" /><path
       d="m 81.27476,628.87635 0,-27.99322"
       style="fill:none;stroke:#ffffff;stroke-width:0.79701;stroke-linecap:butt;stroke-linejoin:miter;stroke-miterlimit:10;stroke-dasharray:none;stroke-opacity:1"
       id="path48"
       inkscape:connector-curvature="0" /><path
       d="m 81.27476,598.29287 2.0722,4.14441 -2.0722,-1.55415 -2.0722,1.55415"
       style="fill:#ffffff;fill-opacity:1;fill-rule:nonzero;stroke:none"
       id="path54"
       inkscape:connector-curvature="0" /><path
       d="m 109.62158,613.58462 55.98625,0"
       style="fill:none;stroke:#ffffff;stroke-width:0.79701;stroke-linecap:butt;stroke-linejoin:miter;stroke-miterlimit:10;stroke-dasharray:none;stroke-opacity:1"
       id="path58"
       inkscape:connector-curvature="0" /><path
       d="m 164.05368,615.65682 c 0.12951,-0.77708 1.55415,-1.9427 1.94267,-2.0722 -0.38852,-0.1295 -1.81316,-1.29512 -1.94267,-2.0722"
       style="fill:#ffffff;stroke:#000000;stroke-width:0.6376;stroke-linecap:round;stroke-linejoin:round;stroke-miterlimit:10;stroke-dasharray:none;stroke-opacity:1;fill-opacity:1"
       id="path64"
       inkscape:connector-curvature="0" /><path
       inkscape:connector-curvature="0"
       id="path70"
       style="fill:#cc79a7;fill-opacity:1;fill-rule:nonzero;stroke:#ffffff;stroke-width:0.3985;stroke-linecap:butt;stroke-linejoin:miter;stroke-miterlimit:10;stroke-dasharray:none;stroke-opacity:1"
       d="m 264.11178,726.97186 c 0,7.04512 -5.71104,12.75618 -12.75616,12.75618 -7.04514,0 -12.75618,-5.71106 -12.75618,-12.75618 0,-7.04514 5.71104,-12.75618 12.75618,-12.75618 7.04512,0 12.75616,5.71104 12.75616,12.75618 z" /><path
       inkscape:connector-curvature="0"
       id="path82"
       style="fill:#cc79a7;fill-opacity:1;fill-rule:nonzero;stroke:#ffffff;stroke-width:0.3985;stroke-linecap:butt;stroke-linejoin:miter;stroke-miterlimit:10;stroke-dasharray:none;stroke-opacity:1"
       d="m 264.11178,670.27824 c 0,7.04512 -5.71104,12.75616 -12.75616,12.75616 -7.04514,0 -12.75618,-5.71104 -12.75618,-12.75616 0,-7.04514 5.71104,-12.75618 12.75618,-12.75618 7.04512,0 12.75616,5.71104 12.75616,12.75618 z" /><path
       inkscape:connector-curvature="0"
       id="path94"
       style="fill:#d55e00;fill-opacity:1;fill-rule:nonzero;stroke:#ffffff;stroke-width:0.3985;stroke-linecap:butt;stroke-linejoin:miter;stroke-miterlimit:10;stroke-dasharray:none;stroke-opacity:1"
       d="m 207.41816,569.64716 -25.51232,0 0,-25.51232 25.51232,0 0,25.51232 z" /><path
       inkscape:connector-curvature="0"
       id="path104"
       style="fill:#56b4e9;fill-opacity:1;fill-rule:nonzero;stroke:#ffffff;stroke-width:0.3985;stroke-linecap:butt;stroke-linejoin:miter;stroke-miterlimit:10;stroke-dasharray:none;stroke-opacity:1"
       d="m 279.70242,630.59275 -14.72949,-25.51221 29.459,0 -14.72951,25.51221 z" /><path
       inkscape:connector-curvature="0"
       id="path116"
       style="fill:#d55e00;fill-opacity:1;fill-rule:nonzero;stroke:#ffffff;stroke-width:0.3985;stroke-linecap:butt;stroke-linejoin:miter;stroke-miterlimit:10;stroke-dasharray:none;stroke-opacity:1"
       d="m 264.11178,569.64716 -25.51234,0 0,-25.51232 25.51234,0 0,25.51232 z" /><path
       inkscape:connector-curvature="0"
       id="path128"
       style="fill:#d55e00;fill-opacity:1;fill-rule:nonzero;stroke:#ffffff;stroke-width:0.3985;stroke-linecap:butt;stroke-linejoin:miter;stroke-miterlimit:10;stroke-dasharray:none;stroke-opacity:1"
       d="m 320.8054,569.64716 -25.51234,0 0,-25.51232 25.51234,0 0,25.51232 z" /><path
       d="m 251.35562,713.91679 0,-27.99323"
       style="fill:none;stroke:#ffffff;stroke-width:0.79701;stroke-linecap:butt;stroke-linejoin:miter;stroke-miterlimit:10;stroke-dasharray:none;stroke-opacity:1"
       id="path138"
       inkscape:connector-curvature="0" /><path
       d="m 251.35562,683.3333 2.0722,4.14441 -2.0722,-1.55415 -2.0722,1.55415"
       style="fill:#ffffff;fill-opacity:1;fill-rule:nonzero;stroke:none"
       id="path144"
       inkscape:connector-curvature="0" /><path
       d="m 245.51655,658.60146 -43.1735,-86.33862"
       style="fill:none;stroke:#ffffff;stroke-width:0.79701;stroke-linecap:butt;stroke-linejoin:miter;stroke-miterlimit:10;stroke-dasharray:none;stroke-opacity:1"
       id="path148"
       inkscape:connector-curvature="0" /><path
       d="m 201.18451,569.94608 3.70709,2.78001 -2.54854,-0.46323 -1.15829,2.3169"
       style="fill:#ffffff;fill-opacity:1;fill-rule:nonzero;stroke:none"
       id="path154"
       inkscape:connector-curvature="0" /><path
       d="m 257.21759,658.55486 16.6091,-33.21875"
       style="fill:none;stroke:#ffffff;stroke-width:0.79701;stroke-linecap:butt;stroke-linejoin:miter;stroke-miterlimit:10;stroke-dasharray:none;stroke-opacity:1"
       id="path158"
       inkscape:connector-curvature="0" /><path
       d="m 274.98505,623.01935 4e-5,4.63353 -1.1584,-2.31675 -2.54843,0.46337"
       style="fill:#ffffff;fill-opacity:1;fill-rule:nonzero;stroke:none"
       id="path164"
       inkscape:connector-curvature="0" /><path
       d="M 275.30058,604.78134 259.0404,572.26284"
       style="fill:none;stroke:#ffffff;stroke-width:0.79701;stroke-linecap:butt;stroke-linejoin:miter;stroke-miterlimit:10;stroke-dasharray:none;stroke-opacity:1"
       id="path168"
       inkscape:connector-curvature="0" /><path
       d="m 257.88193,569.94608 3.707,2.78005 -2.54851,-0.46327 -1.15832,2.31685"
       style="fill:#ffffff;fill-opacity:1;fill-rule:nonzero;stroke:none"
       id="path174"
       inkscape:connector-curvature="0" /><path
       d="m 284.10426,604.78134 16.26018,-32.5185"
       style="fill:none;stroke:#ffffff;stroke-width:0.79701;stroke-linecap:butt;stroke-linejoin:miter;stroke-miterlimit:10;stroke-dasharray:none;stroke-opacity:1"
       id="path178"
       inkscape:connector-curvature="0" /><path
       d="m 301.52291,569.94608 -1.7e-4,4.63363 -1.15832,-2.31685 -2.54851,0.46327"
       style="fill:#ffffff;fill-opacity:1;fill-rule:nonzero;stroke:none"
       id="path184"
       inkscape:connector-curvature="0" /><path
       d="m 336.39604,613.58462 55.98625,0"
       style="fill:none;stroke:#ffffff;stroke-width:0.79701;stroke-linecap:butt;stroke-linejoin:miter;stroke-miterlimit:10;stroke-dasharray:none;stroke-opacity:1"
       id="path188"
       inkscape:connector-curvature="0" /><path
       d="m 390.82814,615.65682 c 0.12951,-0.77708 1.55415,-1.9427 1.94267,-2.0722 -0.38852,-0.1295 -1.81316,-1.29512 -1.94267,-2.0722"
       style="fill:#ffffff;stroke:#000000;stroke-width:0.6376;stroke-linecap:round;stroke-linejoin:round;stroke-miterlimit:10;stroke-dasharray:none;stroke-opacity:1;fill-opacity:1"
       id="path194"
       inkscape:connector-curvature="0" /><path
       inkscape:connector-curvature="0"
       id="path200"
       style="fill:#cc79a7;fill-opacity:1;fill-rule:nonzero;stroke:#ffffff;stroke-width:0.3985;stroke-linecap:butt;stroke-linejoin:miter;stroke-miterlimit:10;stroke-dasharray:none;stroke-opacity:1"
       d="m 490.88627,670.27824 c 0,7.04512 -5.71106,12.75616 -12.75617,12.75616 -7.04514,0 -12.75619,-5.71104 -12.75619,-12.75616 0,-7.04514 5.71105,-12.75618 12.75619,-12.75618 7.04511,0 12.75617,5.71104 12.75617,12.75618 z" /><path
       inkscape:connector-curvature="0"
       id="path212"
       style="fill:#d55e00;fill-opacity:1;fill-rule:nonzero;stroke:#ffffff;stroke-width:0.3985;stroke-linecap:butt;stroke-linejoin:miter;stroke-miterlimit:10;stroke-dasharray:none;stroke-opacity:1"
       d="m 434.19265,569.64716 -25.51235,0 0,-25.51232 25.51235,0 0,25.51232 z" /><path
       inkscape:connector-curvature="0"
       id="path224"
       style="fill:#56b4e9;fill-opacity:1;fill-rule:nonzero;stroke:#ffffff;stroke-width:0.3985;stroke-linecap:butt;stroke-linejoin:miter;stroke-miterlimit:10;stroke-dasharray:none;stroke-opacity:1"
       d="m 506.4769,630.59275 -14.7295,-25.51221 29.459,0 -14.7295,25.51221 z" /><path
       inkscape:connector-curvature="0"
       id="path236"
       style="fill:#d55e00;fill-opacity:1;fill-rule:nonzero;stroke:#ffffff;stroke-width:0.3985;stroke-linecap:butt;stroke-linejoin:miter;stroke-miterlimit:10;stroke-dasharray:none;stroke-opacity:1"
       d="m 490.88627,569.64716 -25.51236,0 0,-25.51232 25.51236,0 0,25.51232 z" /><path
       inkscape:connector-curvature="0"
       id="path248"
       style="fill:#d55e00;fill-opacity:1;fill-rule:nonzero;stroke:#ffffff;stroke-width:0.3985;stroke-linecap:butt;stroke-linejoin:miter;stroke-miterlimit:10;stroke-dasharray:none;stroke-opacity:1"
       d="m 547.5799,569.64716 -25.51237,0 0,-25.51232 25.51237,0 0,25.51232 z" /><path
       d="M 472.29103,658.60146 429.11754,572.26284"
       style="fill:none;stroke:#ffffff;stroke-width:0.79701;stroke-linecap:butt;stroke-linejoin:miter;stroke-miterlimit:10;stroke-dasharray:none;stroke-opacity:1"
       id="path258"
       inkscape:connector-curvature="0" /><path
       d="m 427.959,569.94608 3.70709,2.78001 -2.54854,-0.46323 -1.15829,2.3169"
       style="fill:#ffffff;fill-opacity:1;fill-rule:nonzero;stroke:none"
       id="path264"
       inkscape:connector-curvature="0" /><path
       d="m 483.99206,658.55486 16.6091,-33.21875"
       style="fill:none;stroke:#ffffff;stroke-width:0.79701;stroke-linecap:butt;stroke-linejoin:miter;stroke-miterlimit:10;stroke-dasharray:none;stroke-opacity:1"
       id="path268"
       inkscape:connector-curvature="0" /><path
       d="m 501.75952,623.01935 4e-5,4.63353 -1.1584,-2.31675 -2.54843,0.46337"
       style="fill:#ffffff;fill-opacity:1;fill-rule:nonzero;stroke:none"
       id="path274"
       inkscape:connector-curvature="0" /><path
       d="M 502.07506,604.78134 485.8149,572.26284"
       style="fill:none;stroke:#ffffff;stroke-width:0.79701;stroke-linecap:butt;stroke-linejoin:miter;stroke-miterlimit:10;stroke-dasharray:none;stroke-opacity:1"
       id="path278"
       inkscape:connector-curvature="0" /><path
       d="m 484.65642,569.94608 3.707,2.78005 -2.54851,-0.46327 -1.15832,2.31685"
       style="fill:#ffffff;fill-opacity:1;fill-rule:nonzero;stroke:none"
       id="path284"
       inkscape:connector-curvature="0" /><path
       d="m 510.87874,604.78134 16.26017,-32.5185"
       style="fill:none;stroke:#ffffff;stroke-width:0.79701;stroke-linecap:butt;stroke-linejoin:miter;stroke-miterlimit:10;stroke-dasharray:none;stroke-opacity:1"
       id="path288"
       inkscape:connector-curvature="0" /><path
       d="m 528.29739,569.94608 -1.7e-4,4.63363 -1.15832,-2.31685 -2.54851,0.46327"
       style="fill:#ffffff;fill-opacity:1;fill-rule:nonzero;stroke:none"
       id="path294"
       inkscape:connector-curvature="0" /></g></svg>