<?xml version="1.0" encoding="UTF-8" standalone="no"?>
<!-- Created with Inkscape (http://www.inkscape.org/) -->

<svg
   xmlns:dc="http://purl.org/dc/elements/1.1/"
   xmlns:cc="http://creativecommons.org/ns#"
   xmlns:rdf="http://www.w3.org/1999/02/22-rdf-syntax-ns#"
   xmlns:svg="http://www.w3.org/2000/svg"
   xmlns="http://www.w3.org/2000/svg"
   xmlns:sodipodi="http://sodipodi.sourceforge.net/DTD/sodipodi-0.dtd"
   xmlns:inkscape="http://www.inkscape.org/namespaces/inkscape"
   width="1344.1725"
   height="329.48495"
   id="svg2"
   version="1.1"
   inkscape:version="0.48.4 r9939"
   sodipodi:docname="rb-0order-deriv.svg"
   inkscape:export-filename="/home/cgranade/Dropbox/research/thesis/latex/figures/rb-0order-deriv.png"
   inkscape:export-xdpi="50"
   inkscape:export-ydpi="50">
  <sodipodi:namedview
     id="base"
     pagecolor="#ffffff"
     bordercolor="#666666"
     borderopacity="1.0"
     inkscape:pageopacity="0.0"
     inkscape:pageshadow="2"
     inkscape:zoom="1.0950976"
     inkscape:cx="672.08624"
     inkscape:cy="164.74248"
     inkscape:document-units="px"
     inkscape:current-layer="layer1"
     showgrid="false"
     inkscape:window-width="1920"
     inkscape:window-height="1021"
     inkscape:window-x="0"
     inkscape:window-y="27"
     inkscape:window-maximized="1"
     fit-margin-top="0"
     fit-margin-left="0"
     fit-margin-right="0"
     fit-margin-bottom="0" />
  <defs
     id="defs4" />
  <metadata
     id="metadata7">
    <rdf:RDF>
      <cc:Work
         rdf:about="">
        <dc:format>image/svg+xml</dc:format>
        <dc:type
           rdf:resource="http://purl.org/dc/dcmitype/StillImage" />
        <dc:title />
      </cc:Work>
    </rdf:RDF>
  </metadata>
  <g
     id="layer1"
     inkscape:groupmode="layer"
     inkscape:label="Layer 1"
     transform="translate(228.08267,-213.86218)">
    <g
       transform="matrix(0.75,0,0,0.75,790.67419,-10.391861)"
       id="g3139">
      <g
         style="font-style:normal;font-variant:normal;font-weight:normal;font-stretch:normal;letter-spacing:normal;word-spacing:normal;text-anchor:start;fill:none;stroke:#000000;stroke-width:1.33333337;stroke-linecap:butt;stroke-linejoin:miter;stroke-miterlimit:10.43299961;stroke-opacity:1;stroke-dasharray:none;stroke-dashoffset:0"
         word-spacing="normal"
         letter-spacing="normal"
         font-size-adjust="none"
         font-stretch="normal"
         font-weight="normal"
         font-variant="normal"
         font-style="normal"
         stroke-miterlimit="10.433"
         xml:space="preserve"
         transform="matrix(1.0629921,0,0,-1.0629921,-186.02362,789.27165)"
         id="g3141"><path
           style="fill:#000000;stroke-width:0"
           inkscape:connector-curvature="0"
           id="path3143"
           d="m 471.08,410.98 -3.53,26.31 -0.05,0.35 c -0.09,0.95 0.64,1.5 2.14,1.54 l 2.09,0.1 v 1.39 l -2.04,-0.05 c -1.85,-0.05 -3.24,-0.09 -4.13,-0.09 -0.9,0 -2.29,0.04 -4.14,0.09 l -2.04,0.05 v -1.39 l 1.24,-0.1 c 2.19,-0.15 2.6,-0.54 2.94,-2.39 l 4.39,-31 h 2.44 l 18.83,30.85 c 1.25,2 1.64,2.34 3.09,2.54 l 0.89,0.1 v 1.39 l -1.48,-0.05 c -1.36,-0.05 -2.5,-0.09 -3.3,-0.09 -0.5,0 -1.84,0.04 -3.89,0.09 l -2.28,0.05 v -1.39 l 1.3,-0.1 c 1.89,-0.15 2.83,-0.65 2.83,-1.59 0,-0.55 -0.19,-1.09 -0.8,-2.09 z" /><path
           style="fill:#000000;stroke-width:0"
           inkscape:connector-curvature="0"
           id="path3145"
           d="m 488.11,416.32 h 1.17 l 0.68,2.12 c 0.43,1.28 2.82,2.58 4.79,2.58 2.45,0 4.46,-2.02 4.46,-4.41 0,-2.84 -2.23,-5.22 -4.92,-5.22 -0.31,0 -0.72,0.04 -1.22,0.07 l -0.56,0.04 -0.45,-2.01 0.26,-0.22 c 1.44,0.64 2.16,0.83 3.18,0.83 3.15,0 4.96,-2 4.96,-5.46 0,-3.87 -2.31,-6.4 -5.82,-6.4 -1.75,0 -3.32,0.56 -4.44,1.62 -0.92,0.85 -1.41,1.71 -2.13,3.75 l -1.03,-0.37 c 0.8,-2.31 1.11,-3.67 1.33,-5.56 2.02,-0.69 3.69,-1 5.08,-1 3.03,0 6.53,1.71 8.61,4.25 1.28,1.56 1.94,3.21 1.94,5 0,1.82 -0.77,3.42 -2.13,4.36 -0.95,0.68 -1.83,0.98 -3.72,1.32 3.03,2.36 4.17,4.1 4.17,6.33 0,3.38 -2.81,5.61 -7.01,5.61 -2.58,0 -4.28,-0.72 -6.1,-2.53 z" /><path
           style="fill:#000000;stroke-width:0"
           inkscape:connector-curvature="0"
           id="path3147"
           d="m 520.3,422.84 h 5.82 c 1.35,0 2.9,-0.05 5.29,-0.16 l 1.29,-0.04 0.94,2.25 -0.2,0.34 c -4.03,-0.2 -7.02,-0.3 -10.91,-0.3 h -1.84 l 2.09,11.86 c 0.16,0.8 0.25,1.19 0.45,1.6 l 2.35,0.09 c 1.59,0.05 3.19,0.11 4.28,0.11 3.09,0 5.12,-0.45 5.17,-1.2 l 0.41,-4.44 h 1.2 c 0.14,3.19 0.48,5.69 1.03,7.58 -1.03,0.09 -2.53,0.14 -3.44,0.14 -0.14,0 -0.68,0 -1.89,-0.05 l -5.96,-0.05 c -0.46,-0.04 -3.4,-0.04 -3.9,-0.04 -1.84,0 -3.18,0 -5.73,0.09 l -2.23,0.05 -0.16,-1.39 2.69,-0.1 c 1.2,-0.04 1.75,-0.45 1.75,-1.34 0,-0.7 -0.21,-2.3 -0.46,-3.8 l -4.32,-25.11 c -0.21,-0.89 -0.8,-1.23 -2.99,-1.59 l -0.25,-1.3 2.03,0.07 c 1.55,0.04 4.64,0.09 5.64,0.09 l 10.71,-0.16 h 0.5 c 0.7,0 1.93,0.07 3.59,0.11 l 1.64,0.05 0.2,1.8 c 0.1,1 0.35,2.48 0.8,4.92 l 0.25,1.29 h -1.34 l -0.8,-2.98 c -0.5,-1.8 -0.95,-2.39 -2.05,-2.64 -1,-0.2 -4.64,-0.45 -7.33,-0.45 -2.04,0 -3.14,0.06 -6.57,0.36 v 0.18 c 0,0.71 0.04,1.11 0.11,1.55 z" /><path
           style="fill:#000000;stroke-width:0"
           inkscape:connector-curvature="0"
           id="path3149"
           d="m 553.92,407.86 0,0 0,0.01 0.01,0.01 0,0.02 0.01,0.06 0.01,0.07 0.02,0.1 0.02,0.11 0.03,0.13 0.03,0.15 0.03,0.17 0.03,0.18 0.04,0.2 0.04,0.21 0.04,0.23 0.04,0.23 0.05,0.25 0.04,0.26 0.05,0.27 0.05,0.28 0.06,0.29 0.05,0.29 0.05,0.3 0.06,0.31 0.11,0.63 0.12,0.65 0.11,0.65 0.12,0.65 0.11,0.64 c 0.61,3.57 1.03,5.43 1.72,7.47 l -0.42,0.57 c -0.77,-0.46 -1.78,-0.91 -2.96,-1.36 -1.06,-7.52 -2.12,-14.46 -3.42,-21.58 -1.97,0.2 -4.55,0.95 -4.55,3.98 0,0.58 0.08,1.3 0.24,2.02 l 1.55,7.92 c 0.12,0.59 0.18,1.13 0.18,1.63 0,0.71 -0.29,1.17 -0.82,1.17 -0.8,0 -2.21,-0.75 -5.05,-2.8 l -1.06,-0.77 0.26,-0.75 1.22,0.8 c 1.09,0.67 1.48,0.86 1.83,0.86 0.37,0 0.64,-0.33 0.64,-0.75 0,-0.19 -0.05,-0.5 -0.08,-0.69 l -1.62,-8.64 c -0.05,-0.29 -0.05,-0.64 -0.05,-0.93 0,-2.63 2.81,-5.02 6.59,-5.02 h 0.35 c -0.53,-2.77 -1.1,-5.53 -1.71,-8.41 l -0.29,-1.4 0.25,-0.22 c 0.79,0.25 1.56,0.45 2.78,0.64 l 1.58,9.7 c 1.48,0.3 3.34,1.06 5.23,2.8 1.67,1.51 2.81,3.3 3.91,5.69 0.95,2.01 1.59,4.59 1.59,6.17 0,2.2 -0.95,3.72 -2.34,3.72 -0.53,0 -0.92,-0.16 -1.27,-0.46 l -1.89,-1.78 0.42,-0.72 c 0.35,0.24 0.64,0.35 1.02,0.35 1.06,0 1.64,-0.88 1.64,-2.39 0,-8.08 -4.41,-11.19 -8.05,-11.67 z" /></g>    </g>
    <text
       xml:space="preserve"
       style="font-size:40px;font-style:normal;font-weight:normal;line-height:125%;letter-spacing:0px;word-spacing:0px;fill:#000000;fill-opacity:1;stroke:none;font-family:Sans"
       x="-229.42798"
       y="261.58218"
       id="text6031"
       sodipodi:linespacing="125%"><tspan
         sodipodi:role="line"
         id="tspan6033"
         x="-229.42798"
         y="261.58218"
         style="font-style:normal;font-variant:normal;font-weight:500;font-stretch:normal;font-family:URW Palladio L;-inkscape-font-specification:URW Palladio L Medium">(a)</tspan></text>
    <text
       sodipodi:linespacing="125%"
       id="text6035"
       y="388.82465"
       x="-230.48267"
       style="font-size:40px;font-style:normal;font-weight:normal;line-height:125%;letter-spacing:0px;word-spacing:0px;fill:#000000;fill-opacity:1;stroke:none;font-family:Sans"
       xml:space="preserve"><tspan
         style="font-style:normal;font-variant:normal;font-weight:500;font-stretch:normal;font-family:URW Palladio L;-inkscape-font-specification:URW Palladio L Medium"
         y="388.82465"
         x="-230.48267"
         id="tspan6037"
         sodipodi:role="line">(b)</tspan></text>
    <text
       xml:space="preserve"
       style="font-size:40px;font-style:normal;font-weight:normal;line-height:125%;letter-spacing:0px;word-spacing:0px;fill:#000000;fill-opacity:1;stroke:none;font-family:Sans"
       x="-228.29517"
       y="516.06714"
       id="text6039"
       sodipodi:linespacing="125%"><tspan
         sodipodi:role="line"
         id="tspan6041"
         x="-228.29517"
         y="516.06714"
         style="font-style:normal;font-variant:normal;font-weight:500;font-stretch:normal;font-family:URW Palladio L;-inkscape-font-specification:URW Palladio L Medium">(c)</tspan></text>
    <g
       id="g7861"
       transform="matrix(0.75,0,0,0.75,-300.70034,-14.561447)">
      <g
         word-spacing="normal"
         letter-spacing="normal"
         font-size-adjust="none"
         font-stretch="normal"
         font-weight="normal"
         font-variant="normal"
         font-style="normal"
         stroke-miterlimit="10.433"
         xml:space="preserve"
         transform="matrix(1.0629921,0,0,-1.0629921,-186.02362,789.27165)"
         id="g7863"
         style="font-style:normal;font-variant:normal;font-weight:normal;font-stretch:normal;letter-spacing:normal;word-spacing:normal;text-anchor:start;fill:none;stroke:#000000;stroke-width:1.33333337;stroke-linecap:butt;stroke-linejoin:miter;stroke-miterlimit:10.43299961;stroke-opacity:1;stroke-dasharray:none;stroke-dashoffset:0"><path
           id="path7865"
           d="m 460.86,408.5 0.1,-0.18 0.1,-0.17 0.11,-0.16 0.11,-0.16 0.12,-0.15 0.12,-0.15 0.13,-0.14 0.13,-0.14 0.14,-0.13 0.13,-0.12 0.15,-0.12 0.15,-0.11 0.15,-0.11 0.15,-0.11 0.17,-0.09 0.16,-0.1 0.17,-0.08 0.17,-0.08 0.18,-0.08 0.18,-0.07 0.19,-0.06 0.19,-0.06 0.19,-0.05 0.2,-0.05 0.2,-0.04 0.21,-0.04 0.21,-0.03 0.21,-0.02 0.22,-0.02 0.23,-0.02 0.22,-0.01 0.23,0 c 2.64,0 5.58,1.25 7.78,3.28 3.19,2.94 5.43,8.63 5.43,13.75 0,4.69 -2.49,7.53 -6.58,7.53 -2.14,0 -4.28,-0.75 -6.47,-2.25 l 1.59,-0.48 c 0.64,0.55 1.74,0.84 2.94,0.84 h 0 c 3.14,0 4.74,-2.2 4.74,-6.37 0,-4.84 -1.55,-10.13 -3.74,-12.77 -0.91,-1.04 -2.2,-1.64 -3.69,-1.64 -3,0 -4.64,2.25 -4.64,6.17 0,5.65 1.94,11.77 4.39,13.77 l -1.59,0.48 c -1.7,-1.14 -3.09,-2.64 -4.14,-4.42 -0.75,-1.11 -1.34,-2.34 -1.84,-3.54 -1.25,-2.94 -1.94,-5.97 -2.49,-9.02 -0.91,-5.23 -1.5,-12.95 -2.09,-18.14 l 0.75,-0.39 c 1.23,0.39 2.18,0.64 3.58,0.84 -0.1,1.46 -0.15,3.35 -0.15,5.33 0,3.5 0.15,7.28 0.49,9.81 z"
           inkscape:connector-curvature="0"
           style="fill:#000000;stroke-width:0" /><path
           id="path7867"
           d="m 496.44,407.86 0,0 0,0.01 0.01,0.01 0,0.02 0.01,0.06 0.01,0.07 0.02,0.1 0.02,0.11 0.03,0.13 0.03,0.15 0.03,0.17 0.03,0.18 0.04,0.2 0.03,0.21 0.05,0.23 0.04,0.23 0.05,0.25 0.04,0.26 0.05,0.27 0.05,0.28 0.05,0.29 0.06,0.29 0.05,0.3 0.06,0.31 0.11,0.63 0.12,0.65 0.11,0.65 0.12,0.65 0.11,0.64 c 0.61,3.57 1.03,5.43 1.72,7.47 l -0.42,0.57 c -0.77,-0.46 -1.78,-0.91 -2.96,-1.36 -1.06,-7.52 -2.12,-14.46 -3.42,-21.58 -1.97,0.2 -4.55,0.95 -4.55,3.98 0,0.58 0.08,1.3 0.24,2.02 l 1.55,7.92 c 0.12,0.59 0.18,1.13 0.18,1.63 0,0.71 -0.29,1.17 -0.82,1.17 -0.8,0 -2.21,-0.75 -5.05,-2.8 l -1.06,-0.77 0.26,-0.75 1.22,0.8 c 1.09,0.67 1.48,0.86 1.83,0.86 0.37,0 0.64,-0.33 0.64,-0.75 0,-0.19 -0.05,-0.5 -0.08,-0.69 l -1.62,-8.64 c -0.05,-0.29 -0.05,-0.64 -0.05,-0.93 0,-2.63 2.81,-5.02 6.59,-5.02 h 0.35 c -0.53,-2.77 -1.1,-5.53 -1.71,-8.41 l -0.29,-1.4 0.25,-0.22 c 0.79,0.25 1.56,0.45 2.78,0.64 l 1.58,9.7 c 1.48,0.3 3.34,1.06 5.23,2.8 1.67,1.51 2.81,3.3 3.91,5.69 0.95,2.01 1.59,4.59 1.59,6.17 0,2.2 -0.95,3.72 -2.34,3.72 -0.53,0 -0.93,-0.16 -1.27,-0.46 l -1.89,-1.78 0.42,-0.72 c 0.35,0.24 0.64,0.35 1.02,0.35 1.06,0 1.64,-0.88 1.64,-2.39 0,-8.08 -4.41,-11.19 -8.05,-11.67 z"
           inkscape:connector-curvature="0"
           style="fill:#000000;stroke-width:0" /></g>    </g>
    <rect
       style="fill:#dcdcdc;fill-opacity:1;stroke:none"
       id="rect6499"
       width="283.32999"
       height="329.48001"
       x="639.60986"
       y="213.86711" />
    <rect
       y="213.86711"
       x="348.98483"
       height="329.48001"
       width="283.32999"
       id="rect6497"
       style="fill:#dcdcdc;fill-opacity:1;stroke:none" />
    <rect
       style="fill:#dcdcdc;fill-opacity:1;stroke:none"
       id="rect6495"
       width="283.32999"
       height="329.48001"
       x="58.359825"
       y="213.86711" />
    <path
       inkscape:connector-curvature="0"
       id="path2985"
       d="m -8.1002992,251.11218 997.4999992,0"
       style="fill:none;stroke:#000000;stroke-width:2;stroke-linecap:butt;stroke-linejoin:miter;stroke-miterlimit:4;stroke-opacity:1;stroke-dasharray:none" />
    <g
       transform="translate(-22.822318,-15.264514)"
       id="g5046">
      <rect
         style="fill:#ffffff;fill-opacity:1;stroke:#000000;stroke-width:1.99999988;stroke-linecap:square;stroke-miterlimit:4;stroke-opacity:1;stroke-dasharray:none;stroke-dashoffset:0"
         id="rect2987"
         width="73"
         height="73"
         x="89.472023"
         y="230.12669" />
      <g
         word-spacing="normal"
         letter-spacing="normal"
         font-size-adjust="none"
         font-stretch="normal"
         font-weight="normal"
         font-variant="normal"
         font-style="normal"
         stroke-miterlimit="10.433"
         xml:space="preserve"
         transform="matrix(0.79724408,0,0,-0.79724408,-260.27679,600.43279)"
         id="content"
         style="font-style:normal;font-variant:normal;font-weight:normal;font-stretch:normal;letter-spacing:normal;word-spacing:normal;text-anchor:start;fill:none;stroke:#000000;stroke-width:1.33333337;stroke-linecap:butt;stroke-linejoin:miter;stroke-miterlimit:10.43299961;stroke-opacity:1;stroke-dasharray:none;stroke-dashoffset:0"><path
           id="path3767"
           d="m 494.89,439.28 0.14,1.39 h -0.8 l -4.53,-0.14 c -0.75,0 -1.78,0 -3.98,0.04 l -3.14,0.1 -0.14,-1.39 2.39,-0.1 c 1.19,-0.04 1.73,-0.45 1.73,-1.39 0,-0.25 0,-0.4 -0.04,-0.61 l -3.54,-22.17 c -2.39,-2.89 -3.89,-4.17 -6.42,-5.42 -1.9,-1 -3.75,-1.45 -5.64,-1.45 -4.23,0 -6.92,2.25 -6.92,5.73 0,0.84 0.09,1.64 0.34,3.05 l 4.39,23.75 -1.54,-0.05 c -1.35,-0.05 -2.35,-0.09 -2.89,-0.09 -0.5,0 -1.5,0.04 -2.89,0.09 l -1.6,0.05 -0.14,-1.39 2.58,-0.1 c 1.3,-0.04 1.7,-0.29 1.7,-1.15 0,-0.44 -0.15,-1.83 -0.36,-2.88 l -3.18,-18.69 c -0.19,-1.04 -0.3,-2.29 -0.3,-3.09 0,-5.03 3.34,-8.12 8.92,-8.12 2.19,0 4.24,0.5 6.63,1.7 2.93,1.44 4.53,2.69 7.12,5.67 -0.39,-2.28 -0.7,-3.58 -1.34,-6.33 l 0.25,-0.25 h 1.09 l 3.1,0.16 c 0.2,0 1.29,-0.05 2.89,-0.09 l 1.59,-0.07 0.25,1.41 -3,0.19 c -1.14,0.11 -1.59,0.4 -1.59,1.04 0,0.75 0.06,1 0.29,2.8 l 4.25,25.27 c 0.3,1.89 0.64,2.18 2.53,2.39 z"
           inkscape:connector-curvature="0"
           style="fill:#000000;stroke-width:0" /><path
           id="path3769"
           d="m 495.99,417.87 h 0.37 l 4.89,2.2 c 0.04,0.04 0.08,0.04 0.11,0.04 0.24,0 0.3,-0.33 0.3,-1.25 v -18.38 c 0,-1.97 -0.41,-2.39 -2.45,-2.5 l -2.13,-0.12 v -1.13 c 5.83,0.11 5.83,0.11 6.25,0.11 0.5,0 1.33,0 2.61,-0.03 0.47,-0.05 1.78,-0.05 3.35,-0.08 v 1.13 l -1.97,0.12 c -2.1,0.11 -2.47,0.53 -2.47,2.5 v 22.47 l -0.53,0.19 c -2.47,-1.28 -5.16,-2.43 -8.6,-3.63 z"
           inkscape:connector-curvature="0"
           style="fill:#000000;stroke-width:0" /></g>    </g>
    <g
       transform="translate(-3.8720843,-9.9943263)"
       id="g5058">
      <rect
         style="fill:#ffffff;fill-opacity:1;stroke:#000000;stroke-width:1.99999988;stroke-linecap:square;stroke-miterlimit:4;stroke-opacity:1;stroke-dasharray:none;stroke-dashoffset:0"
         id="rect2987-5"
         width="73"
         height="73"
         x="361.14691"
         y="224.85651" />
      <g
         id="g3793"
         transform="matrix(0.79724408,0,0,-0.79724408,10.644705,595.40178)"
         xml:space="preserve"
         stroke-miterlimit="10.433"
         font-style="normal"
         font-variant="normal"
         font-weight="normal"
         font-stretch="normal"
         font-size-adjust="none"
         letter-spacing="normal"
         word-spacing="normal"
         style="font-style:normal;font-variant:normal;font-weight:normal;font-stretch:normal;letter-spacing:normal;word-spacing:normal;text-anchor:start;fill:none;stroke:#000000;stroke-width:1.33333337;stroke-linecap:butt;stroke-linejoin:miter;stroke-miterlimit:10.43299961;stroke-opacity:1;stroke-dasharray:none;stroke-dashoffset:0"><path
           d="m 494.89,439.28 0.14,1.39 h -0.8 l -4.53,-0.14 c -0.75,0 -1.78,0 -3.98,0.04 l -3.14,0.1 -0.14,-1.39 2.39,-0.1 c 1.19,-0.04 1.73,-0.45 1.73,-1.39 0,-0.25 0,-0.4 -0.04,-0.61 l -3.54,-22.17 c -2.39,-2.89 -3.89,-4.17 -6.42,-5.42 -1.9,-1 -3.75,-1.45 -5.64,-1.45 -4.23,0 -6.92,2.25 -6.92,5.73 0,0.84 0.09,1.64 0.34,3.05 l 4.39,23.75 -1.54,-0.05 c -1.35,-0.05 -2.35,-0.09 -2.89,-0.09 -0.5,0 -1.5,0.04 -2.89,0.09 l -1.6,0.05 -0.14,-1.39 2.58,-0.1 c 1.3,-0.04 1.7,-0.29 1.7,-1.15 0,-0.44 -0.15,-1.83 -0.36,-2.88 l -3.18,-18.69 c -0.19,-1.04 -0.3,-2.29 -0.3,-3.09 0,-5.03 3.34,-8.12 8.92,-8.12 2.19,0 4.24,0.5 6.63,1.7 2.93,1.44 4.53,2.69 7.12,5.67 -0.39,-2.28 -0.7,-3.58 -1.34,-6.33 l 0.25,-0.25 h 1.09 l 3.1,0.16 c 0.2,0 1.29,-0.05 2.89,-0.09 l 1.59,-0.07 0.25,1.41 -3,0.19 c -1.14,0.11 -1.59,0.4 -1.59,1.04 0,0.75 0.06,1 0.29,2.8 l 4.25,25.27 c 0.3,1.89 0.64,2.18 2.53,2.39 z"
           id="path3795"
           inkscape:connector-curvature="0"
           style="fill:#000000;stroke-width:0" /><path
           d="m 494.05,398.32 v -0.99 c 7.08,0.11 7.08,0.11 8.45,0.11 1.36,0 1.36,0 8.68,-0.11 -0.08,0.8 -0.08,1.17 -0.08,1.71 0,0.48 0,0.87 0.08,1.7 -4.36,-0.19 -6.1,-0.24 -13.11,-0.38 l 6.89,7.32 c 3.68,3.9 4.81,5.98 4.81,8.82 0,4.36 -2.95,7.05 -7.77,7.05 -2.71,0 -4.57,-0.75 -6.43,-2.66 l -0.64,-5.14 h 1.09 l 0.48,1.74 c 0.61,2.2 1.99,3.15 4.52,3.15 3.27,0 5.34,-2.04 5.34,-5.28 0,-2.84 -1.59,-5.64 -5.87,-10.18 z"
           id="path3797"
           inkscape:connector-curvature="0"
           style="fill:#000000;stroke-width:0" /></g>    </g>
    <g
       transform="translate(83.86708,-12.815448)"
       id="g5070">
      <rect
         style="fill:#ffffff;fill-opacity:1;stroke:#000000;stroke-width:1.99999988;stroke-linecap:square;stroke-miterlimit:4;stroke-opacity:1;stroke-dasharray:none;stroke-dashoffset:0"
         id="rect2987-5-0"
         width="73"
         height="73"
         x="564.03278"
         y="227.67763" />
      <g
         word-spacing="normal"
         letter-spacing="normal"
         font-size-adjust="none"
         font-stretch="normal"
         font-weight="normal"
         font-variant="normal"
         font-style="normal"
         stroke-miterlimit="10.433"
         xml:space="preserve"
         transform="matrix(0.79724408,0,0,-0.79724408,213.61824,597.96379)"
         id="g3829"
         style="font-style:normal;font-variant:normal;font-weight:normal;font-stretch:normal;letter-spacing:normal;word-spacing:normal;text-anchor:start;fill:none;stroke:#000000;stroke-width:1.33333337;stroke-linecap:butt;stroke-linejoin:miter;stroke-miterlimit:10.43299961;stroke-opacity:1;stroke-dasharray:none;stroke-dashoffset:0"><path
           id="path3831"
           d="m 494.89,439.28 0.14,1.39 h -0.8 l -4.53,-0.14 c -0.75,0 -1.78,0 -3.98,0.04 l -3.14,0.1 -0.14,-1.39 2.39,-0.1 c 1.19,-0.04 1.73,-0.45 1.73,-1.39 0,-0.25 0,-0.4 -0.04,-0.61 l -3.54,-22.17 c -2.39,-2.89 -3.89,-4.17 -6.42,-5.42 -1.9,-1 -3.75,-1.45 -5.64,-1.45 -4.23,0 -6.92,2.25 -6.92,5.73 0,0.84 0.09,1.64 0.34,3.05 l 4.39,23.75 -1.54,-0.05 c -1.35,-0.05 -2.35,-0.09 -2.89,-0.09 -0.5,0 -1.5,0.04 -2.89,0.09 l -1.6,0.05 -0.14,-1.39 2.58,-0.1 c 1.3,-0.04 1.7,-0.29 1.7,-1.15 0,-0.44 -0.15,-1.83 -0.36,-2.88 l -3.18,-18.69 c -0.19,-1.04 -0.3,-2.29 -0.3,-3.09 0,-5.03 3.34,-8.12 8.92,-8.12 2.19,0 4.24,0.5 6.63,1.7 2.93,1.44 4.53,2.69 7.12,5.67 -0.39,-2.28 -0.7,-3.58 -1.34,-6.33 l 0.25,-0.25 h 1.09 l 3.1,0.16 c 0.2,0 1.29,-0.05 2.89,-0.09 l 1.59,-0.07 0.25,1.41 -3,0.19 c -1.14,0.11 -1.59,0.4 -1.59,1.04 0,0.75 0.06,1 0.29,2.8 l 4.25,25.27 c 0.3,1.89 0.64,2.18 2.53,2.39 z"
           inkscape:connector-curvature="0"
           style="fill:#000000;stroke-width:0" /><path
           id="path3833"
           d="m 495.07,416.32 h 1.17 l 0.69,2.12 c 0.42,1.28 2.81,2.58 4.78,2.58 2.45,0 4.47,-2.02 4.47,-4.41 0,-2.84 -2.24,-5.22 -4.93,-5.22 -0.31,0 -0.71,0.04 -1.21,0.07 l -0.57,0.04 -0.45,-2.01 0.27,-0.22 c 1.43,0.64 2.15,0.83 3.17,0.83 3.15,0 4.97,-2 4.97,-5.46 0,-3.87 -2.32,-6.4 -5.83,-6.4 -1.75,0 -3.31,0.56 -4.44,1.62 -0.92,0.85 -1.41,1.71 -2.12,3.75 L 494,403.24 c 0.8,-2.31 1.11,-3.67 1.33,-5.56 2.02,-0.69 3.69,-1 5.08,-1 3.03,0 6.53,1.71 8.61,4.25 1.28,1.56 1.94,3.21 1.94,5 0,1.82 -0.77,3.42 -2.13,4.36 -0.95,0.68 -1.83,0.98 -3.72,1.32 3.03,2.36 4.18,4.1 4.18,6.33 0,3.38 -2.82,5.61 -7.02,5.61 -2.58,0 -4.28,-0.72 -6.09,-2.53 z"
           inkscape:connector-curvature="0"
           style="fill:#000000;stroke-width:0" /></g>    </g>
    <g
       transform="translate(50.270295,-15.05498)"
       id="g5052">
      <rect
         style="fill:#ffffff;fill-opacity:1;stroke:#000000;stroke-width:1.99999988;stroke-linecap:square;stroke-miterlimit:4;stroke-opacity:1;stroke-dasharray:none;stroke-dashoffset:0"
         id="rect4912"
         width="73"
         height="73"
         x="210.12953"
         y="229.91716" />
      <g
         id="g4841"
         transform="matrix(0.75,0,0,0.75,7.1932267,12.140131)">
        <g
           word-spacing="normal"
           letter-spacing="normal"
           font-size-adjust="none"
           font-stretch="normal"
           font-weight="normal"
           font-variant="normal"
           font-style="normal"
           stroke-miterlimit="10.433"
           xml:space="preserve"
           transform="matrix(1.0629921,0,0,-1.0629921,-186.02362,789.27165)"
           id="g4843"
           style="font-style:normal;font-variant:normal;font-weight:normal;font-stretch:normal;letter-spacing:normal;word-spacing:normal;text-anchor:start;fill:none;stroke:#000000;stroke-width:1.33333337;stroke-linecap:butt;stroke-linejoin:miter;stroke-miterlimit:10.43299961;stroke-opacity:1;stroke-dasharray:none;stroke-dashoffset:0"><path
             id="path4845"
             d="M 474.56,440.07 461.4,410.14 c -0.59,-1.46 -1.59,-2.35 -2.69,-2.44 l -1.84,-0.16 v -1.5 c 4.53,0.16 4.63,0.16 5.42,0.16 0.66,0 0.75,0 6.03,-0.16 v 1.5 l -1.84,0.16 c -1.73,0.14 -2.39,0.5 -2.39,1.3 0,0.64 0.7,2.78 1.75,5.28 l 8.56,20.17 9.52,-22.52 c 0.9,-2.09 1,-2.79 1,-3.25 0,-0.54 -0.8,-0.89 -2.05,-0.98 l -2.34,-0.16 v -1.5 c 6.03,0.16 6.14,0.16 6.93,0.16 0.94,0 1.05,0 6.33,-0.16 v 1.5 l -1.7,0.16 c -1.3,0.19 -1.84,1.05 -3.58,5.08 l -12.06,28.29 z"
             inkscape:connector-curvature="0"
             style="fill:#000000;stroke-width:0" /></g>      </g>
    </g>
    <g
       transform="translate(80.952703,-4.3271816)"
       id="g5064">
      <rect
         y="219.18936"
         x="470.07211"
         height="73"
         width="73"
         id="rect4922"
         style="fill:#ffffff;fill-opacity:1;stroke:#000000;stroke-width:1.99999988;stroke-linecap:square;stroke-miterlimit:4;stroke-opacity:1;stroke-dasharray:none;stroke-dashoffset:0" />
      <g
         transform="matrix(0.75,0,0,0.75,267.13579,1.4123418)"
         id="g4924">
        <g
           style="font-style:normal;font-variant:normal;font-weight:normal;font-stretch:normal;letter-spacing:normal;word-spacing:normal;text-anchor:start;fill:none;stroke:#000000;stroke-width:1.33333337;stroke-linecap:butt;stroke-linejoin:miter;stroke-miterlimit:10.43299961;stroke-opacity:1;stroke-dasharray:none;stroke-dashoffset:0"
           id="g4926"
           transform="matrix(1.0629921,0,0,-1.0629921,-186.02362,789.27165)"
           xml:space="preserve"
           stroke-miterlimit="10.433"
           font-style="normal"
           font-variant="normal"
           font-weight="normal"
           font-stretch="normal"
           font-size-adjust="none"
           letter-spacing="normal"
           word-spacing="normal"><path
             style="fill:#000000;stroke-width:0"
             inkscape:connector-curvature="0"
             d="M 474.56,440.07 461.4,410.14 c -0.59,-1.46 -1.59,-2.35 -2.69,-2.44 l -1.84,-0.16 v -1.5 c 4.53,0.16 4.63,0.16 5.42,0.16 0.66,0 0.75,0 6.03,-0.16 v 1.5 l -1.84,0.16 c -1.73,0.14 -2.39,0.5 -2.39,1.3 0,0.64 0.7,2.78 1.75,5.28 l 8.56,20.17 9.52,-22.52 c 0.9,-2.09 1,-2.79 1,-3.25 0,-0.54 -0.8,-0.89 -2.05,-0.98 l -2.34,-0.16 v -1.5 c 6.03,0.16 6.14,0.16 6.93,0.16 0.94,0 1.05,0 6.33,-0.16 v 1.5 l -1.7,0.16 c -1.3,0.19 -1.84,1.05 -3.58,5.08 l -12.06,28.29 z"
             id="path4928" /></g>      </g>
    </g>
    <g
       transform="translate(166.92442,-11.754122)"
       id="g5076">
      <rect
         style="fill:#ffffff;fill-opacity:1;stroke:#000000;stroke-width:1.99999988;stroke-linecap:square;stroke-miterlimit:4;stroke-opacity:1;stroke-dasharray:none;stroke-dashoffset:0"
         id="rect4932"
         width="73"
         height="73"
         x="674.72528"
         y="226.6163" />
      <g
         id="g4934"
         transform="matrix(0.75,0,0,0.75,471.78899,8.8392728)">
        <g
           word-spacing="normal"
           letter-spacing="normal"
           font-size-adjust="none"
           font-stretch="normal"
           font-weight="normal"
           font-variant="normal"
           font-style="normal"
           stroke-miterlimit="10.433"
           xml:space="preserve"
           transform="matrix(1.0629921,0,0,-1.0629921,-186.02362,789.27165)"
           id="g4936"
           style="font-style:normal;font-variant:normal;font-weight:normal;font-stretch:normal;letter-spacing:normal;word-spacing:normal;text-anchor:start;fill:none;stroke:#000000;stroke-width:1.33333337;stroke-linecap:butt;stroke-linejoin:miter;stroke-miterlimit:10.43299961;stroke-opacity:1;stroke-dasharray:none;stroke-dashoffset:0"><path
             id="path4938"
             d="M 474.56,440.07 461.4,410.14 c -0.59,-1.46 -1.59,-2.35 -2.69,-2.44 l -1.84,-0.16 v -1.5 c 4.53,0.16 4.63,0.16 5.42,0.16 0.66,0 0.75,0 6.03,-0.16 v 1.5 l -1.84,0.16 c -1.73,0.14 -2.39,0.5 -2.39,1.3 0,0.64 0.7,2.78 1.75,5.28 l 8.56,20.17 9.52,-22.52 c 0.9,-2.09 1,-2.79 1,-3.25 0,-0.54 -0.8,-0.89 -2.05,-0.98 l -2.34,-0.16 v -1.5 c 6.03,0.16 6.14,0.16 6.93,0.16 0.94,0 1.05,0 6.33,-0.16 v 1.5 l -1.7,0.16 c -1.3,0.19 -1.84,1.05 -3.58,5.08 l -12.06,28.29 z"
             inkscape:connector-curvature="0"
             style="fill:#000000;stroke-width:0" /></g>      </g>
    </g>
    <path
       style="fill:none;stroke:#000000;stroke-width:2;stroke-linecap:butt;stroke-linejoin:miter;stroke-miterlimit:4;stroke-opacity:1;stroke-dasharray:none"
       d="m -8.1001784,378.60463 997.4999984,0"
       id="path5123"
       inkscape:connector-curvature="0" />
    <rect
       style="fill:#ffffff;fill-opacity:1;stroke:#000000;stroke-width:1.99999988;stroke-linecap:square;stroke-miterlimit:4;stroke-opacity:1;stroke-dasharray:none;stroke-dashoffset:0"
       id="rect4777"
       width="73"
       height="73"
       x="66.649826"
       y="342.10464" />
    <g
       id="g3871"
       transform="matrix(0.75,0,0,0.75,-140.68727,120.45699)">
      <g
         id="g3873"
         transform="matrix(1.0629921,0,0,-1.0629921,-186.02362,789.27165)"
         xml:space="preserve"
         stroke-miterlimit="10.433"
         font-style="normal"
         font-variant="normal"
         font-weight="normal"
         font-stretch="normal"
         font-size-adjust="none"
         letter-spacing="normal"
         word-spacing="normal"
         style="font-style:normal;font-variant:normal;font-weight:normal;font-stretch:normal;letter-spacing:normal;word-spacing:normal;text-anchor:start;fill:none;stroke:#000000;stroke-width:1.33333337;stroke-linecap:butt;stroke-linejoin:miter;stroke-miterlimit:10.43299961;stroke-opacity:1;stroke-dasharray:none;stroke-dashoffset:0"><path
           d="m 471.08,410.98 -3.53,26.31 -0.05,0.35 c -0.09,0.95 0.64,1.5 2.14,1.54 l 2.09,0.1 v 1.39 l -2.04,-0.05 c -1.85,-0.05 -3.24,-0.09 -4.13,-0.09 -0.9,0 -2.29,0.04 -4.14,0.09 l -2.04,0.05 v -1.39 l 1.24,-0.1 c 2.19,-0.15 2.6,-0.54 2.94,-2.39 l 4.39,-31 h 2.44 l 18.83,30.85 c 1.25,2 1.64,2.34 3.09,2.54 l 0.89,0.1 v 1.39 l -1.48,-0.05 c -1.36,-0.05 -2.5,-0.09 -3.3,-0.09 -0.5,0 -1.84,0.04 -3.89,0.09 l -2.28,0.05 v -1.39 l 1.3,-0.1 c 1.89,-0.15 2.83,-0.65 2.83,-1.59 0,-0.55 -0.19,-1.09 -0.8,-2.09 z"
           id="path3875"
           inkscape:connector-curvature="0"
           style="fill:#000000;stroke-width:0" /><path
           d="m 489.03,417.87 h 0.37 l 4.89,2.2 c 0.03,0.04 0.08,0.04 0.11,0.04 0.24,0 0.3,-0.33 0.3,-1.25 v -18.38 c 0,-1.97 -0.41,-2.39 -2.45,-2.5 l -2.13,-0.12 v -1.13 c 5.83,0.11 5.83,0.11 6.25,0.11 0.5,0 1.33,0 2.61,-0.03 0.47,-0.05 1.78,-0.05 3.34,-0.08 v 1.13 l -1.96,0.12 c -2.1,0.11 -2.47,0.53 -2.47,2.5 v 22.47 l -0.53,0.19 c -2.47,-1.28 -5.16,-2.43 -8.6,-3.63 z"
           id="path3877"
           inkscape:connector-curvature="0"
           style="fill:#000000;stroke-width:0" /></g>    </g>
    <g
       transform="translate(47.849016,-108.03544)"
       id="g5097">
      <rect
         y="450.14008"
         x="309.42581"
         height="73"
         width="73"
         id="rect4910"
         style="fill:#ffffff;fill-opacity:1;stroke:#000000;stroke-width:1.99999988;stroke-linecap:square;stroke-miterlimit:4;stroke-opacity:1;stroke-dasharray:none;stroke-dashoffset:0" />
      <g
         word-spacing="normal"
         letter-spacing="normal"
         font-size-adjust="none"
         font-stretch="normal"
         font-weight="normal"
         font-variant="normal"
         font-style="normal"
         stroke-miterlimit="10.433"
         xml:space="preserve"
         transform="matrix(0.79724408,0,0,-0.79724408,-38.1824,820.68534)"
         id="g3925"
         style="font-style:normal;font-variant:normal;font-weight:normal;font-stretch:normal;letter-spacing:normal;word-spacing:normal;text-anchor:start;fill:none;stroke:#000000;stroke-width:1.33333337;stroke-linecap:butt;stroke-linejoin:miter;stroke-miterlimit:10.43299961;stroke-opacity:1;stroke-dasharray:none;stroke-dashoffset:0"><path
           id="path3927"
           d="m 471.08,410.98 -3.53,26.31 -0.05,0.35 c -0.09,0.95 0.64,1.5 2.14,1.54 l 2.09,0.1 v 1.39 l -2.04,-0.05 c -1.85,-0.05 -3.24,-0.09 -4.13,-0.09 -0.9,0 -2.29,0.04 -4.14,0.09 l -2.04,0.05 v -1.39 l 1.24,-0.1 c 2.19,-0.15 2.6,-0.54 2.94,-2.39 l 4.39,-31 h 2.44 l 18.83,30.85 c 1.25,2 1.64,2.34 3.09,2.54 l 0.89,0.1 v 1.39 l -1.48,-0.05 c -1.36,-0.05 -2.5,-0.09 -3.3,-0.09 -0.5,0 -1.84,0.04 -3.89,0.09 l -2.28,0.05 v -1.39 l 1.3,-0.1 c 1.89,-0.15 2.83,-0.65 2.83,-1.59 0,-0.55 -0.19,-1.09 -0.8,-2.09 z"
           inkscape:connector-curvature="0"
           style="fill:#000000;stroke-width:0" /><path
           id="path3929"
           d="m 487.09,398.32 v -0.99 c 7.08,0.11 7.08,0.11 8.45,0.11 1.36,0 1.36,0 8.67,-0.11 -0.07,0.8 -0.07,1.17 -0.07,1.71 0,0.48 0,0.87 0.07,1.7 -4.35,-0.19 -6.09,-0.24 -13.1,-0.38 l 6.89,7.32 c 3.68,3.9 4.81,5.98 4.81,8.82 0,4.36 -2.95,7.05 -7.77,7.05 -2.72,0 -4.58,-0.75 -6.43,-2.66 l -0.65,-5.14 h 1.1 l 0.48,1.74 c 0.61,2.2 1.99,3.15 4.52,3.15 3.26,0 5.34,-2.04 5.34,-5.28 0,-2.84 -1.59,-5.64 -5.87,-10.18 z"
           inkscape:connector-curvature="0"
           style="fill:#000000;stroke-width:0" /></g>    </g>
    <g
       transform="translate(150.43675,-114.98262)"
       id="g5110">
      <rect
         y="457.08725"
         x="497.4631"
         height="73"
         width="73"
         id="rect4969"
         style="fill:#ffffff;fill-opacity:1;stroke:#000000;stroke-width:1.99999988;stroke-linecap:square;stroke-miterlimit:4;stroke-opacity:1;stroke-dasharray:none;stroke-dashoffset:0" />
      <g
         id="g3985"
         transform="matrix(0.79724408,0,0,-0.79724408,149.93861,827.37343)"
         xml:space="preserve"
         stroke-miterlimit="10.433"
         font-style="normal"
         font-variant="normal"
         font-weight="normal"
         font-stretch="normal"
         font-size-adjust="none"
         letter-spacing="normal"
         word-spacing="normal"
         style="font-style:normal;font-variant:normal;font-weight:normal;font-stretch:normal;letter-spacing:normal;word-spacing:normal;text-anchor:start;fill:none;stroke:#000000;stroke-width:1.33333337;stroke-linecap:butt;stroke-linejoin:miter;stroke-miterlimit:10.43299961;stroke-opacity:1;stroke-dasharray:none;stroke-dashoffset:0"><path
           d="m 471.08,410.98 -3.53,26.31 -0.05,0.35 c -0.09,0.95 0.64,1.5 2.14,1.54 l 2.09,0.1 v 1.39 l -2.04,-0.05 c -1.85,-0.05 -3.24,-0.09 -4.13,-0.09 -0.9,0 -2.29,0.04 -4.14,0.09 l -2.04,0.05 v -1.39 l 1.24,-0.1 c 2.19,-0.15 2.6,-0.54 2.94,-2.39 l 4.39,-31 h 2.44 l 18.83,30.85 c 1.25,2 1.64,2.34 3.09,2.54 l 0.89,0.1 v 1.39 l -1.48,-0.05 c -1.36,-0.05 -2.5,-0.09 -3.3,-0.09 -0.5,0 -1.84,0.04 -3.89,0.09 l -2.28,0.05 v -1.39 l 1.3,-0.1 c 1.89,-0.15 2.83,-0.65 2.83,-1.59 0,-0.55 -0.19,-1.09 -0.8,-2.09 z"
           id="path3987"
           inkscape:connector-curvature="0"
           style="fill:#000000;stroke-width:0" /><path
           d="m 488.11,416.32 h 1.17 l 0.68,2.12 c 0.43,1.28 2.82,2.58 4.79,2.58 2.45,0 4.46,-2.02 4.46,-4.41 0,-2.84 -2.23,-5.22 -4.92,-5.22 -0.31,0 -0.72,0.04 -1.22,0.07 l -0.56,0.04 -0.45,-2.01 0.26,-0.22 c 1.44,0.64 2.16,0.83 3.18,0.83 3.15,0 4.96,-2 4.96,-5.46 0,-3.87 -2.31,-6.4 -5.82,-6.4 -1.75,0 -3.32,0.56 -4.44,1.62 -0.92,0.85 -1.41,1.71 -2.13,3.75 l -1.03,-0.37 c 0.8,-2.31 1.11,-3.67 1.33,-5.56 2.02,-0.69 3.69,-1 5.08,-1 3.03,0 6.53,1.71 8.61,4.25 1.28,1.56 1.94,3.21 1.94,5 0,1.82 -0.77,3.42 -2.13,4.36 -0.95,0.68 -1.83,0.98 -3.72,1.32 3.03,2.36 4.17,4.1 4.17,6.33 0,3.38 -2.81,5.61 -7.01,5.61 -2.58,0 -4.28,-0.72 -6.1,-2.53 z"
           id="path3989"
           inkscape:connector-curvature="0"
           style="fill:#000000;stroke-width:0" /></g>    </g>
    <g
       transform="translate(46.063722,-95.486159)"
       id="g5089">
      <rect
         style="fill:#ffffff;fill-opacity:1;stroke:#000000;stroke-width:1.99999988;stroke-linecap:square;stroke-miterlimit:4;stroke-opacity:1;stroke-dasharray:none;stroke-dashoffset:0"
         id="rect4950"
         width="73"
         height="73"
         x="214.33611"
         y="437.59079" />
      <g
         transform="matrix(0.75,0,0,0.75,2.9729283,216.99152)"
         id="g4051">
        <g
           style="font-style:normal;font-variant:normal;font-weight:normal;font-stretch:normal;letter-spacing:normal;word-spacing:normal;text-anchor:start;fill:none;stroke:#000000;stroke-width:1.33333337;stroke-linecap:butt;stroke-linejoin:miter;stroke-miterlimit:10.43299961;stroke-opacity:1;stroke-dasharray:none;stroke-dashoffset:0"
           id="g4053"
           transform="matrix(1.0629921,0,0,-1.0629921,-186.02362,789.27165)"
           xml:space="preserve"
           stroke-miterlimit="10.433"
           font-style="normal"
           font-variant="normal"
           font-weight="normal"
           font-stretch="normal"
           font-size-adjust="none"
           letter-spacing="normal"
           word-spacing="normal"><path
             style="fill:#000000;stroke-width:0"
             inkscape:connector-curvature="0"
             d="m 471.08,410.98 -3.53,26.31 -0.05,0.35 c -0.09,0.95 0.64,1.5 2.14,1.54 l 2.09,0.1 v 1.39 l -2.04,-0.05 c -1.85,-0.05 -3.24,-0.09 -4.13,-0.09 -0.9,0 -2.29,0.04 -4.14,0.09 l -2.04,0.05 v -1.39 l 1.24,-0.1 c 2.19,-0.15 2.6,-0.54 2.94,-2.39 l 4.39,-31 h 2.44 l 18.83,30.85 c 1.25,2 1.64,2.34 3.09,2.54 l 0.89,0.1 v 1.39 l -1.48,-0.05 c -1.36,-0.05 -2.5,-0.09 -3.3,-0.09 -0.5,0 -1.84,0.04 -3.89,0.09 l -2.28,0.05 v -1.39 l 1.3,-0.1 c 1.89,-0.15 2.83,-0.65 2.83,-1.59 0,-0.55 -0.19,-1.09 -0.8,-2.09 z"
             id="path4055" /><path
             style="fill:#000000;stroke-width:0"
             inkscape:connector-curvature="0"
             d="m 496.25,441.9 -0.21,-0.19 c 0.08,-0.6 0.13,-0.87 0.13,-1.29 0,-0.42 -0.05,-0.67 -0.13,-1.25 l 0.21,-0.19 4.36,0.27 h 2.23 v -2.96 c 0,-5.65 -0.08,-8.56 -0.27,-11.11 l -0.07,-0.98 0.18,-0.19 c 0.91,0.11 1.22,0.16 1.55,0.16 0.39,0 0.69,-0.05 1.56,-0.16 l 0.19,0.19 -0.08,0.98 c -0.19,2.61 -0.26,5.32 -0.26,11.11 v 2.96 h 2.23 c 0.53,0 1.33,-0.04 1.94,-0.11 0.9,-0.08 1.48,-0.13 1.7,-0.13 h 0.72 l 0.19,0.16 c -0.07,0.58 -0.11,0.83 -0.11,1.25 0,0.45 0.04,0.72 0.11,1.29 l -0.19,0.19 -4.36,-0.26 h -2.23 v 1.97 c 0,1.25 0.11,3.06 0.37,5.42 l 0.05,0.45 0.08,0.83 -0.19,0.19 c -1.19,-0.11 -1.41,-0.11 -1.72,-0.11 -0.27,0 -0.53,0 -1.7,0.11 l -0.19,-0.19 0.08,-0.83 0.08,-0.72 c 0.26,-2.89 0.34,-3.94 0.34,-5.15 v -1.97 h -2.23 c -0.74,0 -1.41,0.03 -2.13,0.11 -0.77,0.11 -1.3,0.15 -1.52,0.15 z"
             id="path4057" /><path
             style="fill:#000000;stroke-width:0"
             inkscape:connector-curvature="0"
             d="m 489.03,410.67 h 0.37 l 4.89,2.21 c 0.03,0.03 0.08,0.03 0.11,0.03 0.24,0 0.3,-0.33 0.3,-1.25 v -18.38 c 0,-1.97 -0.41,-2.39 -2.45,-2.5 l -2.13,-0.12 v -1.13 c 5.83,0.11 5.83,0.11 6.25,0.11 0.5,0 1.33,0 2.61,-0.03 0.47,-0.05 1.78,-0.05 3.34,-0.08 v 1.13 l -1.96,0.12 c -2.1,0.11 -2.47,0.53 -2.47,2.5 v 22.47 l -0.53,0.19 c -2.47,-1.28 -5.16,-2.42 -8.6,-3.63 z"
             id="path4059" /></g>      </g>
    </g>
    <g
       transform="translate(151.41312,-108.28804)"
       id="g5103">
      <rect
         style="fill:#ffffff;fill-opacity:1;stroke:#000000;stroke-width:1.99999988;stroke-linecap:square;stroke-miterlimit:4;stroke-opacity:1;stroke-dasharray:none;stroke-dashoffset:0"
         id="rect4967"
         width="73"
         height="73"
         x="399.61169"
         y="450.39267" />
      <g
         id="g4133"
         transform="matrix(0.79724408,0,0,-0.79724408,48.730805,821.98631)"
         xml:space="preserve"
         stroke-miterlimit="10.433"
         font-style="normal"
         font-variant="normal"
         font-weight="normal"
         font-stretch="normal"
         font-size-adjust="none"
         letter-spacing="normal"
         word-spacing="normal"
         style="font-style:normal;font-variant:normal;font-weight:normal;font-stretch:normal;letter-spacing:normal;word-spacing:normal;text-anchor:start;fill:none;stroke:#000000;stroke-width:1.33333337;stroke-linecap:butt;stroke-linejoin:miter;stroke-miterlimit:10.43299961;stroke-opacity:1;stroke-dasharray:none;stroke-dashoffset:0"><path
           d="m 471.08,410.98 -3.53,26.31 -0.05,0.35 c -0.09,0.95 0.64,1.5 2.14,1.54 l 2.09,0.1 v 1.39 l -2.04,-0.05 c -1.85,-0.05 -3.24,-0.09 -4.13,-0.09 -0.9,0 -2.29,0.04 -4.14,0.09 l -2.04,0.05 v -1.39 l 1.24,-0.1 c 2.19,-0.15 2.6,-0.54 2.94,-2.39 l 4.39,-31 h 2.44 l 18.83,30.85 c 1.25,2 1.64,2.34 3.09,2.54 l 0.89,0.1 v 1.39 l -1.48,-0.05 c -1.36,-0.05 -2.5,-0.09 -3.3,-0.09 -0.5,0 -1.84,0.04 -3.89,0.09 l -2.28,0.05 v -1.39 l 1.3,-0.1 c 1.89,-0.15 2.83,-0.65 2.83,-1.59 0,-0.55 -0.19,-1.09 -0.8,-2.09 z"
           id="path4135"
           inkscape:connector-curvature="0"
           style="fill:#000000;stroke-width:0" /><path
           d="m 496.25,441.9 -0.21,-0.19 c 0.08,-0.6 0.13,-0.87 0.13,-1.29 0,-0.42 -0.05,-0.67 -0.13,-1.25 l 0.21,-0.19 4.36,0.27 h 2.23 v -2.96 c 0,-5.65 -0.08,-8.56 -0.27,-11.11 l -0.07,-0.98 0.18,-0.19 c 0.91,0.11 1.22,0.16 1.55,0.16 0.39,0 0.69,-0.05 1.56,-0.16 l 0.19,0.19 -0.08,0.98 c -0.19,2.61 -0.26,5.32 -0.26,11.11 v 2.96 h 2.23 c 0.53,0 1.33,-0.04 1.94,-0.11 0.9,-0.08 1.48,-0.13 1.7,-0.13 h 0.72 l 0.19,0.16 c -0.07,0.58 -0.11,0.83 -0.11,1.25 0,0.45 0.04,0.72 0.11,1.29 l -0.19,0.19 -4.36,-0.26 h -2.23 v 1.97 c 0,1.25 0.11,3.06 0.37,5.42 l 0.05,0.45 0.08,0.83 -0.19,0.19 c -1.19,-0.11 -1.41,-0.11 -1.72,-0.11 -0.27,0 -0.53,0 -1.7,0.11 l -0.19,-0.19 0.08,-0.83 0.08,-0.72 c 0.26,-2.89 0.34,-3.94 0.34,-5.15 v -1.97 h -2.23 c -0.74,0 -1.41,0.03 -2.13,0.11 -0.77,0.11 -1.3,0.15 -1.52,0.15 z"
           id="path4137"
           inkscape:connector-curvature="0"
           style="fill:#000000;stroke-width:0" /><path
           d="m 487.09,391.11 v -0.98 c 7.08,0.11 7.08,0.11 8.45,0.11 1.36,0 1.36,0 8.67,-0.11 -0.07,0.8 -0.07,1.17 -0.07,1.7 0,0.49 0,0.88 0.07,1.71 -4.35,-0.19 -6.09,-0.24 -13.1,-0.38 l 6.89,7.31 c 3.68,3.91 4.81,5.99 4.81,8.83 0,4.36 -2.95,7.05 -7.77,7.05 -2.72,0 -4.58,-0.75 -6.43,-2.66 l -0.65,-5.14 h 1.1 l 0.48,1.74 c 0.61,2.2 1.99,3.15 4.52,3.15 3.26,0 5.34,-2.05 5.34,-5.28 0,-2.84 -1.59,-5.64 -5.87,-10.19 z"
           id="path4139"
           inkscape:connector-curvature="0"
           style="fill:#000000;stroke-width:0" /></g>    </g>
    <g
       transform="translate(239.86058,-110.28923)"
       id="g5116">
      <rect
         style="fill:#ffffff;fill-opacity:1;stroke:#000000;stroke-width:1.99999988;stroke-linecap:square;stroke-miterlimit:4;stroke-opacity:1;stroke-dasharray:none;stroke-dashoffset:0"
         id="rect4971"
         width="73"
         height="73"
         x="601.78925"
         y="452.39386" />
      <g
         id="g4323"
         transform="matrix(0.79724408,0,0,-0.79724408,250.90837,823.72443)"
         xml:space="preserve"
         stroke-miterlimit="10.433"
         font-style="normal"
         font-variant="normal"
         font-weight="normal"
         font-stretch="normal"
         font-size-adjust="none"
         letter-spacing="normal"
         word-spacing="normal"
         style="font-style:normal;font-variant:normal;font-weight:normal;font-stretch:normal;letter-spacing:normal;word-spacing:normal;text-anchor:start;fill:none;stroke:#000000;stroke-width:1.33333337;stroke-linecap:butt;stroke-linejoin:miter;stroke-miterlimit:10.43299961;stroke-opacity:1;stroke-dasharray:none;stroke-dashoffset:0"><path
           d="m 471.08,410.98 -3.53,26.31 -0.05,0.35 c -0.09,0.95 0.64,1.5 2.14,1.54 l 2.09,0.1 v 1.39 l -2.04,-0.05 c -1.85,-0.05 -3.24,-0.09 -4.13,-0.09 -0.9,0 -2.29,0.04 -4.14,0.09 l -2.04,0.05 v -1.39 l 1.24,-0.1 c 2.19,-0.15 2.6,-0.54 2.94,-2.39 l 4.39,-31 h 2.44 l 18.83,30.85 c 1.25,2 1.64,2.34 3.09,2.54 l 0.89,0.1 v 1.39 l -1.48,-0.05 c -1.36,-0.05 -2.5,-0.09 -3.3,-0.09 -0.5,0 -1.84,0.04 -3.89,0.09 l -2.28,0.05 v -1.39 l 1.3,-0.1 c 1.89,-0.15 2.83,-0.65 2.83,-1.59 0,-0.55 -0.19,-1.09 -0.8,-2.09 z"
           id="path4325"
           inkscape:connector-curvature="0"
           style="fill:#000000;stroke-width:0" /><path
           d="m 496.25,441.9 -0.21,-0.19 c 0.08,-0.6 0.13,-0.87 0.13,-1.29 0,-0.42 -0.05,-0.67 -0.13,-1.25 l 0.21,-0.19 4.36,0.27 h 2.23 v -2.96 c 0,-5.65 -0.08,-8.56 -0.27,-11.11 l -0.07,-0.98 0.18,-0.19 c 0.91,0.11 1.22,0.16 1.55,0.16 0.39,0 0.69,-0.05 1.56,-0.16 l 0.19,0.19 -0.08,0.98 c -0.19,2.61 -0.26,5.32 -0.26,11.11 v 2.96 h 2.23 c 0.53,0 1.33,-0.04 1.94,-0.11 0.9,-0.08 1.48,-0.13 1.7,-0.13 h 0.72 l 0.19,0.16 c -0.07,0.58 -0.11,0.83 -0.11,1.25 0,0.45 0.04,0.72 0.11,1.29 l -0.19,0.19 -4.36,-0.26 h -2.23 v 1.97 c 0,1.25 0.11,3.06 0.37,5.42 l 0.05,0.45 0.08,0.83 -0.19,0.19 c -1.19,-0.11 -1.41,-0.11 -1.72,-0.11 -0.27,0 -0.53,0 -1.7,0.11 l -0.19,-0.19 0.08,-0.83 0.08,-0.72 c 0.26,-2.89 0.34,-3.94 0.34,-5.15 v -1.97 h -2.23 c -0.74,0 -1.41,0.03 -2.13,0.11 -0.77,0.11 -1.3,0.15 -1.52,0.15 z"
           id="path4327"
           inkscape:connector-curvature="0"
           style="fill:#000000;stroke-width:0" /><path
           d="m 488.11,409.11 h 1.17 l 0.68,2.13 c 0.43,1.28 2.82,2.58 4.79,2.58 2.45,0 4.46,-2.02 4.46,-4.41 0,-2.84 -2.23,-5.22 -4.92,-5.22 -0.31,0 -0.72,0.03 -1.22,0.06 l -0.56,0.05 -0.45,-2.01 0.26,-0.22 c 1.44,0.64 2.16,0.82 3.18,0.82 3.15,0 4.96,-2 4.96,-5.45 0,-3.87 -2.31,-6.4 -5.82,-6.4 -1.75,0 -3.32,0.56 -4.44,1.62 -0.92,0.84 -1.41,1.7 -2.13,3.75 l -1.03,-0.37 c 0.8,-2.32 1.11,-3.68 1.33,-5.57 2.02,-0.68 3.69,-1 5.08,-1 3.03,0 6.53,1.72 8.61,4.25 1.28,1.57 1.94,3.22 1.94,5 0,1.83 -0.77,3.42 -2.13,4.36 -0.95,0.69 -1.83,0.99 -3.72,1.33 3.03,2.36 4.17,4.09 4.17,6.33 0,3.37 -2.81,5.61 -7.01,5.61 -2.58,0 -4.28,-0.72 -6.1,-2.53 z"
           id="path4329"
           inkscape:connector-curvature="0"
           style="fill:#000000;stroke-width:0" /></g>    </g>
    <g
       transform="translate(37.567163,-93.290929)"
       id="g5125">
      <rect
         y="435.39557"
         x="125.95766"
         height="73"
         width="73"
         id="rect4942"
         style="fill:#ffffff;fill-opacity:1;stroke:#000000;stroke-width:1.99999988;stroke-linecap:square;stroke-miterlimit:4;stroke-opacity:1;stroke-dasharray:none;stroke-dashoffset:0" />
      <g
         transform="matrix(0.75,0,0,0.75,-76.978656,217.61855)"
         id="g4944">
        <g
           style="font-style:normal;font-variant:normal;font-weight:normal;font-stretch:normal;letter-spacing:normal;word-spacing:normal;text-anchor:start;fill:none;stroke:#000000;stroke-width:1.33333337;stroke-linecap:butt;stroke-linejoin:miter;stroke-miterlimit:10.43299961;stroke-opacity:1;stroke-dasharray:none;stroke-dashoffset:0"
           id="g4946"
           transform="matrix(1.0629921,0,0,-1.0629921,-186.02362,789.27165)"
           xml:space="preserve"
           stroke-miterlimit="10.433"
           font-style="normal"
           font-variant="normal"
           font-weight="normal"
           font-stretch="normal"
           font-size-adjust="none"
           letter-spacing="normal"
           word-spacing="normal"><path
             style="fill:#000000;stroke-width:0"
             inkscape:connector-curvature="0"
             d="M 474.56,440.07 461.4,410.14 c -0.59,-1.46 -1.59,-2.35 -2.69,-2.44 l -1.84,-0.16 v -1.5 c 4.53,0.16 4.63,0.16 5.42,0.16 0.66,0 0.75,0 6.03,-0.16 v 1.5 l -1.84,0.16 c -1.73,0.14 -2.39,0.5 -2.39,1.3 0,0.64 0.7,2.78 1.75,5.28 l 8.56,20.17 9.52,-22.52 c 0.9,-2.09 1,-2.79 1,-3.25 0,-0.54 -0.8,-0.89 -2.05,-0.98 l -2.34,-0.16 v -1.5 c 6.03,0.16 6.14,0.16 6.93,0.16 0.94,0 1.05,0 6.33,-0.16 v 1.5 l -1.7,0.16 c -1.3,0.19 -1.84,1.05 -3.58,5.08 l -12.06,28.29 z"
             id="path4948" /></g>      </g>
    </g>
    <g
       id="g5131"
       transform="translate(-15.922293,122.91527)">
      <rect
         style="fill:#ffffff;fill-opacity:1;stroke:#000000;stroke-width:1.99999988;stroke-linecap:square;stroke-miterlimit:4;stroke-opacity:1;stroke-dasharray:none;stroke-dashoffset:0"
         id="rect5133"
         width="73"
         height="73"
         x="470.07211"
         y="219.18936" />
      <g
         id="g5135"
         transform="matrix(0.75,0,0,0.75,267.13579,1.4123418)">
        <g
           word-spacing="normal"
           letter-spacing="normal"
           font-size-adjust="none"
           font-stretch="normal"
           font-weight="normal"
           font-variant="normal"
           font-style="normal"
           stroke-miterlimit="10.433"
           xml:space="preserve"
           transform="matrix(1.0629921,0,0,-1.0629921,-186.02362,789.27165)"
           id="g5137"
           style="font-style:normal;font-variant:normal;font-weight:normal;font-stretch:normal;letter-spacing:normal;word-spacing:normal;text-anchor:start;fill:none;stroke:#000000;stroke-width:1.33333337;stroke-linecap:butt;stroke-linejoin:miter;stroke-miterlimit:10.43299961;stroke-opacity:1;stroke-dasharray:none;stroke-dashoffset:0"><path
             id="path5139"
             d="M 474.56,440.07 461.4,410.14 c -0.59,-1.46 -1.59,-2.35 -2.69,-2.44 l -1.84,-0.16 v -1.5 c 4.53,0.16 4.63,0.16 5.42,0.16 0.66,0 0.75,0 6.03,-0.16 v 1.5 l -1.84,0.16 c -1.73,0.14 -2.39,0.5 -2.39,1.3 0,0.64 0.7,2.78 1.75,5.28 l 8.56,20.17 9.52,-22.52 c 0.9,-2.09 1,-2.79 1,-3.25 0,-0.54 -0.8,-0.89 -2.05,-0.98 l -2.34,-0.16 v -1.5 c 6.03,0.16 6.14,0.16 6.93,0.16 0.94,0 1.05,0 6.33,-0.16 v 1.5 l -1.7,0.16 c -1.3,0.19 -1.84,1.05 -3.58,5.08 l -12.06,28.29 z"
             inkscape:connector-curvature="0"
             style="fill:#000000;stroke-width:0" /></g>      </g>
    </g>
    <g
       id="g5141"
       transform="translate(70.049562,115.48833)">
      <rect
         y="226.6163"
         x="674.72528"
         height="73"
         width="73"
         id="rect5143"
         style="fill:#ffffff;fill-opacity:1;stroke:#000000;stroke-width:1.99999988;stroke-linecap:square;stroke-miterlimit:4;stroke-opacity:1;stroke-dasharray:none;stroke-dashoffset:0" />
      <g
         transform="matrix(0.75,0,0,0.75,471.78899,8.8392728)"
         id="g5145">
        <g
           style="font-style:normal;font-variant:normal;font-weight:normal;font-stretch:normal;letter-spacing:normal;word-spacing:normal;text-anchor:start;fill:none;stroke:#000000;stroke-width:1.33333337;stroke-linecap:butt;stroke-linejoin:miter;stroke-miterlimit:10.43299961;stroke-opacity:1;stroke-dasharray:none;stroke-dashoffset:0"
           id="g5147"
           transform="matrix(1.0629921,0,0,-1.0629921,-186.02362,789.27165)"
           xml:space="preserve"
           stroke-miterlimit="10.433"
           font-style="normal"
           font-variant="normal"
           font-weight="normal"
           font-stretch="normal"
           font-size-adjust="none"
           letter-spacing="normal"
           word-spacing="normal"><path
             style="fill:#000000;stroke-width:0"
             inkscape:connector-curvature="0"
             d="M 474.56,440.07 461.4,410.14 c -0.59,-1.46 -1.59,-2.35 -2.69,-2.44 l -1.84,-0.16 v -1.5 c 4.53,0.16 4.63,0.16 5.42,0.16 0.66,0 0.75,0 6.03,-0.16 v 1.5 l -1.84,0.16 c -1.73,0.14 -2.39,0.5 -2.39,1.3 0,0.64 0.7,2.78 1.75,5.28 l 8.56,20.17 9.52,-22.52 c 0.9,-2.09 1,-2.79 1,-3.25 0,-0.54 -0.8,-0.89 -2.05,-0.98 l -2.34,-0.16 v -1.5 c 6.03,0.16 6.14,0.16 6.93,0.16 0.94,0 1.05,0 6.33,-0.16 v 1.5 l -1.7,0.16 c -1.3,0.19 -1.84,1.05 -3.58,5.08 l -12.06,28.29 z"
             id="path5149" /></g>      </g>
    </g>
    <path
       inkscape:connector-curvature="0"
       id="path5364"
       d="m -8.1001784,505.84711 997.4999984,0"
       style="fill:none;stroke:#000000;stroke-width:2;stroke-linecap:butt;stroke-linejoin:miter;stroke-miterlimit:4;stroke-opacity:1;stroke-dasharray:none" />
    <g
       id="g6486"
       transform="translate(50.825815,0)">
      <rect
         style="fill:#ffffff;fill-opacity:1;stroke:#000000;stroke-width:2;stroke-linecap:square;stroke-miterlimit:4;stroke-opacity:1;stroke-dasharray:none;stroke-dashoffset:0"
         id="rect5368"
         width="148"
         height="73"
         x="75.199005"
         y="469.34711" />
      <g
         transform="matrix(0.75,0,0,0.75,-121.14247,248.09011)"
         id="g5717">
        <g
           style="font-style:normal;font-variant:normal;font-weight:normal;font-stretch:normal;letter-spacing:normal;word-spacing:normal;text-anchor:start;fill:none;stroke:#000000;stroke-width:1.33333337;stroke-linecap:butt;stroke-linejoin:miter;stroke-miterlimit:10.43299961;stroke-opacity:1;stroke-dasharray:none;stroke-dashoffset:0"
           id="g5719"
           transform="matrix(1.0629921,0,0,-1.0629921,-186.02362,789.27165)"
           xml:space="preserve"
           stroke-miterlimit="10.433"
           font-style="normal"
           font-variant="normal"
           font-weight="normal"
           font-stretch="normal"
           font-size-adjust="none"
           letter-spacing="normal"
           word-spacing="normal"><path
             style="fill:#000000;stroke-width:0"
             inkscape:connector-curvature="0"
             d="m 470.25,440.67 -1.93,-0.05 c -1.89,-0.09 -3.1,-0.09 -4.1,-0.09 -0.59,0 -1.68,0.04 -3.58,0.09 l -1.95,0.05 v -1.39 l 0.91,-0.1 c 2.04,-0.29 2.44,-0.84 2.64,-3.68 l 1.59,-21.43 c 0.25,-3.29 0.35,-5.68 0.39,-8.28 h 2.5 c 0.69,1.75 1.6,3.69 2.49,5.49 l 11.15,22.12 5.6,-19.53 c 0.73,-2.59 1.28,-5.03 1.93,-8.08 h 2.55 l 0.35,1.3 c 0.5,2 0.89,3.34 1.54,5.28 l 8.52,25.27 c 0.29,0.84 1.04,1.43 2.14,1.54 l 1,0.1 v 1.39 l -1.6,-0.05 c -1.45,-0.05 -2.54,-0.09 -3.23,-0.09 -0.66,0 -1.75,0.04 -3.25,0.09 l -1.64,0.05 -0.25,-1.39 1.94,-0.1 c 1.45,-0.04 2.04,-0.45 2.04,-1.15 0,-0.64 -0.14,-1.53 -0.45,-2.44 l -7.31,-23.02 -7.88,28.5 h -0.89 c -0.61,-1.34 -1.7,-3.78 -2.59,-5.57 l -11.16,-22.72 -1.54,24.11 c 0,1.5 0.64,2.18 2.23,2.29 l 1.84,0.1 z"
             id="path5721" /><polygon
             style="fill:#000000;stroke-width:0"
             points="511.8,393.21 518.93,393.21 518.93,395.29 513.88,395.29 513.88,443.09 518.93,443.09 518.93,445.17 511.8,445.17 "
             id="polygon5723" /><path
             style="fill:#000000;stroke-width:0"
             inkscape:connector-curvature="0"
             d="m 539.72,440.07 -13.16,-29.93 c -0.59,-1.46 -1.59,-2.35 -2.69,-2.44 l -1.84,-0.16 v -1.5 c 4.53,0.16 4.62,0.16 5.42,0.16 0.65,0 0.75,0 6.03,-0.16 v 1.5 l -1.84,0.16 c -1.74,0.14 -2.39,0.5 -2.39,1.3 0,0.64 0.7,2.78 1.75,5.28 l 8.56,20.17 9.51,-22.52 c 0.91,-2.09 1,-2.79 1,-3.25 0,-0.54 -0.79,-0.89 -2.04,-0.98 l -2.35,-0.16 v -1.5 c 6.04,0.16 6.14,0.16 6.94,0.16 0.94,0 1.05,0 6.33,-0.16 v 1.5 l -1.7,0.16 c -1.3,0.19 -1.85,1.05 -3.58,5.08 l -12.07,28.29 z"
             id="path5725" /><polygon
             style="fill:#000000;stroke-width:0"
             points="569.5,393.21 569.5,445.17 562.38,445.17 562.38,443.09 567.42,443.09 567.42,395.29 562.38,395.29 562.38,393.21 "
             id="polygon5727" /></g>      </g>
    </g>
    <g
       id="g5880"
       transform="translate(341.45081,0)">
      <rect
         y="469.34711"
         x="75.199005"
         height="73"
         width="148"
         id="rect5882"
         style="fill:#ffffff;fill-opacity:1;stroke:#000000;stroke-width:2;stroke-linecap:square;stroke-miterlimit:4;stroke-opacity:1;stroke-dasharray:none;stroke-dashoffset:0" />
      <g
         id="g5884"
         transform="matrix(0.75,0,0,0.75,-121.14247,248.09011)">
        <g
           word-spacing="normal"
           letter-spacing="normal"
           font-size-adjust="none"
           font-stretch="normal"
           font-weight="normal"
           font-variant="normal"
           font-style="normal"
           stroke-miterlimit="10.433"
           xml:space="preserve"
           transform="matrix(1.0629921,0,0,-1.0629921,-186.02362,789.27165)"
           id="g5886"
           style="font-style:normal;font-variant:normal;font-weight:normal;font-stretch:normal;letter-spacing:normal;word-spacing:normal;text-anchor:start;fill:none;stroke:#000000;stroke-width:1.33333337;stroke-linecap:butt;stroke-linejoin:miter;stroke-miterlimit:10.43299961;stroke-opacity:1;stroke-dasharray:none;stroke-dashoffset:0"><path
             id="path5888"
             d="m 470.25,440.67 -1.93,-0.05 c -1.89,-0.09 -3.1,-0.09 -4.1,-0.09 -0.59,0 -1.68,0.04 -3.58,0.09 l -1.95,0.05 v -1.39 l 0.91,-0.1 c 2.04,-0.29 2.44,-0.84 2.64,-3.68 l 1.59,-21.43 c 0.25,-3.29 0.35,-5.68 0.39,-8.28 h 2.5 c 0.69,1.75 1.6,3.69 2.49,5.49 l 11.15,22.12 5.6,-19.53 c 0.73,-2.59 1.28,-5.03 1.93,-8.08 h 2.55 l 0.35,1.3 c 0.5,2 0.89,3.34 1.54,5.28 l 8.52,25.27 c 0.29,0.84 1.04,1.43 2.14,1.54 l 1,0.1 v 1.39 l -1.6,-0.05 c -1.45,-0.05 -2.54,-0.09 -3.23,-0.09 -0.66,0 -1.75,0.04 -3.25,0.09 l -1.64,0.05 -0.25,-1.39 1.94,-0.1 c 1.45,-0.04 2.04,-0.45 2.04,-1.15 0,-0.64 -0.14,-1.53 -0.45,-2.44 l -7.31,-23.02 -7.88,28.5 h -0.89 c -0.61,-1.34 -1.7,-3.78 -2.59,-5.57 l -11.16,-22.72 -1.54,24.11 c 0,1.5 0.64,2.18 2.23,2.29 l 1.84,0.1 z"
             inkscape:connector-curvature="0"
             style="fill:#000000;stroke-width:0" /><polygon
             id="polygon5890"
             points="511.8,393.21 518.93,393.21 518.93,395.29 513.88,395.29 513.88,443.09 518.93,443.09 518.93,445.17 511.8,445.17 "
             style="fill:#000000;stroke-width:0" /><path
             id="path5892"
             d="m 539.72,440.07 -13.16,-29.93 c -0.59,-1.46 -1.59,-2.35 -2.69,-2.44 l -1.84,-0.16 v -1.5 c 4.53,0.16 4.62,0.16 5.42,0.16 0.65,0 0.75,0 6.03,-0.16 v 1.5 l -1.84,0.16 c -1.74,0.14 -2.39,0.5 -2.39,1.3 0,0.64 0.7,2.78 1.75,5.28 l 8.56,20.17 9.51,-22.52 c 0.91,-2.09 1,-2.79 1,-3.25 0,-0.54 -0.79,-0.89 -2.04,-0.98 l -2.35,-0.16 v -1.5 c 6.04,0.16 6.14,0.16 6.94,0.16 0.94,0 1.05,0 6.33,-0.16 v 1.5 l -1.7,0.16 c -1.3,0.19 -1.85,1.05 -3.58,5.08 l -12.07,28.29 z"
             inkscape:connector-curvature="0"
             style="fill:#000000;stroke-width:0" /><polygon
             id="polygon5894"
             points="569.5,393.21 569.5,445.17 562.38,445.17 562.38,443.09 567.42,443.09 567.42,395.29 562.38,395.29 562.38,393.21 "
             style="fill:#000000;stroke-width:0" /></g>      </g>
    </g>
    <g
       transform="translate(632.07584,0)"
       id="g5896">
      <rect
         style="fill:#ffffff;fill-opacity:1;stroke:#000000;stroke-width:2;stroke-linecap:square;stroke-miterlimit:4;stroke-opacity:1;stroke-dasharray:none;stroke-dashoffset:0"
         id="rect5898"
         width="148"
         height="73"
         x="75.199005"
         y="469.34711" />
      <g
         transform="matrix(0.75,0,0,0.75,-121.14247,248.09011)"
         id="g5900">
        <g
           style="font-style:normal;font-variant:normal;font-weight:normal;font-stretch:normal;letter-spacing:normal;word-spacing:normal;text-anchor:start;fill:none;stroke:#000000;stroke-width:1.33333337;stroke-linecap:butt;stroke-linejoin:miter;stroke-miterlimit:10.43299961;stroke-opacity:1;stroke-dasharray:none;stroke-dashoffset:0"
           id="g5902"
           transform="matrix(1.0629921,0,0,-1.0629921,-186.02362,789.27165)"
           xml:space="preserve"
           stroke-miterlimit="10.433"
           font-style="normal"
           font-variant="normal"
           font-weight="normal"
           font-stretch="normal"
           font-size-adjust="none"
           letter-spacing="normal"
           word-spacing="normal"><path
             style="fill:#000000;stroke-width:0"
             inkscape:connector-curvature="0"
             d="m 470.25,440.67 -1.93,-0.05 c -1.89,-0.09 -3.1,-0.09 -4.1,-0.09 -0.59,0 -1.68,0.04 -3.58,0.09 l -1.95,0.05 v -1.39 l 0.91,-0.1 c 2.04,-0.29 2.44,-0.84 2.64,-3.68 l 1.59,-21.43 c 0.25,-3.29 0.35,-5.68 0.39,-8.28 h 2.5 c 0.69,1.75 1.6,3.69 2.49,5.49 l 11.15,22.12 5.6,-19.53 c 0.73,-2.59 1.28,-5.03 1.93,-8.08 h 2.55 l 0.35,1.3 c 0.5,2 0.89,3.34 1.54,5.28 l 8.52,25.27 c 0.29,0.84 1.04,1.43 2.14,1.54 l 1,0.1 v 1.39 l -1.6,-0.05 c -1.45,-0.05 -2.54,-0.09 -3.23,-0.09 -0.66,0 -1.75,0.04 -3.25,0.09 l -1.64,0.05 -0.25,-1.39 1.94,-0.1 c 1.45,-0.04 2.04,-0.45 2.04,-1.15 0,-0.64 -0.14,-1.53 -0.45,-2.44 l -7.31,-23.02 -7.88,28.5 h -0.89 c -0.61,-1.34 -1.7,-3.78 -2.59,-5.57 l -11.16,-22.72 -1.54,24.11 c 0,1.5 0.64,2.18 2.23,2.29 l 1.84,0.1 z"
             id="path5904" /><polygon
             style="fill:#000000;stroke-width:0"
             points="518.93,393.21 518.93,395.29 513.88,395.29 513.88,443.09 518.93,443.09 518.93,445.17 511.8,445.17 511.8,393.21 "
             id="polygon5906" /><path
             style="fill:#000000;stroke-width:0"
             inkscape:connector-curvature="0"
             d="m 539.72,440.07 -13.16,-29.93 c -0.59,-1.46 -1.59,-2.35 -2.69,-2.44 l -1.84,-0.16 v -1.5 c 4.53,0.16 4.62,0.16 5.42,0.16 0.65,0 0.75,0 6.03,-0.16 v 1.5 l -1.84,0.16 c -1.74,0.14 -2.39,0.5 -2.39,1.3 0,0.64 0.7,2.78 1.75,5.28 l 8.56,20.17 9.51,-22.52 c 0.91,-2.09 1,-2.79 1,-3.25 0,-0.54 -0.79,-0.89 -2.04,-0.98 l -2.35,-0.16 v -1.5 c 6.04,0.16 6.14,0.16 6.94,0.16 0.94,0 1.05,0 6.33,-0.16 v 1.5 l -1.7,0.16 c -1.3,0.19 -1.85,1.05 -3.58,5.08 l -12.07,28.29 z"
             id="path5908" /><polygon
             style="fill:#000000;stroke-width:0"
             points="569.5,445.17 562.38,445.17 562.38,443.09 567.42,443.09 567.42,395.29 562.38,395.29 562.38,393.21 569.5,393.21 "
             id="polygon5910" /></g>      </g>
    </g>
    <g
       transform="matrix(0.75,0,0,0.75,-300.70034,112.931)"
       id="g7780">
      <g
         style="font-style:normal;font-variant:normal;font-weight:normal;font-stretch:normal;letter-spacing:normal;word-spacing:normal;text-anchor:start;fill:none;stroke:#000000;stroke-width:1.33333337;stroke-linecap:butt;stroke-linejoin:miter;stroke-miterlimit:10.43299961;stroke-opacity:1;stroke-dasharray:none;stroke-dashoffset:0"
         id="content-87"
         transform="matrix(1.0629921,0,0,-1.0629921,-186.02362,789.27165)"
         xml:space="preserve"
         stroke-miterlimit="10.433"
         font-style="normal"
         font-variant="normal"
         font-weight="normal"
         font-stretch="normal"
         font-size-adjust="none"
         letter-spacing="normal"
         word-spacing="normal"><path
           style="fill:#000000;stroke-width:0"
           inkscape:connector-curvature="0"
           d="m 460.86,408.5 0.1,-0.18 0.1,-0.17 0.11,-0.16 0.11,-0.16 0.12,-0.15 0.12,-0.15 0.13,-0.14 0.13,-0.14 0.14,-0.13 0.13,-0.12 0.15,-0.12 0.15,-0.11 0.15,-0.11 0.15,-0.11 0.17,-0.09 0.16,-0.1 0.17,-0.08 0.17,-0.08 0.18,-0.08 0.18,-0.07 0.19,-0.06 0.19,-0.06 0.19,-0.05 0.2,-0.05 0.2,-0.04 0.21,-0.04 0.21,-0.03 0.21,-0.02 0.22,-0.02 0.23,-0.02 0.22,-0.01 0.23,0 c 2.64,0 5.58,1.25 7.78,3.28 3.19,2.94 5.43,8.63 5.43,13.75 0,4.69 -2.49,7.53 -6.58,7.53 -2.14,0 -4.28,-0.75 -6.47,-2.25 l 1.59,-0.48 c 0.64,0.55 1.74,0.84 2.94,0.84 h 0 c 3.14,0 4.74,-2.2 4.74,-6.37 0,-4.84 -1.55,-10.13 -3.74,-12.77 -0.91,-1.04 -2.2,-1.64 -3.69,-1.64 -3,0 -4.64,2.25 -4.64,6.17 0,5.65 1.94,11.77 4.39,13.77 l -1.59,0.48 c -1.7,-1.14 -3.09,-2.64 -4.14,-4.42 -0.75,-1.11 -1.34,-2.34 -1.84,-3.54 -1.25,-2.94 -1.94,-5.97 -2.49,-9.02 -0.91,-5.23 -1.5,-12.95 -2.09,-18.14 l 0.75,-0.39 c 1.23,0.39 2.18,0.64 3.58,0.84 -0.1,1.46 -0.15,3.35 -0.15,5.33 0,3.5 0.15,7.28 0.49,9.81 z"
           id="path7783" /><path
           style="fill:#000000;stroke-width:0"
           inkscape:connector-curvature="0"
           d="m 496.44,407.86 0,0 0,0.01 0.01,0.01 0,0.02 0.01,0.06 0.01,0.07 0.02,0.1 0.02,0.11 0.03,0.13 0.03,0.15 0.03,0.17 0.03,0.18 0.04,0.2 0.03,0.21 0.05,0.23 0.04,0.23 0.05,0.25 0.04,0.26 0.05,0.27 0.05,0.28 0.05,0.29 0.06,0.29 0.05,0.3 0.06,0.31 0.11,0.63 0.12,0.65 0.11,0.65 0.12,0.65 0.11,0.64 c 0.61,3.57 1.03,5.43 1.72,7.47 l -0.42,0.57 c -0.77,-0.46 -1.78,-0.91 -2.96,-1.36 -1.06,-7.52 -2.12,-14.46 -3.42,-21.58 -1.97,0.2 -4.55,0.95 -4.55,3.98 0,0.58 0.08,1.3 0.24,2.02 l 1.55,7.92 c 0.12,0.59 0.18,1.13 0.18,1.63 0,0.71 -0.29,1.17 -0.82,1.17 -0.8,0 -2.21,-0.75 -5.05,-2.8 l -1.06,-0.77 0.26,-0.75 1.22,0.8 c 1.09,0.67 1.48,0.86 1.83,0.86 0.37,0 0.64,-0.33 0.64,-0.75 0,-0.19 -0.05,-0.5 -0.08,-0.69 l -1.62,-8.64 c -0.05,-0.29 -0.05,-0.64 -0.05,-0.93 0,-2.63 2.81,-5.02 6.59,-5.02 h 0.35 c -0.53,-2.77 -1.1,-5.53 -1.71,-8.41 l -0.29,-1.4 0.25,-0.22 c 0.79,0.25 1.56,0.45 2.78,0.64 l 1.58,9.7 c 1.48,0.3 3.34,1.06 5.23,2.8 1.67,1.51 2.81,3.3 3.91,5.69 0.95,2.01 1.59,4.59 1.59,6.17 0,2.2 -0.95,3.72 -2.34,3.72 -0.53,0 -0.93,-0.16 -1.27,-0.46 l -1.89,-1.78 0.42,-0.72 c 0.35,0.24 0.64,0.35 1.02,0.35 1.06,0 1.64,-0.88 1.64,-2.39 0,-8.08 -4.41,-11.19 -8.05,-11.67 z"
           id="path7785" /></g>    </g>
    <g
       transform="matrix(0.75,0,0,0.75,-300.70034,240.17348)"
       id="g7869">
      <g
         style="font-style:normal;font-variant:normal;font-weight:normal;font-stretch:normal;letter-spacing:normal;word-spacing:normal;text-anchor:start;fill:none;stroke:#000000;stroke-width:1.33333337;stroke-linecap:butt;stroke-linejoin:miter;stroke-miterlimit:10.43299961;stroke-opacity:1;stroke-dasharray:none;stroke-dashoffset:0"
         id="g7871"
         transform="matrix(1.0629921,0,0,-1.0629921,-186.02362,789.27165)"
         xml:space="preserve"
         stroke-miterlimit="10.433"
         font-style="normal"
         font-variant="normal"
         font-weight="normal"
         font-stretch="normal"
         font-size-adjust="none"
         letter-spacing="normal"
         word-spacing="normal"><path
           style="fill:#000000;stroke-width:0"
           inkscape:connector-curvature="0"
           d="m 460.86,408.5 0.1,-0.18 0.1,-0.17 0.11,-0.16 0.11,-0.16 0.12,-0.15 0.12,-0.15 0.13,-0.14 0.13,-0.14 0.14,-0.13 0.13,-0.12 0.15,-0.12 0.15,-0.11 0.15,-0.11 0.15,-0.11 0.17,-0.09 0.16,-0.1 0.17,-0.08 0.17,-0.08 0.18,-0.08 0.18,-0.07 0.19,-0.06 0.19,-0.06 0.19,-0.05 0.2,-0.05 0.2,-0.04 0.21,-0.04 0.21,-0.03 0.21,-0.02 0.22,-0.02 0.23,-0.02 0.22,-0.01 0.23,0 c 2.64,0 5.58,1.25 7.78,3.28 3.19,2.94 5.43,8.63 5.43,13.75 0,4.69 -2.49,7.53 -6.58,7.53 -2.14,0 -4.28,-0.75 -6.47,-2.25 l 1.59,-0.48 c 0.64,0.55 1.74,0.84 2.94,0.84 h 0 c 3.14,0 4.74,-2.2 4.74,-6.37 0,-4.84 -1.55,-10.13 -3.74,-12.77 -0.91,-1.04 -2.2,-1.64 -3.69,-1.64 -3,0 -4.64,2.25 -4.64,6.17 0,5.65 1.94,11.77 4.39,13.77 l -1.59,0.48 c -1.7,-1.14 -3.09,-2.64 -4.14,-4.42 -0.75,-1.11 -1.34,-2.34 -1.84,-3.54 -1.25,-2.94 -1.94,-5.97 -2.49,-9.02 -0.91,-5.23 -1.5,-12.95 -2.09,-18.14 l 0.75,-0.39 c 1.23,0.39 2.18,0.64 3.58,0.84 -0.1,1.46 -0.15,3.35 -0.15,5.33 0,3.5 0.15,7.28 0.49,9.81 z"
           id="path7873" /><path
           style="fill:#000000;stroke-width:0"
           inkscape:connector-curvature="0"
           d="m 496.44,407.86 0,0 0,0.01 0.01,0.01 0,0.02 0.01,0.06 0.01,0.07 0.02,0.1 0.02,0.11 0.03,0.13 0.03,0.15 0.03,0.17 0.03,0.18 0.04,0.2 0.03,0.21 0.05,0.23 0.04,0.23 0.05,0.25 0.04,0.26 0.05,0.27 0.05,0.28 0.05,0.29 0.06,0.29 0.05,0.3 0.06,0.31 0.11,0.63 0.12,0.65 0.11,0.65 0.12,0.65 0.11,0.64 c 0.61,3.57 1.03,5.43 1.72,7.47 l -0.42,0.57 c -0.77,-0.46 -1.78,-0.91 -2.96,-1.36 -1.06,-7.52 -2.12,-14.46 -3.42,-21.58 -1.97,0.2 -4.55,0.95 -4.55,3.98 0,0.58 0.08,1.3 0.24,2.02 l 1.55,7.92 c 0.12,0.59 0.18,1.13 0.18,1.63 0,0.71 -0.29,1.17 -0.82,1.17 -0.8,0 -2.21,-0.75 -5.05,-2.8 l -1.06,-0.77 0.26,-0.75 1.22,0.8 c 1.09,0.67 1.48,0.86 1.83,0.86 0.37,0 0.64,-0.33 0.64,-0.75 0,-0.19 -0.05,-0.5 -0.08,-0.69 l -1.62,-8.64 c -0.05,-0.29 -0.05,-0.64 -0.05,-0.93 0,-2.63 2.81,-5.02 6.59,-5.02 h 0.35 c -0.53,-2.77 -1.1,-5.53 -1.71,-8.41 l -0.29,-1.4 0.25,-0.22 c 0.79,0.25 1.56,0.45 2.78,0.64 l 1.58,9.7 c 1.48,0.3 3.34,1.06 5.23,2.8 1.67,1.51 2.81,3.3 3.91,5.69 0.95,2.01 1.59,4.59 1.59,6.17 0,2.2 -0.95,3.72 -2.34,3.72 -0.53,0 -0.93,-0.16 -1.27,-0.46 l -1.89,-1.78 0.42,-0.72 c 0.35,0.24 0.64,0.35 1.02,0.35 1.06,0 1.64,-0.88 1.64,-2.39 0,-8.08 -4.41,-11.19 -8.05,-11.67 z"
           id="path7875" /></g>    </g>
    <g
       id="g8357">
      <g
         id="g7996"
         transform="translate(-444.79643,-93.143142)">
        <g
           id="content-3"
           transform="matrix(1.0629921,0,0,-1.0629921,-186.02362,789.27165)"
           xml:space="preserve"
           stroke-miterlimit="10.433"
           font-style="normal"
           font-variant="normal"
           font-weight="normal"
           font-stretch="normal"
           font-size-adjust="none"
           letter-spacing="normal"
           word-spacing="normal"
           style="font-style:normal;font-variant:normal;font-weight:normal;font-stretch:normal;letter-spacing:normal;word-spacing:normal;text-anchor:start;fill:none;stroke:#000000;stroke-linecap:butt;stroke-linejoin:miter;stroke-miterlimit:10.43299961;stroke-opacity:1;stroke-dasharray:none;stroke-dashoffset:0"><path
             d="m 472.71,406.15 0.29,0 0.29,-0.01 0.28,0 0.27,-0.01 0.27,0 0.25,-0.01 0.25,0 0.24,0 0.23,-0.01 0.23,0 0.21,-0.01 0.21,0 0.21,0 0.19,-0.01 0.19,0 0.19,0 0.17,0 0.18,-0.01 0.16,0 0.16,0 0.3,-0.01 0.28,0 0.26,0 0.24,-0.01 0.22,0 0.21,0 0.19,-0.01 0.17,0 0.17,0 0.15,0 0.14,0 0.13,0 0.12,0 0.11,-0.01 0.21,0 0.2,0 0.2,0 0.2,0 c 1.54,0 1.59,0 8.37,0.16 0,2.89 0.3,5.58 0.8,8.17 h -1.75 c -0.1,-0.8 -0.19,-1.5 -0.25,-1.69 -0.3,-2.15 -0.94,-3.68 -1.64,-3.93 -1.05,-0.36 -4.69,-0.61 -9.17,-0.61 -2.58,0 -3.49,0.11 -4.93,0.4 v 13.96 c 1.39,0.09 2.89,0.14 5.13,0.14 3.69,0 5.03,-0.14 5.94,-0.6 l 0.39,-1.25 0.25,-2.93 h 1.5 c -0.16,3.64 -0.16,4.64 -0.16,5.53 0,0.79 0,2.29 0.16,5.78 h -1.5 l -0.25,-2.6 c -0.05,-0.45 -0.21,-0.89 -0.39,-1.29 -0.91,-0.39 -2.3,-0.55 -5.58,-0.55 -2.1,0 -3.8,0.05 -5.49,0.16 v 13.29 c 1.55,0.35 2.39,0.41 5.83,0.41 2.85,0 5.63,-0.25 7.22,-0.7 1.2,-0.3 1.34,-0.55 1.34,-1.69 v -3.25 h 1.75 c 0,3 0.25,5.39 0.8,7.58 -2.44,0.09 -3.98,0.14 -6.17,0.14 -1.25,0 -2.89,0 -4.94,-0.05 -1.2,-0.05 -2.25,-0.05 -3.19,-0.05 -2.89,-0.04 -6.28,-0.04 -8.03,-0.04 l -1.18,-1.5 c 1.59,-0.1 1.84,-0.55 1.84,-4.49 h 0 v -22.36 c 0,-3.93 -0.25,-4.34 -1.84,-4.48 -1.6,0.14 -1.9,0.55 -1.9,4.48 v 22.36 c 0,3.94 0.3,4.35 1.9,4.49 l 1.18,1.5 c -2.58,0 -7.17,0.04 -10.11,0.14 v -1.49 l 2.19,-0.15 c 2.05,-0.14 2.55,-0.55 2.55,-4.49 v -22.36 c 0,-3.93 -0.5,-4.39 -2.55,-4.48 l -2.19,-0.16 v -1.5 c 2.94,0.11 7.53,0.16 10.11,0.16 0.25,0 4.1,0 5.99,-0.05 z"
             id="path7999"
             inkscape:connector-curvature="0"
             style="fill:#000000;stroke-width:0" /><polygon
             points="505.74,446.52 513.3,446.52 513.3,448.52 503.74,448.52 503.74,388.77 513.3,388.77 513.3,390.77 505.74,390.77 "
             id="polygon8001"
             style="fill:#000000;stroke-width:0" /></g>      </g>
      <g
         id="g8042"
         transform="translate(805.92997,-93.143142)">
        <g
           id="content-2"
           transform="matrix(1.0629921,0,0,-1.0629921,-186.02362,789.27165)"
           xml:space="preserve"
           stroke-miterlimit="10.433"
           font-style="normal"
           font-variant="normal"
           font-weight="normal"
           font-stretch="normal"
           font-size-adjust="none"
           letter-spacing="normal"
           word-spacing="normal"
           style="font-style:normal;font-variant:normal;font-weight:normal;font-stretch:normal;letter-spacing:normal;word-spacing:normal;text-anchor:start;fill:none;stroke:#000000;stroke-linecap:butt;stroke-linejoin:miter;stroke-miterlimit:10.43299961;stroke-opacity:1;stroke-dasharray:none;stroke-dashoffset:0"><polygon
             points="464.79,446.52 464.79,390.77 457.21,390.77 457.21,388.77 466.78,388.77 466.78,448.52 457.21,448.52 457.21,446.52 "
             id="polygon8045"
             style="fill:#000000;stroke-width:0" /></g>      </g>
    </g>
    <g
       id="g8366"
       transform="translate(0,127.49245)">
      <g
         transform="translate(-444.79643,-93.143142)"
         id="g8368">
        <g
           style="font-style:normal;font-variant:normal;font-weight:normal;font-stretch:normal;letter-spacing:normal;word-spacing:normal;text-anchor:start;fill:none;stroke:#000000;stroke-linecap:butt;stroke-linejoin:miter;stroke-miterlimit:10.43299961;stroke-opacity:1;stroke-dasharray:none;stroke-dashoffset:0"
           word-spacing="normal"
           letter-spacing="normal"
           font-size-adjust="none"
           font-stretch="normal"
           font-weight="normal"
           font-variant="normal"
           font-style="normal"
           stroke-miterlimit="10.433"
           xml:space="preserve"
           transform="matrix(1.0629921,0,0,-1.0629921,-186.02362,789.27165)"
           id="g8370"><path
             style="fill:#000000;stroke-width:0"
             inkscape:connector-curvature="0"
             id="path8372"
             d="m 472.71,406.15 0.29,0 0.29,-0.01 0.28,0 0.27,-0.01 0.27,0 0.25,-0.01 0.25,0 0.24,0 0.23,-0.01 0.23,0 0.21,-0.01 0.21,0 0.21,0 0.19,-0.01 0.19,0 0.19,0 0.17,0 0.18,-0.01 0.16,0 0.16,0 0.3,-0.01 0.28,0 0.26,0 0.24,-0.01 0.22,0 0.21,0 0.19,-0.01 0.17,0 0.17,0 0.15,0 0.14,0 0.13,0 0.12,0 0.11,-0.01 0.21,0 0.2,0 0.2,0 0.2,0 c 1.54,0 1.59,0 8.37,0.16 0,2.89 0.3,5.58 0.8,8.17 h -1.75 c -0.1,-0.8 -0.19,-1.5 -0.25,-1.69 -0.3,-2.15 -0.94,-3.68 -1.64,-3.93 -1.05,-0.36 -4.69,-0.61 -9.17,-0.61 -2.58,0 -3.49,0.11 -4.93,0.4 v 13.96 c 1.39,0.09 2.89,0.14 5.13,0.14 3.69,0 5.03,-0.14 5.94,-0.6 l 0.39,-1.25 0.25,-2.93 h 1.5 c -0.16,3.64 -0.16,4.64 -0.16,5.53 0,0.79 0,2.29 0.16,5.78 h -1.5 l -0.25,-2.6 c -0.05,-0.45 -0.21,-0.89 -0.39,-1.29 -0.91,-0.39 -2.3,-0.55 -5.58,-0.55 -2.1,0 -3.8,0.05 -5.49,0.16 v 13.29 c 1.55,0.35 2.39,0.41 5.83,0.41 2.85,0 5.63,-0.25 7.22,-0.7 1.2,-0.3 1.34,-0.55 1.34,-1.69 v -3.25 h 1.75 c 0,3 0.25,5.39 0.8,7.58 -2.44,0.09 -3.98,0.14 -6.17,0.14 -1.25,0 -2.89,0 -4.94,-0.05 -1.2,-0.05 -2.25,-0.05 -3.19,-0.05 -2.89,-0.04 -6.28,-0.04 -8.03,-0.04 l -1.18,-1.5 c 1.59,-0.1 1.84,-0.55 1.84,-4.49 h 0 v -22.36 c 0,-3.93 -0.25,-4.34 -1.84,-4.48 -1.6,0.14 -1.9,0.55 -1.9,4.48 v 22.36 c 0,3.94 0.3,4.35 1.9,4.49 l 1.18,1.5 c -2.58,0 -7.17,0.04 -10.11,0.14 v -1.49 l 2.19,-0.15 c 2.05,-0.14 2.55,-0.55 2.55,-4.49 v -22.36 c 0,-3.93 -0.5,-4.39 -2.55,-4.48 l -2.19,-0.16 v -1.5 c 2.94,0.11 7.53,0.16 10.11,0.16 0.25,0 4.1,0 5.99,-0.05 z" /><polygon
             style="fill:#000000;stroke-width:0"
             id="polygon8374"
             points="513.3,446.52 513.3,448.52 503.74,448.52 503.74,388.77 513.3,388.77 513.3,390.77 505.74,390.77 505.74,446.52 " /></g>      </g>
      <g
         transform="translate(805.92997,-93.143142)"
         id="g8376">
        <g
           style="font-style:normal;font-variant:normal;font-weight:normal;font-stretch:normal;letter-spacing:normal;word-spacing:normal;text-anchor:start;fill:none;stroke:#000000;stroke-linecap:butt;stroke-linejoin:miter;stroke-miterlimit:10.43299961;stroke-opacity:1;stroke-dasharray:none;stroke-dashoffset:0"
           word-spacing="normal"
           letter-spacing="normal"
           font-size-adjust="none"
           font-stretch="normal"
           font-weight="normal"
           font-variant="normal"
           font-style="normal"
           stroke-miterlimit="10.433"
           xml:space="preserve"
           transform="matrix(1.0629921,0,0,-1.0629921,-186.02362,789.27165)"
           id="g8378"><polygon
             style="fill:#000000;stroke-width:0"
             id="polygon8380"
             points="464.79,390.77 457.21,390.77 457.21,388.77 466.78,388.77 466.78,448.52 457.21,448.52 457.21,446.52 464.79,446.52 " /></g>      </g>
    </g>
    <g
       id="g8399"
       transform="matrix(0.75,0,0,0.75,791.14821,244.34307)">
      <g
         id="g8401"
         transform="matrix(1.0629921,0,0,-1.0629921,-186.02362,789.27165)"
         xml:space="preserve"
         stroke-miterlimit="10.433"
         font-style="normal"
         font-variant="normal"
         font-weight="normal"
         font-stretch="normal"
         font-size-adjust="none"
         letter-spacing="normal"
         word-spacing="normal"
         style="font-style:normal;font-variant:normal;font-weight:normal;font-stretch:normal;letter-spacing:normal;word-spacing:normal;text-anchor:start;fill:none;stroke:#000000;stroke-width:1.33333337;stroke-linecap:butt;stroke-linejoin:miter;stroke-miterlimit:10.43299961;stroke-opacity:1;stroke-dasharray:none;stroke-dashoffset:0"><path
           d="m 467.86,422.84 h 5.82 c 1.35,0 2.89,-0.05 5.28,-0.16 l 1.3,-0.04 0.94,2.25 -0.2,0.34 c -4.04,-0.2 -7.02,-0.3 -10.91,-0.3 h -1.84 l 2.09,11.86 c 0.16,0.8 0.25,1.19 0.45,1.6 l 2.35,0.09 c 1.59,0.05 3.18,0.11 4.28,0.11 3.09,0 5.12,-0.45 5.17,-1.2 l 0.41,-4.44 h 1.2 c 0.14,3.19 0.48,5.69 1.03,7.58 -1.03,0.09 -2.53,0.14 -3.44,0.14 -0.14,0 -0.68,0 -1.89,-0.05 l -5.97,-0.05 c -0.45,-0.04 -3.39,-0.04 -3.89,-0.04 -1.84,0 -3.18,0 -5.73,0.09 l -2.24,0.05 -0.15,-1.39 2.69,-0.1 c 1.2,-0.04 1.75,-0.45 1.75,-1.34 0,-0.7 -0.21,-2.3 -0.46,-3.8 l -4.33,-25.11 c -0.2,-0.89 -0.79,-1.23 -2.98,-1.59 l -0.25,-1.3 2.03,0.07 c 1.55,0.04 4.64,0.09 5.64,0.09 l 10.7,-0.16 h 0.5 c 0.71,0 1.94,0.07 3.6,0.11 l 1.64,0.05 0.2,1.8 c 0.1,1 0.35,2.48 0.8,4.92 l 0.25,1.29 h -1.34 l -0.8,-2.98 c -0.5,-1.8 -0.95,-2.39 -2.05,-2.64 -1,-0.2 -4.64,-0.45 -7.33,-0.45 -2.04,0 -3.14,0.06 -6.57,0.36 v 0.18 c 0,0.71 0.04,1.11 0.1,1.55 z"
           id="path8403"
           inkscape:connector-curvature="0"
           style="fill:#000000;stroke-width:0" /><path
           d="m 501.48,407.86 0,0 0,0.01 0,0.01 0.01,0.02 0.01,0.06 0.01,0.07 0.02,0.1 0.02,0.11 0.03,0.13 0.02,0.15 0.03,0.17 0.04,0.18 0.03,0.2 0.04,0.21 0.05,0.23 0.04,0.23 0.04,0.25 0.05,0.26 0.05,0.27 0.05,0.28 0.05,0.29 0.06,0.29 0.05,0.3 0.06,0.31 0.11,0.63 0.12,0.65 0.11,0.65 0.12,0.65 0.11,0.64 c 0.61,3.57 1.03,5.43 1.72,7.47 l -0.42,0.57 c -0.77,-0.46 -1.79,-0.91 -2.96,-1.36 -1.06,-7.52 -2.12,-14.46 -3.42,-21.58 -1.97,0.2 -4.55,0.95 -4.55,3.98 0,0.58 0.08,1.3 0.24,2.02 l 1.54,7.92 c 0.13,0.59 0.19,1.13 0.19,1.63 0,0.71 -0.29,1.17 -0.83,1.17 -0.79,0 -2.2,-0.75 -5.04,-2.8 l -1.07,-0.77 0.27,-0.75 1.22,0.8 c 1.09,0.67 1.48,0.86 1.83,0.86 0.37,0 0.64,-0.33 0.64,-0.75 0,-0.19 -0.05,-0.5 -0.08,-0.69 l -1.63,-8.64 c -0.04,-0.29 -0.04,-0.64 -0.04,-0.93 0,-2.63 2.81,-5.02 6.59,-5.02 h 0.35 c -0.54,-2.77 -1.1,-5.53 -1.71,-8.41 l -0.29,-1.4 0.25,-0.22 c 0.79,0.25 1.56,0.45 2.78,0.64 l 1.57,9.7 c 1.49,0.3 3.35,1.06 5.24,2.8 1.67,1.51 2.81,3.3 3.91,5.69 0.95,2.01 1.59,4.59 1.59,6.17 0,2.2 -0.95,3.72 -2.34,3.72 -0.54,0 -0.93,-0.16 -1.27,-0.46 l -1.89,-1.78 0.42,-0.72 c 0.34,0.24 0.64,0.35 1.02,0.35 1.06,0 1.64,-0.88 1.64,-2.39 0,-8.08 -4.41,-11.19 -8.05,-11.67 z"
           id="path8405"
           inkscape:connector-curvature="0"
           style="fill:#000000;stroke-width:0" /></g>    </g>
    <g
       transform="matrix(0.75,0,0,0.75,791.14814,117.10059)"
       id="g3151">
      <g
         style="font-style:normal;font-variant:normal;font-weight:normal;font-stretch:normal;letter-spacing:normal;word-spacing:normal;text-anchor:start;fill:none;stroke:#000000;stroke-width:1.33333337;stroke-linecap:butt;stroke-linejoin:miter;stroke-miterlimit:10.43299961;stroke-opacity:1;stroke-dasharray:none;stroke-dashoffset:0"
         word-spacing="normal"
         letter-spacing="normal"
         font-size-adjust="none"
         font-stretch="normal"
         font-weight="normal"
         font-variant="normal"
         font-style="normal"
         stroke-miterlimit="10.433"
         xml:space="preserve"
         transform="matrix(1.0629921,0,0,-1.0629921,-186.02362,789.27165)"
         id="g3153"><path
           style="fill:#000000;stroke-width:0"
           inkscape:connector-curvature="0"
           id="path3155"
           d="m 467.86,422.84 h 5.82 c 1.35,0 2.89,-0.05 5.28,-0.16 l 1.3,-0.04 0.94,2.25 -0.2,0.34 c -4.04,-0.2 -7.02,-0.3 -10.91,-0.3 h -1.84 l 2.09,11.86 c 0.16,0.8 0.25,1.19 0.45,1.6 l 2.35,0.09 c 1.59,0.05 3.18,0.11 4.28,0.11 3.09,0 5.12,-0.45 5.17,-1.2 l 0.41,-4.44 h 1.2 c 0.14,3.19 0.48,5.69 1.03,7.58 -1.03,0.09 -2.53,0.14 -3.44,0.14 -0.14,0 -0.68,0 -1.89,-0.05 l -5.97,-0.05 c -0.45,-0.04 -3.39,-0.04 -3.89,-0.04 -1.84,0 -3.18,0 -5.73,0.09 l -2.24,0.05 -0.15,-1.39 2.69,-0.1 c 1.2,-0.04 1.75,-0.45 1.75,-1.34 0,-0.7 -0.21,-2.3 -0.46,-3.8 l -4.33,-25.11 c -0.2,-0.89 -0.79,-1.23 -2.98,-1.59 l -0.25,-1.3 2.03,0.07 c 1.55,0.04 4.64,0.09 5.64,0.09 l 10.7,-0.16 h 0.5 c 0.71,0 1.94,0.07 3.6,0.11 l 1.64,0.05 0.2,1.8 c 0.1,1 0.35,2.48 0.8,4.92 l 0.25,1.29 h -1.34 l -0.8,-2.98 c -0.5,-1.8 -0.95,-2.39 -2.05,-2.64 -1,-0.2 -4.64,-0.45 -7.33,-0.45 -2.04,0 -3.14,0.06 -6.57,0.36 v 0.18 c 0,0.71 0.04,1.11 0.1,1.55 z" /><path
           style="fill:#000000;stroke-width:0"
           inkscape:connector-curvature="0"
           id="path3157"
           d="m 501.48,407.86 0,0 0,0.01 0,0.01 0.01,0.02 0.01,0.06 0.01,0.07 0.02,0.1 0.02,0.11 0.03,0.13 0.02,0.15 0.03,0.17 0.04,0.18 0.03,0.2 0.04,0.21 0.05,0.23 0.04,0.23 0.04,0.25 0.05,0.26 0.05,0.27 0.05,0.28 0.05,0.29 0.06,0.29 0.05,0.3 0.06,0.31 0.11,0.63 0.12,0.65 0.11,0.65 0.12,0.65 0.11,0.64 c 0.61,3.57 1.03,5.43 1.72,7.47 l -0.42,0.57 c -0.77,-0.46 -1.79,-0.91 -2.96,-1.36 -1.06,-7.52 -2.12,-14.46 -3.42,-21.58 -1.97,0.2 -4.55,0.95 -4.55,3.98 0,0.58 0.08,1.3 0.24,2.02 l 1.54,7.92 c 0.13,0.59 0.19,1.13 0.19,1.63 0,0.71 -0.29,1.17 -0.83,1.17 -0.79,0 -2.2,-0.75 -5.04,-2.8 l -1.07,-0.77 0.27,-0.75 1.22,0.8 c 1.09,0.67 1.48,0.86 1.83,0.86 0.37,0 0.64,-0.33 0.64,-0.75 0,-0.19 -0.05,-0.5 -0.08,-0.69 l -1.63,-8.64 c -0.04,-0.29 -0.04,-0.64 -0.04,-0.93 0,-2.63 2.81,-5.02 6.59,-5.02 h 0.35 c -0.54,-2.77 -1.1,-5.53 -1.71,-8.41 l -0.29,-1.4 0.25,-0.22 c 0.79,0.25 1.56,0.45 2.78,0.64 l 1.57,9.7 c 1.49,0.3 3.35,1.06 5.24,2.8 1.67,1.51 2.81,3.3 3.91,5.69 0.95,2.01 1.59,4.59 1.59,6.17 0,2.2 -0.95,3.72 -2.34,3.72 -0.54,0 -0.93,-0.16 -1.27,-0.46 l -1.89,-1.78 0.42,-0.72 c 0.34,0.24 0.64,0.35 1.02,0.35 1.06,0 1.64,-0.88 1.64,-2.39 0,-8.08 -4.41,-11.19 -8.05,-11.67 z" /></g>    </g>
  </g>
</svg>
