<?xml version="1.0" encoding="utf-8" standalone="no"?>
<!DOCTYPE svg PUBLIC "-//W3C//DTD SVG 1.1//EN"
  "http://www.w3.org/Graphics/SVG/1.1/DTD/svg11.dtd">
<!-- Created with matplotlib (http://matplotlib.org/) -->
<svg height="288pt" version="1.1" viewBox="0 0 432 288" width="432pt" xmlns="http://www.w3.org/2000/svg" xmlns:xlink="http://www.w3.org/1999/xlink">
 <defs>
  <style type="text/css">
*{stroke-linecap:butt;stroke-linejoin:round;stroke-miterlimit:100000;}
  </style>
 </defs>
 <g id="figure_1">
  <g id="patch_1">
   <path d="M 0 288 
L 432 288 
L 432 0 
L 0 0 
L 0 288 
z
" style="fill:none;"/>
  </g>
  <g id="axes_1">
   <g id="patch_2">
    <path d="M 54 252 
L 388.8 252 
L 388.8 28.8 
L 54 28.8 
L 54 252 
z
" style="fill:none;"/>
   </g>
   <g id="matplotlib.axis_1">
    <g id="xtick_1">
     <g id="line2d_1">
      <path clip-path="url(#pfb3a11b9f5)" d="M 54 252 
L 54 28.8 
" style="fill:none;stroke:#ffffff;stroke-linecap:square;stroke-width:0.5;"/>
     </g>
     <g id="line2d_2">
      <defs>
       <path d="M 0 0 
L 0 4 
" id="md0a79532ad" style="stroke:#555555;stroke-width:0.5;"/>
      </defs>
      <g>
       <use style="fill:#555555;stroke:#555555;stroke-width:0.5;" x="54.0" xlink:href="#md0a79532ad" y="252.0"/>
      </g>
     </g>
     <g id="line2d_3">
      <defs>
       <path d="M 0 0 
L 0 -4 
" id="mbe94231fda" style="stroke:#555555;stroke-width:0.5;"/>
      </defs>
      <g>
       <use style="fill:#555555;stroke:#555555;stroke-width:0.5;" x="54.0" xlink:href="#mbe94231fda" y="28.8"/>
      </g>
     </g>
     <g id="text_1">
      <!-- 0.0 -->
      <defs>
       <path d="M 12.5 -1.203125 
C 15.703125 -1.203125 18.40625 1.40625 18.40625 5 
C 18.40625 8.796875 15.703125 11.40625 12.5 11.40625 
C 9.203125 11.40625 6.5 8.796875 6.5 5 
C 6.5 1.40625 9.203125 -1.203125 12.5 -1.203125 
" id="SourceSansPro-Regular-2e"/>
       <path d="M 24.90625 -1.203125 
C 37.59375 -1.203125 45.296875 10.703125 45.296875 32.09375 
C 45.296875 53.5 37.59375 65 24.90625 65 
C 12.09375 65 4.40625 53.5 4.40625 32.09375 
C 4.40625 10.703125 12.09375 -1.203125 24.90625 -1.203125 
M 24.90625 5.40625 
C 17.40625 5.40625 12.40625 13.40625 12.40625 32.09375 
C 12.40625 50.796875 17.40625 58.40625 24.90625 58.40625 
C 32.296875 58.40625 37.296875 50.796875 37.296875 32.09375 
C 37.296875 13.40625 32.296875 5.40625 24.90625 5.40625 
" id="SourceSansPro-Regular-30"/>
      </defs>
      <g style="fill:#555555;" transform="translate(47.47359375 267.476328125)scale(0.105 -0.105)">
       <use xlink:href="#SourceSansPro-Regular-30"/>
       <use x="49.6999969482" xlink:href="#SourceSansPro-Regular-2e"/>
       <use x="74.5999908447" xlink:href="#SourceSansPro-Regular-30"/>
      </g>
     </g>
    </g>
    <g id="xtick_2">
     <g id="line2d_4">
      <path clip-path="url(#pfb3a11b9f5)" d="M 120.96 252 
L 120.96 28.8 
" style="fill:none;stroke:#ffffff;stroke-linecap:square;stroke-width:0.5;"/>
     </g>
     <g id="line2d_5">
      <g>
       <use style="fill:#555555;stroke:#555555;stroke-width:0.5;" x="120.96" xlink:href="#md0a79532ad" y="252.0"/>
      </g>
     </g>
     <g id="line2d_6">
      <g>
       <use style="fill:#555555;stroke:#555555;stroke-width:0.5;" x="120.96" xlink:href="#mbe94231fda" y="28.8"/>
      </g>
     </g>
     <g id="text_2">
      <!-- 0.1 -->
      <defs>
       <path d="M 7.90625 0 
L 43.90625 0 
L 43.90625 6.796875 
L 30.703125 6.796875 
L 30.703125 63.796875 
L 24.40625 63.796875 
C 20.90625 61.703125 16.703125 60.09375 10.90625 59.09375 
L 10.90625 53.796875 
L 22.5 53.796875 
L 22.5 6.796875 
L 7.90625 6.796875 
z
" id="SourceSansPro-Regular-31"/>
      </defs>
      <g style="fill:#555555;" transform="translate(114.43359375 267.476328125)scale(0.105 -0.105)">
       <use xlink:href="#SourceSansPro-Regular-30"/>
       <use x="49.6999969482" xlink:href="#SourceSansPro-Regular-2e"/>
       <use x="74.5999908447" xlink:href="#SourceSansPro-Regular-31"/>
      </g>
     </g>
    </g>
    <g id="xtick_3">
     <g id="line2d_7">
      <path clip-path="url(#pfb3a11b9f5)" d="M 187.92 252 
L 187.92 28.8 
" style="fill:none;stroke:#ffffff;stroke-linecap:square;stroke-width:0.5;"/>
     </g>
     <g id="line2d_8">
      <g>
       <use style="fill:#555555;stroke:#555555;stroke-width:0.5;" x="187.92" xlink:href="#md0a79532ad" y="252.0"/>
      </g>
     </g>
     <g id="line2d_9">
      <g>
       <use style="fill:#555555;stroke:#555555;stroke-width:0.5;" x="187.92" xlink:href="#mbe94231fda" y="28.8"/>
      </g>
     </g>
     <g id="text_3">
      <!-- 0.2 -->
      <defs>
       <path d="M 4 0 
L 45.203125 0 
L 45.203125 7.09375 
L 26.703125 7.09375 
C 23.40625 7.09375 19.5 6.796875 16 6.5 
C 31.09375 22.296875 42 34.203125 42 46.203125 
C 42 57.5 34.703125 65 22.90625 65 
C 14.59375 65 8.90625 61.09375 3.59375 55.296875 
L 8.296875 50.59375 
C 12 54.90625 16.59375 58.296875 21.90625 58.296875 
C 30 58.296875 34 53.09375 34 45.796875 
C 34 35.5 23.203125 24 4 4.90625 
z
" id="SourceSansPro-Regular-32"/>
      </defs>
      <g style="fill:#555555;" transform="translate(181.39359375 267.476328125)scale(0.105 -0.105)">
       <use xlink:href="#SourceSansPro-Regular-30"/>
       <use x="49.6999969482" xlink:href="#SourceSansPro-Regular-2e"/>
       <use x="74.5999908447" xlink:href="#SourceSansPro-Regular-32"/>
      </g>
     </g>
    </g>
    <g id="xtick_4">
     <g id="line2d_10">
      <path clip-path="url(#pfb3a11b9f5)" d="M 254.88 252 
L 254.88 28.8 
" style="fill:none;stroke:#ffffff;stroke-linecap:square;stroke-width:0.5;"/>
     </g>
     <g id="line2d_11">
      <g>
       <use style="fill:#555555;stroke:#555555;stroke-width:0.5;" x="254.88" xlink:href="#md0a79532ad" y="252.0"/>
      </g>
     </g>
     <g id="line2d_12">
      <g>
       <use style="fill:#555555;stroke:#555555;stroke-width:0.5;" x="254.88" xlink:href="#mbe94231fda" y="28.8"/>
      </g>
     </g>
     <g id="text_4">
      <!-- 0.3 -->
      <defs>
       <path d="M 23.59375 -1.203125 
C 35.296875 -1.203125 44.59375 5.703125 44.59375 17 
C 44.59375 25.796875 38.5 31.40625 30.796875 33.203125 
L 30.796875 33.59375 
C 37.703125 36.203125 42.40625 41.09375 42.40625 48.796875 
C 42.40625 59.09375 34.40625 65 23.296875 65 
C 15.796875 65 9.90625 61.59375 5 57 
L 9.40625 51.796875 
C 13.203125 55.59375 17.703125 58.296875 23 58.296875 
C 29.796875 58.296875 34 54.40625 34 48.203125 
C 34 41.5 29.5 36.296875 15.90625 36.296875 
L 15.90625 30 
C 31.09375 30 36.296875 24.90625 36.296875 17.296875 
C 36.296875 10.203125 30.796875 5.59375 23.09375 5.59375 
C 15.59375 5.59375 10.59375 9.203125 6.796875 13.203125 
L 2.59375 7.796875 
C 6.90625 3.09375 13.40625 -1.203125 23.59375 -1.203125 
" id="SourceSansPro-Regular-33"/>
      </defs>
      <g style="fill:#555555;" transform="translate(248.35359375 267.476328125)scale(0.105 -0.105)">
       <use xlink:href="#SourceSansPro-Regular-30"/>
       <use x="49.6999969482" xlink:href="#SourceSansPro-Regular-2e"/>
       <use x="74.5999908447" xlink:href="#SourceSansPro-Regular-33"/>
      </g>
     </g>
    </g>
    <g id="xtick_5">
     <g id="line2d_13">
      <path clip-path="url(#pfb3a11b9f5)" d="M 321.84 252 
L 321.84 28.8 
" style="fill:none;stroke:#ffffff;stroke-linecap:square;stroke-width:0.5;"/>
     </g>
     <g id="line2d_14">
      <g>
       <use style="fill:#555555;stroke:#555555;stroke-width:0.5;" x="321.84" xlink:href="#md0a79532ad" y="252.0"/>
      </g>
     </g>
     <g id="line2d_15">
      <g>
       <use style="fill:#555555;stroke:#555555;stroke-width:0.5;" x="321.84" xlink:href="#mbe94231fda" y="28.8"/>
      </g>
     </g>
     <g id="text_5">
      <!-- 0.4 -->
      <defs>
       <path d="M 30.40625 0 
L 38.203125 0 
L 38.203125 17.59375 
L 46.90625 17.59375 
L 46.90625 24.203125 
L 38.203125 24.203125 
L 38.203125 63.796875 
L 29 63.796875 
L 1.703125 23 
L 1.703125 17.59375 
L 30.40625 17.59375 
z
M 10.40625 24.203125 
L 25.296875 46 
C 27.09375 49.09375 28.90625 51.90625 30.5 55 
L 30.90625 55 
C 30.703125 51.59375 30.40625 46.09375 30.40625 42.703125 
L 30.40625 24.203125 
z
" id="SourceSansPro-Regular-34"/>
      </defs>
      <g style="fill:#555555;" transform="translate(315.31359375 267.476328125)scale(0.105 -0.105)">
       <use xlink:href="#SourceSansPro-Regular-30"/>
       <use x="49.6999969482" xlink:href="#SourceSansPro-Regular-2e"/>
       <use x="74.5999908447" xlink:href="#SourceSansPro-Regular-34"/>
      </g>
     </g>
    </g>
    <g id="xtick_6">
     <g id="line2d_16">
      <path clip-path="url(#pfb3a11b9f5)" d="M 388.8 252 
L 388.8 28.8 
" style="fill:none;stroke:#ffffff;stroke-linecap:square;stroke-width:0.5;"/>
     </g>
     <g id="line2d_17">
      <g>
       <use style="fill:#555555;stroke:#555555;stroke-width:0.5;" x="388.8" xlink:href="#md0a79532ad" y="252.0"/>
      </g>
     </g>
     <g id="line2d_18">
      <g>
       <use style="fill:#555555;stroke:#555555;stroke-width:0.5;" x="388.8" xlink:href="#mbe94231fda" y="28.8"/>
      </g>
     </g>
     <g id="text_6">
      <!-- 0.5 -->
      <defs>
       <path d="M 23.40625 -1.203125 
C 34.5 -1.203125 44.90625 6.59375 44.90625 20.40625 
C 44.90625 34.203125 36 40.40625 25.09375 40.40625 
C 21.203125 40.40625 18.296875 39.40625 15.296875 37.796875 
L 17 56.703125 
L 41.703125 56.703125 
L 41.703125 63.796875 
L 9.796875 63.796875 
L 7.703125 33.09375 
L 12.09375 30.296875 
C 15.90625 32.796875 18.59375 34.203125 23 34.203125 
C 31.203125 34.203125 36.59375 29 36.59375 20.203125 
C 36.59375 11.296875 30.40625 5.59375 22.59375 5.59375 
C 15.09375 5.59375 10.296875 9.09375 6.5 12.90625 
L 2.5 7.5 
C 6.90625 3.09375 13.203125 -1.203125 23.40625 -1.203125 
" id="SourceSansPro-Regular-35"/>
      </defs>
      <g style="fill:#555555;" transform="translate(382.27359375 267.476328125)scale(0.105 -0.105)">
       <use xlink:href="#SourceSansPro-Regular-30"/>
       <use x="49.6999969482" xlink:href="#SourceSansPro-Regular-2e"/>
       <use x="74.5999908447" xlink:href="#SourceSansPro-Regular-35"/>
      </g>
     </g>
    </g>
    <g id="text_7">
     <!-- Time (µs) -->
     <defs>
      <path d="M 8.203125 -17.90625 
L 16.5 -17.90625 
C 16 -10.203125 15.90625 -5.90625 15.796875 3.703125 
C 18.09375 -0.09375 21.296875 -1 25.203125 -1 
C 30.5 -1 35.203125 2 38.703125 8.203125 
L 38.90625 8.203125 
C 39.59375 1.703125 42.203125 -1.203125 47.703125 -1.203125 
C 50.40625 -1.203125 52.09375 -0.703125 53.5 0 
L 52.40625 6.203125 
C 51.296875 5.796875 50.296875 5.59375 49.5 5.59375 
C 47.40625 5.59375 45.90625 6.796875 45.90625 9.5 
C 45.90625 21.203125 46.296875 35.5 46.5 48.59375 
L 38.203125 48.59375 
L 38.203125 15.40625 
C 33.703125 7.40625 29.703125 5.90625 25.296875 5.90625 
C 19 5.90625 16.40625 10.296875 16.40625 18.90625 
L 16.40625 48.59375 
L 8.203125 48.59375 
z
" id="SourceSansPro-Regular-b5"/>
      <path d="M 8.203125 0 
L 16.40625 0 
L 16.40625 35.203125 
C 20.90625 40.203125 25 42.703125 28.59375 42.703125 
C 34.796875 42.703125 37.703125 38.796875 37.703125 29.703125 
L 37.703125 0 
L 45.90625 0 
L 45.90625 35.203125 
C 50.40625 40.203125 54.296875 42.703125 58.09375 42.703125 
C 64.203125 42.703125 67.09375 38.796875 67.09375 29.703125 
L 67.09375 0 
L 75.296875 0 
L 75.296875 30.796875 
C 75.296875 43.203125 70.5 49.796875 60.5 49.796875 
C 54.59375 49.796875 49.59375 46 44.5 40.5 
C 42.5 46.296875 38.5 49.796875 31.09375 49.796875 
C 25.296875 49.796875 20.203125 46.203125 16 41.59375 
L 15.703125 41.59375 
L 15 48.59375 
L 8.203125 48.59375 
z
" id="SourceSansPro-Regular-6d"/>
      <path d="M 8.203125 0 
L 16.40625 0 
L 16.40625 48.59375 
L 8.203125 48.59375 
z
M 12.40625 58.59375 
C 15.59375 58.59375 18.09375 60.796875 18.09375 63.90625 
C 18.09375 67.09375 15.59375 69.203125 12.40625 69.203125 
C 9.203125 69.203125 6.703125 67.09375 6.703125 63.90625 
C 6.703125 60.796875 9.203125 58.59375 12.40625 58.59375 
" id="SourceSansPro-Regular-69"/>
      <path d="M 8.90625 -17.59375 
C 17.203125 -4.203125 22.09375 10.203125 22.09375 27.796875 
C 22.09375 45.40625 17.203125 59.796875 8.90625 73.203125 
L 3.796875 70.796875 
C 11.5 58.09375 15.296875 43 15.296875 27.796875 
C 15.296875 12.59375 11.5 -2.5 3.796875 -15.203125 
z
" id="SourceSansPro-Regular-29"/>
      <path id="SourceSansPro-Regular-20"/>
      <path d="M 22.59375 0 
L 31 0 
L 31 58.59375 
L 50.796875 58.59375 
L 50.796875 65.59375 
L 2.796875 65.59375 
L 2.796875 58.59375 
L 22.59375 58.59375 
z
" id="SourceSansPro-Regular-54"/>
      <path d="M 20.90625 -1.203125 
C 32.40625 -1.203125 38.703125 5.40625 38.703125 13.296875 
C 38.703125 22.5 30.90625 25.40625 23.90625 28 
C 18.40625 30.09375 13.09375 31.796875 13.09375 36.40625 
C 13.09375 40.09375 15.90625 43.40625 22 43.40625 
C 26.296875 43.40625 29.796875 41.59375 33.09375 39.09375 
L 37 44.296875 
C 33.296875 47.296875 28 49.796875 21.90625 49.796875 
C 11.40625 49.796875 5.203125 43.796875 5.203125 36 
C 5.203125 27.796875 12.796875 24.5 19.703125 22 
C 25 20 30.796875 17.796875 30.796875 12.796875 
C 30.796875 8.59375 27.59375 5.203125 21.203125 5.203125 
C 15.40625 5.203125 11.09375 7.59375 6.90625 11 
L 2.796875 5.5 
C 7.40625 1.703125 14 -1.203125 20.90625 -1.203125 
" id="SourceSansPro-Regular-73"/>
      <path d="M 27.90625 -1.203125 
C 34.5 -1.203125 39.703125 1.09375 43.90625 3.796875 
L 41 9.203125 
C 37.40625 6.90625 33.5 5.40625 28.90625 5.40625 
C 19.59375 5.40625 13.296875 12 12.703125 22.296875 
L 45.5 22.296875 
C 45.703125 23.5 45.796875 25.296875 45.796875 27 
C 45.796875 40.90625 38.796875 49.796875 26.40625 49.796875 
C 15.296875 49.796875 4.59375 40.09375 4.59375 24.203125 
C 4.59375 8.296875 14.90625 -1.203125 27.90625 -1.203125 
M 12.59375 28.203125 
C 13.59375 37.796875 19.796875 43.296875 26.59375 43.296875 
C 34.203125 43.296875 38.59375 38 38.59375 28.203125 
z
" id="SourceSansPro-Regular-65"/>
      <path d="M 21.40625 -17.59375 
L 26.5 -15.203125 
C 18.796875 -2.5 15 12.59375 15 27.796875 
C 15 43 18.796875 58.09375 26.5 70.796875 
L 21.40625 73.203125 
C 13.09375 59.796875 8.203125 45.40625 8.203125 27.796875 
C 8.203125 10.203125 13.09375 -4.203125 21.40625 -17.59375 
" id="SourceSansPro-Regular-28"/>
     </defs>
     <g style="fill:#555555;" transform="translate(198.0365625 283.173203125)scale(0.12 -0.12)">
      <use xlink:href="#SourceSansPro-Regular-54"/>
      <use x="53.5999908447" xlink:href="#SourceSansPro-Regular-69"/>
      <use x="78.1999816895" xlink:href="#SourceSansPro-Regular-6d"/>
      <use x="161.099975586" xlink:href="#SourceSansPro-Regular-65"/>
      <use x="210.699966431" xlink:href="#SourceSansPro-Regular-20"/>
      <use x="230.699951172" xlink:href="#SourceSansPro-Regular-28"/>
      <use x="260.999938965" xlink:href="#SourceSansPro-Regular-b5"/>
      <use x="317.199935913" xlink:href="#SourceSansPro-Regular-73"/>
      <use x="359.09992981" xlink:href="#SourceSansPro-Regular-29"/>
     </g>
    </g>
   </g>
   <g id="matplotlib.axis_2">
    <g id="ytick_1">
     <g id="line2d_19">
      <path clip-path="url(#pfb3a11b9f5)" d="M 54 252 
L 388.8 252 
" style="fill:none;stroke:#ffffff;stroke-linecap:square;stroke-width:0.5;"/>
     </g>
     <g id="line2d_20">
      <defs>
       <path d="M 0 0 
L -4 0 
" id="m444e3a6460" style="stroke:#555555;stroke-width:0.5;"/>
      </defs>
      <g>
       <use style="fill:#555555;stroke:#555555;stroke-width:0.5;" x="54.0" xlink:href="#m444e3a6460" y="252.0"/>
      </g>
     </g>
     <g id="line2d_21">
      <defs>
       <path d="M 0 0 
L 4 0 
" id="m8d1613fe64" style="stroke:#555555;stroke-width:0.5;"/>
      </defs>
      <g>
       <use style="fill:#555555;stroke:#555555;stroke-width:0.5;" x="388.8" xlink:href="#m8d1613fe64" y="252.0"/>
      </g>
     </g>
     <g id="text_8">
      <!-- 0.0 -->
      <g style="fill:#555555;" transform="translate(32.9471875 254.661914062)scale(0.105 -0.105)">
       <use xlink:href="#SourceSansPro-Regular-30"/>
       <use x="49.6999969482" xlink:href="#SourceSansPro-Regular-2e"/>
       <use x="74.5999908447" xlink:href="#SourceSansPro-Regular-30"/>
      </g>
     </g>
    </g>
    <g id="ytick_2">
     <g id="line2d_22">
      <path clip-path="url(#pfb3a11b9f5)" d="M 54 207.36 
L 388.8 207.36 
" style="fill:none;stroke:#ffffff;stroke-linecap:square;stroke-width:0.5;"/>
     </g>
     <g id="line2d_23">
      <g>
       <use style="fill:#555555;stroke:#555555;stroke-width:0.5;" x="54.0" xlink:href="#m444e3a6460" y="207.36"/>
      </g>
     </g>
     <g id="line2d_24">
      <g>
       <use style="fill:#555555;stroke:#555555;stroke-width:0.5;" x="388.8" xlink:href="#m8d1613fe64" y="207.36"/>
      </g>
     </g>
     <g id="text_9">
      <!-- 0.2 -->
      <g style="fill:#555555;" transform="translate(32.9471875 210.021914063)scale(0.105 -0.105)">
       <use xlink:href="#SourceSansPro-Regular-30"/>
       <use x="49.6999969482" xlink:href="#SourceSansPro-Regular-2e"/>
       <use x="74.5999908447" xlink:href="#SourceSansPro-Regular-32"/>
      </g>
     </g>
    </g>
    <g id="ytick_3">
     <g id="line2d_25">
      <path clip-path="url(#pfb3a11b9f5)" d="M 54 162.72 
L 388.8 162.72 
" style="fill:none;stroke:#ffffff;stroke-linecap:square;stroke-width:0.5;"/>
     </g>
     <g id="line2d_26">
      <g>
       <use style="fill:#555555;stroke:#555555;stroke-width:0.5;" x="54.0" xlink:href="#m444e3a6460" y="162.72"/>
      </g>
     </g>
     <g id="line2d_27">
      <g>
       <use style="fill:#555555;stroke:#555555;stroke-width:0.5;" x="388.8" xlink:href="#m8d1613fe64" y="162.72"/>
      </g>
     </g>
     <g id="text_10">
      <!-- 0.4 -->
      <g style="fill:#555555;" transform="translate(32.9471875 165.381914063)scale(0.105 -0.105)">
       <use xlink:href="#SourceSansPro-Regular-30"/>
       <use x="49.6999969482" xlink:href="#SourceSansPro-Regular-2e"/>
       <use x="74.5999908447" xlink:href="#SourceSansPro-Regular-34"/>
      </g>
     </g>
    </g>
    <g id="ytick_4">
     <g id="line2d_28">
      <path clip-path="url(#pfb3a11b9f5)" d="M 54 118.08 
L 388.8 118.08 
" style="fill:none;stroke:#ffffff;stroke-linecap:square;stroke-width:0.5;"/>
     </g>
     <g id="line2d_29">
      <g>
       <use style="fill:#555555;stroke:#555555;stroke-width:0.5;" x="54.0" xlink:href="#m444e3a6460" y="118.08"/>
      </g>
     </g>
     <g id="line2d_30">
      <g>
       <use style="fill:#555555;stroke:#555555;stroke-width:0.5;" x="388.8" xlink:href="#m8d1613fe64" y="118.08"/>
      </g>
     </g>
     <g id="text_11">
      <!-- 0.6 -->
      <defs>
       <path d="M 26.796875 -1.203125 
C 37.09375 -1.203125 45.703125 7.09375 45.703125 19.296875 
C 45.703125 32.40625 38.5 39 27.5 39 
C 22.296875 39 16.59375 35.90625 12.59375 31 
C 13 51.203125 20.5 58.09375 29.40625 58.09375 
C 33.40625 58.09375 37.296875 56.203125 39.90625 53.09375 
L 44.5 58.203125 
C 40.90625 62.09375 36 65 29.09375 65 
C 16.40625 65 4.796875 55.09375 4.796875 29.5 
C 4.796875 9 14.296875 -1.203125 26.796875 -1.203125 
M 26.796875 5.296875 
C 18.703125 5.296875 13.796875 12 12.796875 24.40625 
C 16.796875 30.296875 22 32.796875 26.09375 32.796875 
C 34 32.796875 37.90625 27.59375 37.90625 19.296875 
C 37.90625 10.90625 33.09375 5.296875 26.796875 5.296875 
" id="SourceSansPro-Regular-36"/>
      </defs>
      <g style="fill:#555555;" transform="translate(32.9471875 120.741914062)scale(0.105 -0.105)">
       <use xlink:href="#SourceSansPro-Regular-30"/>
       <use x="49.6999969482" xlink:href="#SourceSansPro-Regular-2e"/>
       <use x="74.5999908447" xlink:href="#SourceSansPro-Regular-36"/>
      </g>
     </g>
    </g>
    <g id="ytick_5">
     <g id="line2d_31">
      <path clip-path="url(#pfb3a11b9f5)" d="M 54 73.44 
L 388.8 73.44 
" style="fill:none;stroke:#ffffff;stroke-linecap:square;stroke-width:0.5;"/>
     </g>
     <g id="line2d_32">
      <g>
       <use style="fill:#555555;stroke:#555555;stroke-width:0.5;" x="54.0" xlink:href="#m444e3a6460" y="73.44"/>
      </g>
     </g>
     <g id="line2d_33">
      <g>
       <use style="fill:#555555;stroke:#555555;stroke-width:0.5;" x="388.8" xlink:href="#m8d1613fe64" y="73.44"/>
      </g>
     </g>
     <g id="text_12">
      <!-- 0.8 -->
      <defs>
       <path d="M 25 -1.203125 
C 37.40625 -1.203125 45.59375 6.296875 45.59375 15.796875 
C 45.59375 24.40625 40.203125 28.90625 34.5 32.203125 
L 34.5 32.59375 
C 38.40625 35.59375 43.296875 41.296875 43.296875 48 
C 43.296875 57.90625 36.40625 65 25.296875 65 
C 15 65 7.203125 58.40625 7.203125 48.59375 
C 7.203125 41.90625 11.40625 37.203125 16.09375 33.90625 
L 16.09375 33.5 
C 10.09375 30.296875 4.09375 24.59375 4.09375 16.296875 
C 4.09375 6.203125 13 -1.203125 25 -1.203125 
M 29.5 34.796875 
C 21.796875 37.796875 14.796875 41 14.796875 48.59375 
C 14.796875 54.796875 19.203125 58.90625 25.09375 58.90625 
C 32.09375 58.90625 36.203125 53.90625 36.203125 47.59375 
C 36.203125 42.90625 33.796875 38.59375 29.5 34.796875 
M 25.203125 4.90625 
C 17.40625 4.90625 11.5 10 11.5 17.09375 
C 11.5 22.90625 15.296875 27.59375 20.40625 31 
C 29.59375 27.296875 37.703125 24.296875 37.703125 16.09375 
C 37.703125 9.5 32.59375 4.90625 25.203125 4.90625 
" id="SourceSansPro-Regular-38"/>
      </defs>
      <g style="fill:#555555;" transform="translate(32.9471875 76.1019140625)scale(0.105 -0.105)">
       <use xlink:href="#SourceSansPro-Regular-30"/>
       <use x="49.6999969482" xlink:href="#SourceSansPro-Regular-2e"/>
       <use x="74.5999908447" xlink:href="#SourceSansPro-Regular-38"/>
      </g>
     </g>
    </g>
    <g id="ytick_6">
     <g id="line2d_34">
      <path clip-path="url(#pfb3a11b9f5)" d="M 54 28.8 
L 388.8 28.8 
" style="fill:none;stroke:#ffffff;stroke-linecap:square;stroke-width:0.5;"/>
     </g>
     <g id="line2d_35">
      <g>
       <use style="fill:#555555;stroke:#555555;stroke-width:0.5;" x="54.0" xlink:href="#m444e3a6460" y="28.8"/>
      </g>
     </g>
     <g id="line2d_36">
      <g>
       <use style="fill:#555555;stroke:#555555;stroke-width:0.5;" x="388.8" xlink:href="#m8d1613fe64" y="28.8"/>
      </g>
     </g>
     <g id="text_13">
      <!-- 1.0 -->
      <g style="fill:#555555;" transform="translate(32.9471875 31.4619140625)scale(0.105 -0.105)">
       <use xlink:href="#SourceSansPro-Regular-31"/>
       <use x="49.6999969482" xlink:href="#SourceSansPro-Regular-2e"/>
       <use x="74.5999908447" xlink:href="#SourceSansPro-Regular-30"/>
      </g>
     </g>
    </g>
    <g id="text_14">
     <!-- Population -->
     <defs>
      <path d="M 16.90625 -1.203125 
C 19.09375 -1.203125 20.5 -0.90625 21.59375 -0.40625 
L 20.5 5.796875 
C 19.59375 5.59375 19.203125 5.59375 18.703125 5.59375 
C 17.5 5.59375 16.40625 6.59375 16.40625 9.203125 
L 16.40625 71.203125 
L 8.203125 71.203125 
L 8.203125 9.796875 
C 8.203125 2.703125 10.703125 -1.203125 16.90625 -1.203125 
" id="SourceSansPro-Regular-6c"/>
      <path d="M 27.09375 -1.203125 
C 39 -1.203125 49.59375 8.09375 49.59375 24.203125 
C 49.59375 40.5 39 49.796875 27.09375 49.796875 
C 15.203125 49.796875 4.59375 40.5 4.59375 24.203125 
C 4.59375 8.09375 15.203125 -1.203125 27.09375 -1.203125 
M 27.09375 5.59375 
C 18.796875 5.59375 13.09375 13.09375 13.09375 24.203125 
C 13.09375 35.40625 18.796875 43 27.09375 43 
C 35.5 43 41.09375 35.40625 41.09375 24.203125 
C 41.09375 13.09375 35.5 5.59375 27.09375 5.59375 
" id="SourceSansPro-Regular-6f"/>
      <path d="M 8.203125 0 
L 16.40625 0 
L 16.40625 35.203125 
C 21.296875 40.09375 24.703125 42.703125 29.703125 42.703125 
C 36.09375 42.703125 38.90625 38.796875 38.90625 29.703125 
L 38.90625 0 
L 47.09375 0 
L 47.09375 30.796875 
C 47.09375 43.203125 42.5 49.796875 32.296875 49.796875 
C 25.59375 49.796875 20.59375 46.203125 16 41.59375 
L 15.703125 41.59375 
L 15 48.59375 
L 8.203125 48.59375 
z
" id="SourceSansPro-Regular-6e"/>
      <path d="M 8.203125 -20.5 
L 16.40625 -20.5 
L 16.40625 -4.09375 
L 16.203125 4.40625 
C 20.703125 0.90625 25.203125 -1.203125 29.703125 -1.203125 
C 40.796875 -1.203125 50.703125 8.5 50.703125 25 
C 50.703125 40.09375 44 49.796875 31.5 49.796875 
C 25.796875 49.796875 20.40625 46.703125 16 43 
L 15.703125 43 
L 15 48.59375 
L 8.203125 48.59375 
z
M 28.296875 5.703125 
C 25.09375 5.703125 20.796875 7.09375 16.40625 10.796875 
L 16.40625 36.296875 
C 21.203125 40.59375 25.296875 42.90625 29.40625 42.90625 
C 38.59375 42.90625 42.203125 35.703125 42.203125 25 
C 42.203125 13 36.296875 5.703125 28.296875 5.703125 
" id="SourceSansPro-Regular-70"/>
      <path d="M 19.40625 -1.203125 
C 25.5 -1.203125 30.90625 2 35.5 5.796875 
L 35.796875 5.796875 
L 36.5 0 
L 43.296875 0 
L 43.296875 29.796875 
C 43.296875 41.90625 38.296875 49.796875 26.40625 49.796875 
C 18.59375 49.796875 11.796875 46.40625 7.296875 43.5 
L 10.5 37.796875 
C 14.296875 40.40625 19.40625 43 25 43 
C 33 43 35 37 35 30.796875 
C 14.296875 28.5 5.203125 23.203125 5.203125 12.59375 
C 5.203125 3.90625 11.296875 -1.203125 19.40625 -1.203125 
M 21.796875 5.40625 
C 17 5.40625 13.203125 7.703125 13.203125 13.203125 
C 13.203125 19.40625 18.796875 23.40625 35 25.40625 
L 35 11.90625 
C 30.296875 7.703125 26.5 5.40625 21.796875 5.40625 
" id="SourceSansPro-Regular-61"/>
      <path d="M 23.5 -1.203125 
C 26.5 -1.203125 29.796875 -0.296875 32.5 0.59375 
L 30.90625 6.796875 
C 29.296875 6.203125 27.09375 5.5 25.40625 5.5 
C 19.796875 5.5 17.90625 8.90625 17.90625 14.90625 
L 17.90625 41.90625 
L 31 41.90625 
L 31 48.59375 
L 17.90625 48.59375 
L 17.90625 62.203125 
L 11 62.203125 
L 10 48.59375 
L 2.40625 48.09375 
L 2.40625 41.90625 
L 9.59375 41.90625 
L 9.59375 15 
C 9.59375 5.40625 13.09375 -1.203125 23.5 -1.203125 
" id="SourceSansPro-Regular-74"/>
      <path d="M 22.40625 -1.203125 
C 29.09375 -1.203125 33.90625 2.296875 38.40625 7.59375 
L 38.703125 7.59375 
L 39.40625 0 
L 46.203125 0 
L 46.203125 48.59375 
L 38 48.59375 
L 38 14.09375 
C 33.40625 8.40625 29.90625 5.90625 24.90625 5.90625 
C 18.5 5.90625 15.796875 9.796875 15.796875 18.90625 
L 15.796875 48.59375 
L 7.5 48.59375 
L 7.5 17.796875 
C 7.5 5.40625 12.09375 -1.203125 22.40625 -1.203125 
" id="SourceSansPro-Regular-75"/>
      <path d="M 9 0 
L 17.296875 0 
L 17.296875 26 
L 28.09375 26 
C 42.5 26 52.296875 32.5 52.296875 46.296875 
C 52.296875 60.703125 42.40625 65.59375 27.703125 65.59375 
L 9 65.59375 
z
M 17.296875 32.796875 
L 17.296875 58.90625 
L 26.703125 58.90625 
C 38.203125 58.90625 44 55.796875 44 46.296875 
C 44 37 38.5 32.796875 27.09375 32.796875 
z
" id="SourceSansPro-Regular-50"/>
     </defs>
     <g style="fill:#555555;" transform="translate(25.4871875 168.234375)rotate(-90.0)scale(0.12 -0.12)">
      <use xlink:href="#SourceSansPro-Regular-50"/>
      <use x="56.5999908447" xlink:href="#SourceSansPro-Regular-6f"/>
      <use x="110.799987793" xlink:href="#SourceSansPro-Regular-70"/>
      <use x="166.299972534" xlink:href="#SourceSansPro-Regular-75"/>
      <use x="220.699966431" xlink:href="#SourceSansPro-Regular-6c"/>
      <use x="246.199951172" xlink:href="#SourceSansPro-Regular-61"/>
      <use x="296.599945068" xlink:href="#SourceSansPro-Regular-74"/>
      <use x="330.399932861" xlink:href="#SourceSansPro-Regular-69"/>
      <use x="354.999923706" xlink:href="#SourceSansPro-Regular-6f"/>
      <use x="409.199920654" xlink:href="#SourceSansPro-Regular-6e"/>
     </g>
    </g>
   </g>
   <g id="line2d_37">
    <path clip-path="url(#pfb3a11b9f5)" d="M 54 252 
L 54.558 251.808549 
L 55.116 251.234852 
L 55.674 250.280878 
L 56.232 248.9499 
L 56.79 247.246484 
L 57.906 242.746976 
L 59.022 236.844053 
L 60.138 229.618657 
L 61.254 221.169865 
L 62.928 206.460439 
L 64.602 189.71578 
L 66.834 165.122365 
L 73.53 88.90303 
L 75.204 72.385056 
L 76.878 57.962531 
L 77.994 49.734163 
L 79.11 42.749035 
L 80.226 37.10293 
L 81.342 32.873267 
L 81.9 31.30851 
L 82.458 30.118047 
L 83.016 29.305965 
L 83.574 28.87505 
L 84.132 28.826779 
L 84.69 29.161319 
L 85.248 29.877522 
L 85.806 30.97293 
L 86.364 32.443785 
L 87.48 36.49038 
L 88.596 41.961817 
L 89.712 48.783072 
L 90.828 56.860608 
L 92.502 71.085807 
L 94.176 87.446482 
L 96.408 111.703809 
L 104.22 199.690877 
L 105.894 215.308781 
L 107.568 228.618848 
L 108.684 236.004269 
L 109.8 242.078733 
L 110.916 246.758944 
L 112.032 249.980727 
L 112.59 251.030102 
L 113.148 251.699902 
L 113.706 251.98783 
L 114.264 251.892896 
L 114.822 251.415428 
L 115.38 250.557063 
L 115.938 249.320747 
L 116.496 247.71072 
L 117.612 243.392897 
L 118.728 237.662801 
L 119.844 230.599006 
L 120.96 222.298372 
L 122.634 207.781591 
L 124.308 191.188874 
L 126.54 166.726841 
L 133.794 84.615826 
L 135.468 68.574893 
L 137.142 54.746793 
L 138.258 46.971012 
L 139.374 40.47636 
L 140.49 35.351894 
L 141.606 31.667883 
L 142.164 30.382626 
L 142.722 29.474842 
L 143.28 28.947645 
L 143.838 28.802844 
L 144.396 29.040935 
L 144.954 29.661102 
L 145.512 30.661217 
L 146.07 32.037849 
L 146.628 33.786274 
L 147.744 38.373254 
L 148.86 44.359257 
L 149.976 51.662204 
L 151.092 60.181952 
L 152.766 74.983349 
L 154.44 91.800144 
L 156.672 116.455143 
L 163.368 192.602442 
L 165.042 209.04483 
L 166.716 223.372365 
L 167.832 231.528047 
L 168.948 238.434152 
L 170.064 243.99598 
L 171.18 248.137265 
L 171.738 249.656675 
L 172.296 250.801222 
L 172.854 251.56698 
L 173.412 251.951321 
L 173.97 251.952926 
L 174.528 251.571791 
L 175.086 250.809222 
L 175.644 249.667837 
L 176.202 248.151551 
L 177.318 244.016354 
L 178.434 238.460336 
L 179.55 231.559682 
L 180.666 223.409017 
L 182.34 209.088046 
L 184.014 192.65089 
L 186.246 168.325575 
L 193.5 86.049359 
L 195.174 69.844142 
L 196.848 55.812656 
L 197.964 47.88261 
L 199.08 41.221193 
L 200.196 35.919748 
L 201.312 32.050972 
L 201.87 30.671201 
L 202.428 29.667913 
L 202.986 29.044549 
L 203.544 28.803248 
L 204.102 28.944839 
L 204.66 29.468836 
L 205.218 30.37344 
L 205.776 31.655548 
L 206.334 33.310761 
L 207.45 37.716525 
L 208.566 43.530318 
L 209.682 50.672421 
L 210.798 59.044898 
L 212.472 73.655196 
L 214.146 90.321811 
L 216.378 114.848018 
L 223.632 196.872756 
L 225.306 212.833024 
L 226.98 226.561729 
L 228.096 234.262333 
L 229.212 240.675865 
L 230.328 245.714382 
L 231.444 249.308793 
L 232.002 250.548263 
L 232.56 251.409811 
L 233.118 251.890482 
L 233.676 251.988626 
L 234.234 251.703906 
L 234.792 251.0373 
L 235.35 249.991095 
L 235.908 248.56888 
L 237.024 244.617212 
L 238.14 239.236483 
L 239.256 232.500476 
L 240.372 224.501556 
L 242.046 210.37952 
L 243.72 194.10151 
L 245.952 169.918217 
L 253.764 81.83223 
L 255.438 66.124571 
L 257.112 52.705236 
L 258.228 45.23777 
L 259.344 39.0752 
L 260.46 34.302029 
L 261.576 30.983709 
L 262.134 29.885135 
L 262.692 29.16574 
L 263.25 28.827993 
L 263.808 28.873053 
L 264.366 29.300764 
L 264.924 30.10966 
L 265.482 31.296965 
L 266.04 32.858605 
L 267.156 37.082192 
L 268.272 42.722508 
L 269.388 49.702209 
L 270.504 57.925589 
L 272.178 72.341601 
L 273.852 88.8544 
L 276.084 113.246465 
L 283.338 195.445066 
L 285.012 211.571313 
L 286.686 225.504868 
L 287.802 233.36056 
L 288.918 239.941547 
L 290.034 245.157588 
L 291.15 248.937158 
L 291.708 250.271279 
L 292.266 251.22843 
L 292.824 251.805326 
L 293.382 251.999987 
L 293.94 251.811745 
L 294.498 251.241247 
L 295.056 250.29045 
L 295.614 248.962616 
L 296.172 247.262301 
L 297.288 242.76882 
L 298.404 236.871625 
L 299.52 229.651579 
L 300.636 221.207686 
L 302.31 206.504615 
L 303.984 189.764952 
L 306.216 165.175822 
L 312.912 88.951672 
L 314.586 72.428528 
L 316.26 57.999493 
L 317.376 49.766139 
L 318.492 42.775586 
L 319.608 37.123692 
L 320.724 32.887956 
L 321.282 31.320081 
L 321.84 30.126461 
L 322.398 29.311193 
L 322.956 28.877073 
L 323.514 28.825592 
L 324.072 29.156925 
L 324.63 29.869935 
L 325.188 30.962178 
L 325.746 32.429904 
L 326.862 36.470394 
L 327.978 41.936001 
L 329.094 48.751779 
L 330.21 56.824268 
L 331.884 71.04285 
L 333.558 87.398232 
L 335.79 111.650835 
L 343.602 199.644425 
L 345.276 215.268136 
L 346.95 228.585261 
L 348.066 235.975977 
L 349.182 242.056124 
L 350.298 246.742329 
L 351.414 249.970332 
L 351.972 251.022876 
L 352.53 251.695871 
L 353.088 251.987006 
L 353.646 251.895284 
L 354.204 251.421019 
L 354.762 250.565837 
L 355.32 249.332674 
L 355.878 247.72576 
L 356.994 243.413996 
L 358.11 237.689671 
L 359.226 230.631277 
L 360.342 222.335603 
L 362.016 207.825283 
L 363.69 191.237683 
L 365.922 166.780112 
L 373.176 84.663314 
L 374.85 68.61686 
L 376.524 54.781946 
L 377.64 47.001007 
L 378.756 40.500785 
L 379.872 35.370414 
L 380.988 31.680244 
L 381.546 30.391839 
L 382.104 29.480875 
L 382.662 28.950477 
L 383.22 28.802466 
L 383.778 29.037348 
L 384.336 29.654319 
L 384.894 30.65126 
L 385.452 32.024753 
L 386.01 33.770083 
L 387.126 38.351051 
L 388.242 44.331348 
L 388.8 47.821339 
L 388.8 47.821339 
" style="fill:none;stroke:#d55e00;stroke-linecap:square;stroke-width:1.5;"/>
   </g>
   <g id="patch_3">
    <path d="M 54 28.8 
L 388.8 28.8 
" style="fill:none;stroke:#ffffff;stroke-linecap:square;stroke-linejoin:miter;"/>
   </g>
   <g id="patch_4">
    <path d="M 388.8 252 
L 388.8 28.8 
" style="fill:none;stroke:#ffffff;stroke-linecap:square;stroke-linejoin:miter;"/>
   </g>
   <g id="patch_5">
    <path d="M 54 252 
L 388.8 252 
" style="fill:none;stroke:#ffffff;stroke-linecap:square;stroke-linejoin:miter;"/>
   </g>
   <g id="patch_6">
    <path d="M 54 252 
L 54 28.8 
" style="fill:none;stroke:#ffffff;stroke-linecap:square;stroke-linejoin:miter;"/>
   </g>
  </g>
 </g>
 <defs>
  <clipPath id="pfb3a11b9f5">
   <rect height="223.2" width="334.8" x="54.0" y="28.8"/>
  </clipPath>
 </defs>
</svg>
